<svg xmlns="http://www.w3.org/2000/svg" width="105.405" height="171.375" viewBox="0 0 105.405 171.375"><g transform="translate(12388.382 17993.082)"><path d="M43.181,5.987a3.294,3.294,0,0,0-3.242,3.339V25.8H26.763A16.522,16.522,0,0,0,10.294,42.265v9.882a3.294,3.294,0,1,0,0,6.588v79.053a3.294,3.294,0,1,0,0,6.588v9.881a16.522,16.522,0,0,0,16.469,16.469v3.294c-.063,4.454,6.651,4.454,6.588,0v-3.294h52.7v3.294c-.063,4.454,6.651,4.454,6.588,0v-3.294a16.522,16.522,0,0,0,16.469-16.469v-9.882a3.294,3.294,0,1,0,0-6.588V58.734a3.294,3.294,0,1,0,0-6.588V42.265A16.522,16.522,0,0,0,92.641,25.8H79.465V9.326a3.294,3.294,0,1,0-6.588,0V25.8H63V19.207h1.647a3.294,3.294,0,1,0,0-6.588H63a3.294,3.294,0,1,0-6.588,0H54.761a3.294,3.294,0,1,0,0,6.588h1.647V25.8H46.527V9.326a3.294,3.294,0,0,0-3.345-3.339Zm-16.418,26.4H92.641a9.84,9.84,0,0,1,9.882,9.882v9.882H16.881V42.265A9.84,9.84,0,0,1,26.763,32.383ZM16.881,58.734h85.641v79.053H16.881ZM67.067,75.943a3.294,3.294,0,0,0-3.146,2.921s-1.332,7.959-5.14,11.259a18.462,18.462,0,0,1-6.774,3.66,28.557,28.557,0,0,0-8.318,3.9,17.938,17.938,0,0,0-6.169,8.749,18.292,18.292,0,0,0-.991,8.621,3.294,3.294,0,1,0,6.5-1.016,13.431,13.431,0,0,1,.721-5.469A11.556,11.556,0,0,1,47.594,103,22.922,22.922,0,0,1,54.175,100a25.747,25.747,0,0,0,8.917-4.9s0,0,0-.006a19.126,19.126,0,0,0,3.963-4.851c.456,3.963.023,7.87-3.86,10.808s-5.666,6.925-5.172,10.493a8.879,8.879,0,0,0,6.414,7.36,10.268,10.268,0,0,0,7.958-1.036,13.59,13.59,0,0,0,1.531-1.435c-.142.449.082.475-.129.984a3.294,3.294,0,1,0,6.086,2.509c1.88-4.555,1.835-8.311,1.081-10.918a10.81,10.81,0,0,0-2.419-4.265,3.294,3.294,0,0,0-5.314,1.2c-1.554,3.963-3.158,5.632-4.233,6.279a3.138,3.138,0,0,1-2.818.322,2.317,2.317,0,0,1-1.628-1.911c-.133-.961.1-2.427,2.612-4.33,6.656-5.036,7.369-12.812,6.389-18.528a35.054,35.054,0,0,0-3.48-10.152,3.294,3.294,0,0,0-3-1.692ZM16.881,144.374h85.641v9.882a9.84,9.84,0,0,1-9.882,9.882H26.763a9.84,9.84,0,0,1-9.882-9.882Z" transform="translate(-12395.382 -17999.068)" fill="#e4e4e4" opacity="0.197"/></g></svg>