<svg xmlns="http://www.w3.org/2000/svg" width="116.005" height="180.008" viewBox="0 0 116.005 180.008"><g transform="translate(13069.955 17990.014)"><g transform="translate(-13069.955 -17990.014)" opacity="0.2"><path d="M57,46A14,14,0,1,1,71,32,14.017,14.017,0,0,1,57,46Zm0-20a6,6,0,1,0,6,6A6.008,6.008,0,0,0,57,26Z" transform="translate(1.002 8.001)" fill="#e4e4e4"/><path d="M57,81H37a4,4,0,1,1,0-8H57a4,4,0,1,1,0,8Z" transform="translate(-8.999 63.006)" fill="#e4e4e4"/><path d="M59,81H55a4,4,0,1,1,0-8h4a4,4,0,1,1,0,8Z" transform="translate(9.003 63.006)" fill="#e4e4e4"/><path d="M69,81H65a4,4,0,1,1,0-8h4a4,4,0,1,1,0,8Z" transform="translate(19.003 63.006)" fill="#e4e4e4"/><path d="M121.008,5H37A16.045,16.045,0,0,0,21,21V153.01a16.045,16.045,0,0,0,16,16H65v12a4,4,0,0,0,8,0v-12H85v12a4,4,0,0,0,8,0v-12h28.005a16.045,16.045,0,0,0,16-16V21A16.045,16.045,0,0,0,121.008,5Zm8,148.01a8.007,8.007,0,0,1-8,8H37a8.005,8.005,0,0,1-8-8V21a8.005,8.005,0,0,1,8-8h84.012a8.007,8.007,0,0,1,8,8Z" transform="translate(-21 -5)" fill="#e4e4e4"/></g></g></svg>