<svg xmlns="http://www.w3.org/2000/svg" width="145.853" height="221.326" viewBox="0 0 145.853 221.326"><g transform="translate(0 -0.001)" opacity="0.1"><g transform="translate(0 0.001)"><path d="M171.2,9.4H32.793A3.9,3.9,0,0,0,28.9,13.293V217.879a3.9,3.9,0,0,0,3.893,3.893h14.6v6.813a2.141,2.141,0,0,0,4.282,0v-6.813h5.061v6.813a2.141,2.141,0,0,0,4.282,0v-6.813H142.58v6.813a2.141,2.141,0,1,0,4.282,0v-6.813h5.061v6.813a2.141,2.141,0,1,0,4.282,0v-6.813h14.6a3.9,3.9,0,0,0,3.893-3.893V13.293A3.3,3.3,0,0,0,171.2,9.4ZM36.686,118.409H167.3v32.508H36.686ZM167.3,17.186v96.94H36.686V17.186ZM36.686,213.791v-58.4H167.3v58.592H36.686Z" transform="translate(-28.9 -9.4)" fill="#fff"/><path d="M75.487,89.6a18.785,18.785,0,0,0,0,37.569,18.785,18.785,0,1,0,0-37.569Zm0,33.092a14.4,14.4,0,1,1,14.4-14.4A14.372,14.372,0,0,1,75.487,122.692Z" transform="translate(-2.49 66.516)" fill="#fff"/><path d="M70.754,69.1a8.954,8.954,0,1,0,8.954,8.954A8.809,8.809,0,0,0,70.754,69.1Zm0,13.626a4.672,4.672,0,1,1,4.672-4.672A4.737,4.737,0,0,1,70.754,82.726Z" transform="translate(2.243 47.111)" fill="#fff"/></g></g></svg>