<svg xmlns="http://www.w3.org/2000/svg" width="67.411" height="67.41" viewBox="0 0 67.411 67.41"><g transform="translate(-96.254 -26.25)" opacity="0.75"><path d="M162.5,35.548H150.2l1.5-1.5a1.162,1.162,0,0,0,0-1.644l-5.81-5.81a1.179,1.179,0,0,0-.823-.341h-20.92a1.162,1.162,0,0,0,0,2.325h18.115l-6.974,6.974H124.629l-8.958-8.958a1.162,1.162,0,0,0-1.644,0L108.217,32.4a1.162,1.162,0,0,0,0,1.644l1.5,1.5h-12.3a1.162,1.162,0,0,0-1.162,1.162v5.811a1.162,1.162,0,1,0,2.324,0V37.873h13.466l5.471,5.471a1.162,1.162,0,0,0,1.644,0l2.084-2.084,7.38,7.38L118.4,78.17a1.164,1.164,0,0,0,.169,1.078l2.092,2.789H98.579V49.495a1.162,1.162,0,1,0-2.325,0V83.2a1.162,1.162,0,0,0,1.162,1.162H122.4l6.625,8.833a1.162,1.162,0,0,0,1.86,0l10.46-13.947a1.164,1.164,0,0,0,.169-1.078L131.3,48.64l7.38-7.38,2.084,2.084a1.162,1.162,0,0,0,1.644,0l5.471-5.471h13.466V82.038H146.231a1.162,1.162,0,1,0,0,2.324H162.5a1.162,1.162,0,0,0,1.162-1.162V36.71a1.162,1.162,0,0,0-1.162-1.162Zm-44.166,5.33-7.654-7.654,4.167-4.168L122.5,36.71Zm11.623,49.683L120.8,78.348l9.159-26.462,9.159,26.462Zm0-43.872-7.073-7.073,1.743-1.743h10.66l1.743,1.743Zm11.622-5.811-4.167-4.167,7.654-7.654,4.167,4.168Z" transform="translate(0 0)"/><path d="M464.912,212.324h6.974a1.162,1.162,0,1,0,0-2.325h-6.974a1.162,1.162,0,0,0,0,2.325Z" transform="translate(-318.682 -159.343)"/></g></svg>