<svg xmlns="http://www.w3.org/2000/svg" xmlns:xlink="http://www.w3.org/1999/xlink" width="269.226" height="81.463" viewBox="0 0 269.226 81.463"><defs><clipPath id="a"><rect width="267.445" height="81.463" fill="none"/></clipPath><clipPath id="b"><rect width="239.531" height="81.463" transform="translate(0)" fill="none"/></clipPath></defs><g transform="translate(0 0.001)"><g transform="translate(0 -0.001)"><g clip-path="url(#a)"><path d="M81.463,40.731A40.731,40.731,0,1,1,40.731,0,40.732,40.732,0,0,1,81.463,40.731" transform="translate(0 0.001)" fill="#2cab67"/><path d="M68.282,29.724l-23.433-.009L41.924,20.7,37.613,7.428,30.36,29.705,6.935,29.7,22.284,40.858l3.6,2.618-1.424,4.378L18.634,65.763,37.595,52,56.546,65.772,49.321,43.487Z" transform="translate(2.318 2.483)" fill="#fff"/></g></g><text transform="translate(99.417 50.731)" fill="#010000" font-size="32" font-family="SourceSansPro-Bold, Source Sans Pro" font-weight="700"><tspan x="0" y="0">Kali</tspan><tspan y="0" letter-spacing="-0.018em">t</tspan><tspan y="0">e</tspan></text><text transform="translate(195.152 25.101)" fill="#010000" font-size="12" font-family="SourceSansPro-Semibold, Source Sans Pro" font-weight="600"><tspan x="0" y="0"> </tspan></text><g transform="translate(29.695 -0.001)"><g clip-path="url(#b)"><text transform="translate(160.531 50.732)" fill="#2cab67" font-size="32" font-family="SourceSansPro-Semibold, Source Sans Pro" font-weight="600"><tspan x="0" y="0">Puanı</tspan></text></g></g></g></svg>