<svg xmlns="http://www.w3.org/2000/svg" width="155.812" height="253.33" viewBox="0 0 155.812 253.33"><path d="M60.484,5.987a4.87,4.87,0,0,0-4.793,4.936V35.268H36.215A24.423,24.423,0,0,0,11.869,59.614V74.221a4.869,4.869,0,1,0,0,9.739V200.818a4.869,4.869,0,1,0,0,9.739v14.607a24.423,24.423,0,0,0,24.346,24.346v4.869c-.093,6.584,9.831,6.584,9.738,0v-4.869h77.906v4.869c-.093,6.584,9.831,6.584,9.738,0v-4.869a24.423,24.423,0,0,0,24.346-24.346V210.556a4.869,4.869,0,1,0,0-9.739V83.959a4.869,4.869,0,1,0,0-9.739V59.614A24.423,24.423,0,0,0,133.6,35.268H114.12V10.923a4.87,4.87,0,1,0-9.738,0V35.268H89.775V25.53h2.435a4.869,4.869,0,1,0,0-9.739H89.775a4.87,4.87,0,1,0-9.738,0H77.6a4.869,4.869,0,1,0,0,9.739h2.435v9.738H65.429V10.923a4.87,4.87,0,0,0-4.945-4.936Zm-24.27,39.02H133.6A14.545,14.545,0,0,1,148.2,59.614V74.221H21.607V59.614A14.545,14.545,0,0,1,36.215,45.006ZM21.607,83.959H148.2V200.818H21.607ZM95.793,109.4a4.87,4.87,0,0,0-4.65,4.318s-1.969,11.765-7.6,16.643a27.289,27.289,0,0,1-10.014,5.411c-3.583,1.25-7.887,2.527-12.3,5.772a26.517,26.517,0,0,0-9.12,12.933,27.04,27.04,0,0,0-1.465,12.743,4.87,4.87,0,1,0,9.615-1.5,19.854,19.854,0,0,1,1.065-8.084,17.083,17.083,0,0,1,5.677-8.245c2.967-2.184,5.894-3.085,9.728-4.422a38.06,38.06,0,0,0,13.181-7.237s0-.006,0-.01a28.271,28.271,0,0,0,5.858-7.171c.674,5.858.034,11.634-5.706,15.977s-8.376,10.237-7.646,15.511a13.126,13.126,0,0,0,9.482,10.88,15.179,15.179,0,0,0,11.764-1.531,20.087,20.087,0,0,0,2.263-2.121c-.21.663.12.7-.19,1.455a4.87,4.87,0,1,0,9,3.709c2.78-6.733,2.712-12.285,1.6-16.139a15.979,15.979,0,0,0-3.576-6.305,4.87,4.87,0,0,0-7.855,1.778c-2.3,5.858-4.668,8.326-6.258,9.281a4.639,4.639,0,0,1-4.165.476,3.425,3.425,0,0,1-2.406-2.824c-.2-1.421.143-3.587,3.861-6.4,9.839-7.444,10.893-18.938,9.444-27.389a51.817,51.817,0,0,0-5.145-15.007,4.87,4.87,0,0,0-4.441-2.5ZM21.607,210.554H148.2v14.607A14.545,14.545,0,0,1,133.6,239.769H36.215a14.545,14.545,0,0,1-14.607-14.607Z" transform="translate(-7 -5.986)" fill="#fff" opacity="0.1"/></svg>