<svg xmlns="http://www.w3.org/2000/svg" width="157.854" height="244.945" viewBox="0 0 157.854 244.945"><g transform="translate(0 0.001)" opacity="0.1"><path d="M62.051,56.1A19.051,19.051,0,1,1,81.1,37.051,19.074,19.074,0,0,1,62.051,56.1Zm0-27.216a8.165,8.165,0,1,0,8.165,8.165A8.175,8.175,0,0,0,62.051,28.886Z" transform="translate(16.876 17.38)" fill="#fff"/><path d="M65.659,83.886H38.443a5.443,5.443,0,1,1,0-10.886H65.659a5.443,5.443,0,0,1,0,10.886Z" transform="translate(-0.34 112.069)" fill="#fff"/><path d="M61.886,83.886H56.443a5.443,5.443,0,1,1,0-10.886h5.443a5.443,5.443,0,1,1,0,10.886Z" transform="translate(30.649 112.069)" fill="#fff"/><path d="M71.886,83.886H66.443a5.443,5.443,0,1,1,0-10.886h5.443a5.443,5.443,0,1,1,0,10.886Z" transform="translate(47.865 112.069)" fill="#fff"/><path d="M157.086,5H42.767A21.833,21.833,0,0,0,21,26.768V206.405a21.833,21.833,0,0,0,21.767,21.768H80.876V244.5a5.443,5.443,0,1,0,10.886,0v-16.33h16.33V244.5a5.443,5.443,0,1,0,10.886,0v-16.33h38.108a21.833,21.833,0,0,0,21.768-21.768V26.768A21.833,21.833,0,0,0,157.086,5Zm10.881,201.405a10.9,10.9,0,0,1-10.881,10.881H42.767a10.893,10.893,0,0,1-10.881-10.881V26.768A10.893,10.893,0,0,1,42.767,15.886H157.086a10.9,10.9,0,0,1,10.881,10.881Z" transform="translate(-21 -5.001)" fill="#fff"/></g></svg>