<svg xmlns="http://www.w3.org/2000/svg" width="125.985" height="94.369" viewBox="0 0 125.985 94.369"><path d="M81.609,53.244h1.848a5.264,5.264,0,0,0,.963-.091,2.712,2.712,0,0,0,.873-.319,1.822,1.822,0,0,0,.621-.594,1.625,1.625,0,0,0,.236-.9,1.821,1.821,0,0,0-.224-.951,1.642,1.642,0,0,0-.594-.581,2.309,2.309,0,0,0-.845-.277,6.925,6.925,0,0,0-.978-.065h-1.9Zm0-7.58h1.768a5.534,5.534,0,0,0,.938-.078,2.684,2.684,0,0,0,.832-.279,1.577,1.577,0,0,0,.594-.541,1.548,1.548,0,0,0,.226-.87,1.442,1.442,0,0,0-.739-1.413,3.611,3.611,0,0,0-1.693-.385H81.609Zm-6.657-7.052h11.6a12.876,12.876,0,0,1,2.336.211,6.081,6.081,0,0,1,2.035.739,4.2,4.2,0,0,1,1.426,1.4,4.093,4.093,0,0,1,.541,2.19,4.244,4.244,0,0,1-.976,2.973,5.6,5.6,0,0,1-2.827,1.544v.053a5.222,5.222,0,0,1,1.73.543,4.737,4.737,0,0,1,1.308.988,4.425,4.425,0,0,1,.817,1.283,3.59,3.59,0,0,1,.292,1.386,5.122,5.122,0,0,1-.646,2.761,4.251,4.251,0,0,1-1.705,1.544,7.079,7.079,0,0,1-2.429.674,26.938,26.938,0,0,1-2.8.146h-10.7Z" transform="translate(-74.952 26.894)" fill="#85c6ee"/><path d="M90.715,49.547a6.5,6.5,0,0,0,.106,1.215,2.809,2.809,0,0,0,.357.963,1.814,1.814,0,0,0,.674.649,2.131,2.131,0,0,0,1.056.236,2.425,2.425,0,0,0,1.122-.224,1.711,1.711,0,0,0,.687-.621,2.539,2.539,0,0,0,.345-.951,7.709,7.709,0,0,0,.093-1.24V38.612h6.918V49.441a9.507,9.507,0,0,1-.659,3.765,6.042,6.042,0,0,1-1.876,2.442,7.59,7.59,0,0,1-2.92,1.32,16.749,16.749,0,0,1-3.79.4,15.22,15.22,0,0,1-3.6-.41,8.17,8.17,0,0,1-2.92-1.32,6.377,6.377,0,0,1-1.954-2.351,7.755,7.755,0,0,1-.712-3.473v-11.2h7.077Z" transform="translate(-61.794 26.894)" fill="#0090d7"/><path d="M99.2,46.667h1.848a10.454,10.454,0,0,0,1.069-.053,2.451,2.451,0,0,0,.913-.264,1.714,1.714,0,0,0,.646-.606,2.058,2.058,0,0,0,.252-1.109,1.839,1.839,0,0,0-.239-1,1.588,1.588,0,0,0-.621-.568,2.594,2.594,0,0,0-.883-.264,7.692,7.692,0,0,0-1.031-.068H99.2Zm-6.762-8.055h11.438a15.322,15.322,0,0,1,2.985.264,6.476,6.476,0,0,1,2.243.858,4.012,4.012,0,0,1,1.413,1.534,4.808,4.808,0,0,1,.488,2.258,4.276,4.276,0,0,1-1.215,3.262A6.886,6.886,0,0,1,106.6,48.41v.053a4.736,4.736,0,0,1,1.886.727,4.9,4.9,0,0,1,1.23,1.255,7.271,7.271,0,0,1,.621,1.612q.223.871.382,1.755t.3,1.73a6.394,6.394,0,0,0,.435,1.506h-7.369a8.564,8.564,0,0,1-.211-1.23c-.053-.483-.116-.986-.186-1.5s-.148-1.008-.236-1.466a4.356,4.356,0,0,0-.345-1.109,1.422,1.422,0,0,0-.832-.792,3.986,3.986,0,0,0-1.174-.158H99.517v6.26H92.438Z" transform="translate(-48.463 26.894)" fill="#006ec6"/><path d="M116.548,43.848a16.546,16.546,0,0,0-2.573-.674,16.35,16.35,0,0,0-2.892-.251c-.284,0-.6.01-.953.028a4.844,4.844,0,0,0-.988.146,2.164,2.164,0,0,0-.78.355.811.811,0,0,0-.317.689.933.933,0,0,0,.712.883,10.566,10.566,0,0,0,1.8.49c.722.141,1.5.3,2.339.488a8.689,8.689,0,0,1,2.336.873,4.71,4.71,0,0,1,2.51,4.5,5.229,5.229,0,0,1-.832,3.051,5.906,5.906,0,0,1-2.125,1.889,9.625,9.625,0,0,1-2.892.963,18.192,18.192,0,0,1-3.131.279,32.872,32.872,0,0,1-3.83-.211,36.318,36.318,0,0,1-3.775-.661V51.9a14.572,14.572,0,0,0,3.088.913,18.214,18.214,0,0,0,3.249.3,10.17,10.17,0,0,0,1.2-.065,4.348,4.348,0,0,0,1-.224,2.1,2.1,0,0,0,.7-.4.752.752,0,0,0,.264-.581.828.828,0,0,0-.422-.739,4.159,4.159,0,0,0-1.094-.448q-.675-.185-1.547-.345t-1.783-.41a13.729,13.729,0,0,1-1.783-.621,5.157,5.157,0,0,1-1.544-1,4.892,4.892,0,0,1-1.1-1.557,5.448,5.448,0,0,1-.423-2.271,4.979,4.979,0,0,1,.885-3.078,5.827,5.827,0,0,1,2.271-1.808,10.826,10.826,0,0,1,3.063-.86,24.81,24.81,0,0,1,3.262-.224,28.69,28.69,0,0,1,3.078.171q1.569.174,3.023.463Z" transform="translate(-35.544 26.703)" fill="#006ec6"/><path d="M117.429,48.621h4.094l-2.007-6.048h-.053Zm-2.693-10.009h9.748l6.576,18.437h-7.424l-1.215-3.989h-5.968l-1.137,3.989h-7.052Z" transform="translate(-24.487 26.894)" fill="#0090d7"/><path d="M130.681,51.4v5.652H123.6V51.4l-6.841-12.783h7.686l2.879,7.712h.053l2.905-7.712H137.6Z" transform="translate(-11.616 26.894)" fill="#85c6ee"/><path d="M83.774,53.011l-1.607-4v4H80.889v-4.9h2.376l1.143,2.933,1.2-2.933h2.383v4.9H86.456v-4l-1.638,4Z" transform="translate(-65.959 41.283)" fill="#b2b2b2"/><path d="M90.8,48.11v3.053a2.131,2.131,0,0,1-.224,1.1,1.614,1.614,0,0,1-.83.594,4.375,4.375,0,0,1-1.542.231,4.315,4.315,0,0,1-1.5-.209,1.722,1.722,0,0,1-.832-.591,1.9,1.9,0,0,1-.277-1.124V48.11h1.655v3.053a1.445,1.445,0,0,0,.088.581.629.629,0,0,0,.355.3,1.7,1.7,0,0,0,.651.108,1.933,1.933,0,0,0,.7-.106.651.651,0,0,0,.36-.287,1.457,1.457,0,0,0,.088-.594V48.11Z" transform="translate(-58.819 41.282)" fill="#b2b2b2"/><path d="M94.579,48.11v4.9h-1.5V50.99H91.049v2.021h-1.5v-4.9h1.5v1.91h2.033V48.11Z" transform="translate(-52.837 41.283)" fill="#b2b2b2"/><path d="M98.121,49.044h-3.1v1.005h2.438v.923H95.019v1.07h3.1v.969H93.469v-4.9h4.652Z" transform="translate(-46.901 41.283)" fill="#b2b2b2"/><path d="M102.092,48.11v4.9h-1.3L98.241,49.7q0,.124.008.166a1.468,1.468,0,0,1,.02.211v2.932H97.082v-4.9h1.642L100.94,51a3.018,3.018,0,0,1-.028-.327V48.11Z" transform="translate(-41.428 41.282)" fill="#b2b2b2"/><path d="M102.491,49.013v3.076h.629a1.547,1.547,0,0,0,1.237-.468,1.634,1.634,0,0,0,.4-1.1,1.551,1.551,0,0,0-.231-.822,1.29,1.29,0,0,0-.573-.533,2.035,2.035,0,0,0-.822-.151Zm-1.5-.9h1.989a4.892,4.892,0,0,1,1.811.254,2.929,2.929,0,0,1,1.069.8,2.052,2.052,0,0,1,.47,1.386,2.218,2.218,0,0,1-.825,1.758,3.383,3.383,0,0,1-2.273.7h-2.241Z" transform="translate(-35.505 41.282)" fill="#b2b2b2"/><rect width="1.522" height="4.901" transform="translate(75.342 89.393)" fill="#b2b2b2"/><path d="M112.324,49.234l-1.3.327a1.083,1.083,0,0,0-1.109-.583c-.6,0-.9.148-.9.443a.353.353,0,0,0,.169.3,2.021,2.021,0,0,0,.765.214,9.6,9.6,0,0,1,1.459.3,1.842,1.842,0,0,1,.78.5,1.1,1.1,0,0,1,.317.767,1.388,1.388,0,0,1-.682,1.147,3.447,3.447,0,0,1-2.012.485,3.853,3.853,0,0,1-1.705-.342,1.722,1.722,0,0,1-.928-1.019l1.413-.241q.238.687,1.323.687a1.555,1.555,0,0,0,.782-.153.43.43,0,0,0,.257-.365.363.363,0,0,0-.234-.332,3.441,3.441,0,0,0-.9-.224,4.923,4.923,0,0,1-1.773-.531,1.088,1.088,0,0,1-.528-.981,1.322,1.322,0,0,1,.631-1.1,2.915,2.915,0,0,1,1.715-.45Q111.774,48.08,112.324,49.234Z" transform="translate(-26.137 41.237)" fill="#b2b2b2"/><path d="M112.635,52.042h2.591v.969h-4.137v-4.9h1.546Z" transform="translate(-20.209 41.283)" fill="#b2b2b2"/><rect width="1.522" height="4.901" transform="translate(99.317 89.393)" fill="#b2b2b2"/><path d="M118.466,48.11v2.3l2.042-2.3h1.46L120.4,49.86l1.955,3.151h-1.68l-1.3-2.128-.914,1v1.124h-1.5v-4.9Z" transform="translate(-11.303 41.283)" fill="#b2b2b2"/><path d="M98.473,51.27V23.33H89.2V42.178Z" transform="translate(-53.371 3.743)" fill="#85c6ee"/><path d="M98.3,64.3l4.651-4.532V18.5H93.678V59.77Z" transform="translate(-46.585 -3.567)" fill="#0090d7"/><path d="M107.114,51.27V23.33h9.275V42.178Z" transform="translate(-26.23 3.743)" fill="#85c6ee"/><path d="M107.287,64.3l-4.651-4.532V18.5h9.272V59.77Z" transform="translate(-33.015 -3.567)" fill="#0090d7"/><path d="M102.793,62.924l-4.637,4.654V12.565h9.274V67.578Z" transform="translate(-39.8 -12.565)" fill="#006ec6"/><rect width="0.969" height="0.969" transform="translate(28.178 87.968)" fill="#b2b2b2"/><rect width="0.969" height="0.969" transform="translate(29.774 87.968)" fill="#b2b2b2"/><rect width="0.969" height="0.969" transform="translate(75.671 87.968)" fill="#b2b2b2"/><rect width="0.969" height="0.969" transform="translate(99.646 87.968)" fill="#b2b2b2"/><path d="M101.879,16.487a.318.318,0,0,1-.1.236.357.357,0,0,1-.246.093h-.4v-.659h.4a.369.369,0,0,1,.246.093A.322.322,0,0,1,101.879,16.487Zm.631,1.74-.533-1.066a.683.683,0,0,0,.468-.674.784.784,0,0,0-.244-.573.873.873,0,0,0-.6-.221h-1.036v2.535h.566v-.981h.272l.46.981Zm.744-1.265a1.989,1.989,0,0,1-.128.722,1.792,1.792,0,0,1-.392.6,1.726,1.726,0,0,1-1.3.533,1.75,1.75,0,0,1-1.305-.533,1.808,1.808,0,0,1-.385-.6,1.989,1.989,0,0,1-.128-.722,1.83,1.83,0,0,1,.513-1.318,1.75,1.75,0,0,1,1.305-.533,1.726,1.726,0,0,1,1.3.533,1.792,1.792,0,0,1,.392.6A1.979,1.979,0,0,1,103.254,16.962Zm.566,0a2.4,2.4,0,0,0-.174-.92,2.5,2.5,0,0,0-1.29-1.29,2.528,2.528,0,0,0-1.841,0,2.468,2.468,0,0,0-1.293,1.29,2.562,2.562,0,0,0,0,1.841,2.378,2.378,0,0,0,.521.772,2.332,2.332,0,0,0,.772.518,2.528,2.528,0,0,0,1.841,0,2.312,2.312,0,0,0,.767-.518,2.348,2.348,0,0,0,.523-.772A2.4,2.4,0,0,0,103.82,16.962Z" transform="translate(-38.443 -9.515)" fill="#fff" fill-rule="evenodd"/></svg>