<svg xmlns="http://www.w3.org/2000/svg" width="39.763" height="39.097" viewBox="0 0 39.763 39.097"><path d="M-18512.91-4864.489a31.83,31.83,0,0,1-6.256-.55c-4.061-.818-6.836-2.589-8.25-5.266-2-3.8-1.035-8.945,2.879-15.3a56.329,56.329,0,0,1,5.914-7.857,2.5,2.5,0,0,1,3.533-.136,2.5,2.5,0,0,1,.137,3.532h0a52.042,52.042,0,0,0-5.365,7.143c-2.809,4.581-3.758,8.233-2.674,10.285.678,1.283,2.3,2.19,4.816,2.7,3.484.7,8.473.578,14.834-.368a2.5,2.5,0,0,1,.371-.028,2.5,2.5,0,0,1,2.469,2.133,2.5,2.5,0,0,1-2.105,2.84A70.9,70.9,0,0,1-18512.91-4864.489Z" transform="translate(13502.771 -13574.75) rotate(-60)" fill="#ed4024"/></svg>