<svg xmlns="http://www.w3.org/2000/svg" width="58.848" height="91.316" viewBox="0 0 58.848 91.316"><path d="M50.1,32.2a7.1,7.1,0,1,1,7.1-7.1A7.111,7.111,0,0,1,50.1,32.2Zm0-10.146A3.044,3.044,0,1,0,53.146,25.1,3.048,3.048,0,0,0,50.1,22.059Z" transform="translate(-20.678 -4.81)" fill="#efd01e"/><path d="M45.176,77.059H35.029a2.029,2.029,0,1,1,0-4.059H45.176a2.029,2.029,0,0,1,0,4.059Z" transform="translate(-20.824 -4.005)" fill="#efd01e"/><path d="M55.058,77.059H53.029a2.029,2.029,0,1,1,0-4.059h2.029a2.029,2.029,0,0,1,0,4.059Z" transform="translate(-20.561 -4.005)" fill="#efd01e"/><path d="M65.059,77.059H63.029a2.029,2.029,0,1,1,0-4.059h2.029a2.029,2.029,0,0,1,0,4.059Z" transform="translate(-20.415 -4.005)" fill="#efd01e"/><path d="M71.733,5H29.115A8.139,8.139,0,0,0,21,13.115V80.084A8.139,8.139,0,0,0,29.115,88.2H43.322v6.088a2.029,2.029,0,1,0,4.058,0V88.2h6.088v6.088a2.029,2.029,0,0,0,4.059,0V88.2H71.733a8.139,8.139,0,0,0,8.115-8.115V13.115A8.139,8.139,0,0,0,71.733,5ZM75.79,80.084a4.062,4.062,0,0,1-4.056,4.056H29.115a4.061,4.061,0,0,1-4.056-4.056V13.115a4.061,4.061,0,0,1,4.056-4.056H71.733a4.062,4.062,0,0,1,4.056,4.056Z" transform="translate(-21 -5)" fill="#efd01e"/></svg>