<svg xmlns="http://www.w3.org/2000/svg" width="59.78" height="90.714" viewBox="0 0 59.78 90.714"><g transform="translate(0 0)"><path d="M87.222,9.4H30.5A1.6,1.6,0,0,0,28.9,11V94.848a1.6,1.6,0,0,0,1.6,1.6h5.984v2.792a.878.878,0,0,0,1.755,0V96.444h2.074v2.792a.878.878,0,0,0,1.755,0V96.444H75.494v2.792a.878.878,0,0,0,1.755,0V96.444h2.074v2.792a.878.878,0,0,0,1.755,0V96.444h5.984a1.6,1.6,0,0,0,1.6-1.6V11A1.353,1.353,0,0,0,87.222,9.4ZM32.091,54.079H85.626V67.4H32.091ZM85.626,12.591V52.324H32.091V12.591ZM32.091,93.173V69.238H85.626V93.253H32.091Z" transform="translate(-28.9 -9.4)" fill="#90de56"/><path d="M64.459,89.6a7.7,7.7,0,0,0,0,15.4,7.7,7.7,0,1,0,0-15.4Zm0,13.563a5.9,5.9,0,1,1,5.9-5.9A5.891,5.891,0,0,1,64.459,103.163Z" transform="translate(-34.54 -25.613)" fill="#90de56"/><path d="M65.47,69.1a3.67,3.67,0,1,0,3.67,3.67A3.61,3.61,0,0,0,65.47,69.1Zm0,5.585a1.915,1.915,0,1,1,1.915-1.915A1.941,1.941,0,0,1,65.47,74.685Z" transform="translate(-35.551 -21.469)" fill="#90de56"/></g></svg>