<svg xmlns="http://www.w3.org/2000/svg" width="56.41" height="79.519" viewBox="0 0 56.41 79.519"><path d="M26.363,5.986a1.65,1.65,0,0,0-1.735,1.549v7.642H17.576c-4.846,0-8.814,3.44-8.814,7.642V27.4a1.544,1.544,0,1,0,0,3.057V67.143a1.544,1.544,0,1,0,0,3.057v4.585c0,4.2,3.968,7.642,8.814,7.642v1.528c-.034,2.067,3.559,2.067,3.526,0V82.426h28.2v1.528c-.034,2.067,3.559,2.067,3.526,0V82.426c4.846,0,8.814-3.44,8.814-7.642V70.2a1.544,1.544,0,1,0,0-3.057V30.461a1.544,1.544,0,1,0,0-3.057V22.82c0-4.2-3.968-7.642-8.814-7.642H45.781V7.536a1.777,1.777,0,0,0-3.526,0v7.642H36.967V12.121h.881a1.658,1.658,0,0,0,1.763-1.528,1.658,1.658,0,0,0-1.763-1.529h-.881a1.777,1.777,0,0,0-3.526,0H32.56A1.658,1.658,0,0,0,30.8,10.592a1.658,1.658,0,0,0,1.763,1.529h.881v3.057H28.153V7.536a1.659,1.659,0,0,0-1.79-1.549ZM17.576,18.234H52.832c2.938,0,5.288,2.037,5.288,4.585V27.4H12.288V22.82C12.288,20.272,14.638,18.234,17.576,18.234ZM12.288,30.461H58.121V67.143H12.288Zm26.858,7.985A1.682,1.682,0,0,0,37.462,39.8s-.713,3.693-2.751,5.224a10.442,10.442,0,0,1-3.625,1.7,16.458,16.458,0,0,0-4.452,1.812,8.434,8.434,0,0,0-3.3,4.06,7.436,7.436,0,0,0-.53,4A1.578,1.578,0,0,0,23.9,57.84a1.981,1.981,0,0,0,1.782-.241,1.422,1.422,0,0,0,.6-1.474A5.709,5.709,0,0,1,28.724,51a13.234,13.234,0,0,1,3.522-1.388,14.55,14.55,0,0,0,4.772-2.272s0,0,0,0a9.265,9.265,0,0,0,2.121-2.251A4.635,4.635,0,0,1,37.073,50.1c-2.079,1.364-3.032,3.213-2.768,4.869a4.366,4.366,0,0,0,3.433,3.415A6.244,6.244,0,0,0,42,57.9a6.97,6.97,0,0,0,.819-.666c-.076.208.044.22-.069.457a1.363,1.363,0,0,0,.19,1.556,1.9,1.9,0,0,0,1.668.6,1.728,1.728,0,0,0,1.4-.987,6.769,6.769,0,0,0,.578-5.066,4.95,4.95,0,0,0-1.295-1.979A1.956,1.956,0,0,0,43.7,51.44a1.713,1.713,0,0,0-1.252.932,5.8,5.8,0,0,1-2.266,2.913,1.9,1.9,0,0,1-1.508.149,1.137,1.137,0,0,1-.871-.887c-.071-.446.052-1.126,1.4-2.009a7.966,7.966,0,0,0,3.419-8.6,14.955,14.955,0,0,0-1.863-4.71,1.832,1.832,0,0,0-1.608-.785ZM12.288,70.2H58.121v4.585c0,2.548-2.35,4.585-5.288,4.585H17.576c-2.938,0-5.288-2.037-5.288-4.585Z" transform="translate(-7 -5.986)" fill="#ff7542"/></svg>