<svg xmlns="http://www.w3.org/2000/svg" width="56.228" height="49.147" viewBox="0 0 56.228 49.147"><g transform="translate(-3.961 -3.362)"><path d="M42.387,46.837H13.317V11.691H53.4v3.584h-3v-.584H16.317V43.837h26.07Z" transform="translate(-9.356 -8.329)" fill="#b28e55"/><path d="M108.222,61.186h-6.575v-3h3.575V35.915h3Z" transform="translate(-64.183 -22.677)" fill="#b28e55"/><path d="M53.395,65.315H48.842v-3h1.553V43.955H16.317v18.36h26.07v3H13.317V40.955H53.395Z" transform="translate(-9.356 -26.807)" fill="#b28e55"/><path d="M27.234,115.911h-3.68v-3h.68v-11H16.317v11H17.3v3H13.317v-17H27.234Z" transform="translate(-9.356 -63.401)" fill="#b28e55"/><path d="M69.544,60.839H23.716v-3H66.544V14.692H16.317V57.839h.74v3h-3.74V11.692H69.544Z" transform="translate(-9.356 -8.329)" fill="#b28e55"/></g></svg>