<svg xmlns="http://www.w3.org/2000/svg" width="440.266" height="311.37" viewBox="0 0 440.266 311.37"><g transform="matrix(0.883, -0.469, 0.469, 0.883, 0.627, 201.473)"><path d="M426.907,124.3c-.1-.067-10.236-6.786-25.957-16.2-14.506-8.689-36.87-21.516-61.03-33.281-27.134-13.213-50.954-22.421-70.8-27.367-12.541-3.126-23.49-4.543-32.776-4.255,7.82,5.344,13.873,10.254,18.074,14.666,5.652,5.937,7.953,10.974,6.838,14.973a7.76,7.76,0,0,1-2.5,3.8,14.309,14.309,0,0,1-4.495,2.5,38.771,38.771,0,0,1-12.922,1.844A73.832,73.832,0,0,1,228.724,79.8a70.618,70.618,0,0,1-12.21-3.292,38.138,38.138,0,0,1-9.765-5.158c-2.8-2.151-4.566-4.489-5.242-6.95a9.687,9.687,0,0,1,1.686-8.193c1.954-2.9,5.373-5.82,10.164-8.68a39.231,39.231,0,0,1,11.284-4.414,55.51,55.51,0,0,1,7.174-1.147q-4.355-2.852-9.351-5.861A246.224,246.224,0,0,0,94.466.78c-9.082,0-17.522.479-25.173,1.227A265.849,265.849,0,0,0,19.21,11.816a167.606,167.606,0,0,0-18.9,6.746L-.311,17.2A169.236,169.236,0,0,1,18.777,10.38c7.046-2.123,14.417-3.986,21.907-5.538A270.81,270.81,0,0,1,69.148.514Q82.079-.751,94.916-.75a252.333,252.333,0,0,1,45.77,4.143,244.3,244.3,0,0,1,40.537,11.16,250.71,250.71,0,0,1,42.015,20.273q5.952,3.584,11.01,6.956,1.845-.11,3.769-.127c9.008-.078,19.6,1.383,31.473,4.343,19.948,4.973,43.869,14.218,71.1,27.479,24.209,11.79,46.613,24.64,61.144,33.344,15.746,9.431,25.9,16.165,26,16.232ZM233.849,43.318c-7.869.525-14.458,2.36-19.722,5.5-4.6,2.746-7.86,5.515-9.689,8.23a8.258,8.258,0,0,0-1.484,6.957c1.146,4.173,6.15,8.116,14.088,11.1a73.239,73.239,0,0,0,24.307,4.373,37.28,37.28,0,0,0,12.407-1.754c3.383-1.23,5.421-3.012,6.058-5.3a8.32,8.32,0,0,0-.744-5.608,29.7,29.7,0,0,0-5.736-7.927C248.912,54.253,242.382,49.034,233.849,43.318Z" transform="translate(0 0)" fill="#ed4024"/><path d="M0,20.143a.75.75,0,0,1-.75-.735.75.75,0,0,1,.735-.765c4.726-.093,8.441-.683,11.041-1.753A6.975,6.975,0,0,0,15.154,13.3C17.246,8.106,9.828.605,9.753.53a.75.75,0,0,1,0-1.061.75.75,0,0,1,1.061,0,29.884,29.884,0,0,1,3.752,4.78,17.3,17.3,0,0,1,2.11,4.6,7.8,7.8,0,0,1-.13,5.009A8.391,8.391,0,0,1,11.6,18.278C8.825,19.419,4.928,20.047.015,20.143Z" transform="translate(412.362 108.761)" fill="#ed4024"/></g></svg>