<svg xmlns="http://www.w3.org/2000/svg" width="1603" height="19.5" viewBox="0 0 1603 19.5"><g transform="translate(-442 -584)"><path d="M311,1H0V-1H311Z" transform="translate(454.5 593.365)" fill="#ed4024"/><circle cx="9.5" cy="9.5" r="9.5" transform="translate(981 603.5) rotate(-90)" fill="#ed4024"/><path d="M479.5,1-1.006.978v-2L479.5-1Z" transform="translate(766.5 593.363)" fill="#ed4024"/><circle cx="9.5" cy="9.5" r="9.5" transform="translate(1461.506 603.5) rotate(-90)" fill="#ed4024"/><path d="M479.5,1-1.006.978v-2L479.5-1Z" transform="translate(1247.006 593.363)" fill="#ed4024"/><path d="M312.3,1-1.006.978v-2L312.3-1Z" transform="translate(1726.5 593.363)" fill="#ed4024"/><circle cx="9.5" cy="9.5" r="9.5" transform="translate(2026 603.5) rotate(-90)" fill="#f9d641"/><circle cx="9.5" cy="9.5" r="9.5" transform="translate(442 603) rotate(-90)" fill="#ed4024"/></g></svg>