<svg xmlns="http://www.w3.org/2000/svg" width="1605" height="104.5" viewBox="0 0 1605 104.5"><g transform="translate(-348 -295)"><text transform="translate(351 354)" fill="#ed4024" font-size="60" font-family="SourceSansPro-Bold, Source Sans Pro" font-weight="700"><tspan x="0" y="0">2019</tspan></text><path d="M311,1H0V-1H311Z" transform="translate(360.5 389.365)" fill="#ed4024"/><text transform="translate(831 354)" fill="#ed4024" font-size="60" font-family="SourceSansPro-Bold, Source Sans Pro" font-weight="700"><tspan x="0" y="0">2020</tspan></text><circle cx="9.5" cy="9.5" r="9.5" transform="translate(887 399.5) rotate(-90)" fill="#ed4024"/><path d="M479.5,1-1.006.978v-2L479.5-1Z" transform="translate(672.5 389.363)" fill="#ed4024"/><text transform="translate(1311.5 354)" fill="#ed4024" font-size="60" font-family="SourceSansPro-Bold, Source Sans Pro" font-weight="700"><tspan x="0" y="0">2021</tspan></text><circle cx="9.5" cy="9.5" r="9.5" transform="translate(1367.506 399.5) rotate(-90)" fill="#ed4024"/><path d="M479.5,1-1.006.978v-2L479.5-1Z" transform="translate(1153.006 389.363)" fill="#ed4024"/><text transform="translate(1826 354)" fill="#ed4024" font-size="60" font-family="SourceSansPro-Bold, Source Sans Pro" font-weight="700"><tspan x="0" y="0">2022</tspan></text><path d="M312.3,1-1.006.978v-2L312.3-1Z" transform="translate(1632.5 389.363)" fill="#ed4024"/><circle cx="9.5" cy="9.5" r="9.5" transform="translate(1932 399.5) rotate(-90)" fill="#f9d641"/><circle cx="9.5" cy="9.5" r="9.5" transform="translate(348 399) rotate(-90)" fill="#ed4024"/></g></svg>