<svg xmlns="http://www.w3.org/2000/svg" xmlns:xlink="http://www.w3.org/1999/xlink" width="49.851" height="59" viewBox="0 0 49.851 59"><defs><clipPath id="a"><rect width="49.851" height="59" fill="#ed4024" stroke="#ed4024" stroke-width="0.5"/></clipPath></defs><g clip-path="url(#a)"><path d="M49.04,22.024a.811.811,0,0,0,.811-.811V15.6a.811.811,0,0,0-.387-.692L25.35.118C25.337.11,25.323.105,25.31.1a.817.817,0,0,0-.08-.039c-.024-.01-.048-.017-.072-.025s-.051-.015-.077-.02S25.029.007,25,0s-.052,0-.079,0-.05,0-.076,0a.79.79,0,0,0-.08.011c-.026.005-.051.012-.075.019s-.049.015-.073.025a.805.805,0,0,0-.08.039c-.013.007-.027.011-.04.019L.387,14.909A.811.811,0,0,0,0,15.6v9.69a.806.806,0,0,0,.056.29.809.809,0,0,0,.187.85l4.393,4.393a.811.811,0,0,0,1.148,0L6.8,29.8,8,31l-.86.86a2.571,2.571,0,0,0,0,3.629l.464.464a2.544,2.544,0,0,0,1.736.746,2.544,2.544,0,0,0,.746,1.736l.464.464a2.544,2.544,0,0,0,1.735.746,2.555,2.555,0,0,0,.747,1.736l.464.464a2.544,2.544,0,0,0,1.736.746,2.544,2.544,0,0,0,.746,1.736l.464.464a2.569,2.569,0,0,0,3.629,0l.861-.861,2.333,2.333a2.889,2.889,0,0,0,4.9-1.605,2.908,2.908,0,0,0,.66.078,2.888,2.888,0,0,0,2.858-2.455,2.875,2.875,0,0,0,2.7-.768,2.873,2.873,0,0,0,.775-1.416,2.892,2.892,0,0,0,3.026-4.766l-.355-.354,5.2-5.2.97.97a.811.811,0,0,0,1.147,0l2.974-2.974A32.762,32.762,0,0,1,30.15,54.637L24.907,57.28l-5.224-2.638A32.747,32.747,0,0,1,2.379,32.3a.811.811,0,1,0-1.586.346A34.363,34.363,0,0,0,18.952,56.091l5.589,2.822a.811.811,0,0,0,.731,0l5.608-2.827A34.393,34.393,0,0,0,49.848,25.73a.808.808,0,0,0-.239-.584h0a.81.81,0,0,0-.122-.1c-.013-.009-.027-.015-.04-.022a.8.8,0,0,0-.1-.052c-.02-.008-.04-.013-.06-.019a.78.78,0,0,0-.09-.027.808.808,0,0,0-.088-.01c-.021,0-.041-.007-.063-.007h-.011a.813.813,0,0,0-.159.016c-.013,0-.024.008-.037.011a.805.805,0,0,0-.115.035l-.02.01a.806.806,0,0,0-.243.165l-3.878,3.878L34.229,18.669,38.6,14.3a.811.811,0,1,0-1.147-1.147l-4.946,4.946a.811.811,0,0,0,0,1.147l1.07,1.07-.848.848-2.376-2.375a.811.811,0,0,0-.574-.238H23.742a.811.811,0,0,0-.574.238L20.456,21.5H17.42l-1.155-1.155,1.02-1.02a.811.811,0,0,0,0-1.147l-5.025-5.025A.811.811,0,0,0,11.113,14.3l4.451,4.451L5.21,29.1,1.6,25.488a.81.81,0,0,0,.027-.2V16.055l23.3-14.294,23.3,14.294v5.158a.811.811,0,0,0,.811.811M8.29,34.345a.948.948,0,0,1,0-1.334l1.434-1.434h0l1.433-1.433a.944.944,0,0,1,1.334,0l.464.464a.948.948,0,0,1,0,1.334l-2.869,2.869a.972.972,0,0,1-1.334,0Zm2.945,2.945a.948.948,0,0,1,0-1.334L14.1,33.088a.945.945,0,0,1,1.334,0l.464.464a.945.945,0,0,1,0,1.334l-2.869,2.869a.971.971,0,0,1-1.334,0Zm2.945,2.945a.945.945,0,0,1,0-1.334l2.869-2.869a.948.948,0,0,1,1.334,0h0l.464.464a.945.945,0,0,1,0,1.334L15.978,40.7a.971.971,0,0,1-1.334,0Zm4.743,3.409a.944.944,0,0,1-1.334,0l-.464-.464a.948.948,0,0,1,0-1.334L20,38.978a.948.948,0,0,1,1.333,0h0l.464.464a.949.949,0,0,1,0,1.334Zm5.154-23.476h5.367l2.712,2.712a.811.811,0,0,0,1.147,0L34.7,21.489l7.167,7.167L36.709,33.81,26.073,23.174a.811.811,0,0,0-1.148,0l-2.354,2.354a3.543,3.543,0,0,1-4.359.507Zm-6.994,2.949h1.749l-2.41,2.41a.811.811,0,0,0,0,1.147,5.158,5.158,0,0,0,7.295,0L25.5,24.9l7.539,7.539a.8.8,0,0,0,.125.167l3.879,3.879a1.271,1.271,0,1,1-1.8,1.8L31.365,34.4a.811.811,0,0,0-1.147,1.147l3.024,3.025a1.271,1.271,0,0,1-1.8,1.8L28.426,37.35A.811.811,0,0,0,27.279,38.5l2.446,2.446v0a1.271,1.271,0,0,1,0,1.8,1.3,1.3,0,0,1-1.8,0l-.569-.569v0h0L25.481,40.3a.811.811,0,0,0-1.147,1.148l1.877,1.877a1.273,1.273,0,0,1,0,1.8,1.3,1.3,0,0,1-1.8,0l-2.334-2.333.861-.861a2.571,2.571,0,0,0,0-3.629l-.464-.464a2.544,2.544,0,0,0-1.735-.746,2.555,2.555,0,0,0-.747-1.736l-.464-.464A2.544,2.544,0,0,0,17.8,34.14,2.555,2.555,0,0,0,17.05,32.4l-.464-.464h0a2.555,2.555,0,0,0-1.736-.746,2.544,2.544,0,0,0-.746-1.735L13.641,29a2.571,2.571,0,0,0-3.629,0l-.861.861-1.2-1.2,7.167-7.167,1.392,1.392a.811.811,0,0,0,.574.238" transform="translate(0 0)" fill="#ed4024"/><path d="M24.907,59.25a1.066,1.066,0,0,1-.479-.114l-5.589-2.822A34.612,34.612,0,0,1,.549,32.7a1.061,1.061,0,1,1,2.074-.453A32.5,32.5,0,0,0,19.8,54.419L24.907,57l5.13-2.586A32.34,32.34,0,0,0,47.824,28.431l-2.49,2.49a1.061,1.061,0,0,1-1.5,0l-.793-.793-4.851,4.851.178.178a3.14,3.14,0,0,1-3.029,5.259,3.132,3.132,0,0,1-3,2.2,3.045,3.045,0,0,1-.46-.036,3.138,3.138,0,0,1-3.055,2.412,3.069,3.069,0,0,1-.462-.036,3.141,3.141,0,0,1-5.277,1.49l-2.157-2.157-.684.684a2.819,2.819,0,0,1-3.982,0l-.464-.464a2.794,2.794,0,0,1-.8-1.678,2.794,2.794,0,0,1-1.679-.8l-.464-.464a2.8,2.8,0,0,1-.8-1.679,2.8,2.8,0,0,1-1.678-.8l-.464-.464a2.793,2.793,0,0,1-.8-1.678,2.794,2.794,0,0,1-1.678-.8l-.464-.464a2.821,2.821,0,0,1,0-3.983L7.65,31,6.8,30.157,5.96,31a1.061,1.061,0,0,1-1.5,0L.066,26.606a1.064,1.064,0,0,1-.273-1.023A1.037,1.037,0,0,1-.25,25.29V15.6a1.068,1.068,0,0,1,.507-.9L24.371-.1a.418.418,0,0,1,.053-.027h0a1.038,1.038,0,0,1,.1-.05c.034-.014.067-.024.094-.033s.069-.019.1-.025a1.035,1.035,0,0,1,.1-.015.978.978,0,0,1,.2,0c.036,0,.07.008.1.014s.063.014.1.026.059.018.094.033a1.052,1.052,0,0,1,.1.049.43.43,0,0,1,.055.028L49.595,14.7a1.068,1.068,0,0,1,.507.9v5.612a1.061,1.061,0,1,1-2.123,0V16.195L24.926,2.054,1.873,16.195v9.1a.936.936,0,0,1-.007.114L5.21,28.748l10-10-4.274-4.274a1.061,1.061,0,1,1,1.5-1.5L17.462,18a1.061,1.061,0,0,1,0,1.5l-.843.843.9.9h2.829l2.638-2.638a1.054,1.054,0,0,1,.751-.311h6.039a1.054,1.054,0,0,1,.751.311l2.2,2.2.494-.494-.893-.893a1.061,1.061,0,0,1,0-1.5l4.946-4.946a1.061,1.061,0,1,1,1.5,1.5l-4.2,4.2,10,10,3.7-3.7a1.054,1.054,0,0,1,.309-.213l.033-.016a1.023,1.023,0,0,1,.148-.047.438.438,0,0,1,.052-.015,1.074,1.074,0,0,1,.194-.021h.027a.515.515,0,0,1,.075.007l.027,0a.8.8,0,0,1,.1.013.836.836,0,0,1,.1.029l.028.009a.606.606,0,0,1,.065.022,1.02,1.02,0,0,1,.129.067l0,0a.5.5,0,0,1,.048.028,1.061,1.061,0,0,1,.141.113l0,0,.019.02.017.017.012.013a1.051,1.051,0,0,1,.279.73A34.642,34.642,0,0,1,30.993,56.309l-5.608,2.827A1.068,1.068,0,0,1,24.907,59.25ZM1.587,31.914a.563.563,0,0,0-.55.681A34.114,34.114,0,0,0,19.065,55.867l5.589,2.822a.571.571,0,0,0,.506,0l5.608-2.827A34.144,34.144,0,0,0,49.6,25.726a.556.556,0,0,0-.158-.4l-.009-.009a.56.56,0,0,0-.08-.066l0,0-.026-.015a.614.614,0,0,0-.068-.037l-.013,0-.028-.009-.018-.006a.455.455,0,0,0-.044-.013l-.04,0-.022,0-.039,0h-.012a.564.564,0,0,0-.1.01l-.033.01a.731.731,0,0,0-.072.02l-.022.011a.561.561,0,0,0-.169.114l-4.055,4.054L33.876,18.669l4.549-4.549a.561.561,0,1,0-.794-.794l-4.946,4.946a.561.561,0,0,0,0,.794l1.247,1.247-1.2,1.2-2.552-2.552a.557.557,0,0,0-.4-.165H23.742a.557.557,0,0,0-.4.164L20.56,21.746H17.317l-1.4-1.4,1.2-1.2a.561.561,0,0,0,0-.794l-5.025-5.025a.561.561,0,1,0-.794.794l4.628,4.628L5.21,29.455,1.319,25.564l.034-.137a.56.56,0,0,0,.019-.137V15.915L24.926,1.468,48.478,15.915v5.3a.561.561,0,1,0,1.123,0V15.6a.565.565,0,0,0-.268-.479L25.227.335,25.189.317a.556.556,0,0,0-.054-.026l-.05-.017L25.033.26,24.98.253a.474.474,0,0,0-.107,0L24.818.26l-.053.014c-.015,0-.034.01-.05.017a.585.585,0,0,0-.056.027l-.036.017L.518,15.122A.565.565,0,0,0,.25,15.6v9.69a.559.559,0,0,0,.039.2l.033.087-.032.088a.563.563,0,0,0,.129.588l4.393,4.393a.561.561,0,0,0,.794,0l1.2-1.2L8.357,31,7.32,32.041a2.321,2.321,0,0,0,0,3.275l.464.464a2.3,2.3,0,0,0,1.566.673l.235.007.007.235a2.3,2.3,0,0,0,.673,1.566l.464.464a2.3,2.3,0,0,0,1.566.673l.235.007.007.235a2.306,2.306,0,0,0,.673,1.567l.464.464a2.3,2.3,0,0,0,1.567.673l.235.007.007.235a2.3,2.3,0,0,0,.672,1.566l.464.464a2.319,2.319,0,0,0,3.275,0l1.037-1.037,2.51,2.51a2.639,2.639,0,0,0,4.478-1.466l.041-.267.263.061a2.67,2.67,0,0,0,.6.072,2.638,2.638,0,0,0,2.61-2.242l.041-.267.263.061a2.67,2.67,0,0,0,.6.072,2.632,2.632,0,0,0,2.577-2.067l.061-.277.267.1a2.642,2.642,0,0,0,2.765-4.354l-.531-.531,5.558-5.558,1.147,1.147a.561.561,0,0,0,.794,0l3.45-3.45-.05.672A33.012,33.012,0,0,1,30.262,54.86l-5.355,2.7-5.336-2.694A33,33,0,0,1,2.134,32.356.564.564,0,0,0,1.587,31.914ZM25.312,45.728a1.526,1.526,0,0,1-1.076-.433l-2.51-2.51,1.037-1.037a2.321,2.321,0,0,0,0-3.275l-.464-.464a2.3,2.3,0,0,0-1.566-.673l-.235-.007-.007-.235a2.306,2.306,0,0,0-.673-1.567l-.464-.464a2.3,2.3,0,0,0-1.566-.673l-.235-.007-.007-.235a2.306,2.306,0,0,0-.673-1.567l-.482-.481a2.306,2.306,0,0,0-1.549-.656l-.235-.007L14.6,31.2a2.3,2.3,0,0,0-.673-1.566l-.464-.464a2.321,2.321,0,0,0-3.275,0L9.151,30.209,7.6,28.656l7.521-7.521L16.687,22.7a.557.557,0,0,0,.4.165h2.353L16.6,25.7a.561.561,0,0,0,0,.794,4.908,4.908,0,0,0,6.941,0L25.5,24.542l7.739,7.739.016.028a.556.556,0,0,0,.085.116L37.219,36.3a1.521,1.521,0,0,1-2.151,2.151l-3.88-3.879a.561.561,0,0,0-.794.794l3.024,3.025a1.521,1.521,0,0,1-2.152,2.151l-3.018-3.018a.561.561,0,1,0-.794.794l2.455,2.456A1.521,1.521,0,0,1,29.9,42.92a1.551,1.551,0,0,1-2.151,0L25.3,40.472a.561.561,0,0,0-.794.794l1.877,1.877a1.509,1.509,0,0,1-1.076,2.585Zm-2.879-2.944,2.157,2.157A1.021,1.021,0,1,0,26.034,43.5L24.157,41.62a1.059,1.059,0,0,1-.31-.787,2.791,2.791,0,0,1-.73,1.268Zm5.112-.778.56.56a1.021,1.021,0,1,0,1.444-1.444L27.1,38.674a1.061,1.061,0,1,1,1.5-1.5l3.018,3.018a1.021,1.021,0,0,0,1.445-1.444l-3.024-3.024a1.061,1.061,0,1,1,1.5-1.5L35.422,38.1a1.021,1.021,0,0,0,1.444-1.444l-3.879-3.879a1,1,0,0,1-.146-.188L25.5,25.249l-1.6,1.6a5.408,5.408,0,0,1-7.648,0,1.061,1.061,0,0,1,0-1.5l1.983-1.983H17.084a1.054,1.054,0,0,1-.751-.311l-1.216-1.216L8.3,28.656l.847.846.684-.684a2.821,2.821,0,0,1,3.983,0l.464.464a2.794,2.794,0,0,1,.8,1.678,2.8,2.8,0,0,1,1.678.8l.464.464a2.8,2.8,0,0,1,.8,1.678,2.794,2.794,0,0,1,1.678.8l.464.464a2.8,2.8,0,0,1,.8,1.679,2.794,2.794,0,0,1,1.678.8l.464.464a2.8,2.8,0,0,1,.823,1.991,2.874,2.874,0,0,1-.026.386,1.061,1.061,0,0,1,1.744-.377Zm-9.288,2.165a1.185,1.185,0,0,1-.844-.349l-.464-.464a1.2,1.2,0,0,1,0-1.687L19.818,38.8a1.2,1.2,0,0,1,1.607-.073h.007l.537.537a1.2,1.2,0,0,1,0,1.688L19.1,43.822A1.186,1.186,0,0,1,18.257,44.171Zm2.4-5.216a.687.687,0,0,0-.49.2L17.3,42.024a.7.7,0,0,0,0,.98l.464.464a.694.694,0,0,0,.98,0L21.616,40.6a.7.7,0,0,0,0-.981l-.464-.464A.687.687,0,0,0,20.662,38.954Zm-5.35,2.26a1.2,1.2,0,0,1-.844-.338L14,40.413a1.2,1.2,0,0,1,0-1.688l2.869-2.869a1.2,1.2,0,0,1,1.687,0l.464.464a1.2,1.2,0,0,1,0,1.688l-2.869,2.869A1.2,1.2,0,0,1,15.312,41.215Zm2.4-5.206a.687.687,0,0,0-.49.2l-2.869,2.869a.7.7,0,0,0,0,.981l.464.464a.722.722,0,0,0,.98,0l2.869-2.869a.694.694,0,0,0,0-.98l-.464-.464A.688.688,0,0,0,17.717,36.009Zm-5.35,2.261a1.2,1.2,0,0,1-.844-.338l-.464-.464a1.2,1.2,0,0,1,0-1.687l2.869-2.869a1.195,1.195,0,0,1,1.688,0l.464.464a1.2,1.2,0,0,1,0,1.687L13.21,37.931A1.2,1.2,0,0,1,12.366,38.269Zm2.4-5.207a.688.688,0,0,0-.49.2l-2.869,2.869a.7.7,0,0,0,0,.98l.464.464a.722.722,0,0,0,.98,0l2.869-2.869a.694.694,0,0,0,0-.98l-.464-.464A.689.689,0,0,0,14.771,33.062Zm-5.35,2.262a1.2,1.2,0,0,1-.844-.338l-.464-.464a1.2,1.2,0,0,1,0-1.687l2.869-2.869a1.194,1.194,0,0,1,1.687,0l.464.464a1.2,1.2,0,0,1,0,1.687l-2.869,2.869A1.2,1.2,0,0,1,9.421,35.324Zm.467-3.557L8.467,33.188a.7.7,0,0,0,0,.98l.464.464a.722.722,0,0,0,.98,0l2.869-2.869a.7.7,0,0,0,0-.98l-.464-.464a.694.694,0,0,0-.98,0Zm26.821,2.4L25.9,23.351a.561.561,0,0,0-.794,0L22.748,25.7a3.794,3.794,0,0,1-4.668.543l-.269-.166,6.163-6.163h5.574L32.333,22.7a.561.561,0,0,0,.794,0L34.7,21.135l7.521,7.521ZM25.5,22.686A1.054,1.054,0,0,1,26.25,23L36.709,33.457l4.8-4.8L34.7,21.842l-1.216,1.216a1.061,1.061,0,0,1-1.5,0l-2.639-2.638H24.181l-5.558,5.558a3.3,3.3,0,0,0,3.771-.626L24.748,23A1.054,1.054,0,0,1,25.5,22.686Z" transform="translate(0 0)" fill="#ed4024"/></g></svg>