<svg xmlns="http://www.w3.org/2000/svg" xmlns:xlink="http://www.w3.org/1999/xlink" width="61.427" height="59" viewBox="0 0 61.427 59"><defs><clipPath id="a"><rect width="61.428" height="59" fill="#ed4024"/></clipPath></defs><g transform="translate(0 0)"><g transform="translate(0 0)" clip-path="url(#a)"><path d="M78.7,42.58H62.015a1.243,1.243,0,0,1,0-2.486H78.7a1.243,1.243,0,1,1,0,2.486" transform="translate(-24.322 -16.046)" fill="#ed4024"/><path d="M85.8,78.722H79.761a1.243,1.243,0,0,1,0-2.486H85.8a1.243,1.243,0,0,1,0,2.486" transform="translate(-31.424 -30.511)" fill="#ed4024"/><path d="M80.063,51.682H65.79a1.243,1.243,0,1,1,0-2.486H80.063a1.243,1.243,0,0,1,0,2.486" transform="translate(-25.833 -19.689)" fill="#ed4024"/><path d="M78.7,60.659H62.015a1.243,1.243,0,0,1,0-2.486H78.7a1.243,1.243,0,0,1,0,2.486" transform="translate(-24.322 -23.282)" fill="#ed4024"/><path d="M71.837,15.964a1.241,1.241,0,0,0-.493-.991L56.735.364l-.01-.007a1.251,1.251,0,0,0-.25-.185c-.026-.014-.05-.028-.077-.041a1.233,1.233,0,0,0-.3-.106l-.014,0A1.25,1.25,0,0,0,55.856,0H27.251a1.241,1.241,0,0,0-1.243,1.243v12.55c.464-.041.936-.066,1.417-.066.356,0,.713.008,1.069.041V2.486h26.12V15.964a1.243,1.243,0,0,0,1.243,1.243H69.335V56.515H28.494V45.232c-.356.033-.713.041-1.069.041-.48,0-.952-.025-1.417-.066v12.55A1.241,1.241,0,0,0,27.251,59H70.577a1.241,1.241,0,0,0,1.243-1.243V16.128a1.23,1.23,0,0,0,.017-.164M57.1,14.722V4.243L67.578,14.722Z" transform="translate(-10.409 0)" fill="#ed4024"/><path d="M17.016,54.843c-.488,0-.988-.023-1.526-.071a17.013,17.013,0,0,1,0-33.89,14.824,14.824,0,0,1,2.709-.025A17.01,17.01,0,0,1,18.167,54.8c-.362.034-.756.044-1.151.044m0-31.546c-.414,0-.841.02-1.306.062a14.528,14.528,0,0,0,0,28.938,12.206,12.206,0,0,0,2.262.026A14.526,14.526,0,0,0,18,23.335c-.349-.031-.668-.038-.986-.038" transform="translate(0 -8.327)" fill="#ed4024"/><path d="M27.162,50.489a1.236,1.236,0,0,1-.578-.143l-4.175-2.194-4.175,2.194a1.242,1.242,0,0,1-1.8-1.309l.8-4.649L13.851,41.1a1.242,1.242,0,0,1,.689-2.12l4.668-.678,2.087-4.23a1.243,1.243,0,0,1,2.229,0l2.087,4.23,4.668.678a1.242,1.242,0,0,1,.689,2.12l-3.377,3.292.764,4.452a1.243,1.243,0,0,1-1.174,1.649Zm-4.753-4.984a1.247,1.247,0,0,1,.578.143l2.524,1.327-.482-2.811a1.244,1.244,0,0,1,.357-1.1l2.042-1.991-2.823-.41a1.244,1.244,0,0,1-.936-.68l-1.262-2.557-1.262,2.557a1.244,1.244,0,0,1-.936.68l-2.823.41,2.042,1.991a1.244,1.244,0,0,1,.357,1.1l-.482,2.811,2.524-1.327a1.247,1.247,0,0,1,.578-.143" transform="translate(-5.393 -13.358)" fill="#ed4024"/></g></g></svg>