<svg xmlns="http://www.w3.org/2000/svg" xmlns:xlink="http://www.w3.org/1999/xlink" width="67.503" height="59" viewBox="0 0 67.503 59"><defs><clipPath id="a"><rect width="67.503" height="59" fill="#ed4024"/></clipPath></defs><g transform="translate(0 0)" clip-path="url(#a)"><path d="M54.445,16.792a8.392,8.392,0,1,1,7.509-4.628,8.338,8.338,0,0,1-7.509,4.628m0-14.451A6.058,6.058,0,1,0,60.5,8.391a6.057,6.057,0,0,0-6.059-6.05" transform="translate(-20.034 0)" fill="#ed4024"/><path d="M55.691,39.222h0a1.17,1.17,0,0,1-.834-.35l-5.609-5.7a1.171,1.171,0,1,1,1.669-1.642l4.775,4.853,4.789-4.861a1.17,1.17,0,1,1,1.667,1.643l-5.623,5.707a1.171,1.171,0,0,1-.834.349" transform="translate(-21.278 -13.561)" fill="#ed4024"/><path d="M33.151,47.094a1.151,1.151,0,0,1-.152-.01,1.171,1.171,0,0,1-1.011-1.311C32.8,39.527,35.345,35.3,40,32.468a20.674,20.674,0,0,1,2.236-1.179,1.171,1.171,0,1,1,.953,2.138,18.433,18.433,0,0,0-1.978,1.044c-2.728,1.657-5.982,4.477-6.9,11.6a1.17,1.17,0,0,1-1.159,1.02" transform="translate(-13.911 -13.567)" fill="#ed4024"/><path d="M79.826,51.676a1.171,1.171,0,0,1-1.171-1.171c0-10.362-3.829-14.017-7.165-16.044a17.768,17.768,0,0,0-2-1.047,1.17,1.17,0,1,1,.945-2.141A19.829,19.829,0,0,1,72.7,32.46C78.439,35.943,81,41.509,81,50.506a1.171,1.171,0,0,1-1.171,1.171" transform="translate(-29.926 -13.561)" fill="#ed4024"/><path d="M67.494,67.428c-.01-.084-.038-.16-.055-.241a1.172,1.172,0,0,0-.071-.313,2.8,2.8,0,0,0-1.127-1.49c-2.118-1.431-6.336-.62-10.276.422-1.7-.762-5.42-.025-11.1,2.2-.357-.007-.7,0-1.016.019-6.775.411-10.31.379-10.936.369a6.105,6.105,0,0,1-1.233-.386c-.676-.319-1.689-.94-2.862-1.658-3.285-2.012-7.783-4.768-11.516-5.02-6.454-.134-16.249,4.72-16.661,4.928A1.17,1.17,0,1,0,1.7,68.348c.1-.048,9.662-4.829,15.5-4.68,3.109.21,7.323,2.792,10.4,4.677,1.231.754,2.294,1.405,3.085,1.779A8.37,8.37,0,0,0,32.5,70.7l.011,0,.014,0c.024.005.047,0,.071.007a1.117,1.117,0,0,0,.144.019c.146.005,3.663.092,11.253-.371,1.644-.1,2.636.159,3.208.841.347.413.3.655.28.758C47.212,73.348,43.574,75.274,42.2,76c-2.854,1.508-10.842,1.707-16.865-1.419a1.17,1.17,0,0,0-1.079,2.077,26.772,26.772,0,0,0,11.953,2.761A15.968,15.968,0,0,0,43.3,78.068c3.7-1.959,6.077-3.59,6.48-5.662A3.161,3.161,0,0,0,49,69.7a4.329,4.329,0,0,0-.509-.5c3.018-.994,5.667-1.571,6.4-1.333a1.168,1.168,0,0,0,1.173.346l.1-.027c5.926-1.6,8.04-1.345,8.771-.853a.638.638,0,0,1,.073.072c-.354.729-1.515,2.185-5.292,4.527-2.222,1.383-7.978,4.428-10.744,5.891l-.991.525c-.5.268-1.041.573-1.614.9-3.027,1.73-7.17,4.1-13.051,4.1h-.042c-.55-.035-3.735-.893-6.545-1.65-6.885-1.853-12.288-3.267-14.045-3.167C9.814,78.678,2.647,80.2,2.344,80.264a1.17,1.17,0,1,0,.488,2.289c.072-.015,7.292-1.547,9.98-1.695,1.536-.1,8.614,1.826,13.308,3.09,4.651,1.253,6.47,1.725,7.128,1.729h.05c6.52,0,10.975-2.545,14.23-4.4.55-.315,1.066-.609,1.55-.867l.988-.523c3-1.589,8.593-4.547,10.884-5.972,3.359-2.083,5.342-3.841,6.14-5.452a1.167,1.167,0,0,0,.4-1.032" transform="translate(0 -26.678)" fill="#ed4024"/></g></svg>