<svg xmlns="http://www.w3.org/2000/svg" xmlns:xlink="http://www.w3.org/1999/xlink" width="59.281" height="59" viewBox="0 0 59.281 59"><defs><clipPath id="a"><rect width="59.281" height="59" fill="#ed4024"/></clipPath></defs><g transform="translate(0 0)" clip-path="url(#a)"><path d="M38.339,52.532a1.171,1.171,0,0,1-.716-.244L30.664,46.9A1.169,1.169,0,0,1,32.1,45.05L38.2,49.78,50.374,36.5a1.169,1.169,0,1,1,1.724,1.58L39.2,52.153a1.165,1.165,0,0,1-.862.379" transform="translate(-12.549 -15.004)" fill="#ed4024"/><path d="M36.241,56.36A20.351,20.351,0,1,1,56.593,36.009,20.374,20.374,0,0,1,36.241,56.36m0-38.364A18.013,18.013,0,1,0,54.254,36.009,18.033,18.033,0,0,0,36.241,18" transform="translate(-6.6 -6.504)" fill="#ed4024"/><path d="M29.641,59a3.957,3.957,0,0,1-3.96-3.236l-.042-.2a1.682,1.682,0,0,0-1.685-1.367,1.648,1.648,0,0,0-1.37.716l-.122.17a3.959,3.959,0,0,1-3.243,1.708h0a4.184,4.184,0,0,1-3.237-1.549,3.933,3.933,0,0,1-.755-3.38l.046-.205a1.656,1.656,0,0,0-.32-1.421,1.716,1.716,0,0,0-2.206-.414l-.181.106a4.033,4.033,0,0,1-2.068.581h0a4.109,4.109,0,0,1-3.615-2.278,3.942,3.942,0,0,1,.385-4.189l.124-.168a1.7,1.7,0,0,0-1.561-2.705l-.208.023a4.335,4.335,0,0,1-.5.029,3.974,3.974,0,0,1-3.868-3.025,3.94,3.94,0,0,1,1.921-4.536l.183-.1a1.7,1.7,0,0,0-.327-3.106l-.2-.063a4.041,4.041,0,0,1,.827-7.877l.209-.02a1.7,1.7,0,0,0,.965-2.97l-.156-.139a3.941,3.941,0,0,1-1.114-4.433A4,4,0,0,1,7.3,12.3a4.186,4.186,0,0,1,1.335.223l.2.067a1.691,1.691,0,0,0,1.98-.7,1.644,1.644,0,0,0,.109-1.617l-.087-.19a3.938,3.938,0,0,1,.244-3.829,4.162,4.162,0,0,1,3.458-1.909,3.96,3.96,0,0,1,2.705,1.083l.154.141a1.652,1.652,0,0,0,1.132.454,1.762,1.762,0,0,0,1.245-.52,1.643,1.643,0,0,0,.476-1.2l0-.21a3.986,3.986,0,0,1,1.134-2.87A4.162,4.162,0,0,1,24.325,0,3.965,3.965,0,0,1,28,2.433l.084.193a1.7,1.7,0,0,0,3.122,0l.083-.191A3.966,3.966,0,0,1,34.957,0,4.161,4.161,0,0,1,37.9,1.209,3.986,3.986,0,0,1,39.033,4.08l0,.209a1.645,1.645,0,0,0,.476,1.2,1.765,1.765,0,0,0,1.245.52,1.651,1.651,0,0,0,1.132-.453l.155-.142a3.962,3.962,0,0,1,2.705-1.082A4.163,4.163,0,0,1,48.2,6.244a3.938,3.938,0,0,1,.244,3.829l-.088.192a1.645,1.645,0,0,0,.11,1.616,1.692,1.692,0,0,0,1.981.7l.2-.067a4.193,4.193,0,0,1,1.336-.223,4,4,0,0,1,3.739,2.649,3.942,3.942,0,0,1-1.114,4.433l-.157.139a1.7,1.7,0,0,0,.965,2.97l.208.02a4.041,4.041,0,0,1,.828,7.877l-.2.063a1.7,1.7,0,0,0-.325,3.106l.182.1a4.043,4.043,0,0,1-1.947,7.561,4.209,4.209,0,0,1-.5-.029l-.208-.023a1.7,1.7,0,0,0-1.562,2.7l.125.169a3.94,3.94,0,0,1,.384,4.188,4.108,4.108,0,0,1-3.615,2.278,4.036,4.036,0,0,1-2.069-.581l-.18-.106a1.715,1.715,0,0,0-2.206.414,1.655,1.655,0,0,0-.321,1.422l.046.2a3.935,3.935,0,0,1-.755,3.38,4.185,4.185,0,0,1-3.237,1.549,3.96,3.96,0,0,1-3.244-1.708l-.122-.17a1.648,1.648,0,0,0-1.37-.716,1.681,1.681,0,0,0-1.685,1.365l-.043.207A3.956,3.956,0,0,1,29.641,59m-5.687-7.145a4.015,4.015,0,0,1,3.977,3.238l.042.2a1.7,1.7,0,0,0,3.337,0l.042-.206a4.04,4.04,0,0,1,7.25-1.54l.122.171a1.6,1.6,0,0,0,1.341.727,1.851,1.851,0,0,0,1.414-.675,1.612,1.612,0,0,0,.3-1.41l-.046-.2a4.005,4.005,0,0,1,.78-3.393,4.105,4.105,0,0,1,3.168-1.532,4.045,4.045,0,0,1,2.049.567l.18.106a1.7,1.7,0,0,0,2.409-.735,1.6,1.6,0,0,0-.175-1.746l-.125-.169a4.041,4.041,0,0,1,3.706-6.418l.208.024A1.667,1.667,0,0,0,55.768,37.6a1.63,1.63,0,0,0-.811-1.9l-.182-.1a4.041,4.041,0,0,1,.774-7.371l.2-.063a1.7,1.7,0,0,0-.35-3.319l-.208-.02a4.042,4.042,0,0,1-2.291-7.05l.157-.139a1.615,1.615,0,0,0,.476-1.853,1.7,1.7,0,0,0-1.552-1.139,1.871,1.871,0,0,0-.593.1l-.2.067a4.059,4.059,0,0,1-4.69-1.657,4.014,4.014,0,0,1-.271-3.851l.088-.192a1.591,1.591,0,0,0-.084-1.593,1.825,1.825,0,0,0-1.491-.836,1.638,1.638,0,0,0-1.125.469l-.156.141a4.009,4.009,0,0,1-2.711,1.067,4.116,4.116,0,0,1-2.906-1.212,3.99,3.99,0,0,1-1.154-2.87l0-.209a1.625,1.625,0,0,0-.457-1.2,1.833,1.833,0,0,0-1.281-.517A1.6,1.6,0,0,0,33.43,3.365l-.083.191a4.041,4.041,0,0,1-7.412,0l-.084-.193a1.6,1.6,0,0,0-1.526-1.027,1.833,1.833,0,0,0-1.281.517,1.623,1.623,0,0,0-.457,1.2l0,.21a3.992,3.992,0,0,1-1.154,2.869,4.116,4.116,0,0,1-2.906,1.212,4.008,4.008,0,0,1-2.711-1.068l-.154-.14a1.638,1.638,0,0,0-1.126-.469,1.827,1.827,0,0,0-1.491.836A1.592,1.592,0,0,0,12.963,9.1l.087.19a4.047,4.047,0,0,1-3.657,5.724,4.1,4.1,0,0,1-1.3-.215l-.2-.067a1.864,1.864,0,0,0-.593-.1,1.7,1.7,0,0,0-1.552,1.139,1.616,1.616,0,0,0,.476,1.853l.157.138a4.042,4.042,0,0,1-2.29,7.05l-.209.02a1.7,1.7,0,0,0-.348,3.319l.2.063a4.041,4.041,0,0,1,.776,7.371l-.183.1a1.63,1.63,0,0,0-.81,1.905,1.672,1.672,0,0,0,1.842,1.269l.208-.024a4.042,4.042,0,0,1,3.706,6.42l-.124.167a1.6,1.6,0,0,0-.177,1.746,1.7,1.7,0,0,0,2.409.735l.181-.106a4.043,4.043,0,0,1,2.048-.567,4.106,4.106,0,0,1,3.168,1.532,4,4,0,0,1,.78,3.391l-.046.205a1.611,1.611,0,0,0,.3,1.41,1.852,1.852,0,0,0,1.414.674,1.6,1.6,0,0,0,1.34-.727l.122-.171a3.982,3.982,0,0,1,3.273-1.7" transform="translate(0 0)" fill="#ed4024"/></g></svg>