<svg xmlns="http://www.w3.org/2000/svg" xmlns:xlink="http://www.w3.org/1999/xlink" width="165.972" height="306.851" viewBox="0 0 165.972 306.851"><defs><clipPath id="a"><path d="M2.349,3.735a6.4,6.4,0,0,1-.7.069,4.513,4.513,0,0,1-.625-.015,3.229,3.229,0,0,1-.551-.1A2.439,2.439,0,0,1,0,3.5L4.78,6.008a2.4,2.4,0,0,0,.473.185,3.182,3.182,0,0,0,.548.1,4.442,4.442,0,0,0,.621.014,6.278,6.278,0,0,0,.692-.071A5.412,5.412,0,0,0,8.54,5.814,6.185,6.185,0,0,0,9.8,5.04a10,10,0,0,0,1.171-1.1c.385-.416.768-.881,1.163-1.39L7.388.05c-.4.51-.782.975-1.168,1.392a10.027,10.027,0,0,1-1.176,1.1,6.205,6.205,0,0,1-1.264.774,5.432,5.432,0,0,1-1.431.421" fill="none"/></clipPath><clipPath id="b"><path d="M1.938,3.83,6.682,6.362a8.706,8.706,0,0,0-.2-1.293A5.261,5.261,0,0,0,6.1,3.992a3.486,3.486,0,0,0-.57-.847,2.942,2.942,0,0,0-.782-.6L0,0A2.971,2.971,0,0,1,.785.606a3.5,3.5,0,0,1,.572.849,5.274,5.274,0,0,1,.378,1.079,8.768,8.768,0,0,1,.2,1.3" fill="none"/></clipPath><clipPath id="c"><path d="M0,.221,4.76,2.787A17.763,17.763,0,0,1,6.9,2.613a13.406,13.406,0,0,1,1.957.1,10.51,10.51,0,0,1,1.775.382,8.853,8.853,0,0,1,1.59.666L7.493,1.207A8.688,8.688,0,0,0,6.422.719,9.622,9.622,0,0,0,5.263.365,11.106,11.106,0,0,0,4.016.143,13.2,13.2,0,0,0,2.683.052q-.318-.006-.644,0T1.378.082Q1.042.1.7.138T0,.221" fill="none"/></clipPath><clipPath id="d"><path d="M0,16.707a13.949,13.949,0,0,0,.307,3,10.984,10.984,0,0,0,.907,2.6,8.7,8.7,0,0,0,1.463,2.1A7.465,7.465,0,0,0,4.65,25.9l4.806,2.491a7.416,7.416,0,0,1-1.964-1.482,8.661,8.661,0,0,1-1.456-2.092,10.976,10.976,0,0,1-.9-2.6,13.975,13.975,0,0,1-.307-2.994A13.592,13.592,0,0,1,5.89,13.77a12.976,12.976,0,0,1,3.3-4.493,22.715,22.715,0,0,1,5.733-3.632,50.349,50.349,0,0,1,8.33-2.875L18.512.239a50.538,50.538,0,0,0-8.368,2.871A22.778,22.778,0,0,0,4.386,6.744a12.985,12.985,0,0,0-3.318,4.5A13.58,13.58,0,0,0,0,16.707" fill="none"/></clipPath><clipPath id="e"><path d="M0,0,165.972,17.89V301.752L0,306.851Z" fill="none"/></clipPath><clipPath id="f"><path d="M0,7.186l4.821,2.57A39.849,39.849,0,0,1,8.163,7.239,31.485,31.485,0,0,1,11.649,5.2a25.862,25.862,0,0,1,3.637-1.489,22.654,22.654,0,0,1,3.795-.872L14.32.275a22.827,22.827,0,0,0-3.811.87A26.008,26.008,0,0,0,6.857,2.633a31.614,31.614,0,0,0-3.5,2.036A39.976,39.976,0,0,0,0,7.186" fill="none"/></clipPath><clipPath id="h"><path d="M4.4,3.358a9.609,9.609,0,0,1-1.225.11A7.507,7.507,0,0,1,2.027,3.41,6.078,6.078,0,0,1,.966,3.176,5.273,5.273,0,0,1,0,2.76L4.365,5.188a5.285,5.285,0,0,0,.962.412,6.071,6.071,0,0,0,1.056.231,7.467,7.467,0,0,0,1.142.057,9.523,9.523,0,0,0,1.219-.111,10.078,10.078,0,0,0,1.627-.393,12.05,12.05,0,0,0,1.623-.673,14.863,14.863,0,0,0,1.61-.942,18.536,18.536,0,0,0,1.591-1.2L10.875.153a18.476,18.476,0,0,1-1.6,1.2,14.882,14.882,0,0,1-1.617.942,12.107,12.107,0,0,1-1.629.672A10.142,10.142,0,0,1,4.4,3.358" fill="none"/></clipPath><clipPath id="i"><path d="M2.065,5.139,6.4,7.583a11.416,11.416,0,0,0-.116-1.694,7.086,7.086,0,0,0-.366-1.456,4.368,4.368,0,0,0-.639-1.162,3.176,3.176,0,0,0-.935-.811L0,0A3.194,3.194,0,0,1,.939.815,4.386,4.386,0,0,1,1.581,1.98a7.088,7.088,0,0,1,.368,1.46,11.369,11.369,0,0,1,.115,1.7" fill="none"/></clipPath><clipPath id="k"><path d="M14.409.573A13.127,13.127,0,0,0,9.118,2.6a17.86,17.86,0,0,0-4.61,4.382A22.209,22.209,0,0,0,1.246,13.38,26.173,26.173,0,0,0,0,21.431a26.641,26.641,0,0,0,.5,5.322,18.443,18.443,0,0,0,1.423,4.34,13.581,13.581,0,0,0,2.228,3.33,11.451,11.451,0,0,0,2.911,2.294l4.388,2.415a11.374,11.374,0,0,1-2.9-2.284,13.521,13.521,0,0,1-2.219-3.32A18.4,18.4,0,0,1,4.912,29.2a26.615,26.615,0,0,1-.492-5.31,26.189,26.189,0,0,1,1.24-8.035A22.212,22.212,0,0,1,8.908,9.469,17.834,17.834,0,0,1,13.5,5.09a13.079,13.079,0,0,1,5.27-2.035,13.882,13.882,0,0,1,1.976-.139,11.288,11.288,0,0,1,1.806.147,9.713,9.713,0,0,1,1.638.417,8.994,8.994,0,0,1,1.471.67l-4.33-2.469a8.938,8.938,0,0,0-1.038-.508,9.31,9.31,0,0,0-1.123-.38A10.094,10.094,0,0,0,17.959.547a11.34,11.34,0,0,0-1.3-.107q-.268-.007-.543,0t-.557.021q-.282.016-.571.045t-.584.069" fill="none"/></clipPath><clipPath id="l"><path d="M2.1,1a4.594,4.594,0,0,1-.58.053,3.6,3.6,0,0,1-.546-.026A2.936,2.936,0,0,1,.466.916,2.576,2.576,0,0,1,0,.718L4.454,3.16a2.528,2.528,0,0,0,.464.2,2.89,2.89,0,0,0,.506.109,3.565,3.565,0,0,0,.543.025,4.579,4.579,0,0,0,.577-.054c.248-.037.5-.085.753-.143s.5-.126.746-.2a7.436,7.436,0,0,0,.708-.266A5.438,5.438,0,0,0,9.388,2.5L4.956.056a5.446,5.446,0,0,1-.642.329A7.459,7.459,0,0,1,3.6.651c-.245.078-.5.146-.748.2S2.349.961,2.1,1" fill="none"/></clipPath><clipPath id="m"><path d="M4.774,11.9l4.485,2.429a7.086,7.086,0,0,1-2.142-1.8A9.706,9.706,0,0,1,5.634,9.89,16.117,16.117,0,0,1,4.776,6.5,27.055,27.055,0,0,1,4.5,2.465L0,0A27.044,27.044,0,0,0,.273,4.049a16.141,16.141,0,0,0,.862,3.4,9.743,9.743,0,0,0,1.488,2.648A7.131,7.131,0,0,0,4.774,11.9" fill="none"/></clipPath><clipPath id="o"><path d="M5.581.253a6.576,6.576,0,0,0-2.243.7A6.079,6.079,0,0,0,1.574,2.361a6.306,6.306,0,0,0-1.156,2A7.344,7.344,0,0,0,0,6.829,7.167,7.167,0,0,0,.158,8.382a5.387,5.387,0,0,0,.461,1.3,4.385,4.385,0,0,0,.732,1.037,4.07,4.07,0,0,0,.973.749L6.9,14.014a4.063,4.063,0,0,1-.97-.747A4.36,4.36,0,0,1,5.2,12.233a5.368,5.368,0,0,1-.458-1.3,7.19,7.19,0,0,1-.157-1.552A7.33,7.33,0,0,1,5,6.914a6.3,6.3,0,0,1,1.15-1.992,6.074,6.074,0,0,1,1.757-1.4,6.565,6.565,0,0,1,2.233-.707,6.4,6.4,0,0,1,.9-.057,5.439,5.439,0,0,1,.839.071,4.739,4.739,0,0,1,.773.195,4.284,4.284,0,0,1,.7.313L8.8.778A4.256,4.256,0,0,0,8.309.541,4.544,4.544,0,0,0,7.775.365,4.951,4.951,0,0,0,7.205.25,5.478,5.478,0,0,0,6.6.2q-.123,0-.248,0T6.1.2q-.128.007-.258.019T5.581.253" fill="none"/></clipPath><clipPath id="p"><path d="M.764.339A1.28,1.28,0,0,1,.578.353,1.236,1.236,0,0,1,.386.338,1.2,1.2,0,0,1,.192.291,1.194,1.194,0,0,1,0,.208L4.618,2.682a1.281,1.281,0,0,0,.192.082,1.23,1.23,0,0,0,.57.05c.093-.015.18-.029.264-.045s.168-.034.256-.057.18-.052.281-.089.213-.082.34-.14L1.911.015c-.126.057-.238.1-.339.138s-.194.065-.282.087S1.117.281,1.031.3.858.325.764.339" fill="none"/></clipPath><clipPath id="q"><path d="M4.034,10.893l4.648,2.464a5.7,5.7,0,0,1-1.869-1.6A8.463,8.463,0,0,1,5.567,9.35,15.737,15.737,0,0,1,4.874,6.23a29.441,29.441,0,0,1-.211-3.742L0,0A29.332,29.332,0,0,0,.209,3.748,15.717,15.717,0,0,0,.9,6.875,8.474,8.474,0,0,0,2.155,9.288a5.726,5.726,0,0,0,1.879,1.605" fill="none"/></clipPath><clipPath id="s"><path d="M9.689,6.292A12.937,12.937,0,0,1,9.1,10.338a8.49,8.49,0,0,1-1.781,3.094A9.49,9.49,0,0,1,4.3,15.607,16.631,16.631,0,0,1,0,16.892L4.94,19.33a16.547,16.547,0,0,0,4.284-1.287,9.46,9.46,0,0,0,3-2.173A8.486,8.486,0,0,0,14,12.78a12.947,12.947,0,0,0,.586-4.038,12.259,12.259,0,0,0-.178-2.216,7.081,7.081,0,0,0-.541-1.754,4.833,4.833,0,0,0-.9-1.32,4.609,4.609,0,0,0-1.254-.912L6.8.073A4.646,4.646,0,0,1,8.062.99a4.854,4.854,0,0,1,.9,1.324,7.1,7.1,0,0,1,.544,1.758,12.3,12.3,0,0,1,.18,2.221" fill="none"/></clipPath><clipPath id="u"><path d="M0,.486l4.939,2.49A33.377,33.377,0,0,1,8.26,2.6a23.327,23.327,0,0,1,3.071.008,16.2,16.2,0,0,1,2.777.433,11.686,11.686,0,0,1,2.44.9L11.661,1.463A11.236,11.236,0,0,0,10.129.828,13.6,13.6,0,0,0,8.45.39,16.942,16.942,0,0,0,6.638.14Q5.7.06,4.7.066,4.146.069,3.573.1T2.412.18Q1.823.233,1.22.31T0,.486" fill="none"/></clipPath><clipPath id="w"><path d="M2.675,6.389a6.923,6.923,0,0,1-.769.1,4.909,4.909,0,0,1-.7,0,3.649,3.649,0,0,1-.635-.1A2.973,2.973,0,0,1,0,6.169L4.777,8.54a2.9,2.9,0,0,0,.565.21,3.586,3.586,0,0,0,.631.1,4.868,4.868,0,0,0,.7,0,6.93,6.93,0,0,0,.766-.1A7.21,7.21,0,0,0,9.4,8.111,7.694,7.694,0,0,0,11.144,6.9,13.34,13.34,0,0,0,12.8,5.043,30.641,30.641,0,0,0,14.51,2.467L9.777.094a30.613,30.613,0,0,1-1.72,2.58A13.346,13.346,0,0,1,6.4,4.532,7.712,7.712,0,0,1,4.65,5.745a7.245,7.245,0,0,1-1.974.643" fill="none"/></clipPath><clipPath id="y"><path d="M4.745,12.7l4.8,2.357a6.265,6.265,0,0,1-2.113-1.7,9.338,9.338,0,0,1-1.474-2.682A17.375,17.375,0,0,1,5.1,7.065a32.344,32.344,0,0,1-.274-4.48L0,.193A32.331,32.331,0,0,0,.277,4.682,17.411,17.411,0,0,0,1.142,8.3a9.39,9.39,0,0,0,1.48,2.691A6.319,6.319,0,0,0,4.745,12.7" fill="none"/></clipPath><clipPath id="aa"><path d="M2.829,4.991a7.409,7.409,0,0,1-.808.1,5.34,5.34,0,0,1-.746,0A3.861,3.861,0,0,1,.6,4.987,2.923,2.923,0,0,1,0,4.765L4.615,7.109a2.922,2.922,0,0,0,.6.221,3.839,3.839,0,0,0,.674.106,5.307,5.307,0,0,0,.743,0,7.394,7.394,0,0,0,.805-.1,7.94,7.94,0,0,0,1.812-.553,8.7,8.7,0,0,0,1.667-.983,13.233,13.233,0,0,0,1.617-1.441,25.056,25.056,0,0,0,1.66-1.926L9.616.082A25.236,25.236,0,0,1,7.948,2.011,13.288,13.288,0,0,1,6.324,3.454a8.725,8.725,0,0,1-1.674.984,7.971,7.971,0,0,1-1.821.553" fill="none"/></clipPath><clipPath id="ab"><path d="M2.4,5.568,6.971,7.943A13.464,13.464,0,0,0,6.8,6.161,7.886,7.886,0,0,0,6.384,4.6a4.677,4.677,0,0,0-.721-1.265,3.422,3.422,0,0,0-1.078-.881L0,.062A3.455,3.455,0,0,1,1.083.947a4.7,4.7,0,0,1,.725,1.268,7.882,7.882,0,0,1,.421,1.568A13.4,13.4,0,0,1,2.4,5.568" fill="none"/></clipPath><clipPath id="ac"><path d="M0,.247,4.593,2.653a14.586,14.586,0,0,1,1.854-.194,11.144,11.144,0,0,1,1.692.06,8.9,8.9,0,0,1,1.531.31,7.655,7.655,0,0,1,1.37.556L6.476.987a7.6,7.6,0,0,0-.94-.414,8.259,8.259,0,0,0-1.018-.3A9.38,9.38,0,0,0,3.421.1,11.018,11.018,0,0,0,2.246.045q-.266,0-.539.015T1.153.1Q.872.123.584.16T0,.247" fill="none"/></clipPath><clipPath id="ad"><path d="M0,16.962a13.4,13.4,0,0,0,.287,2.862,9.743,9.743,0,0,0,.835,2.384A7.536,7.536,0,0,0,2.45,24.067a6.675,6.675,0,0,0,1.763,1.288L8.85,27.686A6.64,6.64,0,0,1,7.094,26.4a7.493,7.493,0,0,1-1.321-1.852,9.711,9.711,0,0,1-.831-2.377,13.409,13.409,0,0,1-.286-2.856,13.53,13.53,0,0,1,1.082-5.484A13.322,13.322,0,0,1,9.076,9.309a24.319,24.319,0,0,1,5.753-3.743,55.861,55.861,0,0,1,8.305-3.137L18.561.053a56.127,56.127,0,0,0-8.342,3.135A24.4,24.4,0,0,0,4.441,6.933a13.334,13.334,0,0,0-3.354,4.533A13.528,13.528,0,0,0,0,16.962" fill="none"/></clipPath><clipPath id="af"><path d="M0,6.934,4.647,9.34c.872-.776,1.808-1.545,2.8-2.274a31.338,31.338,0,0,1,3.129-2.036,24.487,24.487,0,0,1,3.406-1.608,19.247,19.247,0,0,1,3.632-.991L13.021.024a19.325,19.325,0,0,0-3.646.989A24.61,24.61,0,0,0,5.954,2.622,31.5,31.5,0,0,0,2.811,4.659c-1,.73-1.936,1.5-2.811,2.275" fill="none"/></clipPath><clipPath id="ah"><path d="M2.1,6.9,6.516,9.249a24.387,24.387,0,0,0-.122-2.635,10.835,10.835,0,0,0-.382-1.989A4.766,4.766,0,0,0,5.36,3.236,2.708,2.708,0,0,0,4.425,2.4L0,.04A2.733,2.733,0,0,1,.94.88,4.777,4.777,0,0,1,1.6,2.273a10.8,10.8,0,0,1,.383,1.993A24.223,24.223,0,0,1,2.1,6.9" fill="none"/></clipPath><clipPath id="ai"><path d="M0,.167,4.423,2.543A10.951,10.951,0,0,1,5.849,2.4a8.332,8.332,0,0,1,1.3.052A6.69,6.69,0,0,1,8.318,2.7a5.851,5.851,0,0,1,1.048.439L4.965.765A5.851,5.851,0,0,0,4.242.438,6.284,6.284,0,0,0,3.46.2,7.075,7.075,0,0,0,2.619.062a8.269,8.269,0,0,0-.9-.046q-.2,0-.412.01T.882.055Q.667.074.447.1T0,.167" fill="none"/></clipPath><clipPath id="aj"><path d="M0,7.346,4.465,9.717c.68-.875,1.384-1.728,2.122-2.526A21.732,21.732,0,0,1,8.913,5,13.9,13.9,0,0,1,11.5,3.328a10.528,10.528,0,0,1,2.9-.943L9.978.01A10.565,10.565,0,0,0,7.063.95a13.92,13.92,0,0,0-2.6,1.668,21.743,21.743,0,0,0-2.335,2.2C1.39,5.615.683,6.47,0,7.346" fill="none"/></clipPath><clipPath id="al"><path d="M8.818.951Q7.742.835,6.652.762T4.459.658Q3.356.627,2.241.641T0,.713L4.638,3.656a55.1,55.1,0,0,1,8.737.22A53.222,53.222,0,0,1,29.482,8.2a54.731,54.731,0,0,1,7.236,3.9l-4.5-2.878a55.436,55.436,0,0,0-5.382-3.036,54.131,54.131,0,0,0-5.71-2.417A53.548,53.548,0,0,0,15.119,2.01,53.844,53.844,0,0,0,8.835.952Z" fill="none"/></clipPath><clipPath id="an"><path d="M0,86.413a81.436,81.436,0,0,0,2.357,19.8,72.6,72.6,0,0,0,6.7,17.3,64.688,64.688,0,0,0,10.337,14.095,57.963,57.963,0,0,0,13.258,10.234l4.785,2.675a57.6,57.6,0,0,1-13.2-10.194,64.416,64.416,0,0,1-10.291-14.05,72.45,72.45,0,0,1-6.667-17.257A81.394,81.394,0,0,1,4.93,89.266a86.791,86.791,0,0,1,5.364-29.873,83.812,83.812,0,0,1,14.4-24.918,72.3,72.3,0,0,1,20.972-17.25,59.668,59.668,0,0,1,25.11-7.175L66.134,7.106a59.979,59.979,0,0,0-25.219,7.158A72.454,72.454,0,0,0,19.85,31.524,83.812,83.812,0,0,0,5.389,56.478,86.767,86.767,0,0,0,0,86.413" fill="none"/></clipPath></defs><path d="M5.464,6.139.728,3.661,0,0,4.742,2.486Z" transform="translate(59.718 231.189)" fill="#010000"/><path d="M4.745,8.453,0,5.95.01,0,4.754,2.516Z" transform="translate(58.613 218.123)" fill="#010000"/><g transform="translate(51.225 224.023)"><g clip-path="url(#a)"><path d="M4.777,2.5,0,0,.034.017.068.034.1.051.138.067l4.776,2.5L4.88,2.555l-.035-.017-.034-.017L4.777,2.5" transform="translate(0.002 3.504)" fill="#010000"/><path d="M4.776,2.5,0,0Q.062.027.127.051T.258.1Q.325.116.4.135T.538.168l4.774,2.5q-.073-.015-.142-.032T5.033,2.6q-.067-.021-.131-.045T4.776,2.5" transform="translate(0.141 3.571)" fill="#010000"/><path d="M4.774,3.162,0,.66A3.4,3.4,0,0,0,.37.714q.193.018.4.017T1.206.712Q1.431.694,1.67.658q.256-.04.5-.1t.475-.14q.232-.08.453-.18T3.532.019l4.761,2.5q-.213.119-.434.219t-.452.181q-.231.08-.473.141t-.5.1q-.238.036-.462.055t-.431.019q-.208,0-.4-.017a3.411,3.411,0,0,1-.37-.053" transform="translate(0.679 3.079)" fill="#010000"/><path d="M4.761,3.126,0,.626Q.118.56.234.487t.23-.15Q.578.26.69.176T.913.005l4.755,2.5q-.11.089-.222.172t-.225.161q-.113.078-.228.149t-.232.138" transform="translate(4.211 2.47)" fill="#010000"/><path d="M4.755,3.342,0,.841Q.115.749.229.65t.227-.2Q.569.342.682.231T.907.006l4.751,2.5q-.111.115-.223.226t-.225.215q-.113.1-.227.2t-.229.191" transform="translate(5.126 1.634)" fill="#010000"/><path d="M4.751,4.1,0,1.6q.169-.174.337-.361T.673.851q.169-.2.339-.41T1.355.009L6.1,2.512q-.172.221-.342.432t-.337.409q-.168.2-.335.385T4.751,4.1" transform="translate(6.033 0.041)" fill="#010000"/></g></g><g transform="translate(56.698 207.157)"><g clip-path="url(#b)"><path d="M6.682,6.362,1.938,3.83a8.737,8.737,0,0,0-.2-1.3,5.284,5.284,0,0,0-.379-1.079A3.51,3.51,0,0,0,.784.606,2.971,2.971,0,0,0,0,0L4.753,2.542a2.951,2.951,0,0,1,.781.6,3.489,3.489,0,0,1,.569.847A5.271,5.271,0,0,1,6.48,5.069a8.758,8.758,0,0,1,.2,1.293" fill="#010000"/></g></g><g transform="translate(55.624 197.023)"><g clip-path="url(#c)"><path d="M4.758,2.789,0,.223q.7-.1,1.368-.14t1.3-.032Q3.3.063,3.891.129A11.255,11.255,0,0,1,5.044.318L9.782,2.877a11.215,11.215,0,0,0-1.15-.187q-.593-.066-1.221-.076t-1.292.033q-.664.044-1.362.142" transform="translate(0.002 -0.002)" fill="#010000"/><path d="M4.736,2.559,0,0Q.253.055.5.122T.984.266q.239.078.47.168t.455.191L6.636,3.181q-.223-.1-.453-.19t-.468-.167q-.238-.078-.482-.144t-.5-.121" transform="translate(5.047 0.316)" fill="#010000"/><path d="M4.727,2.556,0,0,.137.063.272.128.405.2l.132.07L5.262,2.821l-.132-.07L5,2.683l-.134-.065-.136-.063" transform="translate(6.955 0.941)" fill="#010000"/></g></g><g transform="translate(40.123 210.749)"><g clip-path="url(#d)"><path d="M9.455,15.843,4.65,13.351a7.46,7.46,0,0,1-1.972-1.487,8.694,8.694,0,0,1-1.462-2.1,11,11,0,0,1-.907-2.6,13.981,13.981,0,0,1-.308-3Q0,3.607.037,3.07T.146,2.013Q.219,1.493.329.991T.586,0L5.41,2.53q-.147.484-.256.985t-.182,1.02q-.072.519-.109,1.055t-.037,1.09a13.975,13.975,0,0,0,.307,2.994,10.976,10.976,0,0,0,.9,2.6,8.661,8.661,0,0,0,1.456,2.092,7.416,7.416,0,0,0,1.964,1.482" transform="translate(0 12.545)" fill="#010000"/><path d="M4.824,4.1,0,1.572q.061-.2.129-.4T.271.777Q.346.581.428.388T.6,0L5.419,2.533q-.087.19-.168.383T5.1,3.3q-.074.2-.142.394t-.129.4" transform="translate(0.586 10.98)" fill="#010000"/><path d="M4.821,3.762,0,1.234Q.073,1.076.151.921T.31.612Q.393.458.48.307t.178-.3l4.818,2.53q-.091.15-.178.3t-.168.3q-.082.153-.159.308t-.15.313" transform="translate(1.185 9.75)" fill="#010000"/><path d="M4.818,3.677,0,1.146Q.09,1,.184.856T.376.57q.1-.142.2-.283t.21-.28L5.6,2.539q-.108.139-.211.279t-.2.283q-.1.142-.192.286t-.183.29" transform="translate(1.845 8.607)" fill="#010000"/><path d="M4.815,3.721,0,1.19q.118-.151.241-.3t.252-.3Q.621.444.755.3T1.028.01L5.84,2.545q-.139.142-.273.287t-.262.292q-.128.147-.251.3t-.24.3" transform="translate(2.632 7.427)" fill="#010000"/><path d="M4.81,3.924,0,1.391q.173-.179.356-.354T.73.69Q.922.518,1.122.35T1.531.016l4.8,2.534q-.208.165-.407.334t-.39.341q-.19.172-.372.347t-.356.352" transform="translate(3.663 6.046)" fill="#010000"/><path d="M4.8,4.556,0,2.021q.333-.264.688-.52T1.421,1Q1.8.749,2.2.508T3.026.033l4.79,2.535q-.423.234-.822.475t-.776.49q-.377.248-.73.5T4.8,4.556" transform="translate(5.194 4.043)" fill="#010000"/><path d="M4.79,6.506,0,3.97Q1.013,3.413,2.161,2.9t2.432-1Q5.877,1.422,7.3.981T10.292.133l4.744,2.532q-1.561.408-2.978.85t-2.7.921q-1.28.479-2.421,1T4.79,6.506" transform="translate(8.22 0.106)" fill="#010000"/></g></g><g clip-path="url(#e)"><path d="M15.434.5a13.755,13.755,0,0,1,5.611.235,8.481,8.481,0,0,1,4.11,2.532A12.066,12.066,0,0,1,27.681,8.2a27.96,27.96,0,0,1,.852,7.438L28.5,36.721l-8.262,1.3-.725-3.653-.249.04a27.987,27.987,0,0,1-2.092,2.227,18.5,18.5,0,0,1-2.235,1.824A13.481,13.481,0,0,1,12.511,39.8a11.488,11.488,0,0,1-2.659.758A8.784,8.784,0,0,1,5.759,40.3a7.35,7.35,0,0,1-3.106-1.966A9.18,9.18,0,0,1,.684,35,13.187,13.187,0,0,1,0,30.666a13.588,13.588,0,0,1,1.064-5.453,12.979,12.979,0,0,1,3.3-4.493A22.718,22.718,0,0,1,10.1,17.087a50.339,50.339,0,0,1,8.331-2.875,7.4,7.4,0,0,0-.421-2,3.57,3.57,0,0,0-.92-1.4,3.182,3.182,0,0,0-1.5-.74,6.182,6.182,0,0,0-2.163-.019,11.143,11.143,0,0,0-2,.486,15.021,15.021,0,0,0-2.066.892,23.491,23.491,0,0,0-2.2,1.308c-.762.507-1.557,1.084-2.394,1.735l-3.6-7.05A39.883,39.883,0,0,1,4.519,4.9,31.481,31.481,0,0,1,8,2.863,25.848,25.848,0,0,1,11.64,1.374,22.644,22.644,0,0,1,15.434.5m2.975,26.766.01-5.937a27.927,27.927,0,0,0-4.087,1.538A11.694,11.694,0,0,0,11.7,24.541a5.529,5.529,0,0,0-1.407,1.8,4.467,4.467,0,0,0-.418,1.92,3.719,3.719,0,0,0,.231,1.388,2.05,2.05,0,0,0,.679.9,2.427,2.427,0,0,0,1.1.431,5.038,5.038,0,0,0,1.5-.032,5.4,5.4,0,0,0,1.425-.422,6.185,6.185,0,0,0,1.258-.774,10.009,10.009,0,0,0,1.171-1.1c.385-.416.768-.881,1.163-1.39" transform="translate(44.95 199.307)" fill="#3c3c3b"/><path d="M8.416,9.617,3.612,7.07,0,0,4.821,2.567Z" transform="translate(41.304 204.156)" fill="#010000"/></g><g transform="translate(41.303 196.969)"><g clip-path="url(#f)"><path d="M4.823,3.345,0,.778.235.585.47.393.706.2.942.015,5.759,2.583l-.234.187-.234.19-.234.192-.233.193" transform="translate(0 6.41)" fill="#010000"/><path d="M4.817,5.925,0,3.357q.595-.468,1.2-.908T2.417,1.6q.614-.41,1.237-.788T4.911.088l4.8,2.569q-.63.345-1.25.723t-1.231.788q-.611.41-1.213.849t-1.2.908" transform="translate(0.942 3.068)" fill="#010000"/><path d="M4.8,5.612,0,3.043q1.008-.55,2.04-1.011t2.09-.826Q5.188.842,6.273.579A22.312,22.312,0,0,1,8.467.163l4.76,2.566q-1.107.155-2.186.419t-2.133.628Q7.854,4.14,6.827,4.6T4.8,5.612" transform="translate(5.853 0.113)" fill="#010000"/></g></g><g clip-path="url(#e)"><path d="M15.387,21.353l-4.888-2.5L0,0,4.935,2.559Z" transform="translate(15.782 221.324)" fill="#010000"/><path d="M4.9,4.419,0,1.8,11.567.263,16.414,2.87Z" transform="translate(23.843 188.991)" fill="#010000"/><path d="M4.956,24.389,0,21.8,12.733.279l4.9,2.618Z" transform="translate(11.108 190.513)" fill="#010000"/><path d="M4.957,2.618,0,.034.22,0,5.179,2.587Z" transform="translate(10.886 212.315)" fill="#010000"/><path d="M35.25.761l-13.32,21.7L37.653,49.771l-11.49,1.806L15.711,32.783l-4.9,8.091L10.781,54,0,55.691l.093-50.2,10.78-1.449-.036,19.794.219-.034L23.735,2.309Z" transform="translate(5.006 191.099)" fill="#3c3c3b"/><path d="M5.006,52.841,0,50.316.093,0,5.1,2.641Z" transform="translate(0.001 193.95)" fill="#010000"/><path d="M5.005,4.308,0,1.669,10.829.227l4.956,2.629Z" transform="translate(0.093 192.283)" fill="#010000"/><path d="M0,38.247.064,1.573,9.812.21l-.063,36.5Z" transform="translate(99.938 193.615)" fill="#3c3c3b"/><path d="M4.584,39.2,0,36.755.064,0,4.648,2.53Z" transform="translate(95.354 192.658)" fill="#010000"/><path d="M4.584,4.1,0,1.575,9.79.22l4.542,2.52Z" transform="translate(95.418 191.084)" fill="#010000"/></g><g transform="translate(146.689 209.726)"><g clip-path="url(#h)"><path d="M4.365,2.425,0,0,.078.043.158.084l.081.04L.32.162,4.685,2.587,4.6,2.549l-.08-.04-.08-.041-.078-.042" transform="translate(0 2.76)" fill="#010000"/><path d="M4.364,2.425,0,0Q.137.064.278.12t.286.1Q.71.273.858.315t.3.075L5.521,2.812q-.152-.034-.3-.075t-.293-.089q-.145-.048-.285-.1t-.277-.119" transform="translate(0.32 2.924)" fill="#010000"/><path d="M4.359,3.958,0,1.536a6.51,6.51,0,0,0,.68.111q.349.038.714.043t.746-.023q.38-.028.775-.088A9.926,9.926,0,0,0,3.93,1.369q.507-.133,1.014-.32T5.956.622Q6.461.383,6.964.092l4.33,2.417q-.5.291-1,.531t-1.007.427q-.5.187-1.009.321A9.728,9.728,0,0,1,7.264,4q-.393.06-.772.089t-.743.024q-.364,0-.712-.042a6.373,6.373,0,0,1-.679-.111" transform="translate(1.482 1.778)" fill="#010000"/><path d="M4.33,4.157,0,1.739q.3-.177.608-.372T1.213.959q.3-.213.6-.444t.6-.481l4.32,2.418q-.3.249-.6.48t-.6.444q-.3.213-.6.408t-.606.372" transform="translate(8.444 0.131)" fill="#010000"/><path d="M4.32,2.433,0,.015.016,0l4.32,2.421-.016.012" transform="translate(10.86 0.152)" fill="#010000"/></g></g><g transform="translate(151.645 193.174)"><g clip-path="url(#i)"><path d="M6.4,7.586,2.065,5.139a11.369,11.369,0,0,0-.115-1.7,7.088,7.088,0,0,0-.368-1.46A4.386,4.386,0,0,0,.939.815,3.194,3.194,0,0,0,0,0L4.345,2.46a3.177,3.177,0,0,1,.935.812,4.372,4.372,0,0,1,.64,1.162,7.079,7.079,0,0,1,.366,1.457A11.367,11.367,0,0,1,6.4,7.586" fill="#010000"/></g></g><g clip-path="url(#e)"><path d="M4.379,4.149,0,1.693,10.27.2l4.336,2.449Z" transform="translate(143.439 198.109)" fill="#010000"/><path d="M27.2,15.842c0,.5-.014.994-.036,1.469s-.052.93-.087,1.355-.077.82-.119,1.173-.088.663-.132.92L9.158,23.414a9.654,9.654,0,0,0,.994,2.972,5.64,5.64,0,0,0,1.648,1.9,5.346,5.346,0,0,0,2.2.906,8.146,8.146,0,0,0,2.659-.009,10.08,10.08,0,0,0,1.626-.393,12.065,12.065,0,0,0,1.623-.673,14.872,14.872,0,0,0,1.611-.942,18.513,18.513,0,0,0,1.591-1.2l2.978,6.2A20.545,20.545,0,0,1,23.6,34.314,21.358,21.358,0,0,1,20.88,36a20.138,20.138,0,0,1-2.8,1.2,16.727,16.727,0,0,1-2.749.688A13.706,13.706,0,0,1,9.3,37.575a11.247,11.247,0,0,1-4.871-2.91,14.179,14.179,0,0,1-3.256-5.43A23.993,23.993,0,0,1,0,21.385a26.183,26.183,0,0,1,1.241-8.035A22.211,22.211,0,0,1,4.489,6.966a17.832,17.832,0,0,1,4.59-4.378A13.071,13.071,0,0,1,14.349.554a11.265,11.265,0,0,1,5.688.525,9.214,9.214,0,0,1,4.011,3.057A14.325,14.325,0,0,1,26.424,9.22a25.846,25.846,0,0,1,.778,6.621m-18.155.1,10.227-1.5a10.209,10.209,0,0,0-.254-2.413,5.007,5.007,0,0,0-.819-1.84A3.142,3.142,0,0,0,16.746,9.1a4.432,4.432,0,0,0-2.164-.16,5.346,5.346,0,0,0-1.9.654,6,6,0,0,0-1.63,1.386A8.109,8.109,0,0,0,9.8,13.093a12.115,12.115,0,0,0-.755,2.846" transform="translate(138.77 186.32)" fill="#3c3c3b"/></g><g transform="translate(134.352 183.819)"><g clip-path="url(#k)"><path d="M11.445,25.108,7.057,22.693A11.455,11.455,0,0,1,4.146,20.4a13.582,13.582,0,0,1-2.229-3.33,18.431,18.431,0,0,1-1.423-4.34A26.609,26.609,0,0,1,0,7.407q0-1,.072-1.957t.2-1.886Q.407,2.64.6,1.753T1.041.02L5.454,2.49q-.246.844-.438,1.729T4.693,6.027q-.132.923-.2,1.883T4.42,9.863a26.628,26.628,0,0,0,.492,5.311A18.4,18.4,0,0,0,6.328,19.5a13.52,13.52,0,0,0,2.219,3.32,11.374,11.374,0,0,0,2.9,2.284" transform="translate(0 14.023)" fill="#010000"/><path d="M4.415,5.477,0,3.008q.116-.392.242-.774t.263-.756Q.642,1.1.79.741T1.1.023L5.506,2.5q-.157.353-.3.716t-.284.736q-.136.373-.262.755t-.24.773" transform="translate(1.041 11.036)" fill="#010000"/><path d="M4.408,4.746,0,2.272q.132-.295.27-.583T.553,1.12Q.7.839.849.566t.308-.54L5.561,2.5q-.156.267-.307.54T4.959,3.6q-.144.28-.282.567t-.269.581" transform="translate(2.138 8.79)" fill="#010000"/><path d="M4.4,4.4,0,1.923q.148-.25.3-.493T.611.95Q.769.713.931.483t.33-.454l4.4,2.481q-.166.223-.328.453t-.319.466q-.157.236-.309.479T4.4,4.4" transform="translate(3.296 6.893)" fill="#010000"/><path d="M4.4,4.2,0,1.724Q.169,1.5.342,1.28T.693.85q.178-.211.36-.415t.368-.4L5.815,2.517q-.186.2-.367.4t-.359.415q-.177.211-.35.43T4.4,4.2" transform="translate(4.556 5.198)" fill="#010000"/><path d="M4.392,4.1,0,1.615Q.2,1.4.41,1.2t.418-.4q.211-.2.426-.385T1.688.042L6.073,2.526q-.218.178-.432.366t-.425.384q-.21.2-.417.4T4.392,4.1" transform="translate(5.979 3.618)" fill="#010000"/><path d="M4.385,4.068,0,1.584q.269-.219.543-.425T1.1.763Q1.376.572,1.66.4T2.231.057L6.607,2.544q-.286.161-.569.337t-.56.367q-.278.191-.551.4t-.542.425" transform="translate(7.667 2.075)" fill="#010000"/><path d="M4.376,4.358,0,1.873q.546-.307,1.1-.56T2.228.864q.566-.2,1.137-.335A11.533,11.533,0,0,1,4.511.312q.617-.085,1.2-.117T6.856.181Q7.411.2,7.937.269A10.328,10.328,0,0,1,8.959.453L13.3,2.932a10.181,10.181,0,0,0-1.018-.184q-.524-.068-1.077-.086t-1.137.014q-.584.033-1.2.118a11.48,11.48,0,0,0-1.139.219q-.569.139-1.133.336T5.476,3.8q-.556.253-1.1.56" transform="translate(9.898 0.261)" fill="#010000"/><path d="M4.338,2.477,0,0Q.255.06.5.131T.987.287q.239.084.47.18t.454.2L6.244,3.144q-.223-.107-.454-.2t-.469-.179q-.238-.084-.484-.155t-.5-.131" transform="translate(18.858 0.714)" fill="#010000"/><path d="M4.33,2.473,0,0,.142.07l.14.072L.421.217.56.293,4.887,2.765l-.137-.076-.139-.074-.14-.072-.142-.07" transform="translate(20.772 1.386)" fill="#010000"/></g></g><g transform="translate(125.868 215.387)"><g clip-path="url(#l)"><path d="M4.454,2.442,0,0,.04.021l.04.02.04.02L.159.08,4.612,2.522,4.572,2.5l-.04-.02-.04-.02-.04-.021" transform="translate(0 0.718)" fill="#010000"/><path d="M4.453,2.442,0,0Q.066.03.133.057T.271.106Q.34.129.411.148T.555.183L5.005,2.624q-.072-.015-.143-.035t-.14-.042q-.069-.023-.137-.049t-.133-.057" transform="translate(0.159 0.799)" fill="#010000"/><path d="M4.451,3.358,0,.917A3.139,3.139,0,0,0,.325.969q.166.018.34.019T1.018.977Q1.2.963,1.385.935C1.624.9,1.867.853,2.109.8S2.593.679,2.83.605,3.3.448,3.518.355A5.732,5.732,0,0,0,4.146.046L8.581,2.484a5.7,5.7,0,0,1-.625.308c-.22.093-.451.177-.686.251s-.477.138-.718.194-.484.1-.722.137q-.185.029-.365.042t-.352.012q-.173,0-.338-.019a3.119,3.119,0,0,1-.324-.051" transform="translate(0.716 0.065)" fill="#010000"/><path d="M4.433,2.494,0,.056.024.042.047.029.069.015.092,0,4.526,2.439l-.094.055" transform="translate(4.862 0.054)" fill="#010000"/></g></g><g transform="translate(114.373 212.955)"><g clip-path="url(#m)"><path d="M9.259,14.328,4.776,11.9a7.121,7.121,0,0,1-2.152-1.805A9.732,9.732,0,0,1,1.136,7.444a16.145,16.145,0,0,1-.862-3.4A27.1,27.1,0,0,1,0,0L4.5,2.462A27.089,27.089,0,0,0,4.775,6.5a16.125,16.125,0,0,0,.858,3.387,9.7,9.7,0,0,0,1.482,2.64,7.082,7.082,0,0,0,2.143,1.8" transform="translate(0 0.002)" fill="#010000"/></g></g><g clip-path="url(#e)"><path d="M4.461,3.682,0,1.179l7.239-1,4.43,2.5Z" transform="translate(124.12 187.507)" fill="#010000"/><path d="M4.5,16.536,0,14.074.023,0l4.5,2.492Z" transform="translate(114.373 198.884)" fill="#010000"/><path d="M4.5,3.834,0,1.3,8,.234,12.464,2.76Z" transform="translate(116.136 177.36)" fill="#010000"/><path d="M4.5,13.835,0,11.324,1.154.033l4.5,2.534Z" transform="translate(114.982 178.627)" fill="#010000"/><path d="M4.521,3.652,0,1.138,4.774.111l4.5,2.513Z" transform="translate(110.207 189.839)" fill="#010000"/><path d="M13.887.39l-.018,11.066,7.208-1.008-.016,8.766-7.208,1.039L13.83,34.082a9.85,9.85,0,0,0,.281,2.553,4,4,0,0,0,.8,1.614,2.515,2.515,0,0,0,1.226.783,3.654,3.654,0,0,0,1.564.062c.248-.038.5-.086.751-.144s.5-.126.746-.2a7.451,7.451,0,0,0,.708-.266,5.409,5.409,0,0,0,.638-.328l1.46,7.6c-.4.243-.845.494-1.336.742s-1.028.493-1.61.722a19.029,19.029,0,0,1-4.024,1.094,10.468,10.468,0,0,1-4.942-.254A7.035,7.035,0,0,1,6.709,45.67a11.1,11.1,0,0,1-1.936-4.225,23.939,23.939,0,0,1-.61-5.756l.026-14.043L0,22.249.014,13.76l4.754-1.028L5.919,1.464Z" transform="translate(114.713 179.731)" fill="#3c3c3b"/><path d="M4.521,11.006,0,8.51.014,0,4.535,2.517Z" transform="translate(110.192 190.975)" fill="#010000"/><path d="M5.536,11.954A5.639,5.639,0,0,1,3.3,11.845,4.186,4.186,0,0,1,1.552,10.9,4.443,4.443,0,0,1,.407,9.2,6.559,6.559,0,0,1,0,6.813,7.337,7.337,0,0,1,.416,4.348,6.3,6.3,0,0,1,1.567,2.356,6.077,6.077,0,0,1,3.324.952,6.565,6.565,0,0,1,5.557.245,5.636,5.636,0,0,1,7.773.364,4.187,4.187,0,0,1,9.509,1.3a4.4,4.4,0,0,1,1.132,1.68,6.418,6.418,0,0,1,.4,2.344,7.5,7.5,0,0,1-.411,2.483A6.385,6.385,0,0,1,9.494,9.815a6.063,6.063,0,0,1-1.741,1.419,6.462,6.462,0,0,1-2.218.719" transform="translate(99.37 177.392)" fill="#3c3c3b"/></g><g transform="translate(94.783 174.826)"><g clip-path="url(#o)"><path d="M6.9,9.327,2.324,6.787a4.087,4.087,0,0,1-.973-.751A4.389,4.389,0,0,1,.619,5,5.386,5.386,0,0,1,.158,3.694,7.175,7.175,0,0,1,0,2.14q0-.285.021-.561t.058-.543Q.118.77.174.513t.132-.5L4.892,2.566q-.074.247-.131.5t-.095.523q-.038.266-.058.542t-.021.558a7.2,7.2,0,0,0,.158,1.551,5.386,5.386,0,0,0,.459,1.3,4.371,4.371,0,0,0,.729,1.034,4.058,4.058,0,0,0,.968.748" transform="translate(0 4.689)" fill="#010000"/><path d="M4.586,3.421,0,.864Q.033.752.069.643T.146.428Q.186.321.229.216T.32.009L4.9,2.57q-.046.1-.089.205t-.083.21q-.04.106-.077.215t-.069.22" transform="translate(0.306 3.834)" fill="#010000"/><path d="M4.584,3.218,0,.659Q.038.574.079.491T.163.327Q.206.246.251.166T.344.01l4.583,2.56q-.047.077-.092.157t-.088.161q-.043.081-.084.164t-.079.167" transform="translate(0.626 3.184)" fill="#010000"/><path d="M4.583,3.139,0,.579Q.044.5.091.432t.1-.144q.048-.071.1-.14t.1-.137L4.97,2.572q-.052.068-.1.137t-.1.141q-.048.071-.095.143t-.091.146" transform="translate(0.97 2.615)" fill="#010000"/><path d="M4.581,3.1,0,.544Q.053.474.109.406T.221.272Q.279.205.338.141T.457.013L5.036,2.574q-.06.063-.119.127T4.8,2.832q-.057.066-.112.134T4.581,3.1" transform="translate(1.358 2.085)" fill="#010000"/><path d="M4.579,3.11,0,.549Q.069.478.14.409T.285.273Q.358.207.433.143T.587.017L5.164,2.579q-.077.061-.152.125t-.148.131q-.073.067-.144.135t-.14.14" transform="translate(1.815 1.549)" fill="#010000"/><path d="M4.577,3.162,0,.6Q.1.52.206.443T.42.3Q.529.223.641.156T.868.026L5.443,2.587q-.115.063-.226.131T5,2.858q-.108.072-.214.148t-.207.156" transform="translate(2.402 0.965)" fill="#010000"/><path d="M4.573,3.456,0,.894Q.259.752.534.634T1.1.423Q1.387.33,1.69.262T2.308.154Q2.586.117,2.854.1T3.38.1q.258.01.5.043t.481.088L8.922,2.791q-.234-.054-.48-.087t-.5-.043q-.257-.01-.524,0t-.544.05q-.314.041-.615.109t-.59.161q-.288.093-.562.212t-.531.26" transform="translate(3.273 0.097)" fill="#010000"/><path d="M4.554,2.558,0,0Q.12.028.237.062T.469.135Q.583.175.694.22t.217.1l4.55,2.556q-.106-.051-.216-.1t-.223-.084q-.113-.039-.23-.073t-.237-.061" transform="translate(7.639 0.33)" fill="#010000"/><path d="M4.55,2.556,0,0,.065.031.129.063.192.1.254.132,4.8,2.687l-.062-.034L4.678,2.62l-.064-.032L4.55,2.556" transform="translate(8.55 0.648)" fill="#010000"/></g></g><g transform="translate(87.674 221.751)"><g clip-path="url(#p)"><path d="M4.618,2.474,0,0,.079.038,4.7,2.512,4.677,2.5l-.02-.009-.02-.01-.02-.011" transform="translate(0 0.208)" fill="#010000"/><path d="M4.617,2.474,0,0,.061.025.123.047.186.066.248.08,4.867,2.555,4.8,2.54l-.062-.018L4.68,2.5l-.062-.026" transform="translate(0.079 0.246)" fill="#010000"/><path d="M4.616,2.8,0,.326C.037.333.074.339.111.344S.185.35.222.351s.073,0,.109,0S.4.342.437.337C.531.322.618.309.7.294S.873.261.961.238s.18-.051.281-.087.213-.081.339-.138L6.193,2.485c-.126.057-.238.1-.339.139s-.193.065-.281.087-.171.04-.257.055-.172.028-.266.043q-.052.008-.105.012t-.108,0q-.055,0-.11-.007T4.616,2.8" transform="translate(0.327 0.003)" fill="#010000"/></g></g><g transform="translate(76.659 220.311)"><g clip-path="url(#q)"><path d="M8.682,13.358,4.034,10.9A5.732,5.732,0,0,1,2.155,9.289,8.477,8.477,0,0,1,.9,6.876,15.735,15.735,0,0,1,.21,3.749,29.427,29.427,0,0,1,0,0L4.666,2.49a29.383,29.383,0,0,0,.21,3.74,15.72,15.72,0,0,0,.692,3.12,8.46,8.46,0,0,0,1.245,2.406,5.7,5.7,0,0,0,1.869,1.6" transform="translate(0)" fill="#010000"/></g></g><g clip-path="url(#e)"><path d="M10.008.27,9.937,40.576a5.437,5.437,0,0,0,.17,1.464,2.39,2.39,0,0,0,.437.892,1.361,1.361,0,0,0,.581.424,1.22,1.22,0,0,0,.6.059c.093-.014.18-.028.264-.043s.168-.033.256-.056.179-.051.281-.088.213-.082.339-.14l1.143,8.263a9.882,9.882,0,0,1-.921.515,12.168,12.168,0,0,1-1.133.488,14.037,14.037,0,0,1-1.341.424,15.693,15.693,0,0,1-1.545.322,8.69,8.69,0,0,1-4.294-.246,5.694,5.694,0,0,1-2.8-2.172A10.32,10.32,0,0,1,.452,46.854,25.607,25.607,0,0,1,0,41.649L.07,1.59Z" transform="translate(81.325 181.149)" fill="#3c3c3b"/><path d="M4.666,42.639,0,40.149.07,0,4.738,2.58Z" transform="translate(76.659 180.161)" fill="#010000"/><path d="M4.665,4.172,0,1.594,9.982.281,14.6,2.852Z" transform="translate(76.73 178.569)" fill="#010000"/></g><g transform="translate(14.495 259.206)"><g clip-path="url(#s)"><path d="M4.94,4.206,0,1.769q.758-.129,1.453-.3t1.329-.381Q3.417.877,3.99.625A11.635,11.635,0,0,0,5.078.08L10,2.515a11.588,11.588,0,0,1-1.083.545q-.571.252-1.2.463t-1.324.382q-.693.171-1.447.3" transform="translate(0 15.124)" fill="#1d7144"/><path d="M4.918,3.392,0,.957q.175-.1.343-.2T.672.537Q.834.427.989.312t.3-.234L6.2,2.516q-.147.119-.3.233t-.314.224q-.161.11-.328.214t-.342.2" transform="translate(5.08 14.247)" fill="#1c6d42"/><path d="M4.912,3.23,0,.794Q.1.709.206.621t.2-.177Q.5.355.6.263T.785.076L5.693,2.513q-.091.094-.185.186t-.192.182q-.1.09-.2.177t-.205.172" transform="translate(6.372 13.533)" fill="#1b6a40"/><path d="M4.908,3.2,0,.768Q.079.686.156.6T.308.43Q.382.343.455.254T.6.075L5.5,2.515q-.069.09-.141.178t-.146.174q-.074.086-.151.171T4.908,3.2" transform="translate(7.156 12.841)" fill="#1a673e"/><path d="M4.906,3.241,0,.8Q.068.715.132.626T.259.445Q.322.354.382.261T.5.073L5.406,2.512q-.058.095-.118.188t-.123.184q-.062.091-.127.181t-.132.176" transform="translate(7.753 12.113)" fill="#1a633c"/><path d="M4.9,3.373,0,.935Q.063.831.123.725T.241.511Q.3.4.353.293T.459.071l4.9,2.44q-.051.112-.105.222t-.112.218q-.057.108-.117.214T4.9,3.373" transform="translate(8.252 11.251)" fill="#19603a"/><path d="M4.9,3.71,0,1.27Q.066,1.127.127.98t.118-.3Q.3.533.355.38t.1-.311l4.9,2.442q-.047.157-.1.311t-.109.3q-.057.15-.118.3T4.9,3.71" transform="translate(8.714 10.055)" fill="#185c38"/><path d="M7.266,12.563l-4.9-2.442q.13-.426.227-.878t.162-.93q.065-.479.1-.984T2.886,6.29a12.256,12.256,0,0,0-.179-2.221,7.084,7.084,0,0,0-.544-1.758A4.847,4.847,0,0,0,1.26.988,4.64,4.64,0,0,0,0,.073L4.91,2.54a4.607,4.607,0,0,1,1.255.912,4.83,4.83,0,0,1,.9,1.32,7.084,7.084,0,0,1,.541,1.753A12.281,12.281,0,0,1,7.785,8.74q0,.532-.034,1.036t-.1.982q-.065.478-.162.929t-.227.876" transform="translate(6.803 0)" fill="#175936"/></g></g><g clip-path="url(#e)"><path d="M4.966,3.506,0,1.064,5.728.084l4.94,2.437Z" transform="translate(8.768 276.016)" fill="#1f7949"/></g><g transform="translate(14.883 250.981)"><g clip-path="url(#u)"><path d="M4.939,2.958,0,.466Q1.159.281,2.271.175T4.434.051Q5.486.033,6.476.108a17.107,17.107,0,0,1,1.908.25l4.9,2.483a17.112,17.112,0,0,0-1.9-.247Q10.4,2.52,9.352,2.54T7.2,2.665q-1.1.106-2.26.293" transform="translate(0 0.018)" fill="#1d7144"/><path d="M4.9,2.526,0,.043Q.345.109.68.189t.659.176q.324.1.637.206T2.59.809L7.48,3.287q-.3-.126-.611-.236t-.634-.205q-.323-.095-.656-.175T4.9,2.526" transform="translate(8.384 0.336)" fill="#1c6d42"/><path d="M4.89,2.512,0,.034.174.109.347.187.518.268l.17.084L5.574,2.829l-.168-.084-.17-.08-.172-.077L4.89,2.512" transform="translate(10.974 1.111)" fill="#1b6a40"/></g></g><g clip-path="url(#e)"><path d="M14.376.506a26.95,26.95,0,0,1,6.9-.324A12.621,12.621,0,0,1,26.748,1.9a9.346,9.346,0,0,1,3.606,4.177,16.942,16.942,0,0,1,1.291,7.069,20.466,20.466,0,0,1-1.314,7.417A16.933,16.933,0,0,1,26.738,26.2a19.115,19.115,0,0,1-5.4,3.89A25.215,25.215,0,0,1,14.6,32.243L8.277,33.355,8.243,51.713,0,53.233.093,2.814Zm-.384,24.579A16.542,16.542,0,0,0,18.275,23.8a9.462,9.462,0,0,0,3-2.174,8.489,8.489,0,0,0,1.773-3.09,12.949,12.949,0,0,0,.587-4.039,9.631,9.631,0,0,0-.625-3.754,4.671,4.671,0,0,0-1.87-2.235,6.781,6.781,0,0,0-3.09-.892,18.347,18.347,0,0,0-4.289.278l-5.442.9L8.289,26.07l5.7-.985" transform="translate(5.444 253.45)" fill="#2cab67"/><path d="M5,52.956,0,50.567.093.034l5,2.506Z" transform="translate(0.44 253.728)" fill="#175835"/><path d="M5,4.828l-5-2.5L14.35.028,19.289,2.52Z" transform="translate(0.533 251.438)" fill="#1f7949"/><path d="M5.312,7.773.587,5.426,0,.12,4.728,2.482Z" transform="translate(62.47 287.415)" fill="#165634"/></g><g transform="translate(51.914 281.294)"><g clip-path="url(#w)"><path d="M4.774,2.482,0,.112.046.133.093.155.14.176.188.2l4.773,2.37-.047-.02-.047-.021L4.82,2.5l-.046-.022" transform="translate(0.002 6.057)" fill="#1b6a40"/><path d="M4.773,2.492,0,.122Q.075.153.153.18T.311.23q.08.023.163.042T.642.306l4.77,2.369q-.085-.015-.167-.034T5.083,2.6Q5,2.577,4.925,2.55t-.152-.057" transform="translate(0.188 6.132)" fill="#1c6d42"/><path d="M4.77,3.394,0,1.025a3.813,3.813,0,0,0,.419.051q.216.015.447.008t.476-.033q.245-.027.5-.073.329-.06.641-.143T3.1.643q.3-.108.583-.242t.561-.3L8.991,2.472q-.274.161-.558.3t-.58.243q-.3.109-.607.192t-.638.142q-.258.046-.5.073t-.473.034q-.23.007-.445-.008a3.786,3.786,0,0,1-.417-.05" transform="translate(0.832 5.413)" fill="#1d7144"/><path d="M4.752,3.195,0,.828Q.132.751.261.667T.519.492Q.646.4.773.3T1.024.1L5.771,2.471q-.125.1-.25.2t-.253.187q-.127.09-.256.174t-.26.161" transform="translate(5.069 4.691)" fill="#1c6d42"/><path d="M4.747,3.332,0,.965q.115-.1.23-.2T.458.557Q.572.449.685.335T.91.1L5.654,2.47q-.112.12-.224.234T5.2,2.926q-.113.108-.227.209t-.229.2" transform="translate(6.093 3.83)" fill="#1b6a40"/><path d="M4.743,3.754,0,1.386q.134-.143.268-.295T.536.779Q.67.618.8.448T1.074.1l4.739,2.37q-.134.179-.268.348t-.267.33q-.133.161-.267.312t-.267.294" transform="translate(7.006 2.548)" fill="#1a673e"/><path d="M4.739,5.015,0,2.645q.206-.274.414-.569t.419-.614q.211-.318.427-.66T1.7.094L6.43,2.467q-.221.365-.436.706t-.426.659q-.211.318-.418.613t-.412.569" transform="translate(8.08 0)" fill="#1a633c"/></g></g><g clip-path="url(#e)"><path d="M4.731,27.669,0,25.3.044.038,4.777,2.467Z" transform="translate(61.692 256.091)" fill="#175835"/><path d="M4.731,3.749,0,1.321,7.752.035l4.7,2.423Z" transform="translate(61.737 254.808)" fill="#1f7949"/></g><g transform="translate(41.71 282.615)"><g clip-path="url(#y)"><path d="M9.54,15.062,4.742,12.7A6.31,6.31,0,0,1,2.62,10.991,9.38,9.38,0,0,1,1.14,8.3,17.4,17.4,0,0,1,.276,4.683,32.319,32.319,0,0,1,0,.193L4.819,2.588a32.293,32.293,0,0,0,.275,4.478,17.376,17.376,0,0,0,.861,3.607,9.352,9.352,0,0,0,1.474,2.683A6.275,6.275,0,0,0,9.54,15.062" transform="translate(0.002)" fill="#175936"/></g></g><g clip-path="url(#e)"><path d="M4.819,3.8,0,1.352,7.9.043l4.787,2.438Z" transform="translate(41.754 258.089)" fill="#1f7949"/><path d="M4.819,25.806,0,23.414.042.046,4.861,2.49Z" transform="translate(41.711 259.396)" fill="#175835"/><path d="M27.657,0l-.065,36.753-6.34,1.17-.584-5.294-.212.038a31.56,31.56,0,0,1-2.187,3,18.886,18.886,0,0,1-2.4,2.428,13.356,13.356,0,0,1-2.711,1.771,12.165,12.165,0,0,1-3.134,1.027,9.05,9.05,0,0,1-4.511-.158A6.258,6.258,0,0,1,2.39,38.421,11.48,11.48,0,0,1,.577,34.1,28.3,28.3,0,0,1,0,27.934L.042,4.618,7.906,3.3,7.866,25.391a20.379,20.379,0,0,0,.286,3.787,6.278,6.278,0,0,0,.9,2.405A2.857,2.857,0,0,0,10.6,32.74a4.72,4.72,0,0,0,2.226.043,7.2,7.2,0,0,0,1.966-.644,7.694,7.694,0,0,0,1.738-1.213,13.346,13.346,0,0,0,1.654-1.856,30.649,30.649,0,0,0,1.712-2.576l.044-25.2Z" transform="translate(46.531 257.267)" fill="#2cab67"/><path d="M5.212,6.3.645,3.976,0,.107,4.57,2.438Z" transform="translate(98.761 282.218)" fill="#165634"/><path d="M4.573,10.106,0,7.762.014.065l4.573,2.36Z" transform="translate(98.009 268.947)" fill="#175835"/></g><g transform="translate(88.393 276.626)"><g clip-path="url(#aa)"><path d="M4.615,2.44,0,.1.042.117l.043.02L.128.157.172.175,4.786,2.519,4.743,2.5,4.7,2.481l-.043-.02L4.615,2.44" transform="translate(0 4.669)" fill="#1b6a40"/><path d="M4.614,2.45,0,.106Q.077.138.157.167T.321.219Q.4.244.491.264T.665.3L5.276,2.643q-.088-.016-.174-.036t-.168-.044q-.083-.024-.163-.052T4.614,2.45" transform="translate(0.174 4.738)" fill="#1c6d42"/><path d="M4.611,3.494,0,1.152a4.1,4.1,0,0,0,.454.055q.235.016.485.009t.512-.036q.263-.029.538-.079.367-.066.717-.161T3.393.719Q3.73.593,4.055.436T4.7.09L9.289,2.43q-.316.189-.641.346t-.659.283q-.335.126-.683.222t-.712.161q-.275.05-.537.079t-.511.036q-.249.007-.483-.008a4.072,4.072,0,0,1-.452-.055" transform="translate(0.84 3.889)" fill="#1d7144"/><path d="M4.591,3.388,0,1.048Q.17.947.338.836T.674.606q.167-.12.333-.249T1.338.088l4.585,2.34q-.165.139-.33.268t-.332.249q-.166.12-.334.23t-.337.211" transform="translate(5.538 2.931)" fill="#1c6d42"/><path d="M4.585,3.744,0,1.4q.171-.144.341-.3T.682.787q.171-.165.342-.34T1.369.085L5.948,2.427q-.172.186-.343.362t-.341.34q-.17.165-.34.318t-.34.3" transform="translate(6.876 1.615)" fill="#1b6a40"/><path d="M4.579,4.04,0,1.7q.168-.181.337-.372T.677.932q.171-.2.344-.415T1.37.082L5.943,2.425q-.175.223-.347.435t-.343.414q-.17.2-.339.393t-.336.372" transform="translate(8.246 0.002)" fill="#1a673e"/></g></g><g transform="translate(95.634 257.537)"><g clip-path="url(#ab)"><path d="M6.971,7.946,2.4,5.573a13.5,13.5,0,0,0-.171-1.786,7.909,7.909,0,0,0-.421-1.569A4.706,4.706,0,0,0,1.082.949,3.459,3.459,0,0,0,0,.062l4.583,2.39a3.432,3.432,0,0,1,1.078.882A4.684,4.684,0,0,1,6.382,4.6,7.894,7.894,0,0,1,6.8,6.164a13.494,13.494,0,0,1,.17,1.782" transform="translate(0 -0.002)" fill="#175936"/></g></g><g transform="translate(93.841 249.677)"><g clip-path="url(#ac)"><path d="M4.593,2.641,0,.235q.6-.1,1.171-.15T2.279.034q.538,0,1.046.046A9.615,9.615,0,0,1,4.31.222l4.575,2.4A9.549,9.549,0,0,0,7.9,2.483Q7.4,2.437,6.861,2.438t-1.1.052q-.567.051-1.164.151" transform="translate(0 0.012)" fill="#1d7144"/><path d="M4.572,2.434,0,.033q.225.045.444.1t.43.121Q1.085.32,1.29.4t.4.163l4.567,2.4q-.2-.086-.4-.162t-.415-.142q-.211-.066-.428-.121t-.442-.1" transform="translate(4.312 0.201)" fill="#1c6d42"/><path d="M4.565,2.426,0,.028.12.082.239.137.356.194l.116.06,4.563,2.4L4.92,2.593,4.8,2.536,4.684,2.48l-.119-.054" transform="translate(6.004 0.733)" fill="#1b6a40"/></g></g><g transform="translate(79.471 263.052)"><g clip-path="url(#ad)"><path d="M8.85,14.919,4.212,12.585A6.678,6.678,0,0,1,2.45,11.3,7.532,7.532,0,0,1,1.123,9.44,9.738,9.738,0,0,1,.287,7.056,13.407,13.407,0,0,1,0,4.193q0-.541.037-1.065T.141,2.1Q.21,1.593.314,1.1T.558.144L5.209,2.509q-.139.471-.243.959t-.173.992q-.069.5-.1,1.027T4.653,6.55A13.428,13.428,0,0,0,4.94,9.407a9.728,9.728,0,0,0,.832,2.377,7.5,7.5,0,0,0,1.322,1.852A6.637,6.637,0,0,0,8.85,14.919" transform="translate(0 12.767)" fill="#175936"/><path d="M4.651,3.991,0,1.626q.059-.2.124-.4T.261.841Q.333.647.412.456T.575.078L5.223,2.445q-.084.188-.162.378t-.15.384q-.072.193-.137.389t-.123.395" transform="translate(0.561 11.285)" fill="#185c38"/><path d="M4.648,3.649,0,1.282Q.069,1.127.143.974T.3.671Q.374.52.457.371t.17-.3l4.646,2.37q-.087.147-.17.3t-.161.3q-.078.15-.152.3t-.143.307" transform="translate(1.135 10.084)" fill="#19603a"/><path d="M4.646,3.575,0,1.2Q.086,1.06.176.917T.36.632Q.455.491.554.351t.2-.278L5.4,2.444q-.1.138-.2.278T5.005,3q-.094.141-.184.284t-.175.287" transform="translate(1.762 8.954)" fill="#1a633c"/><path d="M4.642,3.617,0,1.245q.113-.151.23-.3T.472.65Q.595.5.724.358T.986.07L5.624,2.443q-.133.143-.262.288t-.251.292q-.123.147-.24.3t-.229.3" transform="translate(2.519 7.781)" fill="#1a673e"/><path d="M4.638,3.855,0,1.482Q.171,1.3.351,1.12T.719.763Q.908.587,1.1.412t.4-.346L6.139,2.441q-.2.171-.4.345t-.384.351q-.188.177-.367.356t-.349.362" transform="translate(3.505 6.371)" fill="#1b6a40"/><path d="M4.632,4.514,0,2.14Q.329,1.867.681,1.6t.727-.526q.375-.26.773-.513T3,.062L7.618,2.44q-.419.246-.815.5t-.769.512q-.373.259-.724.525t-.679.539" transform="translate(5.015 4.298)" fill="#1c6d42"/><path d="M4.619,6.736,0,4.36q1.031-.6,2.2-1.172t2.489-1.1Q6.01,1.547,7.473,1.04T10.547.052L15.12,2.425q-1.6.483-3.06.99T9.293,4.46Q7.981,5,6.814,5.564t-2.2,1.172" transform="translate(8.014 0.003)" fill="#1d7144"/></g></g><g clip-path="url(#e)"><path d="M14.3.261a11.212,11.212,0,0,1,5.1.184,7.441,7.441,0,0,1,3.636,2.417A11.566,11.566,0,0,1,25.219,7.4a26.089,26.089,0,0,1,.718,6.56L25.9,35.332l-6.054,1.117-.64-3.859-.242.045c-.7.827-1.418,1.612-2.158,2.334a21.392,21.392,0,0,1-2.292,1.962A14.488,14.488,0,0,1,12.052,38.4a11.115,11.115,0,0,1-2.664.859,8.82,8.82,0,0,1-3.8-.066A6.69,6.69,0,0,1,2.62,37.569a7.8,7.8,0,0,1-1.935-3.02A12.242,12.242,0,0,1,0,30.3a13.521,13.521,0,0,1,1.081-5.484A13.319,13.319,0,0,1,4.42,20.293a24.322,24.322,0,0,1,5.753-3.743,55.874,55.874,0,0,1,8.306-3.137,11.852,11.852,0,0,0-.332-2.552,5.4,5.4,0,0,0-.927-2,3.436,3.436,0,0,0-1.692-1.179,5.561,5.561,0,0,0-2.632-.1,11.406,11.406,0,0,0-2.282.652,16.286,16.286,0,0,0-2.235,1.1A24.931,24.931,0,0,0,6.189,10.8c-.723.535-1.44,1.112-2.15,1.715l-2.7-5.347C2.213,6.4,3.148,5.627,4.14,4.9A31.4,31.4,0,0,1,7.268,2.862a24.526,24.526,0,0,1,3.406-1.608A19.266,19.266,0,0,1,14.3.261m4.15,26.724.014-7.68a41.59,41.59,0,0,0-5.332,2.03,15.454,15.454,0,0,0-3.424,2.126,6.839,6.839,0,0,0-1.824,2.316,6.115,6.115,0,0,0-.54,2.6,5.105,5.105,0,0,0,.318,1.928,2.59,2.59,0,0,0,.9,1.17,2.95,2.95,0,0,0,1.376.5,5.937,5.937,0,0,0,1.758-.085,7.948,7.948,0,0,0,1.813-.553,8.7,8.7,0,0,0,1.668-.983,13.227,13.227,0,0,0,1.617-1.441,25.047,25.047,0,0,0,1.66-1.926" transform="translate(84.127 252.068)" fill="#2cab67"/><path d="M7.348,7.815,2.712,5.424,0,.062,4.65,2.468Z" transform="translate(80.819 256.77)" fill="#165634"/></g><g transform="translate(80.821 249.899)"><g clip-path="url(#af)"><path d="M4.647,3.392,0,.986.271.748.546.511.825.274,1.107.037,5.75,2.444l-.281.236-.278.237-.274.237-.27.238" transform="translate(0 5.948)" fill="#1b6a40"/><path d="M4.643,5.627,0,3.22q.52-.43,1.066-.849T2.18,1.55q.568-.4,1.159-.783T4.54.03L9.163,2.439q-.608.355-1.2.736t-1.154.783q-.566.4-1.109.821t-1.061.848" transform="translate(1.107 2.767)" fill="#1c6d42"/><path d="M4.623,5.206,0,2.8c.569-.33,1.152-.642,1.746-.93s1.2-.553,1.816-.791S4.8.631,5.44.454A18.336,18.336,0,0,1,7.373.024L11.964,2.43a18.235,18.235,0,0,0-1.925.431c-.633.177-1.257.387-1.87.624s-1.217.5-1.808.791-1.171.6-1.738.93" transform="translate(5.647)" fill="#1d7144"/></g></g><g clip-path="url(#e)"><path d="M4.414,23.6,0,21.3.037.042,4.45,2.385Z" transform="translate(135.159 258.349)" fill="#175835"/></g><g transform="translate(133.095 251.487)"><g clip-path="url(#ah)"><path d="M6.514,9.246,2.1,6.9a24.283,24.283,0,0,0-.122-2.64,10.817,10.817,0,0,0-.383-1.993A4.78,4.78,0,0,0,.939.879,2.733,2.733,0,0,0,0,.04L4.423,2.4a2.718,2.718,0,0,1,.935.837,4.772,4.772,0,0,1,.653,1.39,10.813,10.813,0,0,1,.382,1.988,24.265,24.265,0,0,1,.121,2.633" transform="translate(0.002 0)" fill="#175936"/></g></g><g transform="translate(133.118 243.261)"><g clip-path="url(#ai)"><path d="M4.423,2.54,0,.165Q.459.088.893.051T1.737.013q.41,0,.8.038a7.156,7.156,0,0,1,.748.112L7.692,2.534a7.226,7.226,0,0,0-.747-.11q-.385-.037-.793-.036t-.841.038q-.432.038-.889.114" transform="translate(0 0.002)" fill="#1d7144"/><path d="M4.409,2.385,0,.013Q.174.048.342.092t.331.1Q.835.239.993.3T1.3.426L5.707,2.8Q5.554,2.73,5.4,2.67t-.319-.112q-.162-.052-.329-.1t-.34-.079" transform="translate(3.284 0.152)" fill="#1c6d42"/><path d="M4.4,2.381,0,.012.1.056.191.1.285.148.378.2l4.4,2.369-.092-.048L4.594,2.47,4.5,2.425l-.1-.044" transform="translate(4.587 0.569)" fill="#1b6a40"/></g></g><g transform="translate(123.14 243.419)"><g clip-path="url(#aj)"><path d="M4.465,4.9,0,2.53Q.254,2.2.512,1.883t.522-.636Q1.3.932,1.568.625t.545-.6L6.569,2.394q-.275.3-.543.6T5.5,3.62q-.263.314-.52.635t-.51.646" transform="translate(0 4.816)" fill="#1a673e"/><path d="M4.456,4.349,0,1.975q.244-.264.493-.52t.5-.5q.255-.245.515-.48T2.037.016l4.45,2.376q-.265.223-.525.458t-.513.48q-.254.245-.5.5t-.492.519" transform="translate(2.113 2.861)" fill="#1b6a40"/><path d="M4.448,3.858,0,1.482q.247-.206.5-.4T1.008.7q.257-.184.521-.356t.533-.33L6.5,2.39q-.268.158-.53.33t-.518.356q-.256.184-.507.38t-.5.4" transform="translate(4.152 1.395)" fill="#1c6d42"/><path d="M4.439,3.785,0,1.408Q.435,1.152.887.933t.922-.4q.47-.177.958-.31t1-.218L8.187,2.388A10.128,10.128,0,0,0,7.2,2.6q-.486.132-.954.31t-.918.4q-.45.218-.884.475" transform="translate(6.213 0)" fill="#1d7144"/></g></g><g clip-path="url(#e)"><path d="M4.466,2.43,0,.059.2.025,4.666,2.4Z" transform="translate(122.94 250.739)" fill="#1f7949"/><path d="M4.495,38.357,0,36.047.063.018,4.557,2.4Z" transform="translate(116.265 247.063)" fill="#175835"/><path d="M16.781.177a8.162,8.162,0,0,1,4.2.255,6,6,0,0,1,2.885,2.287,11.469,11.469,0,0,1,1.665,4.164,28.224,28.224,0,0,1,.529,5.894l-.038,22.216-7.2,1.329.036-21.216a20.219,20.219,0,0,0-.263-3.628,6.1,6.1,0,0,0-.83-2.3,2.678,2.678,0,0,0-1.432-1.108,4.36,4.36,0,0,0-2.069-.065,6.774,6.774,0,0,0-1.844.584,7.777,7.777,0,0,0-1.645,1.094,14.382,14.382,0,0,0-1.6,1.633c-.544.638-1.106,1.37-1.713,2.2l-.044,24.9L0,39.792.062,3.84,6.094,2.833l.552,4.71.2-.036c.68-.875,1.384-1.728,2.122-2.526a21.717,21.717,0,0,1,2.325-2.2,13.883,13.883,0,0,1,2.586-1.667,10.516,10.516,0,0,1,2.9-.941" transform="translate(120.759 245.627)" fill="#2cab67"/><path d="M4.494,3.407,0,1.02l6.057-1L10.526,2.4Z" transform="translate(116.328 246.061)" fill="#1f7949"/><path d="M7.211,0l-.06,35.2L0,36.521.06,1.2Z" transform="translate(157.314 242.159)" fill="#2cab67"/><path d="M4.339,37.687,0,35.4.061,0,4.4,2.363Z" transform="translate(152.975 240.992)" fill="#175835"/><path d="M4.339,3.551,0,1.193,7.181,0l4.309,2.352Z" transform="translate(153.036 239.804)" fill="#1f7949"/></g><g transform="translate(83.583 9.007)"><g clip-path="url(#al)"><path d="M4.638,3.653,0,.712Q2.51.582,4.964.673T9.8,1.065q2.383.3,4.7.8t4.546,1.2L23.6,5.979q-2.226-.692-4.528-1.191t-4.678-.8q-2.376-.3-4.816-.384t-4.941.046" transform="translate(0 0)" fill="#1d7144"/><path d="M4.553,2.909,0,0Q1.324.412,2.62.891t2.561,1.02q1.265.542,2.5,1.146t2.433,1.269l4.512,2.886q-1.2-.661-2.424-1.262T9.713,4.81q-1.26-.539-2.55-1.015t-2.61-.886" transform="translate(19.048 3.073)" fill="#1c6d42"/><path d="M4.51,2.886,0,0Q.389.216.775.437t.768.449q.382.228.761.461t.754.473L7.556,4.7q-.374-.239-.752-.471t-.758-.459q-.381-.227-.765-.447T4.51,2.886" transform="translate(29.164 7.399)" fill="#1b6a40"/></g></g><g clip-path="url(#e)"><path d="M65.842,7.732a53.666,53.666,0,0,1,24.509,4.4,57.069,57.069,0,0,1,19.583,14.31,67.282,67.282,0,0,1,12.979,21.891,79.418,79.418,0,0,1,4.685,27.41,86.757,86.757,0,0,1-4.781,28.235,84.575,84.575,0,0,1-13.059,24.183A74.011,74.011,0,0,1,90.116,145.92a61.186,61.186,0,0,1-24.536,8.71,53.951,53.951,0,0,1-25.093-2.77,56.2,56.2,0,0,1-20.917-13.578,66.23,66.23,0,0,1-14.311-22.4A79.008,79.008,0,0,1,0,86.951,86.808,86.808,0,0,1,5.365,57.077a83.817,83.817,0,0,1,14.4-24.918,72.307,72.307,0,0,1,20.971-17.25A59.674,59.674,0,0,1,65.842,7.732" transform="translate(22.379 4.928)" fill="#2cab67"/></g><g transform="translate(17.449 2.613)"><g clip-path="url(#an)"><path d="M37.431,90.407l-4.785-2.675A57.961,57.961,0,0,1,19.39,77.5,64.691,64.691,0,0,1,9.054,63.4a72.607,72.607,0,0,1-6.7-17.3A81.438,81.438,0,0,1,0,26.3q.006-3.381.272-6.71T1.05,13q.512-3.256,1.261-6.432T4.032.323L8.941,3.229Q7.974,6.3,7.228,9.466t-1.255,6.42q-.509,3.251-.775,6.572t-.271,6.694A81.39,81.39,0,0,0,7.274,48.905a72.446,72.446,0,0,0,6.667,17.256,64.422,64.422,0,0,0,10.291,14.05,57.619,57.619,0,0,0,13.2,10.195" transform="translate(0.003 60.114)" fill="#175936"/><path d="M4.909,14.954,0,12.048q.478-1.512,1.008-3t1.11-2.944Q2.7,4.648,3.327,3.22T4.634.4L9.525,3.326q-.675,1.393-1.3,2.818t-1.2,2.88q-.578,1.455-1.105,2.938t-1,2.993" transform="translate(4.034 48.388)" fill="#185c38"/><path d="M4.888,12.487,0,9.561q.575-1.187,1.185-2.35t1.252-2.3q.642-1.138,1.316-2.25T5.13.462L10,3.4Q9.295,4.485,8.624,5.6T7.314,7.843q-.639,1.137-1.246,2.3t-1.18,2.347" transform="translate(8.668 39.227)" fill="#19603a"/><path d="M4.866,11.244,0,8.3Q.663,7.283,1.353,6.286T2.758,4.317Q3.473,3.345,4.214,2.4T5.719.536l4.84,2.949Q9.8,4.4,9.061,5.347T7.611,7.262q-.712.971-1.4,1.966T4.866,11.244" transform="translate(13.8 31.384)" fill="#1a633c"/><path d="M4.84,10.529,0,7.58q.771-.926,1.567-1.824T3.18,3.99Q4,3.122,4.838,2.283T6.541.636l4.814,2.956q-.859.808-1.7,1.645T8.007,6.943Q7.192,7.81,6.4,8.707T4.84,10.529" transform="translate(19.52 24.341)" fill="#1a673e"/><path d="M4.811,10.116,0,7.16q.93-.872,1.885-1.708T3.818,3.82Q4.8,3.023,5.8,2.264T7.819.786L12.6,3.745q-1.018.719-2.013,1.478T8.613,6.779q-.974.8-1.924,1.632T4.811,10.116" transform="translate(26.061 17.819)" fill="#1b6a40"/><path d="M4.777,10.071,0,7.112q1.245-.878,2.523-1.7T5.1,3.845q1.3-.754,2.637-1.445T10.43,1.083l4.731,2.958q-1.351.626-2.677,1.318T9.859,6.805q-1.3.755-2.57,1.572T4.777,10.071" transform="translate(33.88 11.494)" fill="#1c6d42"/><path d="M4.731,10.771,0,7.813Q2.581,6.621,5.251,5.672t5.4-1.638q2.733-.69,5.532-1.116t5.638-.573l4.635,2.94q-2.832.151-5.613.579T15.339,6.986q-2.726.693-5.379,1.642T4.731,10.771" transform="translate(44.31 4.764)" fill="#1d7144"/></g></g><g clip-path="url(#e)"><path d="M33.888,24.332l-4.516-2.645L0,0,4.643,2.729Z" transform="translate(81.939 107.963)" fill="gray"/><path d="M4.593,8.62,0,5.817,35.866,3.006,40.3,5.768Z" transform="translate(93.365 60.945)" fill="#b4b4b4"/><path d="M4.775,37.028,0,34.323,9.446.6,14.18,3.365Z" transform="translate(51.625 101.843)" fill="#8f8f8f"/><path d="M4.734,11.133,0,8.366,2.3.155,7.03,2.937Z" transform="translate(61.072 94.075)" fill="#8f8f8f"/><path d="M10.5,7.048,5.778,4.265,0,0,4.751,2.8Z" transform="translate(57.6 89.964)" fill="gray"/><path d="M4.692,45.161,0,42.332,11.548,1.145l4.642,2.9Z" transform="translate(70.553 26.21)" fill="#8f8f8f"/><path d="M29.709,21.252l-4.749-2.8L0,0,4.859,2.873Z" transform="translate(32.642 71.513)" fill="gray"/><path d="M4.859,8.853,0,5.981,37.91,3.009,42.6,5.839Z" transform="translate(32.643 65.533)" fill="#b4b4b4"/><path d="M49.241,4.824l6.692,23.452,4.524,15.855,35.71-2.855L67.317,68.215,78.323,106.86,49.08,85.257,18.9,113.435l9.4-33.663,2.3-8.2-5.75-4.248L0,48.951l37.743-3.015Z" transform="translate(37.502 25.436)" fill="#f4f4f4"/></g></svg>