<svg xmlns="http://www.w3.org/2000/svg" xmlns:xlink="http://www.w3.org/1999/xlink" width="58.302" height="59" viewBox="0 0 58.302 59"><defs><clipPath id="a"><rect width="58.303" height="59" fill="#ed4024"/></clipPath></defs><g transform="translate(0 0)" clip-path="url(#a)"><path d="M13.48,74.249H1.2a1.2,1.2,0,0,1-1.2-1.2V41.79a1.2,1.2,0,0,1,1.2-1.2H13.48a1.2,1.2,0,0,1,1.2,1.2V73.049a1.2,1.2,0,0,1-1.2,1.2M2.4,71.849H12.28V42.991H2.4Z" transform="translate(0 -17.076)" fill="#ed4024"/><path d="M64.31,31.333A6.11,6.11,0,0,0,66.435,26.7v-.088a6.128,6.128,0,0,0-6.122-6.122H45.178a25.466,25.466,0,0,0-.5-13.023,1.106,1.106,0,0,0-.07-.166C42.476,3.141,40.039.732,37.364.138a5.5,5.5,0,0,0-4.359.825,1.2,1.2,0,0,0-.458,1.076,64.408,64.408,0,0,1,.222,10.736c-1.335,2.717-4.282,8.633-7.529,11.292a10.472,10.472,0,0,1-3.228,1.622,1.2,1.2,0,1,0,.763,2.276,13.1,13.1,0,0,0,3.987-2.041c3.284-2.69,6.016-7.718,8.255-12.282a1.185,1.185,0,0,0,.115-.4,60.789,60.789,0,0,0-.12-10.652,3.24,3.24,0,0,1,1.831-.113c1.328.295,3.372,1.548,5.589,5.833.886,2.715,1.65,8.529,0,12.918-.759,1.642-2.923,6.061-4.137,7.489a1.2,1.2,0,1,0,1.828,1.555A45.754,45.754,0,0,0,44.3,22.89H60.314a3.725,3.725,0,0,1,3.721,3.721V26.7a3.725,3.725,0,0,1-3.721,3.72,1.2,1.2,0,1,0,0,2.4H61.1a3.729,3.729,0,0,1,3.72,3.728v.1a3.725,3.725,0,0,1-3.72,3.72H58.85a1.2,1.2,0,0,0,0,2.4,2.821,2.821,0,0,1,0,5.641H54.92a1.2,1.2,0,0,0,0,2.4A2.78,2.78,0,0,1,57.7,53.584v.248A2.775,2.775,0,0,1,54.92,56.6H32.846a18.231,18.231,0,0,1-8.23-2.448c-.467-.277-1-.567-1.678-.911a1.2,1.2,0,1,0-1.086,2.141c.63.32,1.118.585,1.544.837A20.431,20.431,0,0,0,32.845,59H54.92A5.179,5.179,0,0,0,60.1,53.832v-.248a5.149,5.149,0,0,0-.82-2.793A5.243,5.243,0,0,0,63,42.462a6.132,6.132,0,0,0,4.214-5.817v-.1a6.132,6.132,0,0,0-2.909-5.215" transform="translate(-8.916 0)" fill="#ed4024"/></g></svg>