<svg xmlns="http://www.w3.org/2000/svg" width="2072.884" height="1182.615" viewBox="0 0 2072.884 1182.615">
  <g id="Ellipse_326" data-name="Ellipse 326" fill="none" stroke="rgba(237,64,36,0.1)" stroke-width="20">
    <circle cx="167.5" cy="167.5" r="167.5" stroke="none"/>
    <circle cx="167.5" cy="167.5" r="157.5" fill="none"/>
  </g>
  <g id="Ellipse_327" data-name="Ellipse 327" transform="matrix(0.966, 0.259, -0.259, 0.966, 1919.464, 827)" fill="none" stroke="rgba(249,214,65,0.13)" stroke-width="15">
    <circle cx="79.416" cy="79.416" r="79.416" stroke="none"/>
    <circle cx="79.416" cy="79.416" r="71.916" fill="none"/>
  </g>
  <g id="Ellipse_328" data-name="Ellipse 328" transform="matrix(0.966, 0.259, -0.259, 0.966, 1811.958, 389.68)" fill="none" stroke="rgba(249,214,65,0.13)" stroke-width="17">
    <circle cx="118.786" cy="118.786" r="118.786" stroke="none"/>
    <circle cx="118.786" cy="118.786" r="110.286" fill="none"/>
  </g>
  <path id="Path_8654" data-name="Path 8654" d="M14.812,75.4H31.286V119.2H14.812ZM55.07,60.019H71.542V119.2H55.07ZM95.325,44.638H111.8V119.2H95.325ZM107.272,7.419H119.2V15.4H107.272ZM99.854,0V37.22H87.908V119.2H78.962V52.6H47.651V119.2H38.7V67.983H7.393V119.2H0v7.419H126.612V119.2h-7.394V37.22H107.272v-14.4h19.343V0Z" transform="translate(746.141 759.385)" fill="rgba(237,64,36,0.1)"/>
  <path id="Path_9112" data-name="Path 9112" d="M14.812,75.4H31.286V119.2H14.812ZM55.07,60.019H71.542V119.2H55.07ZM95.325,44.638H111.8V119.2H95.325ZM107.272,7.419H119.2V15.4H107.272ZM99.854,0V37.22H87.908V119.2H78.962V52.6H47.651V119.2H38.7V67.983H7.393V119.2H0v7.419H126.612V119.2h-7.394V37.22H107.272v-14.4h19.343V0Z" transform="translate(1369 482)" fill="rgba(237,64,36,0.1)"/>
  <path id="Path_9114" data-name="Path 9114" d="M14.812,75.4H31.286V119.2H14.812ZM55.07,60.019H71.542V119.2H55.07ZM95.325,44.638H111.8V119.2H95.325ZM107.272,7.419H119.2V15.4H107.272ZM99.854,0V37.22H87.908V119.2H78.962V52.6H47.651V119.2H38.7V67.983H7.393V119.2H0v7.419H126.612V119.2h-7.394V37.22H107.272v-14.4h19.343V0Z" transform="translate(1369 1056)" fill="rgba(237,64,36,0.1)"/>
  <path id="Path_9113" data-name="Path 9113" d="M14.812,75.4H31.286V119.2H14.812ZM55.07,60.019H71.542V119.2H55.07ZM95.325,44.638H111.8V119.2H95.325ZM107.272,7.419H119.2V15.4H107.272ZM99.854,0V37.22H87.908V119.2H78.962V52.6H47.651V119.2H38.7V67.983H7.393V119.2H0v7.419H126.612V119.2h-7.394V37.22H107.272v-14.4h19.343V0Z" transform="translate(746.141 241)" fill="rgba(237,64,36,0.1)"/>
</svg>
