<svg xmlns="http://www.w3.org/2000/svg" width="20.813" height="20.813" viewBox="0 0 20.813 20.813">
  <path id="noun-log-out-4923519" d="M5.838,5.414a1.023,1.023,0,0,0-1.447,0L.3,9.506a1.023,1.023,0,0,0,0,1.447l4.092,4.092A1.023,1.023,0,1,0,5.838,13.6L3.493,11.252H15.344a1.023,1.023,0,1,0,0-2.046H3.493L5.838,6.861A1.023,1.023,0,0,0,5.838,5.414ZM17.39,0a3.069,3.069,0,0,1,3.069,3.069V17.39a3.069,3.069,0,0,1-3.069,3.069H11.252A3.069,3.069,0,0,1,8.184,17.39V14.321a1.023,1.023,0,0,1,2.046,0V17.39a1.023,1.023,0,0,0,1.023,1.023H17.39a1.023,1.023,0,0,0,1.023-1.023V3.069A1.023,1.023,0,0,0,17.39,2.046H11.252a1.023,1.023,0,0,0-1.023,1.023V6.138a1.023,1.023,0,0,1-2.046,0V3.069A3.069,3.069,0,0,1,11.252,0Z" transform="matrix(-1, 0.017, -0.017, -1, 20.813, 20.456)" fill="#535353" fill-rule="evenodd"/>
</svg>
