<svg xmlns="http://www.w3.org/2000/svg" xmlns:xlink="http://www.w3.org/1999/xlink" width="77" height="60" viewBox="0 0 77 60"><defs><clipPath id="b"><rect width="77" height="60"/></clipPath></defs><g id="a" clip-path="url(#b)"><rect width="77" height="60" fill="#fff"/><g transform="translate(-13.108 -14.771)"><path d="M317.844,400.575h8.947a.925.925,0,0,0,.925-.925v-9.472a.925.925,0,0,0-.925-.925h-8.947a.925.925,0,0,0-.925.925v9.472A.925.925,0,0,0,317.844,400.575Zm.925-9.472h7.1v7.622h-7.1Z" transform="translate(-272.276 -334.208)" fill="#ed4024"/><path d="M409.79,400.575h8.947a.925.925,0,0,0,.925-.925v-9.472a.925.925,0,0,0-.925-.925H409.79a.925.925,0,0,0-.925.925v9.472A.925.925,0,0,0,409.79,400.575Zm.925-9.472h7.1v7.622h-7.1Z" transform="translate(-349.034 -334.208)" fill="#ed4024"/><path d="M317.844,298.755h8.947a.925.925,0,0,0,.925-.925v-9.472a.925.925,0,0,0-.925-.925h-8.947a.925.925,0,0,0-.925.925v9.472A.926.926,0,0,0,317.844,298.755Zm.925-9.472h7.1v7.622h-7.1Z" transform="translate(-272.276 -249.206)" fill="#ed4024"/><path d="M409.79,298.755h8.947a.925.925,0,0,0,.925-.925v-9.472a.925.925,0,0,0-.925-.925H409.79a.925.925,0,0,0-.925.925v9.472A.926.926,0,0,0,409.79,298.755Zm.925-9.472h7.1v7.622h-7.1Z" transform="translate(-349.034 -249.206)" fill="#ed4024"/><path d="M226.73,298.755h8.947a.925.925,0,0,0,.925-.925v-9.472a.925.925,0,0,0-.925-.925H226.73a.925.925,0,0,0-.925.925v9.472A.926.926,0,0,0,226.73,298.755Zm.925-9.472h7.1v7.622h-7.1Z" transform="translate(-196.212 -249.206)" fill="#ed4024"/><path d="M199.074,128.152h-9.542l.168-39.285h1.254a.925.925,0,0,0,.925-.925V79.878a.925.925,0,0,0-.925-.925h-25.73V72.471a.925.925,0,0,0-.925-.925h-8.407a.925.925,0,0,0-.925.925v6.483h-5.6V72.471a.925.925,0,0,0-.925-.925h-8.407a.925.925,0,0,0-.925.925v6.483h-3.73a.925.925,0,0,0-.925.925v8.064a.925.925,0,0,0,.925.925h1.254l-.167,39.285h-9.542a.925.925,0,1,0,0,1.851h72.149a.925.925,0,1,0,0-1.851ZM156.819,73.395h6.557v5.558h-6.557Zm-15.856,0h6.557v5.558h-6.557ZM136.307,80.8h53.724v6.214H136.307Zm2.18,8.064h49.365l-.168,39.285H154.7V111.973a.925.925,0,0,0-.925-.925h-10.37a.925.925,0,0,0-.925.925v16.178h-4.162Zm14.365,39.285h-8.521V112.9h8.521Z" transform="translate(-112.893 -56.003)" fill="#ed4024"/><circle cx="0.699" cy="0.699" r="0.699" transform="translate(37.167 62.645)" fill="#ed4024"/><path d="M.7,0A.7.7,0,1,1,0,.7.7.7,0,0,1,.7,0Z" transform="translate(37.167 62.645)" fill="#f3c533"/></g></g></svg>