<svg xmlns="http://www.w3.org/2000/svg" xmlns:xlink="http://www.w3.org/1999/xlink" width="71" height="91" viewBox="0 0 71 91"><defs><clipPath id="b"><rect width="71" height="91"/></clipPath></defs><g id="a" clip-path="url(#b)"><rect width="71" height="91" fill="#fff"/><g transform="translate(-415 -2075)"><g transform="translate(416.662 2077.723)"><g transform="translate(0 0)"><path d="M-14285.052-16959.1h-60.28a1,1,0,0,1-1-1,1,1,0,0,1,1-1h58.086l-19.712-22.674h-38.374a1,1,0,0,1-1-1,1,1,0,0,1,1-1h38.83a1,1,0,0,1,.755.344l21.45,24.674a1,1,0,0,1,.155,1.07A1,1,0,0,1-14285.052-16959.1Z" transform="translate(14345.332 16984.77)" fill="#bababa"/><path d="M-14294.891-16900.605h-2v-62.242h2Z" transform="translate(14351.543 16987.518)" fill="#bababa"/><path d="M-14277.787-16906.553h-67.544v-2h67.544Z" transform="translate(14345.332 16994.467)" fill="#bababa"/><path d="M2,2V12.633h9.507V2H2M0,0H13.507V14.633H0Z" transform="translate(15.008 35.76)" fill="#bababa"/><path d="M2,2V12.633h9.507V2H2M0,0H13.507V14.633H0Z" transform="translate(15.008 60.523)" fill="#bababa"/><path d="M-14317.4-16937.387h-17.1v-2h17.1Z" transform="translate(14347.82 16988.342)" fill="#bababa"/><path d="M-14317.4-16937.387h-17.1v-2h17.1Z" transform="translate(14347.82 17013.107)" fill="#bababa"/></g><g transform="translate(41.229 32.698)"><path d="M166.161,135.253a.3.3,0,0,1-.059-.21.3.3,0,0,1,.1-.194,2.11,2.11,0,0,1,2.794,0,1.887,1.887,0,0,0,2.339-.125.255.255,0,0,1,.265-.04.287.287,0,0,1,.167.225.3.3,0,0,1-.1.268,2.717,2.717,0,0,1-1.66.632,2.05,2.05,0,0,1-1.35-.5,1.609,1.609,0,0,0-2.12-.017.258.258,0,0,1-.2.062.265.265,0,0,1-.18-.1ZM170.5,136.4a1.887,1.887,0,0,1-2.339.125,2.114,2.114,0,0,0-2.8-.007.3.3,0,0,0-.095.272.286.286,0,0,0,.172.224.256.256,0,0,0,.267-.048,1.607,1.607,0,0,1,2.119.017,2.054,2.054,0,0,0,1.341.5,2.717,2.717,0,0,0,1.666-.627.3.3,0,0,0,.1-.194.3.3,0,0,0-.057-.215.266.266,0,0,0-.183-.108.258.258,0,0,0-.2.064Zm.827,1.666a1.866,1.866,0,0,1-2.34.126h0a2.11,2.11,0,0,0-2.794,0,.3.3,0,0,0-.094.271.286.286,0,0,0,.171.223.256.256,0,0,0,.266-.046,1.609,1.609,0,0,1,2.12.017h0a2.051,2.051,0,0,0,1.341.5,2.717,2.717,0,0,0,1.665-.627.3.3,0,0,0,.1-.269.287.287,0,0,0-.167-.227.255.255,0,0,0-.267.042Z" transform="translate(-165.264 -134.32)" fill="#c4c9cd"/></g><path d="M-14047.008-16961.383h-4.955a.5.5,0,0,1-.5-.5v-5.891a.5.5,0,0,1,.5-.5h4.955v1h-4.455v4.891h4.455Z" transform="translate(14101.644 17000.471)" fill="#ed4024"/><g transform="translate(38.432 64.72)"><path d="M441.886,140.54H439.87a.269.269,0,0,1,0-.538h2.016a.269.269,0,0,1,0,.538Z" transform="translate(-431.403 -138.658)" fill="#ed4024"/><path d="M441.886,140.639H439.87a.369.369,0,1,1,0-.737h2.016a.369.369,0,0,1,0,.737Zm-2.016-.537a.169.169,0,0,0,0,.337h2.016a.169.169,0,0,0,0-.337Z" transform="translate(-431.403 -138.658)" fill="#ed4024"/><path d="M441.886,190.939H439.87a.269.269,0,0,1,0-.538h2.016a.269.269,0,0,1,0,.538Z" transform="translate(-431.403 -187.848)" fill="#ed4024"/><path d="M441.886,191.039H439.87a.369.369,0,0,1,0-.738h2.016a.369.369,0,0,1,0,.738Zm-2.016-.538a.169.169,0,0,0,0,.338h2.016a.169.169,0,0,0,0-.338Z" transform="translate(-431.403 -187.848)" fill="#ed4024"/><path d="M441.886,241.339H439.87a.269.269,0,0,1,0-.538h2.016a.269.269,0,0,1,0,.538Z" transform="translate(-431.403 -237.039)" fill="#ed4024"/><path d="M441.886,241.439H439.87a.369.369,0,1,1,0-.737h2.016a.369.369,0,1,1,0,.737Zm-2.016-.537a.169.169,0,0,0,0,.337h2.016a.169.169,0,0,0,0-.337Z" transform="translate(-431.403 -237.039)" fill="#ed4024"/><path d="M109.019,84H99.074A1.078,1.078,0,0,0,98,85.075v6.72a1.078,1.078,0,0,0,1.075,1.075h.538v.538a.269.269,0,0,0,.269.269h1.478a.269.269,0,0,0,.269-.269V92.87h4.838v.538a.269.269,0,0,0,.269.269h1.478a.269.269,0,0,0,.269-.269V92.87h.538a1.078,1.078,0,0,0,1.075-1.075v-6.72A1.078,1.078,0,0,0,109.019,84Zm-7.929,9.139h-.941V92.87h.941Zm6.854,0H107V92.87h.941Zm1.613-1.344a.538.538,0,0,1-.538.538H99.074a.538.538,0,0,1-.538-.538v-6.72a.538.538,0,0,1,.538-.538h9.945a.538.538,0,0,1,.538.538Z" transform="translate(-97.999 -84)" fill="#ed4024"/><path d="M99.074,83.9h9.945a1.176,1.176,0,0,1,1.175,1.175v6.72a1.176,1.176,0,0,1-1.175,1.175h-.438v.438a.369.369,0,0,1-.369.369h-1.478a.369.369,0,0,1-.369-.369V92.97h-4.638v.438a.369.369,0,0,1-.369.369H99.88a.369.369,0,0,1-.369-.369V92.97h-.438A1.176,1.176,0,0,1,97.9,91.795v-6.72A1.176,1.176,0,0,1,99.074,83.9Zm9.945,8.87a.976.976,0,0,0,.975-.975v-6.72a.976.976,0,0,0-.975-.975H99.074a.976.976,0,0,0-.975.975v6.72a.976.976,0,0,0,.975.975h.638v.638a.169.169,0,0,0,.169.169h1.478a.169.169,0,0,0,.169-.169V92.77h5.038v.638a.169.169,0,0,0,.169.169h1.478a.169.169,0,0,0,.169-.169V92.77Zm-9.945-8.332h9.945a.638.638,0,0,1,.638.638v6.72a.638.638,0,0,1-.638.638H99.074a.638.638,0,0,1-.637-.638v-6.72A.638.638,0,0,1,99.074,84.438Zm9.945,7.795a.438.438,0,0,0,.438-.438v-6.72a.438.438,0,0,0-.438-.438H99.074a.438.438,0,0,0-.438.438v6.72a.438.438,0,0,0,.438.438Zm-8.97.538h1.141v.469h-1.141Zm.941.2h-.741v.069h.741Zm5.913-.2h1.141v.469H106.9Zm.941.2H107.1v.069h.741Z" transform="translate(-97.999 -84)" fill="#ed4024"/><path d="M441.886,293.486H439.87a.269.269,0,0,1-.269-.269V291.47a.269.269,0,0,1,.269-.269h2.016a.269.269,0,0,1,.269.269v1.747A.269.269,0,0,1,441.886,293.486Zm-1.747-.537h1.478v-1.21h-1.478Z" transform="translate(-431.403 -286.228)" fill="#ed4024"/><path d="M441.886,293.586H439.87a.369.369,0,0,1-.369-.369V291.47a.369.369,0,0,1,.369-.369h2.016a.369.369,0,0,1,.369.369v1.747A.369.369,0,0,1,441.886,293.586ZM439.87,291.3a.169.169,0,0,0-.169.169v1.747a.169.169,0,0,0,.169.169h2.016a.169.169,0,0,0,.169-.169V291.47a.169.169,0,0,0-.169-.169Zm1.847,1.747h-1.678v-1.41h1.678Zm-1.478-.2h1.278v-1.009h-1.278Z" transform="translate(-431.403 -286.228)" fill="#ed4024"/><path d="M3.023.7A2.323,2.323,0,1,0,5.347,3.023,2.326,2.326,0,0,0,3.023.7m0-.7A3.023,3.023,0,1,1,0,3.023,3.023,3.023,0,0,1,3.023,0Z" transform="translate(1.134 1.008)" fill="#ed4024"/></g><path d="M-14053.4-16940.135h-1v-16.338h1Z" transform="translate(14100.305 17000.559)" fill="#ed4024"/><path d="M-14052.942-16954.92a.5.5,0,0,1-.376-.17l-.67-.764-.739.777a.5.5,0,0,1-.707.02.5.5,0,0,1-.018-.707l1.116-1.176a.5.5,0,0,1,.362-.156h.01a.5.5,0,0,1,.366.17l1.031,1.176a.5.5,0,0,1-.046.705A.5.5,0,0,1-14052.942-16954.92Z" transform="translate(14100.423 17000.682)" fill="#ed4024"/><path d="M2.147,1.676a.5.5,0,0,1-.376-.17L1.1.742.363,1.52a.5.5,0,0,1-.707.019A.5.5,0,0,1-.363.832L.753-.344A.5.5,0,0,1,1.126-.5a.5.5,0,0,1,.366.17L2.523.846a.5.5,0,0,1-.376.83Z" transform="translate(47.48 60.428) rotate(180)" fill="#ed4024"/></g><path d="M2,2V8.873h9.838V2H2M0,0H13.838V10.873H0Z" transform="translate(471.525 2129.363)" fill="#bababa"/></g></g></svg>