<svg xmlns="http://www.w3.org/2000/svg" xmlns:xlink="http://www.w3.org/1999/xlink" width="97" height="91" viewBox="0 0 97 91"><defs><linearGradient id="a" x1="0.915" y1="0.023" x2="0.405" y2="1" gradientUnits="objectBoundingBox"><stop offset="0" stop-color="#f3c533"/><stop offset="1" stop-color="#fff0bf" stop-opacity="0"/></linearGradient><linearGradient id="c" x1="0.915" y1="0.023" x2="0.405" y2="1" gradientUnits="objectBoundingBox"><stop offset="0" stop-color="#ed4024"/><stop offset="1" stop-color="#fff0bf" stop-opacity="0"/></linearGradient><clipPath id="e"><rect width="97" height="91"/></clipPath></defs><g id="d" clip-path="url(#e)"><rect width="97" height="91" fill="#fff"/><g transform="translate(-14103.834 -24152.969)"><g transform="translate(14104.834 24162.975)"><path d="M95.925,62.658a1.171,1.171,0,1,0-.007,0Zm53.036,15h-3.647V34.784h3.64a1.22,1.22,0,0,0,.775-2.144L110.906.288a1.216,1.216,0,0,0-1.553,0c-30.561,24.72-2.75,2.17-38.827,32.359a1.22,1.22,0,0,0,.775,2.144h3.642V77.667H71.3a1.215,1.215,0,0,0,0,2.421h77.654a1.215,1.215,0,0,0,0-2.428ZM95.628,14.883l.819-.683L110.134,2.8,145.6,32.372H74.651ZM86.419,77.659V45.307H98.551V77.659Zm14.56,0V44.094a1.213,1.213,0,0,0-1.213-1.213H85.206a1.213,1.213,0,0,0-1.214,1.213V77.659H77.368V34.783h65.52V77.659ZM135.91,42.883H126.2a1.213,1.213,0,0,0-1.213,1.213V63.305a1.213,1.213,0,0,0,1.213,1.213h9.706a1.212,1.212,0,0,0,1.214-1.213V44.095a1.213,1.213,0,0,0-1.214-1.212ZM134.7,62.092h-7.279V45.307H134.7Z" transform="translate(-70.101 -0.007)" fill="#c4c9cd"/><path d="M140.135,46.183h-9.706a1.213,1.213,0,0,0-1.213,1.213V66.605a1.213,1.213,0,0,0,1.213,1.213h9.706a1.212,1.212,0,0,0,1.214-1.213V47.395a1.213,1.213,0,0,0-1.214-1.212Zm-1.213,19.209h-7.279V48.607h7.279Z" transform="translate(-91.968 -3.308)" fill="#c4c9cd"/></g><path d="M-14024.27-17212.908l-17,73.664-23.777-1,31.178-74.285Z" transform="translate(28217.316 41380.113)" opacity="0.58" fill="url(#a)"/><g transform="translate(14176.494 24154.053)"><path d="M242.732,166.25a6.486,6.486,0,1,0,4.579,1.9A6.479,6.479,0,0,0,242.732,166.25Z" transform="translate(-230.63 -160.627)" fill="#f3c533"/><path d="M337.733,424.38a.856.856,0,0,0-.856.856v2.445a.856.856,0,1,0,1.711,0v-2.445a.856.856,0,0,0-.856-.856Z" transform="translate(-325.631 -404.332)" fill="#f3c533"/><path d="M449.7,378.493a.856.856,0,1,0-1.21,1.21l1.728,1.728a.856.856,0,1,0,1.21-1.21Z" transform="translate(-430.767 -360.773)" fill="#f3c533"/><path d="M497.678,266.88h-2.445a.856.856,0,1,0,0,1.711h2.445a.856.856,0,1,0,0-1.711Z" transform="translate(-474.329 -255.634)" fill="#f3c533"/><path d="M449.7,127.767l1.728-1.728a.856.856,0,1,0-1.21-1.21l-1.728,1.728a.856.856,0,1,0,1.21,1.21Z" transform="translate(-430.767 -121.284)" fill="#f3c533"/><path d="M338.587,68.928V66.483a.856.856,0,1,0-1.711,0v2.445a.856.856,0,0,0,1.711,0Z" transform="translate(-325.629 -65.627)" fill="#f3c533"/><path d="M196.553,127.767a.856.856,0,1,0,1.21-1.21l-1.728-1.728a.856.856,0,1,0-1.21,1.21Z" transform="translate(-191.28 -121.284)" fill="#f3c533"/><path d="M139.781,267.733a.855.855,0,0,0-.856-.856H136.48a.856.856,0,1,0,0,1.711h2.445a.855.855,0,0,0,.856-.856Z" transform="translate(-135.625 -255.631)" fill="#f3c533"/><path d="M196.553,378.493l-1.728,1.728a.856.856,0,1,0,1.21,1.21l1.728-1.728a.856.856,0,1,0-1.21-1.21Z" transform="translate(-191.28 -360.773)" fill="#f3c533"/></g><path d="M95.925,62.658a1.171,1.171,0,1,0-.007,0Zm53.036,15h-3.647V34.784h3.64a1.22,1.22,0,0,0,.775-2.144L110.906.288a1.216,1.216,0,0,0-1.553,0c-30.561,24.72-2.75,2.17-38.827,32.359a1.22,1.22,0,0,0,.775,2.144h3.642V77.667H71.3a1.215,1.215,0,0,0,0,2.421h77.654a1.215,1.215,0,0,0,0-2.428ZM95.628,14.883l.819-.683L110.134,2.8,145.6,32.372H74.651ZM86.419,77.659V45.307H98.551V77.659Zm14.56,0V44.094a1.213,1.213,0,0,0-1.213-1.213H85.206a1.213,1.213,0,0,0-1.214,1.213V77.659H77.368V34.783h65.52V77.659ZM135.91,42.883H126.2a1.213,1.213,0,0,0-1.213,1.213V63.305a1.213,1.213,0,0,0,1.213,1.213h9.706a1.212,1.212,0,0,0,1.214-1.213V44.095a1.213,1.213,0,0,0-1.214-1.212ZM134.7,62.092h-7.279V45.307H134.7Z" transform="translate(14034.733 24162.967)" fill="#c4c9cd"/><path d="M140.135,46.183h-9.706a1.213,1.213,0,0,0-1.213,1.213V66.605a1.213,1.213,0,0,0,1.213,1.213h9.706a1.212,1.212,0,0,0,1.214-1.213V47.395a1.213,1.213,0,0,0-1.214-1.212Zm-1.213,19.209h-7.279V48.607h7.279Z" transform="translate(14012.866 24159.668)" fill="#c4c9cd"/><path d="M-14024.27-17212.908l-17,73.664-23.777-1,31.178-74.285Z" transform="translate(28217.316 41380.113)" opacity="0.58" fill="url(#a)"/><path d="M242.732,166.25a6.486,6.486,0,1,0,4.579,1.9A6.479,6.479,0,0,0,242.732,166.25Z" transform="translate(13945.865 23993.426)" fill="#f3c533"/><path d="M337.733,424.38a.856.856,0,0,0-.856.856v2.445a.856.856,0,1,0,1.711,0v-2.445a.856.856,0,0,0-.856-.856Z" transform="translate(13850.863 23749.721)" fill="#f3c533"/><path d="M449.7,378.493a.856.856,0,1,0-1.21,1.21l1.728,1.728a.856.856,0,1,0,1.21-1.21Z" transform="translate(13745.728 23793.279)" fill="#f3c533"/><path d="M497.678,266.88h-2.445a.856.856,0,1,0,0,1.711h2.445a.856.856,0,1,0,0-1.711Z" transform="translate(13702.165 23898.42)" fill="#f3c533"/><path d="M449.7,127.767l1.728-1.728a.856.856,0,1,0-1.21-1.21l-1.728,1.728a.856.856,0,1,0,1.21,1.21Z" transform="translate(13745.728 24032.77)" fill="#f3c533"/><path d="M338.587,68.928V66.483a.856.856,0,1,0-1.711,0v2.445a.856.856,0,0,0,1.711,0Z" transform="translate(13850.864 24088.426)" fill="#f3c533"/><path d="M196.553,127.767a.856.856,0,1,0,1.21-1.21l-1.728-1.728a.856.856,0,1,0-1.21,1.21Z" transform="translate(13985.214 24032.77)" fill="#f3c533"/><path d="M139.781,267.733a.855.855,0,0,0-.856-.856H136.48a.856.856,0,1,0,0,1.711h2.445a.855.855,0,0,0,.856-.856Z" transform="translate(14040.87 23898.422)" fill="#f3c533"/><path d="M196.553,378.493l-1.728,1.728a.856.856,0,1,0,1.21,1.21l1.728-1.728a.856.856,0,1,0-1.21-1.21Z" transform="translate(13985.214 23793.279)" fill="#f3c533"/><g transform="translate(14104.834 24162.975)"><path d="M95.925,62.658a1.171,1.171,0,1,0-.007,0Zm53.036,15h-3.647V34.784h3.64a1.22,1.22,0,0,0,.775-2.144L110.906.288a1.216,1.216,0,0,0-1.553,0c-30.561,24.72-2.75,2.17-38.827,32.359a1.22,1.22,0,0,0,.775,2.144h3.642V77.667H71.3a1.215,1.215,0,0,0,0,2.421h77.654a1.215,1.215,0,0,0,0-2.428ZM95.628,14.883l.819-.683L110.134,2.8,145.6,32.372H74.651ZM86.419,77.659V45.307H98.551V77.659Zm14.56,0V44.094a1.213,1.213,0,0,0-1.213-1.213H85.206a1.213,1.213,0,0,0-1.214,1.213V77.659H77.368V34.783h65.52V77.659ZM135.91,42.883H126.2a1.213,1.213,0,0,0-1.213,1.213V63.305a1.213,1.213,0,0,0,1.213,1.213h9.706a1.212,1.212,0,0,0,1.214-1.213V44.095a1.213,1.213,0,0,0-1.214-1.212ZM134.7,62.092h-7.279V45.307H134.7Z" transform="translate(-70.101 -0.007)" fill="#bababa"/><path d="M140.135,46.183h-9.706a1.213,1.213,0,0,0-1.213,1.213V66.605a1.213,1.213,0,0,0,1.213,1.213h9.706a1.212,1.212,0,0,0,1.214-1.213V47.395a1.213,1.213,0,0,0-1.214-1.212Zm-1.213,19.209h-7.279V48.607h7.279Z" transform="translate(-91.968 -3.308)" fill="#bababa"/></g><path d="M-14024.27-17212.908l-17,73.664-23.777-1,31.178-74.285Z" transform="translate(28217.316 41380.113)" opacity="0.58" fill="url(#c)"/><g transform="translate(14176.494 24154.053)"><path d="M242.732,166.25a6.486,6.486,0,1,0,4.579,1.9A6.479,6.479,0,0,0,242.732,166.25Z" transform="translate(-230.63 -160.627)" fill="#ed4024"/><path d="M337.733,424.38a.856.856,0,0,0-.856.856v2.445a.856.856,0,1,0,1.711,0v-2.445a.856.856,0,0,0-.856-.856Z" transform="translate(-325.631 -404.332)" fill="#ed4024"/><path d="M449.7,378.493a.856.856,0,1,0-1.21,1.21l1.728,1.728a.856.856,0,1,0,1.21-1.21Z" transform="translate(-430.767 -360.773)" fill="#ed4024"/><path d="M497.678,266.88h-2.445a.856.856,0,1,0,0,1.711h2.445a.856.856,0,1,0,0-1.711Z" transform="translate(-474.329 -255.634)" fill="#ed4024"/><path d="M449.7,127.767l1.728-1.728a.856.856,0,1,0-1.21-1.21l-1.728,1.728a.856.856,0,1,0,1.21,1.21Z" transform="translate(-430.767 -121.284)" fill="#ed4024"/><path d="M338.587,68.928V66.483a.856.856,0,1,0-1.711,0v2.445a.856.856,0,0,0,1.711,0Z" transform="translate(-325.629 -65.627)" fill="#ed4024"/><path d="M196.553,127.767a.856.856,0,1,0,1.21-1.21l-1.728-1.728a.856.856,0,1,0-1.21,1.21Z" transform="translate(-191.28 -121.284)" fill="#ed4024"/><path d="M139.781,267.733a.855.855,0,0,0-.856-.856H136.48a.856.856,0,1,0,0,1.711h2.445a.855.855,0,0,0,.856-.856Z" transform="translate(-135.625 -255.631)" fill="#ed4024"/><path d="M196.553,378.493l-1.728,1.728a.856.856,0,1,0,1.21,1.21l1.728-1.728a.856.856,0,1,0-1.21-1.21Z" transform="translate(-191.28 -360.773)" fill="#ed4024"/></g></g></g></svg>