<svg xmlns="http://www.w3.org/2000/svg" xmlns:xlink="http://www.w3.org/1999/xlink" width="73" height="91" viewBox="0 0 73 91"><defs><clipPath id="b"><rect width="73" height="91"/></clipPath></defs><g id="a" clip-path="url(#b)"><rect width="73" height="91" fill="#fff"/><g transform="translate(-868 -2075)"><g transform="translate(-1201.841 22244.1)"><g transform="translate(2072.063 -20166.344)"><path d="M-14285.316-16959.205h-60.018a1,1,0,0,1-1-1,1,1,0,0,1,1-1h57.823l-19.616-22.564h-38.207a1,1,0,0,1-1-1,1,1,0,0,1,1-1h38.663a1,1,0,0,1,.755.344l21.354,24.564a1,1,0,0,1,.155,1.07A1,1,0,0,1-14285.316-16959.205Z" transform="translate(14345.334 16984.77)" fill="#bababa"/><path d="M-14294.891-16900.879h-2v-61.967h2Z" transform="translate(14351.302 16987.412)" fill="#bababa"/><path d="M-14275.944-16906.553h-69.39v-2h69.39Z" transform="translate(14345.334 16994.09)" fill="#bababa"/><path d="M2,2V12.569h9.448V2H2M0,0H13.448V14.569H0Z" transform="translate(14.943 35.605)" fill="#bababa"/><path d="M2,2V12.569h9.448V2H2M0,0H13.448V14.569H0Z" transform="translate(14.943 60.261)" fill="#bababa"/><path d="M-14317.472-16937.387h-17.025v-2h17.025Z" transform="translate(14347.765 16988.127)" fill="#bababa"/><path d="M-14317.472-16937.387h-17.025v-2h17.025Z" transform="translate(14347.765 17012.783)" fill="#bababa"/></g><g transform="translate(2113.113 -20133.787)"><path d="M166.157,135.249a.3.3,0,0,1-.059-.209.3.3,0,0,1,.095-.193,2.1,2.1,0,0,1,2.782,0,1.879,1.879,0,0,0,2.329-.124.254.254,0,0,1,.264-.04.285.285,0,0,1,.166.224.3.3,0,0,1-.1.267,2.706,2.706,0,0,1-1.652.629,2.042,2.042,0,0,1-1.345-.5,1.6,1.6,0,0,0-2.111-.017.256.256,0,0,1-.195.061.264.264,0,0,1-.179-.1Zm4.317,1.138a1.879,1.879,0,0,1-2.329.124,2.1,2.1,0,0,0-2.783-.007.3.3,0,0,0-.094.271.285.285,0,0,0,.171.223.255.255,0,0,0,.266-.048,1.6,1.6,0,0,1,2.11.017,2.045,2.045,0,0,0,1.335.5,2.705,2.705,0,0,0,1.659-.625.294.294,0,0,0,.1-.194.3.3,0,0,0-.056-.214.264.264,0,0,0-.182-.107.256.256,0,0,0-.2.064Zm.823,1.659a1.858,1.858,0,0,1-2.33.126h0a2.1,2.1,0,0,0-2.782,0,.3.3,0,0,0-.094.27.285.285,0,0,0,.17.222.255.255,0,0,0,.265-.046,1.6,1.6,0,0,1,2.111.017h0a2.042,2.042,0,0,0,1.335.5,2.705,2.705,0,0,0,1.658-.625.3.3,0,0,0,.1-.268.286.286,0,0,0-.167-.227.254.254,0,0,0-.266.042Z" transform="translate(-165.264 -134.32)" fill="#c4c9cd"/></g><path d="M-14047.03-16961.41h-4.933a.5.5,0,0,1-.5-.5v-5.867a.5.5,0,0,1,.5-.5h4.933v1h-4.433v4.867h4.433Z" transform="translate(16173.491 -3166.011)" fill="#ed4024"/><g transform="translate(2128.403 -20133.787)"><path d="M442.477,140.537h-2.537a.275.275,0,1,1,0-.535h2.537a.275.275,0,1,1,0,.535Z" transform="translate(-437.422 -135.844)" fill="#ed4024"/><path d="M442.477,140.637h-2.537a.373.373,0,1,1,0-.735h2.537a.373.373,0,1,1,0,.735Zm-2.537-.535c-.129,0-.238.077-.238.168s.109.168.238.168h2.537c.129,0,.238-.077.238-.168s-.109-.168-.238-.168Z" transform="translate(-437.422 -135.844)" fill="#ed4024"/><path d="M442.477,190.937h-2.537a.275.275,0,1,1,0-.535h2.537a.275.275,0,1,1,0,.535Z" transform="translate(-437.422 -185.094)" fill="#ed4024"/><path d="M442.477,191.037h-2.537a.373.373,0,1,1,0-.735h2.537a.373.373,0,1,1,0,.735Zm-2.537-.535c-.129,0-.238.077-.238.168s.109.168.238.168h2.537c.129,0,.238-.077.238-.168s-.109-.168-.238-.168Z" transform="translate(-437.422 -185.094)" fill="#ed4024"/><path d="M442.477,241.337h-2.537a.275.275,0,1,1,0-.535h2.537a.275.275,0,1,1,0,.535Z" transform="translate(-437.422 -234.342)" fill="#ed4024"/><path d="M442.477,241.437h-2.537a.373.373,0,1,1,0-.735h2.537a.373.373,0,1,1,0,.735Zm-2.537-.535c-.129,0-.238.077-.238.168s.109.168.238.168h2.537c.129,0,.238-.077.238-.168s-.109-.168-.238-.168Z" transform="translate(-437.422 -234.342)" fill="#ed4024"/><path d="M104.993,84H98.681c-.375,0-.682.462-.682,1.026v6.413c0,.564.307,1.026.682,1.026H99.8v.513c0,.142.076.256.171.256h3.321c.094,0,.171-.115.171-.256v-.513h1.533c.375,0,.682-.462.682-1.026V85.026c0-.564-.307-1.026-.682-1.026Zm-1.874,8.721h-2.98v-.256h2.98Zm2.215-1.283c0,.283-.153.513-.341.513H98.681c-.188,0-.341-.23-.341-.513V85.026c0-.283.153-.513.341-.513h6.312c.188,0,.341.23.341.513Z" transform="translate(-97.999 -84)" fill="#ed4024"/><path d="M98.681,83.9h6.312c.431,0,.782.505.782,1.126v6.413c0,.621-.351,1.126-.782,1.126H103.56v.413c0,.2-.119.356-.271.356H99.968c-.152,0-.271-.157-.271-.356v-.413H98.5v-.029a1.119,1.119,0,0,1-.605-1.1V85.026C97.9,84.405,98.25,83.9,98.681,83.9Zm6.311,8.465c.316,0,.582-.424.582-.926V85.026c0-.5-.267-.926-.582-.926H98.681c-.316,0-.582.424-.582.926v6.413c0,.5.267.926.582.926H99.9v.613c0,.1.046.156.071.156h3.321c.024,0,.071-.061.071-.156v-.613Zm-6.311-7.952h6.312c.247,0,.441.269.441.613v6.413c0,.344-.194.613-.441.613H98.681c-.247,0-.441-.269-.441-.613V85.026C98.24,84.682,98.434,84.413,98.681,84.413Zm6.312,7.439c.128,0,.241-.193.241-.413V85.026c0-.22-.113-.413-.241-.413H98.681c-.128,0-.241.193-.241.413v6.413c0,.22.113.413.241.413Zm-4.954.513h3.18v.456h-3.18Zm2.98.2h-2.78v.056h2.78Z" transform="translate(-97.999 -84)" fill="#ed4024"/></g><path d="M2,2V9.037H12.048V2H2M0,0H14.048V11.037H0Z" transform="translate(2126.508 -20118.41)" fill="#bababa"/></g></g></g></svg>