<svg xmlns="http://www.w3.org/2000/svg" xmlns:xlink="http://www.w3.org/1999/xlink" width="73" height="91" viewBox="0 0 73 91"><defs><clipPath id="b"><rect width="73" height="91"/></clipPath></defs><g id="a" clip-path="url(#b)"><rect width="73" height="91" fill="#fff"/><g transform="translate(-641.612 -2075.647)"><g transform="translate(642.953 2077.5)"><g transform="translate(0.001 0)"><path d="M-14284.793-16958.986h-60.544a1,1,0,0,1-1-1,1,1,0,0,1,1-1h58.35l-19.8-22.783h-38.546a1,1,0,0,1-1-1,1,1,0,0,1,1-1h39a1,1,0,0,1,.755.344l21.542,24.783a1,1,0,0,1,.155,1.07A1,1,0,0,1-14284.793-16958.986Z" transform="translate(14345.337 16984.77)" fill="#bababa"/><path d="M-14294.891-16900.338h-2v-62.512h2Z" transform="translate(14351.787 16987.631)" fill="#bababa"/><path d="M-14275.021-16906.553h-70.315v-2h70.315Z" transform="translate(14345.337 16994.848)" fill="#bababa"/><path d="M2,2V12.7h9.566V2H2M0,0H13.566V14.7H0Z" transform="translate(15.074 35.917)" fill="#bababa"/><path d="M2,2V12.7h9.566V2H2M0,0H13.566V14.7H0Z" transform="translate(15.074 60.789)" fill="#bababa"/><path d="M-14317.322-16937.387h-17.175v-2h17.175Z" transform="translate(14347.879 16988.563)" fill="#bababa"/><path d="M-14317.322-16937.387h-17.175v-2h17.175Z" transform="translate(14347.879 17013.434)" fill="#bababa"/></g><g transform="translate(41.411 32.84)"><path d="M166.165,135.257a.306.306,0,0,1-.059-.211.3.3,0,0,1,.1-.195,2.119,2.119,0,0,1,2.806,0,1.9,1.9,0,0,0,2.349-.125.256.256,0,0,1,.266-.04.288.288,0,0,1,.168.226.3.3,0,0,1-.1.27,2.729,2.729,0,0,1-1.667.634,2.06,2.06,0,0,1-1.356-.5,1.616,1.616,0,0,0-2.129-.017.258.258,0,0,1-.2.062.266.266,0,0,1-.181-.1Zm4.355,1.148a1.9,1.9,0,0,1-2.349.125,2.123,2.123,0,0,0-2.807-.007.3.3,0,0,0-.095.273.287.287,0,0,0,.173.225.257.257,0,0,0,.268-.048,1.614,1.614,0,0,1,2.128.017,2.063,2.063,0,0,0,1.347.5,2.729,2.729,0,0,0,1.674-.63.3.3,0,0,0,.1-.2.306.306,0,0,0-.057-.216.267.267,0,0,0-.183-.108.259.259,0,0,0-.2.064Zm.83,1.673a1.875,1.875,0,0,1-2.351.127h0a2.119,2.119,0,0,0-2.806,0,.3.3,0,0,0-.094.272.287.287,0,0,0,.172.224.257.257,0,0,0,.267-.047,1.615,1.615,0,0,1,2.129.017h0a2.06,2.06,0,0,0,1.347.5,2.729,2.729,0,0,0,1.672-.63.3.3,0,0,0,.1-.271.288.288,0,0,0-.168-.229.257.257,0,0,0-.268.042Z" transform="translate(-165.264 -134.32)" fill="#bababa"/></g><path d="M-14046.987-16961.357h-4.976a.5.5,0,0,1-.5-.5v-5.92a.5.5,0,0,1,.5-.5h4.976v1h-4.476v4.92h4.476Z" transform="translate(14101.862 17000.619)" fill="#ed4024"/><g transform="translate(57.833 55.285)"><path d="M442.5,140.542h-2.56a.277.277,0,1,1,0-.54h2.56a.277.277,0,1,1,0,.54Z" transform="translate(-437.402 -135.808)" fill="#ed4024"/><path d="M442.5,140.642h-2.56a.376.376,0,1,1,0-.74h2.56a.376.376,0,1,1,0,.74Zm-2.56-.54c-.131,0-.241.078-.241.17s.11.17.241.17h2.56c.131,0,.241-.078.241-.17s-.11-.17-.241-.17Z" transform="translate(-437.402 -135.808)" fill="#ed4024"/><path d="M442.5,190.942h-2.56a.277.277,0,1,1,0-.54h2.56a.277.277,0,1,1,0,.54Z" transform="translate(-437.402 -185.048)" fill="#ed4024"/><path d="M442.5,191.042h-2.56a.376.376,0,1,1,0-.74h2.56a.376.376,0,1,1,0,.74Zm-2.56-.54c-.131,0-.241.078-.241.17s.11.17.241.17h2.56c.131,0,.241-.078.241-.17s-.11-.17-.241-.17Z" transform="translate(-437.402 -185.048)" fill="#ed4024"/><path d="M442.5,241.342h-2.56a.277.277,0,1,1,0-.54h2.56a.277.277,0,1,1,0,.54Z" transform="translate(-437.402 -234.285)" fill="#ed4024"/><path d="M442.5,241.442h-2.56a.376.376,0,1,1,0-.74h2.56a.376.376,0,1,1,0,.74Zm-2.56-.54c-.131,0-.241.078-.241.17s.11.17.241.17h2.56c.131,0,.241-.078.241-.17s-.11-.17-.241-.17Z" transform="translate(-437.402 -234.285)" fill="#ed4024"/><path d="M105.054,84H98.687c-.379,0-.688.466-.688,1.035V91.5c0,.569.31,1.035.688,1.035h1.126v.517c0,.143.077.259.172.259h3.35c.1,0,.172-.116.172-.259v-.517h1.546c.379,0,.688-.466.688-1.035V85.035c0-.569-.31-1.035-.688-1.035Zm-1.89,8.8h-3.006v-.259h3.006ZM105.4,91.5c0,.285-.154.517-.344.517H98.687c-.19,0-.344-.232-.344-.517V85.035c0-.285.154-.517.344-.517h6.367c.19,0,.344.232.344.517Z" transform="translate(-97.999 -84)" fill="#ed4024"/><path d="M98.687,83.9h6.367c.435,0,.788.509.788,1.135V91.5c0,.626-.354,1.135-.788,1.135h-1.446v.417c0,.2-.119.359-.272.359h-3.35c-.153,0-.272-.158-.272-.359v-.417h-1.2V92.61A1.128,1.128,0,0,1,97.9,91.5V85.035C97.9,84.409,98.253,83.9,98.687,83.9Zm6.367,8.539c.319,0,.588-.428.588-.935V85.035c0-.507-.269-.935-.588-.935H98.687c-.319,0-.588.428-.588.935V91.5c0,.507.269.935.588.935h1.226v.617c0,.1.047.159.072.159h3.35c.025,0,.072-.062.072-.159v-.617Zm-6.367-8.022h6.367c.249,0,.444.271.444.617V91.5c0,.346-.2.617-.444.617H98.687c-.249,0-.444-.271-.444-.617V85.035C98.243,84.689,98.438,84.418,98.687,84.418Zm6.367,7.5c.13,0,.244-.2.244-.417V85.035c0-.222-.114-.417-.244-.417H98.687c-.13,0-.244.2-.244.417V91.5c0,.222.114.417.244.417Zm-5,.518h3.206V92.9h-3.206Zm3.006.2h-2.806V92.7h2.806Z" transform="translate(-97.999 -84)" fill="#ed4024"/></g><path d="M2,2V9.134H12.171V2H2M0,0H14.171V11.134H0Z" transform="translate(54.923 54.881)" fill="#bababa"/></g></g></g></svg>