<svg xmlns="http://www.w3.org/2000/svg" xmlns:xlink="http://www.w3.org/1999/xlink" width="86" height="91" viewBox="0 0 86 91"><defs><clipPath id="a"><rect width="83.583" height="89" fill="#ed4024"/></clipPath><clipPath id="c"><rect width="86" height="91"/></clipPath></defs><g id="b" clip-path="url(#c)"><rect width="86" height="91" fill="#fff"/><g transform="translate(1.253 1)"><g clip-path="url(#a)"><path d="M59.435,46.957a1.094,1.094,0,0,0,1.094-1.094V2.893a.7.7,0,0,1,.7-.7h52.339a.705.705,0,0,1,.7.7v42.97a1.094,1.094,0,1,0,2.189,0V2.893A2.9,2.9,0,0,0,113.573,0H61.234a2.9,2.9,0,0,0-2.893,2.893v42.97a1.094,1.094,0,0,0,1.094,1.094" transform="translate(-45.571 0)" fill="#ed4024"/><path d="M130.369,63.534a1.1,1.1,0,0,0,1.094,1.087h.007a1.1,1.1,0,0,0,1.087-1.1l-.273-40.906H86.1V63.2a1.094,1.094,0,0,0,2.189,0V41.006L108,40.963l.007,22.564a1.094,1.094,0,0,0,1.094,1.094h0a1.094,1.094,0,0,0,1.094-1.095l-.007-22.567,20.031-.044ZM88.291,38.817V24.8h19.7l0,13.972Zm21.9-.048,0-13.968H130.11l.093,13.924Z" transform="translate(-67.256 -17.663)" fill="#ed4024"/><path d="M82.076,224.5a5.921,5.921,0,0,0-3.968-1.473H7.081a7.525,7.525,0,0,0-5.62,1.942A5.113,5.113,0,0,0,0,228.478,1.1,1.1,0,0,0,1.1,229.546h.033a1.089,1.089,0,0,0,1.062-1.12,2.975,2.975,0,0,1,.867-1.963,4.575,4.575,0,0,1,2.71-1.169L2.517,244.167c-.174.678-1.346,6.017,2.887,11.9v3.943a3.2,3.2,0,0,0,3.2,3.2H74.71a3.2,3.2,0,0,0,3.2-3.2v-3.363c4.745-6.109,3.5-11.781,3.321-12.481l-3.265-18.956h.2a3.738,3.738,0,0,1,2.411.873,3.164,3.164,0,0,1,.825,2.362,1.094,1.094,0,0,0,2.189,0,5.243,5.243,0,0,0-1.507-3.95M64.4,255.437c2.961-5.58,2.155-9.755,1.986-10.458l-2.277-19.768h4.843l3.331,19.855.023.1a11.79,11.79,0,0,1-2.918,10.268Zm-50.046,0a11.789,11.789,0,0,1-2.918-10.263l.014-.053,3.34-19.909h4.843l-2.277,19.768c-.169.7-.976,4.878,1.986,10.458Zm7.5,0c-3.447-5.7-2.414-9.8-2.369-9.965l.023-.084,2.324-20.177H26.76l-1.548,19.172c-.069.539-.732,6.311,1.527,11.054Zm7.363,0c-2.647-4.348-1.845-10.729-1.836-10.795l1.571-19.431H33.84v30.226Zm6.807-30.226h4.7v30.226h-4.7Zm6.893,0h4.893v30.226H42.922Zm7.082,0h4.783l1.565,19.374.006.056c.009.066.812,6.447-1.836,10.8H50Zm8.527,19.172-1.548-19.172h4.923L64.22,245.3l.01.086.023.084c.012.042,1.116,4.205-2.369,9.965H57c2.259-4.743,1.6-10.516,1.527-11.054M4.64,244.7l.015-.055L8,225.211h4.569L9.309,244.658a13.855,13.855,0,0,0,2.276,10.779H7.671C3.3,249.913,4.582,244.913,4.64,244.7m71.076,15.314a1.007,1.007,0,0,1-1.006,1.006H8.6a1.008,1.008,0,0,1-1.007-1.006v-2.385H75.717Zm3.361-15.425.024.106c.06.221,1.343,5.221-3.029,10.745H72.158a13.855,13.855,0,0,0,2.276-10.779l-3.262-19.447H75.74Z" transform="translate(0 -174.206)" fill="#ed4024"/></g></g></g></svg>