<svg xmlns="http://www.w3.org/2000/svg" xmlns:xlink="http://www.w3.org/1999/xlink" width="77" height="94" viewBox="0 0 77 94"><defs><clipPath id="b"><rect width="77" height="94"/></clipPath></defs><g id="a" clip-path="url(#b)"><rect width="77" height="94" fill="#fff"/><g transform="translate(-643 -3287)"><g transform="translate(685.772 3287)"><path d="M130.565,161.866v-7.129a.707.707,0,0,0-.663-.744H127.25a.707.707,0,0,0-.663.744V157.4l-2.846-3.193a.613.613,0,0,0-.938,0l-10.608,11.9a.808.808,0,0,0,0,1.052.613.613,0,0,0,.938,0l10.139-11.373,3.509,3.936a.611.611,0,0,0,.722.161.749.749,0,0,0,.41-.687v-3.718h1.326v6.693a.793.793,0,0,0,.194.526l3.978,4.462a.614.614,0,0,0,.938,0,.808.808,0,0,0,0-1.052Z" transform="translate(-112 -153.993)" fill="#ed4024"/><path d="M112.664,167.63a.871.871,0,0,1-.656-.3,1.052,1.052,0,0,1,0-1.384l10.608-11.9a.863.863,0,0,1,1.311,0l2.409,2.7v-2.011a.957.957,0,0,1,.913-.994H129.9a.957.957,0,0,1,.913.994v7.034l3.721,4.173a1.052,1.052,0,0,1,0,1.384.864.864,0,0,1-1.311,0l-3.978-4.462a1.037,1.037,0,0,1-.257-.692v-6.443h-.826V159.2a1,1,0,0,1-.555.914.844.844,0,0,1-.358.08.883.883,0,0,1-.656-.3l-3.322-3.727-9.953,11.164A.871.871,0,0,1,112.664,167.63Zm10.608-13.387a.377.377,0,0,0-.282.134l-10.609,11.9a.561.561,0,0,0,0,.719.363.363,0,0,0,.564,0l10.326-11.583,3.7,4.145a.365.365,0,0,0,.43.1.5.5,0,0,0,.265-.46v-3.968h1.826v6.943a.545.545,0,0,0,.131.36L133.6,167a.364.364,0,0,0,.565,0,.56.56,0,0,0,0-.719l-3.848-4.316v-7.224a.459.459,0,0,0-.413-.494H127.25a.459.459,0,0,0-.413.494v3.323l-3.283-3.683A.378.378,0,0,0,123.272,154.243Z" transform="translate(-112 -153.993)" fill="#ed4024"/></g><g transform="translate(645 3292)"><path d="M317.84,400.527h8.909a.921.921,0,0,0,.921-.921v-9.432a.921.921,0,0,0-.921-.921H317.84a.921.921,0,0,0-.921.921v9.432A.921.921,0,0,0,317.84,400.527Zm.921-9.432h7.066v7.59h-7.066Z" transform="translate(-285.517 -319.127)" fill="#bababa"/><path d="M409.786,400.527H418.7a.921.921,0,0,0,.921-.921v-9.432a.921.921,0,0,0-.921-.921h-8.909a.921.921,0,0,0-.921.921v9.432A.921.921,0,0,0,409.786,400.527Zm.921-9.432h7.066v7.59h-7.066Z" transform="translate(-362.34 -319.127)" fill="#bababa"/><path d="M317.84,298.707h8.909a.921.921,0,0,0,.921-.921v-9.432a.921.921,0,0,0-.921-.921H317.84a.921.921,0,0,0-.921.921v9.432A.922.922,0,0,0,317.84,298.707Zm.921-9.432h7.066v7.59h-7.066Z" transform="translate(-285.517 -234.055)" fill="#bababa"/><path d="M409.786,298.707H418.7a.921.921,0,0,0,.921-.921v-9.432a.921.921,0,0,0-.921-.921h-8.909a.921.921,0,0,0-.921.921v9.432A.922.922,0,0,0,409.786,298.707Zm.921-9.432h7.066v7.59h-7.066Z" transform="translate(-362.34 -234.055)" fill="#bababa"/><path d="M317.84,196.891h8.909a.921.921,0,0,0,.921-.921v-9.431a.921.921,0,0,0-.921-.921H317.84a.921.921,0,0,0-.921.921v9.432a.922.922,0,0,0,.921.921Zm.921-9.431h7.066v7.59h-7.066Z" transform="translate(-285.517 -148.985)" fill="#bababa"/><path d="M317.84,196.891h8.909a.921.921,0,0,0,.921-.921v-9.431a.921.921,0,0,0-.921-.921H317.84a.921.921,0,0,0-.921.921v9.432a.922.922,0,0,0,.921.921Zm.921-9.431h7.066v7.59h-7.066Z" transform="translate(-285.517 -165.731)" fill="#bababa"/><path d="M226.726,298.707h8.909a.921.921,0,0,0,.921-.921v-9.432a.921.921,0,0,0-.921-.921h-8.909a.921.921,0,0,0-.921.921v9.432A.922.922,0,0,0,226.726,298.707Zm.921-9.432h7.066v7.59h-7.066Z" transform="translate(-209.389 -234.055)" fill="#bababa"/><path d="M226.726,196.891h8.909a.921.921,0,0,0,.921-.921v-9.431a.921.921,0,0,0-.921-.921h-8.909a.921.921,0,0,0-.921.921v9.432a.922.922,0,0,0,.922.921Zm.921-9.431h7.066v7.59h-7.066Z" transform="translate(-209.389 -148.985)" fill="#bababa"/><path d="M226.726,196.891h8.909a.921.921,0,0,0,.921-.921v-9.431a.921.921,0,0,0-.921-.921h-8.909a.921.921,0,0,0-.921.921v9.432a.922.922,0,0,0,.922.921Zm.921-9.431h7.066v7.59h-7.066Z" transform="translate(-209.389 -165.731)" fill="#bababa"/><path d="M409.786,196.891H418.7a.921.921,0,0,0,.921-.921v-9.431a.921.921,0,0,0-.921-.921h-8.909a.921.921,0,0,0-.921.921v9.432a.922.922,0,0,0,.922.921Zm.921-9.431h7.066v7.59h-7.066Z" transform="translate(-362.34 -148.985)" fill="#bababa"/><path d="M409.786,196.891H418.7a.921.921,0,0,0,.921-.921v-9.431a.921.921,0,0,0-.921-.921h-8.909a.921.921,0,0,0-.921.921v9.432a.922.922,0,0,0,.922.921Zm.921-9.431h7.066v7.59h-7.066Z" transform="translate(-362.34 -165.731)" fill="#bababa"/><path d="M198.766,121.16h-9.5V51.251h1.249a.921.921,0,0,0,.921-.921V42.3a.921.921,0,0,0-.921-.921H164.892V34.924a.921.921,0,0,0-.921-.921H155.6a.921.921,0,0,0-.921.921V41.38H149.1V34.924a.921.921,0,0,0-.921-.921H139.81a.921.921,0,0,0-.921.921V41.38h-3.714a.921.921,0,0,0-.921.921v8.03a.921.921,0,0,0,.921.921h1.249V121.16h-9.5a.921.921,0,1,0,0,1.843h71.844a.921.921,0,1,0,0-1.843ZM156.521,35.845h6.53v5.534h-6.53Zm-15.789,0h6.53v5.534h-6.53ZM136.1,43.221h53.5v6.188H136.1Zm2.17,8.03h49.156v69.908H154.579V105.05a.921.921,0,0,0-.921-.921H143.332a.921.921,0,0,0-.921.921v16.109h-4.145Zm14.471,69.908h-8.485V105.971h8.485Z" transform="translate(-126.001 -34.003)" fill="#bababa"/><ellipse cx="0.696" cy="0.696" rx="0.696" ry="0.696" transform="translate(23.958 77.694)" fill="#c4c9cd"/><path d="M.7,0A.7.7,0,1,1,0,.7.7.7,0,0,1,.7,0Z" transform="translate(23.958 77.694)" fill="#c4c9cd"/></g></g></g></svg>