<svg xmlns="http://www.w3.org/2000/svg" xmlns:xlink="http://www.w3.org/1999/xlink" width="76" height="91" viewBox="0 0 76 91"><defs><clipPath id="b"><rect width="76" height="91"/></clipPath></defs><g id="a" clip-path="url(#b)"><rect width="76" height="91" fill="#fff"/><g transform="translate(1.157 1)"><path d="M317.84,298.707h8.909a.921.921,0,0,0,.921-.921v-9.432a.921.921,0,0,0-.921-.921H317.84a.921.921,0,0,0-.921.921v9.432A.922.922,0,0,0,317.84,298.707Zm.921-9.432h7.066v7.59h-7.066Z" transform="translate(-285.517 -234.055)" fill="#bababa"/><path d="M409.786,298.707H418.7a.921.921,0,0,0,.921-.921v-9.432a.921.921,0,0,0-.921-.921h-8.909a.921.921,0,0,0-.921.921v9.432A.922.922,0,0,0,409.786,298.707Zm.921-9.432h7.066v7.59h-7.066Z" transform="translate(-362.34 -234.055)" fill="#bababa"/><path d="M317.84,196.891h8.909a.921.921,0,0,0,.921-.921v-9.431a.921.921,0,0,0-.921-.921H317.84a.921.921,0,0,0-.921.921v9.432a.922.922,0,0,0,.921.921Zm.921-9.431h7.066v7.59h-7.066Z" transform="translate(-285.517 -148.985)" fill="#bababa"/><path d="M317.84,196.891h8.909a.921.921,0,0,0,.921-.921v-9.431a.921.921,0,0,0-.921-.921H317.84a.921.921,0,0,0-.921.921v9.432a.922.922,0,0,0,.921.921Zm.921-9.431h7.066v7.59h-7.066Z" transform="translate(-285.517 -165.731)" fill="#bababa"/><path d="M226.726,298.707h8.909a.921.921,0,0,0,.921-.921v-9.432a.921.921,0,0,0-.921-.921h-8.909a.921.921,0,0,0-.921.921v9.432A.922.922,0,0,0,226.726,298.707Zm.921-9.432h7.066v7.59h-7.066Z" transform="translate(-209.389 -234.055)" fill="#bababa"/><path d="M226.726,196.891h8.909a.921.921,0,0,0,.921-.921v-9.431a.921.921,0,0,0-.921-.921h-8.909a.921.921,0,0,0-.921.921v9.432a.922.922,0,0,0,.922.921Zm.921-9.431h7.066v7.59h-7.066Z" transform="translate(-209.389 -148.985)" fill="#bababa"/><path d="M226.726,196.891h8.909a.921.921,0,0,0,.921-.921v-9.431a.921.921,0,0,0-.921-.921h-8.909a.921.921,0,0,0-.921.921v9.432a.922.922,0,0,0,.922.921Zm.921-9.431h7.066v7.59h-7.066Z" transform="translate(-209.389 -165.731)" fill="#bababa"/><path d="M409.786,196.891H418.7a.921.921,0,0,0,.921-.921v-9.431a.921.921,0,0,0-.921-.921h-8.909a.921.921,0,0,0-.921.921v9.432a.922.922,0,0,0,.922.921Zm.921-9.431h7.066v7.59h-7.066Z" transform="translate(-362.34 -148.985)" fill="#bababa"/><path d="M409.786,196.891H418.7a.921.921,0,0,0,.921-.921v-9.431a.921.921,0,0,0-.921-.921h-8.909a.921.921,0,0,0-.921.921v9.432a.922.922,0,0,0,.922.921Zm.921-9.431h7.066v7.59h-7.066Z" transform="translate(-362.34 -165.731)" fill="#bababa"/><path d="M198.766,121.16h-9.5V51.251h1.249a.921.921,0,0,0,.921-.921V42.3a.921.921,0,0,0-.921-.921H164.892V34.924a.921.921,0,0,0-.921-.921H155.6a.921.921,0,0,0-.921.921V41.38H149.1V34.924a.921.921,0,0,0-.921-.921H139.81a.921.921,0,0,0-.921.921V41.38h-3.714a.921.921,0,0,0-.921.921v8.03a.921.921,0,0,0,.921.921h1.249V121.16h-9.5a.921.921,0,0,0,0,1.843h71.844a.921.921,0,1,0,0-1.843ZM156.521,35.845h6.53v5.534h-6.53Zm-15.789,0h6.53v5.534h-6.53ZM136.1,43.221h53.5v6.188H136.1Zm2.17,8.03h49.156v69.908H154.579V105.05a.921.921,0,0,0-.921-.921H143.332a.921.921,0,0,0-.921.921v16.109h-4.145Zm14.471,69.908h-8.485V105.971h8.485Z" transform="translate(-126.001 -34.003)" fill="#bababa"/><ellipse cx="0.696" cy="0.696" rx="0.696" ry="0.696" transform="translate(23.958 77.694)" fill="#bababa"/><path d="M29.205,74.121H53.032L80.167,94.43H29.205V74.121" transform="translate(-18.754 -7.216)" fill="#ed4024"/></g></g></svg>