<svg xmlns="http://www.w3.org/2000/svg" xmlns:xlink="http://www.w3.org/1999/xlink" width="76" height="91" viewBox="0 0 76 91"><defs><clipPath id="b"><rect width="76" height="91"/></clipPath></defs><g id="a" clip-path="url(#b)"><rect width="76" height="91" fill="#fff"/><ellipse cx="0.696" cy="0.696" rx="0.696" ry="0.696" transform="translate(25.158 78.693)" fill="#c4c9cd"/><path d="M.7,0A.7.7,0,1,1,0,.7.7.7,0,0,1,.7,0Z" transform="translate(25.158 78.693)" fill="#c4c9cd"/><g transform="translate(-854 -1293.5)"><g transform="translate(895.103 1294)"><path d="M130.565,161.866v-7.129a.707.707,0,0,0-.663-.744H127.25a.707.707,0,0,0-.663.744V157.4l-2.846-3.193a.613.613,0,0,0-.938,0l-10.608,11.9a.808.808,0,0,0,0,1.052.613.613,0,0,0,.938,0l10.139-11.373,3.509,3.936a.611.611,0,0,0,.722.161.749.749,0,0,0,.41-.687v-3.718h1.326v6.693a.793.793,0,0,0,.194.526l3.978,4.462a.614.614,0,0,0,.938,0,.808.808,0,0,0,0-1.052Z" transform="translate(-112 -153.993)" fill="#ed4024"/><path d="M112.664,167.63a.871.871,0,0,1-.656-.3,1.052,1.052,0,0,1,0-1.384l10.608-11.9a.863.863,0,0,1,1.311,0l2.409,2.7v-2.011a.957.957,0,0,1,.913-.994H129.9a.957.957,0,0,1,.913.994v7.034l3.721,4.173a1.052,1.052,0,0,1,0,1.384.864.864,0,0,1-1.311,0l-3.978-4.462a1.037,1.037,0,0,1-.257-.692v-6.443h-.826V159.2a1,1,0,0,1-.555.914.844.844,0,0,1-.358.08.883.883,0,0,1-.656-.3l-3.322-3.727-9.953,11.164A.871.871,0,0,1,112.664,167.63Zm10.608-13.387a.377.377,0,0,0-.282.134l-10.609,11.9a.561.561,0,0,0,0,.719.363.363,0,0,0,.564,0l10.326-11.583,3.7,4.145a.365.365,0,0,0,.43.1.5.5,0,0,0,.265-.46v-3.968h1.826v6.943a.545.545,0,0,0,.131.36L133.6,167a.364.364,0,0,0,.565,0,.56.56,0,0,0,0-.719l-3.848-4.316v-7.224a.459.459,0,0,0-.413-.494H127.25a.459.459,0,0,0-.413.494v3.323l-3.283-3.683A.378.378,0,0,0,123.272,154.243Z" transform="translate(-112 -153.993)" fill="#ed4024"/></g><g transform="translate(-13648.228 -22616.672)"><path d="M317.8,400.006h8.5a.879.879,0,0,0,.879-.879v-9a.879.879,0,0,0-.879-.879h-8.5a.879.879,0,0,0-.879.879v9A.879.879,0,0,0,317.8,400.006Zm.879-9h6.74v7.239h-6.74Z" transform="translate(14218.592 23593.418)" fill="#bababa"/><path d="M409.744,400.006h8.5a.879.879,0,0,0,.879-.879v-9a.879.879,0,0,0-.879-.879h-8.5a.879.879,0,0,0-.879.879v9A.879.879,0,0,0,409.744,400.006Zm.878-9h6.74v7.239h-6.74Z" transform="translate(14141.069 23593.418)" fill="#bababa"/><path d="M317.8,298.186h8.5a.879.879,0,0,0,.879-.879v-9a.879.879,0,0,0-.879-.879h-8.5a.879.879,0,0,0-.879.879v9A.88.88,0,0,0,317.8,298.186Zm.879-9h6.74v7.239h-6.74Z" transform="translate(14218.592 23679.264)" fill="#bababa"/><path d="M409.744,298.186h8.5a.879.879,0,0,0,.879-.879v-9a.879.879,0,0,0-.879-.879h-8.5a.879.879,0,0,0-.879.879v9A.88.88,0,0,0,409.744,298.186Zm.878-9h6.74v7.239h-6.74Z" transform="translate(14141.069 23679.264)" fill="#bababa"/><path d="M317.8,196.37h8.5a.879.879,0,0,0,.879-.879v-9a.879.879,0,0,0-.879-.879h-8.5a.879.879,0,0,0-.879.879v9a.879.879,0,0,0,.879.878Zm.879-9h6.74v7.239h-6.74Z" transform="translate(14218.592 23765.107)" fill="#bababa"/><path d="M317.8,196.37h8.5a.879.879,0,0,0,.879-.879v-9a.879.879,0,0,0-.879-.879h-8.5a.879.879,0,0,0-.879.879v9a.879.879,0,0,0,.879.878Zm.879-9h6.74v7.239h-6.74Z" transform="translate(14218.592 23749.135)" fill="#bababa"/><path d="M226.684,298.186h8.5a.879.879,0,0,0,.879-.879v-9a.879.879,0,0,0-.879-.879h-8.5a.879.879,0,0,0-.879.879v9A.88.88,0,0,0,226.684,298.186Zm.878-9h6.74v7.239h-6.74Z" transform="translate(14295.412 23679.264)" fill="#bababa"/><path d="M226.684,196.37h8.5a.879.879,0,0,0,.879-.879v-9a.879.879,0,0,0-.879-.879h-8.5a.879.879,0,0,0-.879.879v9a.88.88,0,0,0,.879.878Zm.878-9h6.74v7.239h-6.74Z" transform="translate(14295.412 23765.107)" fill="#bababa"/><path d="M226.684,196.37h8.5a.879.879,0,0,0,.879-.879v-9a.879.879,0,0,0-.879-.879h-8.5a.879.879,0,0,0-.879.879v9a.88.88,0,0,0,.879.878Zm.878-9h6.74v7.239h-6.74Z" transform="translate(14295.412 23749.135)" fill="#bababa"/><path d="M409.744,196.37h8.5a.879.879,0,0,0,.879-.879v-9a.879.879,0,0,0-.879-.879h-8.5a.879.879,0,0,0-.879.879v9a.88.88,0,0,0,.879.878Zm.878-9h6.74v7.239h-6.74Z" transform="translate(14141.069 23765.107)" fill="#bababa"/><path d="M409.744,196.37h8.5a.879.879,0,0,0,.879-.879v-9a.879.879,0,0,0-.879-.879h-8.5a.879.879,0,0,0-.879.879v9a.88.88,0,0,0,.879.878Zm.878-9h6.74v7.239h-6.74Z" transform="translate(14141.069 23749.135)" fill="#bababa"/><path d="M195.4,117.131H186.34V50.454h1.191a.879.879,0,0,0,.879-.879V41.917a.879.879,0,0,0-.879-.879H163.094V34.882a.879.879,0,0,0-.879-.879h-7.985a.879.879,0,0,0-.879.879v6.157h-5.317V34.882a.879.879,0,0,0-.879-.879h-7.985a.879.879,0,0,0-.879.879v6.157H134.75a.879.879,0,0,0-.879.879v7.659a.879.879,0,0,0,.879.879h1.191v66.677h-9.063a.879.879,0,0,0,0,1.758H195.4a.879.879,0,1,0,0-1.758ZM155.11,35.76h6.228v5.279H155.11Zm-15.059,0h6.228v5.279h-6.228ZM135.629,42.8h51.024v5.9H135.629Zm2.07,7.659h46.884v66.677H153.258V101.766a.879.879,0,0,0-.879-.879h-9.849a.879.879,0,0,0-.879.879v15.365H137.7Zm13.8,66.677h-8.093V102.644H151.5Z" transform="translate(14379.559 23881.783)" fill="#bababa"/><ellipse cx="0.664" cy="0.664" rx="0.664" ry="0.664" transform="translate(14528.41 23989.889)" fill="#c4c9cd"/><path d="M.664,0A.664.664,0,1,1,0,.664.664.664,0,0,1,.664,0Z" transform="translate(14528.41 23989.889)" fill="#c4c9cd"/></g></g></g></svg>