<svg xmlns="http://www.w3.org/2000/svg" xmlns:xlink="http://www.w3.org/1999/xlink" width="105" height="91" viewBox="0 0 105 91"><defs><clipPath id="a"><rect width="101.797" height="89" fill="#ed4024"/></clipPath><clipPath id="c"><rect width="105" height="91"/></clipPath></defs><g id="b" clip-path="url(#c)"><rect width="105" height="91" fill="#fff"/><g transform="translate(2.147 1)"><g clip-path="url(#a)"><path d="M101.8,111.579c0-16.806-12.071-30.489-26.95-30.615l7.932-28.158a1.136,1.136,0,0,0-.636-1.384.96.96,0,0,0-1.228.717L72.8,80.958H27.129V47.06H25.174V81.049C11.123,82.2,0,95.447,0,111.579v2.281H5.12v4.906H17.352V113.86h65.6v4.906H95.179V113.86H101.8Zm-86.4,4.981H7.076v-2.7H15.4Zm77.827,0H84.9v-2.7h8.321Zm6.618-4.906H1.955v-.076c0-15.668,11.305-28.416,25.2-28.416H74.641c13.9,0,25.2,12.747,25.2,28.416Z" transform="translate(0 -29.766)" fill="#ed4024"/><path d="M50.571,38.36l1.14-1.792a6.456,6.456,0,0,1-2.287-5.007,6.319,6.319,0,0,1,2.149-4.869L50.4,24.928a8.61,8.61,0,0,0-2.932,6.633,8.765,8.765,0,0,0,3.1,6.8" transform="translate(-31.998 -15.767)" fill="#ed4024"/><path d="M33.477,35.889,34.626,34.1A11.9,11.9,0,0,1,30.41,24.8a11.951,11.951,0,0,1,4.549-9.586l-1.085-1.835A14.237,14.237,0,0,0,28.455,24.8a14.377,14.377,0,0,0,5.022,11.092" transform="translate(-19.181 -8.46)" fill="#ed4024"/><path d="M15.871,31.735l.992-1.9A16.847,16.847,0,0,1,9.742,15.812a16.745,16.745,0,0,1,6.924-13.9L15.644.028A19.009,19.009,0,0,0,7.787,15.812a19.13,19.13,0,0,0,8.084,15.924" transform="translate(-5.249 -0.018)" fill="#ed4024"/><path d="M105.481,31.63a6.322,6.322,0,0,1-2.149,4.869l1.173,1.764a8.609,8.609,0,0,0,2.932-6.633,8.764,8.764,0,0,0-3.1-6.8l-1.14,1.792a6.455,6.455,0,0,1,2.287,5.007" transform="translate(-69.562 -15.706)" fill="#ed4024"/><path d="M119.816,22.765a11.952,11.952,0,0,1-4.549,9.586l1.085,1.835a14.237,14.237,0,0,0,5.42-11.421,14.375,14.375,0,0,0-5.022-11.092L115.6,13.458a11.9,11.9,0,0,1,4.216,9.307" transform="translate(-77.7 -7.383)" fill="#ed4024"/><path d="M135.167,15.924a16.745,16.745,0,0,1-6.924,13.9l1.022,1.88a19.009,19.009,0,0,0,7.857-15.784A19.13,19.13,0,0,0,129.038,0l-.992,1.9a16.847,16.847,0,0,1,7.121,14.024" transform="translate(-86.314)" fill="#ed4024"/><path d="M222.4,179.292a2.465,2.465,0,0,0,0,3.191,1.845,1.845,0,0,0,2.83,0,2.465,2.465,0,0,0,0-3.191,1.845,1.845,0,0,0-2.83,0" transform="translate(-149.519 -112.985)" fill="#ed4024"/><path d="M249.164,178.631a2.273,2.273,0,1,0,2,2.257,2.141,2.141,0,0,0-2-2.257" transform="translate(-166.609 -112.985)" fill="#ed4024"/></g></g></g></svg>