<svg xmlns="http://www.w3.org/2000/svg" xmlns:xlink="http://www.w3.org/1999/xlink" width="109" height="92" viewBox="0 0 109 92"><defs><clipPath id="b"><rect width="109" height="92"/></clipPath></defs><g id="a" clip-path="url(#b)"><rect width="109" height="92" fill="#fff"/><path d="M17854.764,18585.145l-.686-.219c-9.586-3.01-17.447-6.854-20.131-9.867a6.46,6.46,0,0,1-1.945-4.088v-.078c0-.066,0-.131,0-.2a4.018,4.018,0,0,1,1.488-2.8,5.313,5.313,0,0,1,6.271-.424c1.559.971,4.055,2.445,7.314,4.072a108.4,108.4,0,0,0,11.281-30.66c.234-1.172.047-1.834-.215-2.062-.246-.225-.783-.225-1.469-.01-3.709,1.2-8.668,3.252-12,6.369-1.426,1.334-2.557,2.389-3.367,3a1.7,1.7,0,0,1-1.525.313,1.4,1.4,0,0,1-.9-.937l-.742-2.445a5.806,5.806,0,0,1-.336-3.8c.631-2.777,3.91-5.184,9.746-7.162a72.867,72.867,0,0,1,11.188-2.678c7.7-1.2,9.816-1.18,10.246-1.152h.145l29.1-.178v-.01h.938l5.967-8.953c7.387-10.912,13.8-12.914,16.969-13.133a1.1,1.1,0,0,0,.719-.541,13.32,13.32,0,0,1,6.178-6.34,1.5,1.5,0,0,1,1.482.074,1.524,1.524,0,0,1,.715,1.311l-.141,9.191a1.744,1.744,0,0,0,.988,1.559,7.763,7.763,0,0,1,2.912,3.061,15.117,15.117,0,0,1,1.982,5.98l1.27,10.861a7.451,7.451,0,0,1-11.758,6.91l-8.07-5.812a.754.754,0,0,0-.766-.08.744.744,0,0,0-.457.6c-2.547,19.273,2.244,31.926,4.885,37.17,1.969-1.021,3.709-1.988,5.268-2.855,3.061-1.7,5.086-2.822,6.457-3.037a3.877,3.877,0,0,1,4.535,2.412,5.349,5.349,0,0,1,.41,1.988v.111a5.465,5.465,0,0,1-2.123,4.25c-11.57,8.986-30.582,14.641-50.867,15.125-.514.01-1.031.02-1.559.02A103.4,103.4,0,0,1,17854.764,18585.145Zm-20-15.8a2.114,2.114,0,0,0-.824,1.469,4.477,4.477,0,0,0,1.451,2.955c2.49,2.789,10.5,6.619,19.939,9.518l.682.209c10.432,3.145,20.943,4.754,29.672,4.549,19.885-.477,38.471-5.977,49.725-14.719a3.463,3.463,0,0,0,1.115-4.068,1.974,1.974,0,0,0-2.445-1.256c-1.035.168-3.148,1.34-5.822,2.828-1.562.867-3.312,1.838-5.295,2.863v.006l-.887.447c-.35.182-.691.35-1.031.518-2.3,1.139-4.479,2.123-6.643,3l-.939.383,0-.014a72.9,72.9,0,0,1-28.469,5.322,86.445,86.445,0,0,1-27.723-5.355l0,.01-.914-.34c-2.025-.752-4.051-1.578-6.057-2.475-.7-.316-1.4-.633-2.1-.965-.387-.182-.77-.363-1.146-.551l-.547-.266v0c-3.471-1.723-6.125-3.281-7.768-4.312a3.484,3.484,0,0,0-1.844-.531A3.215,3.215,0,0,0,17834.768,18569.348Zm23.174,6.84a84.618,84.618,0,0,0,27.088,5.234,70.958,70.958,0,0,0,27.764-5.207,29.481,29.481,0,0,0-54.852-.027Zm1.5-38.822c.621.551,1.264,1.676.82,3.893a108.5,108.5,0,0,1-11.43,31.127c.494.238.994.471,1.492.7.09.047.184.088.271.131.668.3,1.334.592,2.006.877.191.084.383.164.578.242q.715.3,1.428.588c.252.1.5.2.752.3s.508.191.766.289a31.424,31.424,0,0,1,58.471-.014h.006c.41-.172.816-.35,1.232-.527.105-.047.213-.1.326-.145.406-.182.816-.363,1.227-.551.051-.023.107-.051.164-.074.367-.172.74-.346,1.119-.527l.35-.168c.416-.2.836-.4,1.26-.611a.263.263,0,0,1,.047-.023c-2.734-5.439-7.689-18.518-5.076-38.3a2.709,2.709,0,0,1,4.273-1.842l8.076,5.813a5.516,5.516,0,0,0,8.7-5.113l-1.27-10.861a13.205,13.205,0,0,0-1.73-5.221,6.011,6.011,0,0,0-2.137-2.328,3.681,3.681,0,0,1-2.035-3.3l.131-8.482a11.369,11.369,0,0,0-4.646,5.049,3,3,0,0,1-2.361,1.7c-6.559.457-12.521,7.889-15.494,12.279l-6.2,9.3c0,.037.01.08.014.117.023.15.041.3.057.457,0,.057.008.121.014.182.018.211.027.416.027.625,0,6.523-7.33,11.828-16.338,11.828s-16.334-5.3-16.334-11.828c0-.2,0-.4.023-.6v-.074c-1.143.064-3.7.3-8.977,1.119-6.719,1.051-18.35,3.984-19.338,8.352-.221.98-.205,1.227.3,2.795l.535,1.787c.729-.6,1.713-1.521,2.818-2.557,3.658-3.43,8.6-5.469,12.729-6.793a4.757,4.757,0,0,1,1.492-.262A2.712,2.712,0,0,1,17859.439,18537.365Zm10.525-5.117c0,.061-.01.125-.014.191a1.253,1.253,0,0,0-.01.145c-.01.121-.014.238-.014.354,0,5.455,6.461,9.9,14.4,9.9s14.4-4.441,14.4-9.9c0-.139-.01-.279-.014-.42-.006-.051-.01-.1-.014-.145-.01-.088-.02-.182-.029-.27v-.027Zm57.773-9.746a1.5,1.5,0,1,1,1.5,1.5A1.5,1.5,0,0,1,17927.738,18522.5Z" transform="translate(-17830.863 -18499)" fill="#ed4024"/></g></svg>