<svg xmlns="http://www.w3.org/2000/svg" xmlns:xlink="http://www.w3.org/1999/xlink" width="98" height="91" viewBox="0 0 98 91"><defs><linearGradient id="a" x1="0.915" y1="0.023" x2="0.405" y2="1" gradientUnits="objectBoundingBox"><stop offset="0" stop-color="#f3c533"/><stop offset="1" stop-color="#fff0bf" stop-opacity="0"/></linearGradient><linearGradient id="c" x1="0.915" y1="0.023" x2="0.405" y2="1" gradientUnits="objectBoundingBox"><stop offset="0" stop-color="#ed4024"/><stop offset="1" stop-color="#fff0bf" stop-opacity="0"/></linearGradient><clipPath id="e"><rect width="98" height="91"/></clipPath></defs><g id="d" clip-path="url(#e)"><rect width="98" height="91" fill="#fff"/><g transform="translate(-14437.207 -24152.965)"><g transform="translate(14438.075 24162.975)"><path d="M96.012,62.655a1.177,1.177,0,1,0-.007,0Zm53.213,15h-3.659V34.782h3.653A1.219,1.219,0,0,0,150,32.639L111.042.288a1.224,1.224,0,0,0-1.559,0c-30.663,24.719-2.759,2.17-38.957,32.358a1.219,1.219,0,0,0,.778,2.144h3.654V77.663H71.3a1.214,1.214,0,0,0,0,2.421H149.22a1.214,1.214,0,0,0,0-2.428ZM95.713,14.883l.822-.683L110.268,2.8l35.587,29.571H74.666Zm-9.24,62.773V45.3H98.646V77.656Zm14.609,0V44.092a1.215,1.215,0,0,0-1.217-1.213H85.257a1.215,1.215,0,0,0-1.218,1.213V77.656H77.392V34.782h65.739V77.656ZM136.13,42.881h-9.739a1.215,1.215,0,0,0-1.217,1.213V63.3a1.215,1.215,0,0,0,1.217,1.213h9.739a1.214,1.214,0,0,0,1.218-1.213V44.093a1.215,1.215,0,0,0-1.218-1.212Zm-1.217,19.208h-7.3V45.305h7.3Z" transform="translate(-70.101 -0.007)" fill="#c4c9cd"/><path d="M140.134,46.183h-9.706a1.213,1.213,0,0,0-1.213,1.213V66.6a1.213,1.213,0,0,0,1.213,1.213h9.706a1.212,1.212,0,0,0,1.214-1.213V47.395a1.213,1.213,0,0,0-1.214-1.212Zm-1.213,19.208h-7.279V48.607h7.279Z" transform="translate(-91.821 -3.31)" fill="#c4c9cd"/></g><path d="M-14029.63-17212.312l-12.667,73.5-89.912-1.5,93.75-74.041Z" transform="translate(28555.359 41380.098)" opacity="0.58" fill="url(#a)"/><g transform="translate(14510.004 24154.053)"><path d="M242.731,166.25a6.486,6.486,0,1,0,4.579,1.9A6.478,6.478,0,0,0,242.731,166.25Z" transform="translate(-230.63 -160.627)" fill="#f3c533"/><path d="M337.733,424.38a.856.856,0,0,0-.856.856v2.445a.856.856,0,1,0,1.711,0v-2.445a.856.856,0,0,0-.856-.856Z" transform="translate(-325.632 -404.333)" fill="#f3c533"/><path d="M449.7,378.493a.856.856,0,1,0-1.21,1.21l1.728,1.728a.856.856,0,1,0,1.21-1.21Z" transform="translate(-430.768 -360.773)" fill="#f3c533"/><path d="M497.677,266.88h-2.445a.856.856,0,0,0,0,1.711h2.445a.856.856,0,1,0,0-1.711Z" transform="translate(-474.33 -255.634)" fill="#f3c533"/><path d="M449.7,127.767l1.728-1.728a.856.856,0,1,0-1.21-1.21l-1.728,1.728a.856.856,0,1,0,1.21,1.21Z" transform="translate(-430.768 -121.284)" fill="#f3c533"/><path d="M338.587,68.927V66.483a.856.856,0,1,0-1.711,0v2.445a.856.856,0,1,0,1.711,0Z" transform="translate(-325.63 -65.627)" fill="#f3c533"/><path d="M196.553,127.767a.856.856,0,1,0,1.21-1.21l-1.728-1.728a.856.856,0,1,0-1.21,1.21Z" transform="translate(-191.28 -121.284)" fill="#f3c533"/><path d="M139.781,267.733a.856.856,0,0,0-.856-.856H136.48a.856.856,0,1,0,0,1.711h2.445a.855.855,0,0,0,.856-.856Z" transform="translate(-135.625 -255.632)" fill="#f3c533"/><path d="M196.553,378.493l-1.728,1.728a.856.856,0,1,0,1.21,1.21l1.728-1.728a.856.856,0,1,0-1.21-1.21Z" transform="translate(-191.28 -360.773)" fill="#f3c533"/></g><path d="M96.012,62.655a1.177,1.177,0,1,0-.007,0Zm53.213,15h-3.659V34.782h3.653A1.219,1.219,0,0,0,150,32.639L111.042.288a1.224,1.224,0,0,0-1.559,0c-30.663,24.719-2.759,2.17-38.957,32.358a1.219,1.219,0,0,0,.778,2.144h3.654V77.663H71.3a1.214,1.214,0,0,0,0,2.421H149.22a1.214,1.214,0,0,0,0-2.428ZM95.713,14.883l.822-.683L110.268,2.8l35.587,29.571H74.666Zm-9.24,62.773V45.3H98.646V77.656Zm14.609,0V44.092a1.215,1.215,0,0,0-1.217-1.213H85.257a1.215,1.215,0,0,0-1.218,1.213V77.656H77.392V34.782h65.739V77.656ZM136.13,42.881h-9.739a1.215,1.215,0,0,0-1.217,1.213V63.3a1.215,1.215,0,0,0,1.217,1.213h9.739a1.214,1.214,0,0,0,1.218-1.213V44.093a1.215,1.215,0,0,0-1.218-1.212Zm-1.217,19.208h-7.3V45.305h7.3Z" transform="translate(14367.975 24162.967)" fill="#c4c9cd"/><path d="M140.134,46.183h-9.706a1.213,1.213,0,0,0-1.213,1.213V66.6a1.213,1.213,0,0,0,1.213,1.213h9.706a1.212,1.212,0,0,0,1.214-1.213V47.395a1.213,1.213,0,0,0-1.214-1.212Zm-1.213,19.208h-7.279V48.607h7.279Z" transform="translate(14346.25 24159.664)" fill="#c4c9cd"/><path d="M-14029.63-17212.312l-12.667,73.5-89.912-1.5,93.75-74.041Z" transform="translate(28555.359 41380.098)" opacity="0.58" fill="url(#a)"/><path d="M242.731,166.25a6.486,6.486,0,1,0,4.579,1.9A6.478,6.478,0,0,0,242.731,166.25Z" transform="translate(14279.374 23993.426)" fill="#f3c533"/><path d="M337.733,424.38a.856.856,0,0,0-.856.856v2.445a.856.856,0,1,0,1.711,0v-2.445a.856.856,0,0,0-.856-.856Z" transform="translate(14184.372 23749.721)" fill="#f3c533"/><path d="M449.7,378.493a.856.856,0,1,0-1.21,1.21l1.728,1.728a.856.856,0,1,0,1.21-1.21Z" transform="translate(14079.236 23793.279)" fill="#f3c533"/><path d="M497.677,266.88h-2.445a.856.856,0,0,0,0,1.711h2.445a.856.856,0,1,0,0-1.711Z" transform="translate(14035.673 23898.418)" fill="#f3c533"/><path d="M449.7,127.767l1.728-1.728a.856.856,0,1,0-1.21-1.21l-1.728,1.728a.856.856,0,1,0,1.21,1.21Z" transform="translate(14079.236 24032.77)" fill="#f3c533"/><path d="M338.587,68.927V66.483a.856.856,0,1,0-1.711,0v2.445a.856.856,0,1,0,1.711,0Z" transform="translate(14184.374 24088.426)" fill="#f3c533"/><path d="M196.553,127.767a.856.856,0,1,0,1.21-1.21l-1.728-1.728a.856.856,0,1,0-1.21,1.21Z" transform="translate(14318.724 24032.77)" fill="#f3c533"/><path d="M139.781,267.733a.856.856,0,0,0-.856-.856H136.48a.856.856,0,1,0,0,1.711h2.445a.855.855,0,0,0,.856-.856Z" transform="translate(14374.329 23898.42)" fill="#f3c533"/><path d="M196.553,378.493l-1.728,1.728a.856.856,0,1,0,1.21,1.21l1.728-1.728a.856.856,0,1,0-1.21-1.21Z" transform="translate(14318.724 23793.279)" fill="#f3c533"/><g transform="translate(14438.075 24162.975)"><path d="M96.012,62.655a1.177,1.177,0,1,0-.007,0Zm53.213,15h-3.659V34.782h3.653A1.219,1.219,0,0,0,150,32.639L111.042.288a1.224,1.224,0,0,0-1.559,0c-30.663,24.719-2.759,2.17-38.957,32.358a1.219,1.219,0,0,0,.778,2.144h3.654V77.663H71.3a1.214,1.214,0,0,0,0,2.421H149.22a1.214,1.214,0,0,0,0-2.428ZM95.713,14.883l.822-.683L110.268,2.8l35.587,29.571H74.666Zm-9.24,62.773V45.3H98.646V77.656Zm14.609,0V44.092a1.215,1.215,0,0,0-1.217-1.213H85.257a1.215,1.215,0,0,0-1.218,1.213V77.656H77.392V34.782h65.739V77.656ZM136.13,42.881h-9.739a1.215,1.215,0,0,0-1.217,1.213V63.3a1.215,1.215,0,0,0,1.217,1.213h9.739a1.214,1.214,0,0,0,1.218-1.213V44.093a1.215,1.215,0,0,0-1.218-1.212Zm-1.217,19.208h-7.3V45.305h7.3Z" transform="translate(-70.101 -0.007)" fill="#bababa"/><path d="M140.134,46.183h-9.706a1.213,1.213,0,0,0-1.213,1.213V66.6a1.213,1.213,0,0,0,1.213,1.213h9.706a1.212,1.212,0,0,0,1.214-1.213V47.395a1.213,1.213,0,0,0-1.214-1.212Zm-1.213,19.208h-7.279V48.607h7.279Z" transform="translate(-91.821 -3.31)" fill="#bababa"/></g><path d="M-14029.63-17212.312l-12.667,73.5-89.912-1.5,93.75-74.041Z" transform="translate(28555.359 41380.098)" opacity="0.58" fill="url(#c)"/><g transform="translate(14510.004 24154.053)"><path d="M242.731,166.25a6.486,6.486,0,1,0,4.579,1.9A6.478,6.478,0,0,0,242.731,166.25Z" transform="translate(-230.63 -160.627)" fill="#ed4024"/><path d="M337.733,424.38a.856.856,0,0,0-.856.856v2.445a.856.856,0,1,0,1.711,0v-2.445a.856.856,0,0,0-.856-.856Z" transform="translate(-325.632 -404.333)" fill="#ed4024"/><path d="M449.7,378.493a.856.856,0,1,0-1.21,1.21l1.728,1.728a.856.856,0,1,0,1.21-1.21Z" transform="translate(-430.768 -360.773)" fill="#ed4024"/><path d="M497.677,266.88h-2.445a.856.856,0,0,0,0,1.711h2.445a.856.856,0,1,0,0-1.711Z" transform="translate(-474.33 -255.634)" fill="#ed4024"/><path d="M449.7,127.767l1.728-1.728a.856.856,0,1,0-1.21-1.21l-1.728,1.728a.856.856,0,1,0,1.21,1.21Z" transform="translate(-430.768 -121.284)" fill="#ed4024"/><path d="M338.587,68.927V66.483a.856.856,0,1,0-1.711,0v2.445a.856.856,0,1,0,1.711,0Z" transform="translate(-325.63 -65.627)" fill="#ed4024"/><path d="M196.553,127.767a.856.856,0,1,0,1.21-1.21l-1.728-1.728a.856.856,0,1,0-1.21,1.21Z" transform="translate(-191.28 -121.284)" fill="#ed4024"/><path d="M139.781,267.733a.856.856,0,0,0-.856-.856H136.48a.856.856,0,1,0,0,1.711h2.445a.855.855,0,0,0,.856-.856Z" transform="translate(-135.625 -255.632)" fill="#ed4024"/><path d="M196.553,378.493l-1.728,1.728a.856.856,0,1,0,1.21,1.21l1.728-1.728a.856.856,0,1,0-1.21-1.21Z" transform="translate(-191.28 -360.773)" fill="#ed4024"/></g></g></g></svg>