<svg xmlns="http://www.w3.org/2000/svg" xmlns:xlink="http://www.w3.org/1999/xlink" width="82" height="77" viewBox="0 0 82 77"><defs><clipPath id="b"><rect width="82" height="77"/></clipPath></defs><g id="a" clip-path="url(#b)"><rect width="82" height="77" fill="#fff"/><g transform="translate(-687 -544)"><path d="M317.844,400.575h8.947a.925.925,0,0,0,.925-.925v-9.472a.925.925,0,0,0-.925-.925h-8.947a.925.925,0,0,0-.925.925v9.472A.925.925,0,0,0,317.844,400.575Zm.925-9.472h7.1v7.622h-7.1Z" transform="translate(405.617 211.793)" fill="#ed4024"/><path d="M409.79,400.575h8.947a.925.925,0,0,0,.925-.925v-9.472a.925.925,0,0,0-.925-.925H409.79a.925.925,0,0,0-.925.925v9.472A.925.925,0,0,0,409.79,400.575Zm.925-9.472h7.1v7.622h-7.1Z" transform="translate(328.857 211.793)" fill="#ed4024"/><path d="M317.844,298.755h8.947a.925.925,0,0,0,.925-.925v-9.472a.925.925,0,0,0-.925-.925h-8.947a.925.925,0,0,0-.925.925v9.472A.926.926,0,0,0,317.844,298.755Zm.925-9.472h7.1v7.622h-7.1Z" transform="translate(405.617 296.793)" fill="#292525"/><path d="M409.79,298.755h8.947a.925.925,0,0,0,.925-.925v-9.472a.925.925,0,0,0-.925-.925H409.79a.925.925,0,0,0-.925.925v9.472A.926.926,0,0,0,409.79,298.755Zm.925-9.472h7.1v7.622h-7.1Z" transform="translate(328.857 296.793)" fill="#292525"/><path d="M317.844,196.939h8.947a.925.925,0,0,0,.925-.925v-9.471a.925.925,0,0,0-.925-.925h-8.947a.925.925,0,0,0-.925.925v9.472A.926.926,0,0,0,317.844,196.939Zm.925-9.471h7.1v7.622h-7.1Z" transform="translate(405.617 381.793)" fill="#ed4024"/><path d="M226.73,298.755h8.947a.925.925,0,0,0,.925-.925v-9.472a.925.925,0,0,0-.925-.925H226.73a.925.925,0,0,0-.925.925v9.472A.926.926,0,0,0,226.73,298.755Zm.925-9.472h7.1v7.622h-7.1Z" transform="translate(481.682 296.793)" fill="#292525"/><path d="M226.73,196.939h8.947a.925.925,0,0,0,.925-.925v-9.471a.925.925,0,0,0-.925-.925H226.73a.925.925,0,0,0-.925.925v9.472A.926.926,0,0,0,226.73,196.939Zm.925-9.471h7.1v7.622h-7.1Z" transform="translate(481.682 381.793)" fill="#ed4024"/><path d="M409.79,196.939h8.947a.925.925,0,0,0,.925-.925v-9.471a.925.925,0,0,0-.925-.925H409.79a.925.925,0,0,0-.925.925v9.472A.926.926,0,0,0,409.79,196.939Zm.925-9.471h7.1v7.622h-7.1Z" transform="translate(328.857 381.793)" fill="#ed4024"/><path d="M199.074,128.152h-9.542V73.325h1.254a.925.925,0,0,0,.925-.925V64.335a.925.925,0,0,0-.925-.925h-25.73V56.928a.925.925,0,0,0-.925-.925h-8.407a.925.925,0,0,0-.925.925v6.483h-5.6V56.928a.925.925,0,0,0-.925-.925h-8.407a.925.925,0,0,0-.925.925v6.483h-3.73a.925.925,0,0,0-.925.925V72.4a.925.925,0,0,0,.925.925h1.254v54.827h-9.542a.925.925,0,1,0,0,1.851h72.149a.925.925,0,1,0,0-1.851Zm-42.424-70.3h6.557V63.41h-6.557Zm-15.856,0h6.557V63.41h-6.557Zm-4.655,7.408h53.724v6.214H136.139Zm2.18,8.064h49.365v54.827H154.7V111.973a.925.925,0,0,0-.925-.925h-10.37a.925.925,0,0,0-.925.925v16.178h-4.162Zm14.533,54.827h-8.521V112.9h8.521Z" transform="translate(565 489.996)" fill="#ed4024"/><circle cx="0.699" cy="0.699" r="0.699" transform="translate(715.059 608.645)" fill="#ed4024"/><path d="M.7,0A.7.7,0,1,1,0,.7.7.7,0,0,1,.7,0Z" transform="translate(715.059 608.645)" fill="#f3c533"/></g></g></svg>