<svg xmlns="http://www.w3.org/2000/svg" xmlns:xlink="http://www.w3.org/1999/xlink" width="82" height="91" viewBox="0 0 82 91"><defs><clipPath id="b"><rect width="82" height="91"/></clipPath></defs><g id="a" clip-path="url(#b)"><rect width="82" height="91" fill="#fff"/><g transform="translate(-395 -1811)"><path d="M9876.751,18590l-21.475,0,.474-18.279c-3.148.531-6.146,2.611-8.93,6.2a45.926,45.926,0,0,0-6.071,11.283l-.309.8H9798v-89h80v89Zm-18.908-2.5,17.658,0v-84h-75v84h38.231a47.265,47.265,0,0,1,6.116-11.115c3.65-4.7,7.738-7.156,12.151-7.3l1.323-.041Z" transform="translate(-9401.901 -16687.75)" fill="#bababa"/><rect width="3" height="13" rx="1.5" transform="translate(435.098 1849.248)" fill="#bababa"/><rect width="3" height="13" rx="1.5" transform="translate(476.098 1859.248) rotate(90)" fill="#bababa"/><rect width="3" height="20" rx="1.5" transform="translate(435.098 1813.248)" fill="#bababa"/><rect width="40" height="3" transform="translate(398.098 1859.248)" fill="#bababa"/><rect width="79" height="4" transform="translate(397.098 1813.248)" fill="#ed4024"/><rect width="27" height="5" rx="1" transform="translate(403.098 1819.248)" fill="#ed4024"/></g></g></svg>