<svg xmlns="http://www.w3.org/2000/svg" xmlns:xlink="http://www.w3.org/1999/xlink" width="94" height="89" viewBox="0 0 94 89"><defs><clipPath id="a"><rect width="87.639" height="87.651" fill="#ed4024"/></clipPath><clipPath id="c"><rect width="94" height="89"/></clipPath></defs><g id="b" clip-path="url(#c)"><rect width="94" height="89" fill="#fff"/><g transform="translate(-1371 -531.675)"><g transform="translate(1375.361 532.35)" clip-path="url(#a)"><path d="M0,125.929c.281-1.882.585-3.76.84-5.646Q2.2,110.2,3.534,100.117c.754-5.649,1.547-11.293,2.237-16.95a38.122,38.122,0,0,0,.059-4.53c0-3.28,0-6.56,0-9.84,0-1.5.5-2.014,1.993-2.015q9.712-.01,19.423,0c1.486,0,1.972.512,1.974,2.036.006,3.65,0,7.3,0,11.1H45.986c1.789,0,2.224.435,2.225,2.223q0,4.962,0,9.925v1c.883,0,1.675,0,2.466,0,1.181.007,1.578.28,1.952,1.388.756,2.239,1.516,4.477,2.235,6.728a.776.776,0,0,0,.908.65c.846-.039,1.7-.01,2.641-.01,0-1.821,0-3.552,0-5.283,0-.628-.028-1.257.013-1.882a1.5,1.5,0,0,1,1.641-1.584c2.823-.022,5.647-.011,8.471,0a1.653,1.653,0,0,1,1.629,1.37c.718,2.192,1.483,4.368,2.167,6.57a.971.971,0,0,0,1.119.829c4.021-.032,8.043-.018,12.065-.015,1.666,0,2.122.464,2.122,2.144q0,13.947,0,27.894c0,1.674-.443,2.108-2.145,2.108q-41.669,0-83.339.013A2.123,2.123,0,0,1,0,132.947v-7.018M8.75,69.763v.968q0,5.775-.005,11.551A12.715,12.715,0,0,1,8.63,83.9q-1.315,9.957-2.645,19.913c-.942,7.061-1.921,14.117-2.81,21.184-.25,1.985-.242,4-.352,6H32.063a39.747,39.747,0,0,0-.028-4.661c-.7-5.8-1.5-11.586-2.27-17.376-.828-6.214-1.695-12.422-2.489-18.64-.39-3.049-.795-6.107-.938-9.173-.162-3.472-.037-6.957-.037-10.437v-.945ZM43.886,95.987v35.021H84.668v-26.26H72.308c-1.626,0-1.835-.151-2.342-1.663-.723-2.16-1.437-4.324-2.184-6.475-.084-.241-.354-.59-.546-.595-1.931-.044-3.863-.027-5.9-.027v1c0,2,.013,3.993-.006,5.99-.012,1.259-.515,1.751-1.779,1.763-1.683.015-3.366.009-5.049,0-1.265,0-1.581-.235-1.987-1.44-.744-2.213-1.467-4.434-2.24-6.636-.1-.273-.44-.647-.679-.653-1.879-.054-3.76-.03-5.713-.03M40.9,131.013v-1.064q0-17.455,0-34.91c0-1.463.494-1.959,1.944-1.968.787-.005,1.574,0,2.368,0V82.881H29.266c.028.323.042.6.078.871Q30.42,91.845,31.5,99.936c.83,6.214,1.689,12.424,2.483,18.642.5,3.952,1.312,7.88,1.09,11.9a4.528,4.528,0,0,0,.037.535Z" transform="translate(0 -46.335)" fill="#ed4024"/><path d="M57.609,0c0,.854.015,1.708.011,2.563a4.423,4.423,0,0,1-4.747,4.75c-1.594.019-3.189,0-4.784,0-1.716,0-2.129.409-2.132,2.094,0,.708,0,1.416,0,2.262H43.119a25.88,25.88,0,0,1,.034-3.79,4.117,4.117,0,0,1,4-3.448c1.819-.077,3.643-.033,5.465-.044,1.625-.009,2.079-.464,2.082-2.085,0-.769,0-1.538,0-2.306Z" transform="translate(-29.879)" fill="#ed4024"/><path d="M81.177,19.274c0,1.061.067,2.061-.013,3.05a4.383,4.383,0,0,1-4.615,4.205c-1.739.025-3.48,0-5.22.008-1.31.007-1.793.493-1.825,1.81-.018.77-.02,1.539-.034,2.309,0,.05-.051.1-.1.192H66.476a31.072,31.072,0,0,1,.368-4.174,3.979,3.979,0,0,1,3.807-3.027c1.852-.063,3.707-.027,5.561-.037,1.558-.008,2.051-.5,2.06-2.047,0-.74,0-1.48,0-2.289Z" transform="translate(-46.126 -13.374)" fill="#ed4024"/><path d="M107.809,54.742h-2.98a26.41,26.41,0,0,1,.245-3.967c.437-2.1,2.142-3.257,4.5-3.294,1.709-.027,3.419,0,5.128-.01,1.355-.011,1.847-.516,1.858-1.865.006-.793,0-1.585,0-2.432h2.865a31.25,31.25,0,0,1-.024,3.5,4.135,4.135,0,0,1-3.9,3.663c-1.875.1-3.758.052-5.638.067-1.6.013-2.045.447-2.051,2.02,0,.739,0,1.477,0,2.32" transform="translate(-72.739 -29.957)" fill="#ed4024"/><path d="M131.588,73.793H128.6a32.249,32.249,0,0,1,.248-3.945,4.046,4.046,0,0,1,3.748-3.22c1.878-.1,3.762-.056,5.644-.071,1.677-.013,2.122-.458,2.128-2.143,0-.709,0-1.417,0-2.182h2.984a33.921,33.921,0,0,1-.25,3.931,4,4,0,0,1-3.65,3.22c-1.932.123-3.874.079-5.812.1-1.6.017-2.039.44-2.051,2.028-.006.738,0,1.476,0,2.282" transform="translate(-89.233 -43.181)" fill="#ed4024"/><rect width="2.803" height="2.804" transform="translate(51.21 13.216)" fill="#ed4024"/><path d="M161.41,206.228c0,1.341.012,2.682,0,4.022-.013,1.209-.509,1.759-1.69,1.781q-2.695.051-5.391,0a1.516,1.516,0,0,1-1.667-1.733q-.025-4.107,0-8.216a1.512,1.512,0,0,1,1.663-1.733c1.825-.038,3.652-.041,5.477,0,1.1.026,1.59.579,1.606,1.685.02,1.4,0,2.8.005,4.193m-2.982-2.892h-2.815v5.728h2.815Z" transform="translate(-105.918 -138.997)" fill="#ed4024"/><path d="M195.658,206.179c0-1.369-.011-2.739,0-4.107.012-1.142.519-1.7,1.661-1.723q2.694-.056,5.39,0c1.176.023,1.685.587,1.689,1.786q.015,4.065,0,8.13c0,1.187-.527,1.749-1.707,1.771q-2.652.049-5.305,0c-1.219-.021-1.721-.579-1.729-1.834-.009-1.34,0-2.681,0-4.022m2.945,2.893h2.841v-5.751H198.6Z" transform="translate(-135.76 -138.999)" fill="#ed4024"/><path d="M238.6,206.15c0-1.312-.01-2.625,0-3.937.013-1.344.513-1.848,1.873-1.862,1.683-.017,3.366-.02,5.049,0,1.286.017,1.828.561,1.834,1.833q.02,4.022,0,8.045c-.006,1.234-.544,1.8-1.764,1.816q-2.61.042-5.221,0c-1.245-.017-1.755-.546-1.77-1.791-.016-1.369,0-2.739,0-4.108m5.8-2.819h-2.824v5.728h2.824Z" transform="translate(-165.56 -139.011)" fill="#ed4024"/></g></g></g></svg>