<svg xmlns="http://www.w3.org/2000/svg" xmlns:xlink="http://www.w3.org/1999/xlink" width="91" height="91" viewBox="0 0 91 91"><defs><clipPath id="b"><rect width="91" height="91"/></clipPath></defs><g id="a" clip-path="url(#b)"><rect width="91" height="91" fill="#fff"/><g transform="translate(-857 -2664)"><circle cx="44.5" cy="44.5" r="44.5" transform="translate(858 2665)" fill="#fff"/><path d="M44.5,2A42.512,42.512,0,0,0,27.958,83.661,42.512,42.512,0,0,0,61.042,5.339,42.232,42.232,0,0,0,44.5,2m0-2A44.5,44.5,0,1,1,0,44.5,44.5,44.5,0,0,1,44.5,0Z" transform="translate(858 2665)" fill="#ed4024"/><path d="M-6288.821-1835.146c-11.1,0-19.727-.011-19.856-.011a1,1,0,0,1-1-1,1,1,0,0,1,1-1h0c.194,0,19.61.025,37.734,0h0a1,1,0,0,1,1,1,1,1,0,0,1-1,1C-6277.009-1835.149-6283.229-1835.146-6288.821-1835.146Z" transform="translate(7192.176 4561)" fill="#ed4024"/><g transform="translate(-291 2141)"><ellipse cx="5" cy="6" rx="5" ry="6" transform="translate(1179 554)" fill="#ed4024"/><ellipse cx="4.5" cy="6" rx="4.5" ry="6" transform="translate(1199 554)" fill="#ed4024"/></g></g></g></svg>