<svg xmlns="http://www.w3.org/2000/svg" xmlns:xlink="http://www.w3.org/1999/xlink" width="70" height="65" viewBox="0 0 70 65"><defs><clipPath id="a"><rect width="74.633" height="63.363" transform="translate(0)" fill="#ed4024"/></clipPath><clipPath id="c"><rect width="70" height="65"/></clipPath></defs><g id="b" clip-path="url(#c)"><rect width="70" height="65" fill="#fff"/><g transform="translate(69.468 1) rotate(90)"><g transform="translate(0 74.633) rotate(-90)"><g transform="translate(0)" clip-path="url(#a)"><path d="M0,28.89c.145-.992.229-2,.443-2.975,1.65-7.477,5.606-12.135,11.766-13.973a13.091,13.091,0,0,1,3.635-.429c5.74-.043,11.479-.019,17.219-.019h.764c-.221-.287-.349-.465-.487-.632q-3.3-4.014-6.6-8.028a4.281,4.281,0,0,1-.466-.665A1.619,1.619,0,0,1,26.418.432.991.991,0,0,1,27.84.208a2.8,2.8,0,0,1,.47.468Q32.892,6.232,37.469,11.8a1.683,1.683,0,0,1,0,2.3c-3.05,3.709-6.1,7.425-9.166,11.109a1.777,1.777,0,0,1-1.093.665c-.89.057-1.418-1.214-.939-2.138a3.872,3.872,0,0,1,.465-.666q3.3-4.016,6.6-8.025c.139-.169.269-.347.461-.6-.184-.022-.286-.045-.388-.044-6.2.008-12.408-.139-18.606.077-4.993.174-8.648,3.3-11.013,8.623a17.866,17.866,0,0,0-1.418,7.079,31.782,31.782,0,0,0,.5,7.3c1.252,5.684,5.7,10.51,10.475,11.262.678.107,1.362.153,2.042.242a1.324,1.324,0,0,1,1.17,1.54,1.281,1.281,0,0,1-1.307,1.317,12.93,12.93,0,0,1-7.176-2.27Q1.766,45.267.282,36.614C.159,35.893.093,35.158,0,34.429V28.89" transform="translate(6.182 0)" fill="#ed4024"/><path d="M4.1,40.5c.254.256.528.489.76.771Q8.083,45.176,11.3,49.1a1.712,1.712,0,0,1,.305,2.1,1.008,1.008,0,0,1-1.525.383,3.84,3.84,0,0,1-.589-.61q-4.5-5.46-9-10.926a1.718,1.718,0,0,1,0-2.4q4.538-5.514,9.082-11.018a2.347,2.347,0,0,1,.921-.679c.44-.17.833.075,1.109.529A1.533,1.533,0,0,1,11.677,28a3.661,3.661,0,0,1-.5.72q-3.294,4.017-6.6,8.026c-.142.172-.278.352-.488.619.246.022.4.049.555.049,5.868,0,11.737.07,17.6-.018,5.605-.084,9.693-3.243,12.148-9.4a16.978,16.978,0,0,0,1.123-5.939,28.563,28.563,0,0,0-.489-7.7C33.625,8.766,30.607,5.1,26.01,3.436A18.621,18.621,0,0,0,22.9,2.85c-.2-.036-.406-.047-.6-.1a1.309,1.309,0,0,1-.94-1.377c0-.727.37-1.346,1-1.367A12.354,12.354,0,0,1,25,.2c6.254,1.161,11.511,7.264,12.595,14.855a29.119,29.119,0,0,1-.774,13.365c-1.64,4.966-4.536,8.461-8.6,10.507a13.336,13.336,0,0,1-6.127,1.356q-8.636-.01-17.272,0h-.6L4.1,40.5" transform="translate(36.621 11.571)" fill="#ed4024"/><text transform="translate(49.251 19.666)" fill="#ed4024" font-size="26" font-family="SourceSansPro-Regular, Source Sans Pro"><tspan x="-6.461" y="0">1</tspan></text><text transform="translate(29.251 57.666)" fill="#ed4024" font-size="26" font-family="SourceSansPro-Regular, Source Sans Pro"><tspan x="-6.461" y="0">2</tspan></text></g></g></g></g></svg>