<svg xmlns="http://www.w3.org/2000/svg" xmlns:xlink="http://www.w3.org/1999/xlink" width="122" height="87" viewBox="0 0 122 87"><defs><clipPath id="b"><rect width="122" height="87"/></clipPath></defs><g id="a" clip-path="url(#b)"><rect width="122" height="87" fill="#fff"/><g transform="translate(-857 -3295)"><g transform="translate(-13647.56 -20619.672)"><path d="M317.8,400.006h8.5a.879.879,0,0,0,.879-.879v-9a.879.879,0,0,0-.879-.879h-8.5a.879.879,0,0,0-.879.879v9A.879.879,0,0,0,317.8,400.006Zm.879-9h6.74v7.239h-6.74Z" transform="translate(14218.592 23593.418)" fill="#bababa"/><path d="M409.744,400.006h8.5a.879.879,0,0,0,.879-.879v-9a.879.879,0,0,0-.879-.879h-8.5a.879.879,0,0,0-.879.879v9A.879.879,0,0,0,409.744,400.006Zm.878-9h6.74v7.239h-6.74Z" transform="translate(14141.069 23593.418)" fill="#bababa"/><path d="M317.8,298.186h8.5a.879.879,0,0,0,.879-.879v-9a.879.879,0,0,0-.879-.879h-8.5a.879.879,0,0,0-.879.879v9A.88.88,0,0,0,317.8,298.186Zm.879-9h6.74v7.239h-6.74Z" transform="translate(14218.592 23679.264)" fill="#bababa"/><path d="M409.744,298.186h8.5a.879.879,0,0,0,.879-.879v-9a.879.879,0,0,0-.879-.879h-8.5a.879.879,0,0,0-.879.879v9A.88.88,0,0,0,409.744,298.186Zm.878-9h6.74v7.239h-6.74Z" transform="translate(14141.069 23679.264)" fill="#bababa"/><path d="M317.8,196.37h8.5a.879.879,0,0,0,.879-.879v-9a.879.879,0,0,0-.879-.879h-8.5a.879.879,0,0,0-.879.879v9a.879.879,0,0,0,.879.878Zm.879-9h6.74v7.239h-6.74Z" transform="translate(14218.592 23765.107)" fill="#bababa"/><path d="M317.8,196.37h8.5a.879.879,0,0,0,.879-.879v-9a.879.879,0,0,0-.879-.879h-8.5a.879.879,0,0,0-.879.879v9a.879.879,0,0,0,.879.878Zm.879-9h6.74v7.239h-6.74Z" transform="translate(14218.592 23749.135)" fill="#bababa"/><path d="M226.684,298.186h8.5a.879.879,0,0,0,.879-.879v-9a.879.879,0,0,0-.879-.879h-8.5a.879.879,0,0,0-.879.879v9A.88.88,0,0,0,226.684,298.186Zm.878-9h6.74v7.239h-6.74Z" transform="translate(14295.412 23679.264)" fill="#bababa"/><path d="M226.684,196.37h8.5a.879.879,0,0,0,.879-.879v-9a.879.879,0,0,0-.879-.879h-8.5a.879.879,0,0,0-.879.879v9a.88.88,0,0,0,.879.878Zm.878-9h6.74v7.239h-6.74Z" transform="translate(14295.412 23765.107)" fill="#bababa"/><path d="M226.684,196.37h8.5a.879.879,0,0,0,.879-.879v-9a.879.879,0,0,0-.879-.879h-8.5a.879.879,0,0,0-.879.879v9a.88.88,0,0,0,.879.878Zm.878-9h6.74v7.239h-6.74Z" transform="translate(14295.412 23749.135)" fill="#bababa"/><path d="M409.744,196.37h8.5a.879.879,0,0,0,.879-.879v-9a.879.879,0,0,0-.879-.879h-8.5a.879.879,0,0,0-.879.879v9a.88.88,0,0,0,.879.878Zm.878-9h6.74v7.239h-6.74Z" transform="translate(14141.069 23765.107)" fill="#bababa"/><path d="M409.744,196.37h8.5a.879.879,0,0,0,.879-.879v-9a.879.879,0,0,0-.879-.879h-8.5a.879.879,0,0,0-.879.879v9a.88.88,0,0,0,.879.878Zm.878-9h6.74v7.239h-6.74Z" transform="translate(14141.069 23749.135)" fill="#bababa"/><path d="M195.4,117.131H186.34V50.454h1.191a.879.879,0,0,0,.879-.879V41.917a.879.879,0,0,0-.879-.879H163.094V34.882a.879.879,0,0,0-.879-.879h-7.985a.879.879,0,0,0-.879.879v6.157h-5.317V34.882a.879.879,0,0,0-.879-.879h-7.985a.879.879,0,0,0-.879.879v6.157H134.75a.879.879,0,0,0-.879.879v7.659a.879.879,0,0,0,.879.879h1.191v66.677h-9.063a.879.879,0,0,0,0,1.758H195.4a.879.879,0,1,0,0-1.758ZM155.11,35.76h6.228v5.279H155.11Zm-15.059,0h6.228v5.279h-6.228ZM135.629,42.8h51.024v5.9H135.629Zm2.07,7.659h46.884v66.677H153.258V101.766a.879.879,0,0,0-.879-.879h-9.849a.879.879,0,0,0-.879.879v15.365H137.7Zm13.8,66.677h-8.093V102.644H151.5Z" transform="translate(14379.559 23881.783)" fill="#bababa"/><ellipse cx="0.664" cy="0.664" rx="0.664" ry="0.664" transform="translate(14528.41 23989.889)" fill="#c4c9cd"/><path d="M.664,0A.664.664,0,1,1,0,.664.664.664,0,0,1,.664,0Z" transform="translate(14528.41 23989.889)" fill="#c4c9cd"/></g><g transform="translate(930.645 3334.656)"><path d="M94.061,38.631a.68.68,0,1,1,.678-.678.68.68,0,0,1-.678.678Zm22.686,6.285-4.51-.01V20.115h2.1a.705.705,0,0,0,.448-1.24L92.342.169a.7.7,0,0,0-.9,0l-7.21,6.012V1.411h.675a.7.7,0,0,0,0-1.4H77.192a.7.7,0,0,0,0,1.4h.675V11.476l-8.874,7.4a.705.705,0,0,0,.448,1.24h2.106V44.91l-4.379.042a.7.7,0,0,0,0,1.4l49.574-.031a.7.7,0,0,0,0-1.4ZM79.279,10.306v-8.9h3.549V7.347C82.757,7.409,79.484,10.136,79.279,10.306Zm4.229-1.7.473-.395L91.9,1.622l20.508,17.1H71.379Zm4.876,36.3V30.88H95.4V44.906Zm8.419,0V30.178a.7.7,0,0,0-.7-.7H87.683a.7.7,0,0,0-.7.7V44.906H72.95V20.115h37.884V44.906ZM82.6,27.109H76.984a.7.7,0,0,0-.7.7v8.8a.7.7,0,0,0,.7.7H82.6a.7.7,0,0,0,.7-.7v-8.8a.7.7,0,0,0-.7-.7Zm-.7,8.8h-4.21V28.51H81.9Zm24.9-8.8h-5.612a.7.7,0,0,0-.7.7v8.8a.7.7,0,0,0,.7.7H106.8a.7.7,0,0,0,.7-.7v-8.8a.7.7,0,0,0-.7-.7Zm-.7,8.8h-4.209V28.511H106.1Z" transform="translate(-70.101 -0.007)" fill="#ed4024"/></g></g></g></svg>