<svg xmlns="http://www.w3.org/2000/svg" xmlns:xlink="http://www.w3.org/1999/xlink" width="105" height="92" viewBox="0 0 105 92"><defs><clipPath id="a"><rect width="101.797" height="89.001" fill="none"/></clipPath><clipPath id="c"><rect width="105" height="92"/></clipPath></defs><g id="b" clip-path="url(#c)"><rect width="105" height="92" fill="#fff"/><g transform="translate(2.301 2)"><g clip-path="url(#a)"><path d="M96.787,83.353l-8.97-7.811V35.99l-10.369,3.9V66.513L71.4,61.247V27.772L96.787,5.666,98.9,3.823l2.583-2.249a.84.84,0,0,0,0-1.3,1.172,1.172,0,0,0-1.5,0L97.408,2.519,95.291,4.362,69.9,26.468H31.457L6.07,4.362,3.954,2.519,1.808.65a1.173,1.173,0,0,0-1.5,0,.84.84,0,0,0,0,1.3l2.148,1.87L4.575,5.668,29.96,27.77V61.249l-6,5.223V39.954L13.593,36.039V75.5L.329,87.049a.84.84,0,0,0,0,1.3,1.173,1.173,0,0,0,1.5,0L3.954,86.5,6.07,84.657l7.522-6.55v.048l10.045-8.794,7.82-6.809H69.9L95.289,84.657,97.406,86.5l2.562,2.231a1.173,1.173,0,0,0,1.5,0,.841.841,0,0,0,0-1.3L98.9,85.2ZM79.564,41.1,85.7,38.793v34.83l-6.135-5.372ZM15.709,38.847l6.135,2.316V68.316l-6.135,5.341Zm30.75,4.373h7.386V60.708H46.459ZM69.283,60.708H55.962V41.377H44.342V60.708H32.077v-32.4H69.283Z" transform="translate(0 -0.001)" fill="#ed4024"/><path d="M472.729,360.843a1.124,1.124,0,1,1-1.114-.97,1.049,1.049,0,0,1,1.114.97" transform="translate(-387.501 -304.594)" fill="#ed4024"/><path d="M93.48,360.843a1.124,1.124,0,1,1-1.113-.97,1.049,1.049,0,0,1,1.113.97" transform="translate(-75.155 -304.594)" fill="#ed4024"/><path d="M268.245,337.84a1.124,1.124,0,1,1-1.113-.97,1.049,1.049,0,0,1,1.113.97" transform="translate(-219.09 -285.124)" fill="#ed4024"/></g></g></g></svg>