<svg xmlns="http://www.w3.org/2000/svg" xmlns:xlink="http://www.w3.org/1999/xlink" width="82" height="77" viewBox="0 0 82 77"><defs><clipPath id="b"><rect width="82" height="77"/></clipPath></defs><g id="a" clip-path="url(#b)"><rect width="82" height="77" fill="#fff"/><g transform="translate(-454.061 -544.543)"><g transform="translate(457.775 546)"><path d="M107.332,25.348a6.769,6.769,0,1,0-5.863-3.385A6.77,6.77,0,0,0,107.332,25.348Zm0-11.283a4.514,4.514,0,1,1-3.909,2.257A4.514,4.514,0,0,1,107.332,14.065Zm3.193,44.208a1.09,1.09,0,1,0-.006,0ZM147.3,72.242l-7.254-.017V32.35h3.386a1.134,1.134,0,0,0,.721-1.994L108.05.268a1.131,1.131,0,0,0-1.445,0l-11.6,9.67V2.265H96.1a1.13,1.13,0,0,0,0-2.258H83.682a1.13,1.13,0,0,0,0,2.258h1.086V18.454L70.5,30.363a1.134,1.134,0,0,0,.721,1.994H74.6V72.232L67.56,72.3a1.13,1.13,0,0,0,0,2.252L147.3,74.5a1.13,1.13,0,0,0,0-2.258ZM87.039,16.573V2.264h5.708v9.548C92.634,11.912,87.369,16.3,87.039,16.573Zm6.8-2.731.762-.635L107.332,2.6l32.986,27.5H74.333Zm7.843,58.382V42.136h11.283V72.225Zm13.541,0V41.009A1.128,1.128,0,0,0,114.1,39.88H100.556a1.128,1.128,0,0,0-1.129,1.128V72.225H76.86V32.349h60.935V72.225ZM92.375,39.882H83.348a1.128,1.128,0,0,0-1.129,1.128V58.875A1.127,1.127,0,0,0,83.348,60h9.027A1.128,1.128,0,0,0,93.5,58.875V41.009a1.129,1.129,0,0,0-1.128-1.127ZM91.247,57.747H84.476V42.137h6.771ZM131.3,39.882h-9.027a1.128,1.128,0,0,0-1.128,1.128V58.875A1.128,1.128,0,0,0,122.278,60H131.3a1.127,1.127,0,0,0,1.129-1.128V41.009a1.128,1.128,0,0,0-1.129-1.127Zm-1.128,17.865h-6.77V42.137h6.77Z" transform="translate(-70.101 -0.007)" fill="#ed4024"/></g></g></g></svg>