<svg xmlns="http://www.w3.org/2000/svg" xmlns:xlink="http://www.w3.org/1999/xlink" width="105" height="91" viewBox="0 0 105 91"><defs><clipPath id="a"><rect width="101.797" height="89" fill="none"/></clipPath><clipPath id="c"><rect width="105" height="91"/></clipPath></defs><g id="b" clip-path="url(#c)"><rect width="105" height="91" fill="#fff"/><g transform="translate(2.147 1)"><g clip-path="url(#a)"><path d="M39.907,43.437V3.686A3.484,3.484,0,0,0,36.679,0H3.228A3.484,3.484,0,0,0,0,3.686V89H101.8V43.437Zm0,22.281H65.14V86.694H39.907Zm59.87,20.976H67.159V45.743H99.777ZM65.14,63.413H39.907V45.743H65.14ZM3.228,2.306h33.45a1.3,1.3,0,0,1,1.209,1.38V28.451H2.019V3.686a1.3,1.3,0,0,1,1.209-1.38M2.019,30.756H37.888V86.694H2.019Z" transform="translate(0 0)" fill="#ed4024"/><path d="M294.044,24.333h24.672a1.6,1.6,0,0,0,1.353-.8,2.115,2.115,0,0,0,.2-1.727l-.021-.067-4.8-10.73a1.671,1.671,0,0,0-1.525-1.161h-1.534V1.669A1.578,1.578,0,0,0,310.928,0h-8.651a1.578,1.578,0,0,0-1.462,1.669V9.845h-1.857a1.653,1.653,0,0,0-1.487,1.064l-4.9,10.7-.022.052a2.111,2.111,0,0,0,.109,1.808,1.607,1.607,0,0,0,1.392.869m8.79-22.028h7.537v7.54h-7.537Zm-3.654,9.845h14.514l4.417,9.877h-23.46Z" transform="translate(-218.585)" fill="#ed4024"/><path d="M121.982,67.111h1.05a.522.522,0,0,0,.484-.553V61.125a.522.522,0,0,0-.484-.553h-1.05a.522.522,0,0,0-.485.553v5.433a.522.522,0,0,0,.485.553" transform="translate(-90.829 -43.116)" fill="#ed4024"/><path d="M123.114,138.147h-1.205a.439.439,0,0,0-.407.465v7.632a.439.439,0,0,0,.407.465h1.205a.438.438,0,0,0,.407-.465v-7.632a.438.438,0,0,0-.407-.465" transform="translate(-90.832 -98.334)" fill="#ed4024"/><path d="M196.93,180.087h4.759a.522.522,0,0,0,.484-.553v-1.2a.522.522,0,0,0-.484-.553H196.93a.522.522,0,0,0-.484.553v1.2a.522.522,0,0,0,.484.553" transform="translate(-146.859 -126.546)" fill="#ed4024"/><path d="M201.666,261.46h-4.713a.547.547,0,0,0-.507.579v1.147a.547.547,0,0,0,.507.579h4.713a.547.547,0,0,0,.507-.579v-1.147a.547.547,0,0,0-.507-.579" transform="translate(-146.859 -186.11)" fill="#ed4024"/><path d="M276.381,234.676h25.437a1.479,1.479,0,0,0,1.37-1.564V214.372a1.479,1.479,0,0,0-1.37-1.564H276.381a1.479,1.479,0,0,0-1.37,1.564v18.739a1.479,1.479,0,0,0,1.37,1.564m.649-19.562h24.139V232.37H277.03Z" transform="translate(-205.592 -151.479)" fill="#ed4024"/><path d="M275.5,186.225h1.047a.524.524,0,0,0,.486-.555v-2.157a.524.524,0,0,0-.486-.555H275.5a.524.524,0,0,0-.486.555v2.157a.524.524,0,0,0,.486.555" transform="translate(-205.592 -130.231)" fill="#ed4024"/><path d="M289.8,186.225h1.047a.524.524,0,0,0,.486-.555v-2.157a.524.524,0,0,0-.486-.555H289.8a.524.524,0,0,0-.486.555v2.157a.524.524,0,0,0,.486.555" transform="translate(-216.282 -130.231)" fill="#ed4024"/><path d="M304.1,186.225h1.047a.524.524,0,0,0,.486-.555v-2.157a.524.524,0,0,0-.486-.555H304.1a.524.524,0,0,0-.486.555v2.157a.524.524,0,0,0,.486.555" transform="translate(-226.972 -130.231)" fill="#ed4024"/><path d="M379.126,186.225h1.047a.524.524,0,0,0,.486-.555v-2.157a.524.524,0,0,0-.486-.555h-1.047a.524.524,0,0,0-.486.555v2.157a.524.524,0,0,0,.486.555" transform="translate(-283.063 -130.231)" fill="#ed4024"/></g></g></g></svg>