<svg xmlns="http://www.w3.org/2000/svg" xmlns:xlink="http://www.w3.org/1999/xlink" width="105" height="92" viewBox="0 0 105 92"><defs><clipPath id="a"><rect width="102" height="89" fill="none"/></clipPath><clipPath id="c"><rect width="105" height="92"/></clipPath></defs><g id="b" clip-path="url(#c)"><rect width="105" height="92" fill="#fff"/><g transform="translate(2 2)"><g clip-path="url(#a)"><path d="M348.657,461.319c-.012-.287-.243-7.073,4.341-11.238a12.963,12.963,0,0,1,9.027-3.118h1.3v5.073h-2.593v-2.748a9.712,9.712,0,0,0-5.863,2.369c-3.828,3.478-3.62,9.518-3.617,9.578Z" transform="translate(-284.076 -374.468)" fill="#ed4024"/><path d="M210.678,34.195H176.563a1.145,1.145,0,1,1,0-2.271h34.116a1.145,1.145,0,1,1,0,2.271" transform="translate(-142.804 -26.746)" fill="#ed4024"/><path d="M0,0V89H67.17V86.729H2.593V2.271H99.04V86.729H80.521a1.145,1.145,0,1,0,0,2.271h21.111V0Z" fill="#ed4024"/></g></g></g></svg>