<svg xmlns="http://www.w3.org/2000/svg" xmlns:xlink="http://www.w3.org/1999/xlink" width="82" height="77" viewBox="0 0 82 77"><defs><clipPath id="a"><rect width="96.767" height="76" fill="#ed4024"/></clipPath><clipPath id="c"><rect width="82" height="77"/></clipPath></defs><g id="b" clip-path="url(#c)"><rect width="82" height="77" fill="#fff"/><g transform="translate(-1151 -543.5)"><g transform="translate(1143.617 544)" clip-path="url(#a)"><path d="M86.23,73.949H76.19V10.159h3.746A1.178,1.178,0,0,0,81.1,8.969V1.19A1.178,1.178,0,0,0,79.936,0H18.749a1.178,1.178,0,0,0-1.162,1.19v7.78a1.178,1.178,0,0,0,1.162,1.19H22.5V73.949H9.447a1.026,1.026,0,0,0,0,2.051H86.23a1.026,1.026,0,0,0,0-2.051M19.591,8.108V2.051h59.5V8.108h-59.5ZM48.911,22.014A2.265,2.265,0,0,1,51.148,24.3c0,1.67-1.313,3.46-2.237,3.46s-2.236-1.789-2.236-3.46a2.265,2.265,0,0,1,2.236-2.288M55.864,49.35h3.293V51.6H55.864Zm-2-2.051H51.336V39.138h12.11V47.3H53.86Zm7.3,6.353h6.13v2.3h-35.9v-2.3H61.162ZM48.683,58H59.29v3.685H48.683ZM64.519,73.645H61.294V58h3.225ZM46.679,58v3.817a1.9,1.9,0,0,0,1.875,1.918H59.29V73.949H36.613V58Zm19.844,15.95V58h1.71A1.077,1.077,0,0,0,69.3,56.912V52.689A1.077,1.077,0,0,0,68.233,51.6H61.162V49.35h2.613a1.7,1.7,0,0,0,1.676-1.715V38.8a1.7,1.7,0,0,0-1.676-1.715H51.008A1.7,1.7,0,0,0,49.332,38.8v8.832a1.7,1.7,0,0,0,1.676,1.715H53.86V51.6H30.452a1.077,1.077,0,0,0-1.063,1.088v4.223A1.077,1.077,0,0,0,30.452,58h4.157v15.95H24.5V10.159h23.41v9.928A4.327,4.327,0,0,0,44.671,24.3a6.693,6.693,0,0,0,1.119,3.5,3.862,3.862,0,0,0,3.122,2.01,3.863,3.863,0,0,0,3.122-2.01,6.693,6.693,0,0,0,1.119-3.5,4.328,4.328,0,0,0-3.239-4.216V10.159H74.186V73.949Z" fill="#ed4024"/></g></g></g></svg>