<svg xmlns="http://www.w3.org/2000/svg" xmlns:xlink="http://www.w3.org/1999/xlink" width="97" height="91" viewBox="0 0 97 91"><defs><linearGradient id="a" x1="0.915" y1="0.023" x2="0.405" y2="1" gradientUnits="objectBoundingBox"><stop offset="0" stop-color="#f3c533"/><stop offset="1" stop-color="#fff0bf" stop-opacity="0"/></linearGradient><linearGradient id="c" x1="0.915" y1="0.023" x2="0.405" y2="1" gradientUnits="objectBoundingBox"><stop offset="0" stop-color="#ed4024"/><stop offset="1" stop-color="#fff0bf" stop-opacity="0"/></linearGradient><clipPath id="e"><rect width="97" height="91"/></clipPath></defs><g id="d" clip-path="url(#e)"><rect width="97" height="91" fill="#fff"/><g transform="translate(-14272.348 -24152.969)"><g transform="translate(14273.225 24162.975)"><path d="M95.925,62.657a1.173,1.173,0,1,0-.007,0Zm53.035,15h-3.647V34.783h3.64a1.22,1.22,0,0,0,.775-2.144L110.9.288a1.216,1.216,0,0,0-1.553,0c-30.561,24.719-2.75,2.17-38.826,32.359A1.22,1.22,0,0,0,71.3,34.79h3.642V77.666H71.3a1.215,1.215,0,0,0,0,2.421h77.653a1.215,1.215,0,0,0,0-2.428ZM95.627,14.883l.819-.683L110.133,2.8,145.6,32.372H74.651ZM86.419,77.658V45.306H98.551V77.658Zm14.56,0V44.093a1.213,1.213,0,0,0-1.213-1.213H85.206a1.213,1.213,0,0,0-1.214,1.213V77.658H77.368V34.783h65.519V77.658Zm34.93-34.776H126.2A1.213,1.213,0,0,0,124.99,44.1V63.3a1.213,1.213,0,0,0,1.213,1.213h9.706a1.212,1.212,0,0,0,1.214-1.213V44.094a1.213,1.213,0,0,0-1.214-1.212ZM134.7,62.091h-7.279V45.307H134.7Z" transform="translate(-70.101 -0.007)" fill="#c4c9cd"/><path d="M140.135,46.183h-9.706a1.213,1.213,0,0,0-1.213,1.213V66.605a1.213,1.213,0,0,0,1.213,1.213h9.706a1.212,1.212,0,0,0,1.214-1.213V47.395a1.213,1.213,0,0,0-1.214-1.212Zm-1.213,19.209h-7.279V48.607h7.279Z" transform="translate(-91.968 -3.309)" fill="#c4c9cd"/></g><path d="M-14026.57-17212.549l-13.574,73.723h-58.652l61.192-75.631Z" transform="translate(28388.119 41380.109)" opacity="0.58" fill="url(#a)"/><g transform="translate(14344.884 24154.053)"><path d="M242.732,166.25a6.486,6.486,0,1,0,4.579,1.9A6.479,6.479,0,0,0,242.732,166.25Z" transform="translate(-230.63 -160.627)" fill="#f3c533"/><path d="M337.733,424.38a.856.856,0,0,0-.856.856v2.445a.856.856,0,1,0,1.711,0v-2.445a.856.856,0,0,0-.856-.856Z" transform="translate(-325.632 -404.333)" fill="#f3c533"/><path d="M449.7,378.493a.856.856,0,1,0-1.21,1.21l1.728,1.728a.856.856,0,1,0,1.21-1.21Z" transform="translate(-430.767 -360.773)" fill="#f3c533"/><path d="M497.677,266.88h-2.445a.856.856,0,1,0,0,1.711h2.445a.856.856,0,1,0,0-1.711Z" transform="translate(-474.33 -255.634)" fill="#f3c533"/><path d="M449.7,127.767l1.728-1.728a.856.856,0,1,0-1.21-1.21l-1.728,1.728a.856.856,0,1,0,1.21,1.21Z" transform="translate(-430.767 -121.284)" fill="#f3c533"/><path d="M338.587,68.927V66.483a.856.856,0,1,0-1.711,0v2.445a.856.856,0,1,0,1.711,0Z" transform="translate(-325.63 -65.627)" fill="#f3c533"/><path d="M196.553,127.767a.856.856,0,1,0,1.21-1.21l-1.728-1.728a.856.856,0,1,0-1.21,1.21Z" transform="translate(-191.28 -121.284)" fill="#f3c533"/><path d="M139.781,267.733a.856.856,0,0,0-.856-.856H136.48a.856.856,0,1,0,0,1.711h2.445a.855.855,0,0,0,.856-.856Z" transform="translate(-135.625 -255.632)" fill="#f3c533"/><path d="M196.553,378.493l-1.728,1.728a.856.856,0,1,0,1.21,1.21l1.728-1.728a.856.856,0,1,0-1.21-1.21Z" transform="translate(-191.28 -360.773)" fill="#f3c533"/></g><path d="M95.925,62.657a1.173,1.173,0,1,0-.007,0Zm53.035,15h-3.647V34.783h3.64a1.22,1.22,0,0,0,.775-2.144L110.9.288a1.216,1.216,0,0,0-1.553,0c-30.561,24.719-2.75,2.17-38.826,32.359A1.22,1.22,0,0,0,71.3,34.79h3.642V77.666H71.3a1.215,1.215,0,0,0,0,2.421h77.653a1.215,1.215,0,0,0,0-2.428ZM95.627,14.883l.819-.683L110.133,2.8,145.6,32.372H74.651ZM86.419,77.658V45.306H98.551V77.658Zm14.56,0V44.093a1.213,1.213,0,0,0-1.213-1.213H85.206a1.213,1.213,0,0,0-1.214,1.213V77.658H77.368V34.783h65.519V77.658Zm34.93-34.776H126.2A1.213,1.213,0,0,0,124.99,44.1V63.3a1.213,1.213,0,0,0,1.213,1.213h9.706a1.212,1.212,0,0,0,1.214-1.213V44.094a1.213,1.213,0,0,0-1.214-1.212ZM134.7,62.091h-7.279V45.307H134.7Z" transform="translate(14203.124 24162.967)" fill="#c4c9cd"/><path d="M140.135,46.183h-9.706a1.213,1.213,0,0,0-1.213,1.213V66.605a1.213,1.213,0,0,0,1.213,1.213h9.706a1.212,1.212,0,0,0,1.214-1.213V47.395a1.213,1.213,0,0,0-1.214-1.212Zm-1.213,19.209h-7.279V48.607h7.279Z" transform="translate(14181.256 24159.666)" fill="#c4c9cd"/><path d="M-14026.57-17212.549l-13.574,73.723h-58.652l61.192-75.631Z" transform="translate(28388.119 41380.109)" opacity="0.58" fill="url(#a)"/><path d="M242.732,166.25a6.486,6.486,0,1,0,4.579,1.9A6.479,6.479,0,0,0,242.732,166.25Z" transform="translate(14114.255 23993.426)" fill="#f3c533"/><path d="M337.733,424.38a.856.856,0,0,0-.856.856v2.445a.856.856,0,1,0,1.711,0v-2.445a.856.856,0,0,0-.856-.856Z" transform="translate(14019.253 23749.721)" fill="#f3c533"/><path d="M449.7,378.493a.856.856,0,1,0-1.21,1.21l1.728,1.728a.856.856,0,1,0,1.21-1.21Z" transform="translate(13914.117 23793.279)" fill="#f3c533"/><path d="M497.677,266.88h-2.445a.856.856,0,1,0,0,1.711h2.445a.856.856,0,1,0,0-1.711Z" transform="translate(13870.554 23898.42)" fill="#f3c533"/><path d="M449.7,127.767l1.728-1.728a.856.856,0,1,0-1.21-1.21l-1.728,1.728a.856.856,0,1,0,1.21,1.21Z" transform="translate(13914.117 24032.77)" fill="#f3c533"/><path d="M338.587,68.927V66.483a.856.856,0,1,0-1.711,0v2.445a.856.856,0,1,0,1.711,0Z" transform="translate(14019.254 24088.426)" fill="#f3c533"/><path d="M196.553,127.767a.856.856,0,1,0,1.21-1.21l-1.728-1.728a.856.856,0,1,0-1.21,1.21Z" transform="translate(14153.604 24032.77)" fill="#f3c533"/><path d="M139.781,267.733a.856.856,0,0,0-.856-.856H136.48a.856.856,0,1,0,0,1.711h2.445a.855.855,0,0,0,.856-.856Z" transform="translate(14209.26 23898.422)" fill="#f3c533"/><path d="M196.553,378.493l-1.728,1.728a.856.856,0,1,0,1.21,1.21l1.728-1.728a.856.856,0,1,0-1.21-1.21Z" transform="translate(14153.604 23793.279)" fill="#f3c533"/><g transform="translate(14273.225 24162.975)"><path d="M95.925,62.657a1.173,1.173,0,1,0-.007,0Zm53.035,15h-3.647V34.783h3.64a1.22,1.22,0,0,0,.775-2.144L110.9.288a1.216,1.216,0,0,0-1.553,0c-30.561,24.719-2.75,2.17-38.826,32.359A1.22,1.22,0,0,0,71.3,34.79h3.642V77.666H71.3a1.215,1.215,0,0,0,0,2.421h77.653a1.215,1.215,0,0,0,0-2.428ZM95.627,14.883l.819-.683L110.133,2.8,145.6,32.372H74.651ZM86.419,77.658V45.306H98.551V77.658Zm14.56,0V44.093a1.213,1.213,0,0,0-1.213-1.213H85.206a1.213,1.213,0,0,0-1.214,1.213V77.658H77.368V34.783h65.519V77.658Zm34.93-34.776H126.2A1.213,1.213,0,0,0,124.99,44.1V63.3a1.213,1.213,0,0,0,1.213,1.213h9.706a1.212,1.212,0,0,0,1.214-1.213V44.094a1.213,1.213,0,0,0-1.214-1.212ZM134.7,62.091h-7.279V45.307H134.7Z" transform="translate(-70.101 -0.007)" fill="#bababa"/><path d="M140.135,46.183h-9.706a1.213,1.213,0,0,0-1.213,1.213V66.605a1.213,1.213,0,0,0,1.213,1.213h9.706a1.212,1.212,0,0,0,1.214-1.213V47.395a1.213,1.213,0,0,0-1.214-1.212Zm-1.213,19.209h-7.279V48.607h7.279Z" transform="translate(-91.968 -3.309)" fill="#bababa"/></g><path d="M-14026.57-17212.549l-13.574,73.723h-58.652l61.192-75.631Z" transform="translate(28388.119 41380.109)" opacity="0.58" fill="url(#c)"/><g transform="translate(14344.884 24154.053)"><path d="M242.732,166.25a6.486,6.486,0,1,0,4.579,1.9A6.479,6.479,0,0,0,242.732,166.25Z" transform="translate(-230.63 -160.627)" fill="#ed4024"/><path d="M337.733,424.38a.856.856,0,0,0-.856.856v2.445a.856.856,0,1,0,1.711,0v-2.445a.856.856,0,0,0-.856-.856Z" transform="translate(-325.632 -404.333)" fill="#ed4024"/><path d="M449.7,378.493a.856.856,0,1,0-1.21,1.21l1.728,1.728a.856.856,0,1,0,1.21-1.21Z" transform="translate(-430.767 -360.773)" fill="#ed4024"/><path d="M497.677,266.88h-2.445a.856.856,0,1,0,0,1.711h2.445a.856.856,0,1,0,0-1.711Z" transform="translate(-474.33 -255.634)" fill="#ed4024"/><path d="M449.7,127.767l1.728-1.728a.856.856,0,1,0-1.21-1.21l-1.728,1.728a.856.856,0,1,0,1.21,1.21Z" transform="translate(-430.767 -121.284)" fill="#ed4024"/><path d="M338.587,68.927V66.483a.856.856,0,1,0-1.711,0v2.445a.856.856,0,1,0,1.711,0Z" transform="translate(-325.63 -65.627)" fill="#ed4024"/><path d="M196.553,127.767a.856.856,0,1,0,1.21-1.21l-1.728-1.728a.856.856,0,1,0-1.21,1.21Z" transform="translate(-191.28 -121.284)" fill="#ed4024"/><path d="M139.781,267.733a.856.856,0,0,0-.856-.856H136.48a.856.856,0,1,0,0,1.711h2.445a.855.855,0,0,0,.856-.856Z" transform="translate(-135.625 -255.632)" fill="#ed4024"/><path d="M196.553,378.493l-1.728,1.728a.856.856,0,1,0,1.21,1.21l1.728-1.728a.856.856,0,1,0-1.21-1.21Z" transform="translate(-191.28 -360.773)" fill="#ed4024"/></g></g></g></svg>