<svg xmlns="http://www.w3.org/2000/svg" xmlns:xlink="http://www.w3.org/1999/xlink" width="103" height="91" viewBox="0 0 103 91"><defs><clipPath id="b"><rect width="103" height="91"/></clipPath></defs><g id="a" clip-path="url(#b)"><rect width="103" height="91" fill="#fff"/><g transform="translate(-11055.196 -23704.471)"><g transform="translate(11056.075 23705.471)"><path d="M176.8,143.624l.011-7.663a8.267,8.267,0,0,0-8.068-8.454H157.1V113.844h8.942a1.383,1.383,0,0,0,1.179-1.708l-4.248-14.879a1.2,1.2,0,0,0-1.158-.9H149.985a1.21,1.21,0,0,0-1.158.9l-4.248,14.879a1.483,1.483,0,0,0,.183,1.174,1.238,1.238,0,0,0,.976.555h8.942v13.663H98.708a8.248,8.248,0,0,0-8.068,8.432l-.011,7.663a8.251,8.251,0,0,0-7.52,8.454l.011,24.338a1.232,1.232,0,0,0,1.2,1.26h3.475v6.4a1.292,1.292,0,0,0,1.28,1.281h13.8a1.246,1.246,0,0,0,1.2-1.26v-6.426h59.346v6.4a1.235,1.235,0,0,0,1.179,1.281h13.82a1.306,1.306,0,0,0,1.28-1.281v-6.4h3.455a1.231,1.231,0,0,0,1.219-1.238v-.021l-.011-24.338a8.329,8.329,0,0,0-7.56-8.454ZM150.879,98.9h10l3.516,12.382H147.343ZM98.708,130.069h70.056a5.784,5.784,0,0,1,5.63,5.892l-.011,7.876a8.427,8.427,0,0,0-6.1,8.219v3.971H99.166v-3.949a8.427,8.427,0,0,0-6.1-8.219l.011-7.876a5.776,5.776,0,0,1,5.63-5.913Zm2.906,52.73H90.233v-5.123h11.381Zm75.6,0H165.838v-5.123h11.381Zm4.674-7.685H85.559l-.011-23.035a5.6,5.6,0,1,1,11.178,0v5.187a1.345,1.345,0,0,0,1.28,1.324h71.416a1.345,1.345,0,0,0,1.28-1.324v-5.187a5.6,5.6,0,1,1,11.178,0Z" transform="translate(-83.12 -96.36)" fill="#ed4024"/></g></g></g></svg>