<svg xmlns="http://www.w3.org/2000/svg" xmlns:xlink="http://www.w3.org/1999/xlink" width="105" height="91" viewBox="0 0 105 91"><defs><clipPath id="a"><rect width="101.797" height="89" fill="none"/></clipPath><clipPath id="c"><rect width="105" height="91"/></clipPath></defs><g id="b" clip-path="url(#c)"><rect width="105" height="91" fill="#fff"/><g transform="translate(2.253 1)"><g clip-path="url(#a)"><path d="M95.682,66.632V70.5H91.448V19.067h2.995a3.5,3.5,0,0,0,2.676,1.357c2.269,0,4.115-2.533,4.115-5.647s-1.846-5.647-4.115-5.647a3.3,3.3,0,0,0-2.141.826H91.448V7.552C91.448,3.388,88.98,0,85.946,0H83.4c-3.034,0-5.5,3.388-5.5,7.552V9.957H73.5V7.552C73.5,3.388,71.031,0,68,0H65.45c-3.034,0-5.5,3.388-5.5,7.552V9.957h-4.4V7.552c0-4.164-2.468-7.552-5.5-7.552H47.5C44.467,0,42,3.388,42,7.552V9.957H37.6V7.552C37.6,3.388,35.133,0,32.1,0H29.552c-3.034,0-5.5,3.388-5.5,7.552V9.957h-4.4V7.552C19.653,3.388,17.184,0,14.15,0H11.6C8.569,0,6.1,3.388,6.1,7.552V9.957H0v9.11H6.1V70.5H0v9.113H6.1v1.836C6.1,85.612,8.569,89,11.6,89H14.15c3.034,0,5.5-3.388,5.5-7.552V79.612h4.4v1.836c0,4.164,2.469,7.552,5.5,7.552H32.1c3.034,0,5.5-3.388,5.5-7.552V79.612H42v1.836C42,85.612,44.467,89,47.5,89h2.547c3.034,0,5.5-3.388,5.5-7.552V79.612h4.4v1.836c0,4.164,2.468,7.552,5.5,7.552H68c3.034,0,5.5-3.388,5.5-7.552V79.612h4.4v1.836C77.9,85.612,80.365,89,83.4,89h2.547c3.034,0,5.5-3.388,5.5-7.552V79.612h4.233v4.113H101.8V66.632ZM1.75,12.359H6.1v4.307H1.75Zm0,60.542H6.1V77.21H1.75ZM17.9,81.448c0,2.84-1.683,5.15-3.753,5.15H11.6c-2.069,0-3.753-2.31-3.753-5.15V7.552c0-2.84,1.683-5.15,3.753-5.15H14.15c2.069,0,3.753,2.31,3.753,5.15Zm6.147-64.783h-4.4V12.359h4.4Zm0,53.834h-4.4V19.067h4.4Zm-4.4,2.4h4.4V77.21h-4.4Zm16.2,8.547c0,2.84-1.683,5.15-3.753,5.15H29.552c-2.069,0-3.753-2.31-3.753-5.15V7.552c0-2.84,1.683-5.15,3.753-5.15H32.1c2.069,0,3.753,2.31,3.753,5.15ZM42,16.665H37.6V12.359H42ZM42,70.5H37.6V19.067H42Zm-4.4,2.4H42V77.21H37.6Zm16.2,8.547c0,2.84-1.683,5.15-3.753,5.15H47.5c-2.069,0-3.753-2.31-3.753-5.15V7.552c0-2.84,1.683-5.15,3.753-5.15h2.547c2.069,0,3.753,2.31,3.753,5.15Zm6.147-64.783h-4.4V12.359h4.4Zm0,53.834h-4.4V19.067h4.4Zm-4.4,2.4h4.4V77.21h-4.4Zm16.2,8.547c0,2.84-1.683,5.15-3.753,5.15H65.45c-2.069,0-3.753-2.31-3.753-5.15V7.552c0-2.84,1.683-5.15,3.753-5.15H68c2.069,0,3.753,2.31,3.753,5.15ZM77.9,16.665H73.5V12.359h4.4Zm0,53.834H73.5V19.067h4.4Zm-4.4,2.4h4.4V77.21H73.5Zm16.2,8.547c0,2.84-1.683,5.15-3.753,5.15H83.4c-2.069,0-3.753-2.31-3.753-5.15V7.552c0-2.84,1.683-5.15,3.753-5.15h2.547c2.069,0,3.753,2.31,3.753,5.15Zm6.051-69.314a1.944,1.944,0,0,1,1.37-.6c1.3,0,2.364,1.456,2.364,3.245s-1.061,3.245-2.364,3.245a2.094,2.094,0,0,1-1.7-.991,3.935,3.935,0,0,1-.664-2.254,3.737,3.737,0,0,1,.994-2.643m-2.345.225a7.427,7.427,0,0,0-.4,2.418,7.557,7.557,0,0,0,.24,1.888h-1.8V12.359ZM91.448,72.9h4.233V77.21H91.448Zm8.6,8.422H97.432V79.612h0V70.5h0V69.034h2.615Z" fill="#ed4024"/></g></g></g></svg>