<svg xmlns="http://www.w3.org/2000/svg" xmlns:xlink="http://www.w3.org/1999/xlink" width="77" height="91" viewBox="0 0 77 91"><defs><clipPath id="a"><rect width="80.155" height="89" fill="none"/></clipPath><clipPath id="c"><rect width="77" height="91"/></clipPath></defs><g id="b" clip-path="url(#c)"><rect width="77" height="91" fill="#fff"/><g transform="translate(-4.8 1)"><g clip-path="url(#a)"><path d="M71.779,152.3H9.219a1.315,1.315,0,0,1-1.264-1.184l-3.015-22.2H76.206l-2.994,22.043a1.492,1.492,0,0,1-1.433,1.343M9.918,150.037H71.229l2.561-18.858H7.357Z" transform="translate(2.525 -92.432)" fill="#ed4024"/><path d="M80.156,38.747H14.206l6.608-32.58A7.492,7.492,0,0,1,27.968,0H66.394a7.493,7.493,0,0,1,7.154,6.167ZM16.926,36.483H77.437L71.381,6.627a5.259,5.259,0,0,0-4.987-4.363H27.968a5.259,5.259,0,0,0-4.987,4.363Z" transform="translate(-4.047)" fill="#ed4024"/><path d="M48.435,237.586h0a1.132,1.132,0,0,1-.691-1.444l9.9-28.064a1.132,1.132,0,0,1,2.135.753l-9.9,28.064a1.132,1.132,0,0,1-1.444.691" transform="translate(-31.186 -148.651)" fill="#ed4024"/><path d="M204.31,236.895l-9.9-28.064a1.132,1.132,0,1,1,2.135-.753l9.9,28.064a1.132,1.132,0,0,1-.691,1.444h0a1.132,1.132,0,0,1-1.444-.691" transform="translate(-136.349 -148.651)" fill="#ed4024"/><path d="M4.7,125.868.013,94.694a1.132,1.132,0,0,1,2.239-.337l4.69,31.174Z" transform="translate(8.183 -67.299) rotate(1)" fill="#ed4024"/><path d="M260.221,125.7h0a1.132,1.132,0,0,1-.951-1.288l4.522-30.055a1.132,1.132,0,0,1,2.239.337l-4.522,30.055a1.132,1.132,0,0,1-1.288.951" transform="translate(-185.889 -66.964)" fill="#ed4024"/></g></g></g></svg>