<svg xmlns="http://www.w3.org/2000/svg" xmlns:xlink="http://www.w3.org/1999/xlink" width="105" height="92" viewBox="0 0 105 92"><defs><clipPath id="a"><rect width="101.797" height="89.001" fill="none"/></clipPath><clipPath id="c"><rect width="105" height="92"/></clipPath></defs><g id="b" clip-path="url(#c)"><rect width="105" height="92" fill="#fff"/><g transform="translate(2.2 2)"><g clip-path="url(#a)"><path d="M165.865,433.263a8.137,8.137,0,0,0,1.073-.071,7.961,7.961,0,0,0,2.155-.606l.971,1.627h0l-1.971,1.139a.854.854,0,0,0-.311,1.178.882.882,0,0,0,1.2.306l5.631-3.256a.853.853,0,0,0,.311-1.178.882.882,0,0,0-1.2-.306l-2.153,1.245h0l-.972-1.63a7.744,7.744,0,0,0,3.179-6.238,7.862,7.862,0,0,0-7.914-7.79c-.157,0-.314,0-.469.014a7.962,7.962,0,0,0-5.266,2.413,7.778,7.778,0,0,0-1.531,2.275,7.666,7.666,0,0,0,.746,7.5,7.938,7.938,0,0,0,5.839,3.351c.225.018.452.028.681.028m-4.827-4.018a5.983,5.983,0,0,1-.652-6.556,6.189,6.189,0,0,1,5.18-3.276c.1,0,.2-.007.3-.007a6.124,6.124,0,0,1,6.165,6.068,6.023,6.023,0,0,1-2.323,4.741l-2.815-4.719a.544.544,0,0,0-.738-.188l-.578.334a.526.526,0,0,0-.192.726l1.05,1.76h0l1.767,2.96a6.237,6.237,0,0,1-2.335.453,6.222,6.222,0,0,1-4.827-2.3" transform="translate(-138.215 -366.313)" fill="#ed4024"/><path d="M94.715,79.1H76.2l-.788-7.919A21.668,21.668,0,0,0,71.17,28.573l-.936-9.407,1.14-.11a.856.856,0,0,0,.779-.919l-.329-3.924h0l12.641-4.063-.239,1.18a.862.862,0,0,0,.687,1.012.874.874,0,0,0,1.029-.676L88.093,1.029A.862.862,0,0,0,87.406.017a.874.874,0,0,0-1.029.676L84.856,8.211l-13.18,4.236-.257-3.061a.83.83,0,0,0-.829-.754l-10-.041a.98.98,0,0,0-.989,1.069l.956,9.6a.839.839,0,0,0,.92.744l1.558-.15.931,9.366A22.027,22.027,0,0,0,48.759,43l-19.552-.524h-.051c-.226-.012-.46-.018-.7-.02H28.3a17.179,17.179,0,0,0-1.992.116l-1.468-14.75h4.923A4.306,4.306,0,0,0,34.1,23.537c-.021-1.885-1.1-2.607-2.98-3.085l-16.595-4.23a4.32,4.32,0,0,0-3.7.75,4.174,4.174,0,0,0-1.666,3.342l-.238,3.277a4.266,4.266,0,0,0,4.294,4.227h4.36l1.713,17.213a16.45,16.45,0,0,0,2.929,29.434l.46,4.633H7.082A7.035,7.035,0,0,0,0,86.07V89H101.8V86.07A7.027,7.027,0,0,0,94.715,79.1m-20.276,0H70.69l-.711-7.149-.171-1.719L68.756,59.647,72.35,58.1,73.519,69.85l.172,1.723ZM29.584,75.536a16.852,16.852,0,0,0,4.752-1.05h0c.471-.178.932-.377,1.373-.591l.006,0,18.569-8.007a22.155,22.155,0,0,0,13.934,6.026l.715,7.186H29.939Zm38.461-5.361A20.393,20.393,0,0,1,56.03,65.134l11.04-4.76Zm21.836-19.94a20.079,20.079,0,0,1-14.646,19.2l-1.2-12.068,2.428-1.047.011,0h0l.035-.015h0a6.531,6.531,0,0,0-2.455-12.624l-1.384-.037L71.343,30.313A20.151,20.151,0,0,1,89.881,50.235M62.869,18.146l-.655.063-.785-7.893,8.316.036.593,7.074-.275.027-1.74.167-3.713.358Zm1.913,1.545,3.713-.358.913,9.184.171,1.721L70.907,43.6l-3.758-.1L65.863,30.57l-.171-1.721ZM64.144,30.96l1.242,12.488-14.779-.4A20.292,20.292,0,0,1,64.144,30.96M17.4,26.1H13.213a2.528,2.528,0,0,1-2.545-2.505l.238-3.277a2.47,2.47,0,0,1,.988-1.98,2.551,2.551,0,0,1,2.2-.444l16.595,4.228c1.122.287,1.669.332,1.669,1.473A2.528,2.528,0,0,1,29.808,26.1H17.4Zm1.929,1.722h3.748l1.5,15.043a16.886,16.886,0,0,0-3.623,1.254Zm2.689,44.7a14.794,14.794,0,0,1-.885-26.557,15.033,15.033,0,0,1,3.612-1.368,14.757,14.757,0,0,1,1.727-.307,15.221,15.221,0,0,1,1.8-.108l.861.023,19.092.512,1.8.048,15.533.417,1.762.048,3.76.1,1.762.047,1.176.032h.024a4.814,4.814,0,0,1,1.778,9.32h0l-.035.015h0l-1.928.831-1.685.727-3.595,1.55-1.685.727L54.685,63.834,53,64.562,35.005,72.319h0l-.247.107-1.068.46a15.09,15.09,0,0,1-4.276.937q-.557.041-1.118.041-.32,0-.637-.015a15.076,15.076,0,0,1-5.639-1.333m2.009,2.53a17.045,17.045,0,0,0,3.8.534l.351,3.52h-3.75Zm76.019,12.234H1.749V86.07a5.3,5.3,0,0,1,5.333-5.249H94.715a5.3,5.3,0,0,1,5.333,5.249Z" transform="translate(0 0)" fill="#ed4024"/></g></g></g></svg>