<svg xmlns="http://www.w3.org/2000/svg" xmlns:xlink="http://www.w3.org/1999/xlink" width="103" height="91" viewBox="0 0 103 91"><defs><clipPath id="a"><rect width="101.796" height="89" fill="none"/></clipPath><clipPath id="c"><rect width="103" height="91"/></clipPath></defs><g id="b" clip-path="url(#c)"><rect width="103" height="91" fill="#fff"/><g transform="translate(0.602 1)"><g clip-path="url(#a)"><path d="M98.728,58.4h-.474V40.9a2.991,2.991,0,0,0-.581-1.775L93.95,34.077a11.136,11.136,0,0,0-5.11-3.844V8.69A8.612,8.612,0,0,0,80.329,0H19.188a8.612,8.612,0,0,0-8.511,8.69V30.859a10.19,10.19,0,0,0-3.559,3.377L3.974,39.13a3.38,3.38,0,0,0-.533,1.823V58.4H3.068A3.1,3.1,0,0,0,0,61.533v23.1A4.328,4.328,0,0,0,4.277,89H4.4a4.328,4.328,0,0,0,4.277-4.367V76.7a.6.6,0,0,1,.594-.6H92.65a.6.6,0,0,1,.591.6v7.934a4.278,4.278,0,1,0,8.555,0v-23.1A3.106,3.106,0,0,0,98.728,58.4M13,29.554V8.69a6.264,6.264,0,0,1,6.19-6.32H80.329a6.264,6.264,0,0,1,6.19,6.32V29.554H82.6a5.435,5.435,0,0,0,.9-3.011V23.623a5.331,5.331,0,0,0-5.269-5.38H57.259a5.331,5.331,0,0,0-5.269,5.38v2.921a5.435,5.435,0,0,0,.9,3.011H46.679a5.425,5.425,0,0,0,.911-3.026V23.636a5.345,5.345,0,0,0-5.284-5.393H21.157a5.344,5.344,0,0,0-5.281,5.393v2.893a5.444,5.444,0,0,0,.911,3.026H13Zm41.313-3.011V23.623a2.983,2.983,0,0,1,2.948-3.011H78.23a2.983,2.983,0,0,1,2.948,3.011v2.921a2.985,2.985,0,0,1-2.948,3.011H57.259a2.985,2.985,0,0,1-2.948-3.011M18.2,26.529V23.636a3,3,0,0,1,2.961-3.023h21.15a3,3,0,0,1,2.963,3.023v2.893a3,3,0,0,1-2.963,3.026H21.157A3,3,0,0,1,18.2,26.529M9.06,35.536a7.773,7.773,0,0,1,6.552-3.612H85.073A8.774,8.774,0,0,1,92.1,35.5l2.672,3.629H6.752ZM5.763,41.5H95.933V58.4H5.763ZM99.475,84.633a1.957,1.957,0,1,1-3.913,0V76.7a2.947,2.947,0,0,0-2.912-2.973H9.275A2.948,2.948,0,0,0,6.361,76.7v7.934a1.98,1.98,0,0,1-1.957,2H4.277a1.98,1.98,0,0,1-1.957-2v-23.1a.757.757,0,0,1,.747-.763h95.66a.757.757,0,0,1,.747.763Z" fill="#ed4024"/></g></g></g></svg>