<svg xmlns="http://www.w3.org/2000/svg" xmlns:xlink="http://www.w3.org/1999/xlink" width="113" height="91" viewBox="0 0 113 91"><defs><clipPath id="a"><rect width="110.656" height="89" fill="none"/></clipPath><clipPath id="c"><rect width="113" height="91"/></clipPath></defs><g id="b" clip-path="url(#c)"><rect width="113" height="91" fill="#fff"/><g transform="translate(1 1)"><g clip-path="url(#a)"><path d="M41.736,254.519v6.362l25.4,9.748.01,0,24.682,9.473,51.517-18.981v-6.386L91.829,236.993Zm26.237,14.772.029-4.1,23.172,8.448-.094,4.526Zm23.992,2.983-14.338-5.227,39.321-14.254.02-.009.024-.009,15.518,5.234Zm42.916-15.1L117.462,251.3l.014-3.833,22.737,7.832Zm-18.969-5.654-40.552,14.7-5.846-2.131,46.412-16.607ZM67.238,263.259l-22.425-8.176,25.33-8.862L91.711,254.5Zm-23.953-7.084,23.172,8.448-.029,4.075-23.143-8.882Zm49.344,21.984.094-4.509,49.071-17.266v3.66ZM114.368,246.4,93.948,253.7,72.4,245.43l19.429-6.8Z" transform="translate(-33.655 -191.106)" fill="#ed4024"/><path d="M8.658,100.1c-.022.3-.048.649-.065,1.049a.774.774,0,0,0,.74.808h.035a.774.774,0,0,0,.773-.74c.016-.377.041-.71.063-1,.158-2.162.093-3-2.4-7.759-2.4-4.6-1.623-6.114.266-9.768.223-.431.458-.886.7-1.374,2.507-5.013,1.359-6.714-2.05-11.764l-.061-.09c-2.477-3.669.161-10.4,1.462-13.223l1.548,7.377a.775.775,0,0,0,.757.616.8.8,0,0,0,.16-.017.775.775,0,0,0,.6-.917L9.11,53.379a1.053,1.053,0,0,0-1.794-.509L.213,60.34a.774.774,0,0,0,1.123,1.067l5.229-5.5C5.109,59.133,2.545,66.12,5.38,70.321l.061.09c3.432,5.085,4.051,6,1.949,10.2-.241.482-.473.931-.693,1.356-1.9,3.668-3.04,5.881-.263,11.2,2.4,4.583,2.355,5.127,2.223,6.929" transform="translate(0 -42.368)" fill="#ed4024"/><path d="M157.63,8.866l5.229-5.5c-1.456,3.225-4.02,10.213-1.184,14.414l.061.091c3.432,5.084,4.05,6,1.948,10.2-.241.481-.473.931-.693,1.355-1.9,3.668-3.041,5.882-.263,11.2,2.4,4.584,2.355,5.127,2.223,6.929-.022.3-.047.649-.065,1.049a.774.774,0,0,0,.74.808h.035a.774.774,0,0,0,.773-.74c.017-.377.041-.71.063-1,.158-2.162.093-3-2.4-7.76-2.4-4.6-1.623-6.114.266-9.768.222-.431.458-.886.7-1.374,2.507-5.013,1.358-6.714-2.05-11.764l-.061-.09c-2.477-3.67.161-10.4,1.462-13.223l1.548,7.376a.774.774,0,1,0,1.516-.318L165.4.837A1.053,1.053,0,0,0,163.61.328l-7.1,7.471a.774.774,0,0,0,1.123,1.067" transform="translate(-126.032 0)" fill="#ed4024"/><path d="M355.074,12.088l5.229-5.5C358.847,9.813,356.283,16.8,359.119,21l.061.091c3.432,5.084,4.05,6,1.948,10.2-.241.481-.473.931-.693,1.355-1.9,3.668-3.041,5.882-.263,11.2,2.4,4.584,2.355,5.127,2.223,6.929-.022.3-.047.649-.065,1.049a.774.774,0,0,0,.74.808h.035a.774.774,0,0,0,.773-.74c.017-.376.041-.709.063-1,.158-2.162.093-3-2.4-7.759-2.4-4.6-1.623-6.114.266-9.768.222-.431.458-.886.7-1.374,2.507-5.013,1.358-6.715-2.05-11.764l-.061-.09c-2.477-3.67.161-10.4,1.462-13.223l1.548,7.376a.774.774,0,1,0,1.516-.318l-2.08-9.912a1.053,1.053,0,0,0-1.794-.509l-7.1,7.471a.774.774,0,1,0,1.123,1.067" transform="translate(-285.246 -2.599)" fill="#ed4024"/><path d="M524.815,63.291l-2.08-9.912a1.053,1.053,0,0,0-1.794-.509l-7.1,7.471a.774.774,0,1,0,1.123,1.067l5.229-5.5c-1.456,3.225-4.02,10.212-1.184,14.413l.061.09c3.432,5.085,4.051,6,1.949,10.2-.241.482-.473.931-.693,1.356-1.9,3.668-3.04,5.881-.263,11.2,2.395,4.583,2.355,5.127,2.223,6.929-.022.3-.047.649-.065,1.049a.774.774,0,0,0,.74.808h.035a.774.774,0,0,0,.773-.74c.017-.377.041-.71.063-1,.158-2.162.093-3-2.4-7.76-2.4-4.6-1.623-6.114.266-9.768.223-.431.458-.886.7-1.374,2.507-5.013,1.358-6.714-2.05-11.764l-.061-.09c-2.477-3.67.161-10.4,1.462-13.223l1.548,7.377a.774.774,0,1,0,1.516-.318" transform="translate(-414.175 -42.369)" fill="#ed4024"/><path d="M311.259,326.023l-7.323-2.4a.774.774,0,1,0-.562,1.443l7.318,2.4a.278.278,0,0,1,.1.215l-.005,0-2.3.87a2.253,2.253,0,0,1-1.453.045l-7.154-2.208a9.186,9.186,0,0,0-5.863.161l-5.279,1.951a1.429,1.429,0,0,0,.077,2.707l5.815,1.784a.258.258,0,0,1,.008.49l-4.379,1.5a6.53,6.53,0,0,1-4.08.044l-6.565-2.1a5.549,5.549,0,0,0-3.526.057l-1.715.608a2.379,2.379,0,0,0,.047,4.5l5.414,2.16a.775.775,0,1,0,.69-1.387l-5.528-2.217-.064-.019a.83.83,0,0,1-.041-1.578l1.715-.608a4,4,0,0,1,2.537-.041l6.566,2.1a8.088,8.088,0,0,0,5.055-.054l4.379-1.5a1.807,1.807,0,0,0-.057-3.436l-5.476-1.68L294.548,328a7.632,7.632,0,0,1,4.869-.133l7.154,2.208a3.808,3.808,0,0,0,2.457-.076l2.3-.87a1.531,1.531,0,0,0,1.006-1.448,1.784,1.784,0,0,0-1.078-1.659" transform="translate(-219.966 -260.656)" fill="#ed4024"/></g></g></g></svg>