<svg xmlns="http://www.w3.org/2000/svg" xmlns:xlink="http://www.w3.org/1999/xlink" width="71" height="91" viewBox="0 0 71 91"><defs><clipPath id="b"><rect width="71" height="91"/></clipPath></defs><g id="a" clip-path="url(#b)"><rect width="71" height="91" fill="#fff"/><g transform="translate(-181 -2076)"><g transform="translate(182.475 2077.879)"><g transform="translate(0.001)"><path d="M-14284.565-16958.9h-60.769a1,1,0,0,1-1-1,1,1,0,0,1,1-1h58.574l-19.883-22.873h-38.691a1,1,0,0,1-1-1,1,1,0,0,1,1-1h39.147a1,1,0,0,1,.755.344l21.621,24.873a1,1,0,0,1,.155,1.07A1,1,0,0,1-14284.565-16958.9Z" transform="translate(14345.334 16984.77)" fill="#bababa"/><path d="M-14294.891-16900.105h-2v-62.742h2Z" transform="translate(14351.996 16987.723)" fill="#bababa"/><path d="M-14278.206-16906.553h-67.128v-2h67.128Z" transform="translate(14345.334 16995.174)" fill="#bababa"/><path d="M2,2V12.752h9.617V2H2M0,0H13.617V14.752H0Z" transform="translate(15.13 36.051)" fill="#bababa"/><path d="M2,2V12.752h9.617V2H2M0,0H13.617V14.752H0Z" transform="translate(15.13 61.015)" fill="#bababa"/><path d="M-14317.258-16937.387h-17.239v-2h17.239Z" transform="translate(14347.931 16988.75)" fill="#bababa"/><path d="M-14317.258-16937.387h-17.239v-2h17.239Z" transform="translate(14347.931 17013.713)" fill="#bababa"/></g><g transform="translate(41.565 32.963)"><path d="M166.168,135.261a.307.307,0,0,1-.059-.212.3.3,0,0,1,.1-.2,2.127,2.127,0,0,1,2.817,0,1.9,1.9,0,0,0,2.358-.126.257.257,0,0,1,.267-.04.289.289,0,0,1,.168.227.3.3,0,0,1-.1.271,2.74,2.74,0,0,1-1.673.637,2.067,2.067,0,0,1-1.361-.5,1.622,1.622,0,0,0-2.137-.018.26.26,0,0,1-.2.062.267.267,0,0,1-.181-.1Zm4.371,1.153a1.9,1.9,0,0,1-2.358.126,2.131,2.131,0,0,0-2.818-.007.3.3,0,0,0-.1.274.288.288,0,0,0,.174.226.258.258,0,0,0,.269-.048,1.62,1.62,0,0,1,2.136.018,2.071,2.071,0,0,0,1.352.5,2.739,2.739,0,0,0,1.68-.633.3.3,0,0,0,.1-.2.307.307,0,0,0-.057-.217.268.268,0,0,0-.184-.109.26.26,0,0,0-.2.064Zm.833,1.68a1.882,1.882,0,0,1-2.359.127h0a2.127,2.127,0,0,0-2.817,0,.3.3,0,0,0-.095.273.288.288,0,0,0,.172.225.258.258,0,0,0,.268-.047,1.621,1.621,0,0,1,2.137.018h0a2.068,2.068,0,0,0,1.352.5,2.739,2.739,0,0,0,1.679-.632.3.3,0,0,0,.1-.272.289.289,0,0,0-.169-.229.257.257,0,0,0-.269.042Z" transform="translate(-165.264 -134.32)" fill="#bababa"/></g><path d="M-14046.97-16961.338h-4.994a.5.5,0,0,1-.5-.5v-5.937a.5.5,0,0,1,.5-.5h4.994v1h-4.494v4.938h4.494Z" transform="translate(14102.05 17000.738)" fill="#ed4024"/><g transform="translate(38.746 44.926)"><path d="M441.9,140.544h-2.032a.271.271,0,0,1,0-.542H441.9a.271.271,0,0,1,0,.542Z" transform="translate(-431.336 -138.647)" fill="#ed4024"/><path d="M441.9,140.644h-2.032a.371.371,0,0,1,0-.742H441.9a.371.371,0,0,1,0,.742Zm-2.032-.542a.171.171,0,0,0,0,.342H441.9a.171.171,0,0,0,0-.342Z" transform="translate(-431.336 -138.647)" fill="#ed4024"/><path d="M441.9,190.944h-2.032a.271.271,0,0,1,0-.542H441.9a.271.271,0,0,1,0,.542Z" transform="translate(-431.336 -187.828)" fill="#ed4024"/><path d="M441.9,191.044h-2.032a.371.371,0,0,1,0-.742H441.9a.371.371,0,0,1,0,.742Zm-2.032-.542a.171.171,0,0,0,0,.342H441.9a.171.171,0,0,0,0-.342Z" transform="translate(-431.336 -187.828)" fill="#ed4024"/><path d="M441.9,241.344h-2.032a.271.271,0,0,1,0-.542H441.9a.271.271,0,0,1,0,.542Z" transform="translate(-431.336 -237.008)" fill="#ed4024"/><path d="M441.9,241.444h-2.032a.371.371,0,0,1,0-.742H441.9a.371.371,0,0,1,0,.742Zm-2.032-.542a.171.171,0,0,0,0,.342H441.9a.171.171,0,0,0,0-.342Z" transform="translate(-431.336 -237.008)" fill="#ed4024"/><path d="M109.109,84H99.083A1.087,1.087,0,0,0,98,85.084v6.774a1.087,1.087,0,0,0,1.084,1.084h.542v.542a.271.271,0,0,0,.271.271h1.49a.271.271,0,0,0,.271-.271v-.542h4.877v.542a.271.271,0,0,0,.271.271h1.49a.271.271,0,0,0,.271-.271v-.542h.542a1.087,1.087,0,0,0,1.084-1.084V85.084A1.087,1.087,0,0,0,109.109,84Zm-7.994,9.213h-.948v-.271h.948Zm6.91,0h-.948v-.271h.948Zm1.626-1.355a.542.542,0,0,1-.542.542H99.083a.542.542,0,0,1-.542-.542V85.084a.542.542,0,0,1,.542-.542h10.026a.542.542,0,0,1,.542.542Z" transform="translate(-97.999 -84)" fill="#ed4024"/><path d="M99.083,83.9h10.026a1.185,1.185,0,0,1,1.184,1.184v6.774a1.185,1.185,0,0,1-1.184,1.184h-.442v.442a.371.371,0,0,1-.371.371h-1.49a.371.371,0,0,1-.371-.371v-.442h-4.677v.442a.371.371,0,0,1-.371.371H99.9a.371.371,0,0,1-.371-.371v-.442h-.442A1.185,1.185,0,0,1,97.9,91.858V85.084A1.185,1.185,0,0,1,99.083,83.9Zm10.026,8.942a.985.985,0,0,0,.984-.984V85.084a.985.985,0,0,0-.984-.984H99.083a.985.985,0,0,0-.984.984v6.774a.985.985,0,0,0,.984.984h.642v.642a.171.171,0,0,0,.171.171h1.49a.171.171,0,0,0,.171-.171v-.642h5.077v.642a.171.171,0,0,0,.171.171h1.49a.171.171,0,0,0,.171-.171v-.642Zm-10.026-8.4h10.026a.643.643,0,0,1,.642.642v6.774a.643.643,0,0,1-.642.642H99.083a.643.643,0,0,1-.642-.642V85.084A.643.643,0,0,1,99.083,84.442ZM109.109,92.3a.442.442,0,0,0,.442-.442V85.084a.442.442,0,0,0-.442-.442H99.083a.442.442,0,0,0-.442.442v6.774a.442.442,0,0,0,.442.442Zm-9.042.542h1.148v.471h-1.148Zm.948.2h-.748v.071h.748Zm5.961-.2h1.148v.471h-1.148Zm.948.2h-.748v.071h.748Z" transform="translate(-97.999 -84)" fill="#ed4024"/><path d="M441.9,293.5h-2.032a.271.271,0,0,1-.271-.271v-1.761a.271.271,0,0,1,.271-.271H441.9a.271.271,0,0,1,.271.271v1.761A.271.271,0,0,1,441.9,293.5Zm-1.761-.542h1.49v-1.219h-1.49Z" transform="translate(-431.336 -286.188)" fill="#ed4024"/><path d="M441.9,293.6h-2.032a.371.371,0,0,1-.371-.371v-1.761a.371.371,0,0,1,.371-.371H441.9a.371.371,0,0,1,.371.371v1.761A.371.371,0,0,1,441.9,293.6Zm-2.032-2.3a.171.171,0,0,0-.171.171v1.761a.171.171,0,0,0,.171.171H441.9a.171.171,0,0,0,.171-.171v-1.761a.171.171,0,0,0-.171-.171Zm1.861,1.761h-1.69v-1.419h1.69Zm-1.49-.2h1.29v-1.019h-1.29Z" transform="translate(-431.336 -286.188)" fill="#ed4024"/><path d="M3.048.7A2.348,2.348,0,1,0,5.4,3.048,2.351,2.351,0,0,0,3.048.7m0-.7A3.048,3.048,0,1,1,0,3.048,3.048,3.048,0,0,1,3.048,0Z" transform="translate(1.143 1.016)" fill="#ed4024"/></g></g><path d="M2,2V8.873h9.838V2H2M0,0H13.838V10.873H0Z" transform="translate(237.525 2129.363)" fill="#bababa"/></g></g></svg>