<svg xmlns="http://www.w3.org/2000/svg" width="197.225" height="85.464" viewBox="0 0 197.225 85.464">
  <path id="Path_48" data-name="Path 48" d="M180.79.5H16.435A16.455,16.455,0,0,0,0,16.935V69.529A16.455,16.455,0,0,0,16.435,85.964H180.79a16.455,16.455,0,0,0,16.435-16.435V16.935A16.455,16.455,0,0,0,180.79.5ZM167.641,79.39H29.584V69.529a3.287,3.287,0,0,1,3.287-3.287H164.354a3.287,3.287,0,0,1,3.287,3.287Zm23.01-9.861a9.862,9.862,0,0,1-9.861,9.861h-6.574V69.529a9.862,9.862,0,0,0-9.861-9.861H32.871a9.862,9.862,0,0,0-9.861,9.861V79.39H16.435a9.862,9.862,0,0,1-9.861-9.861V16.935a9.862,9.862,0,0,1,9.861-9.861H180.79a9.862,9.862,0,0,1,9.861,9.861Zm0,0" transform="translate(0 -0.5)" fill="#e4e4e4"/>
</svg>
