<svg xmlns="http://www.w3.org/2000/svg" width="117.416" height="182.197" viewBox="0 0 117.416 182.197">
  <path id="Path_2282" data-name="Path 2282" d="M122.225,5H37.191A16.24,16.24,0,0,0,21,21.191V154.811A16.24,16.24,0,0,0,37.191,171H65.537v12.146a4.049,4.049,0,0,0,8.1,0V171H85.781v12.146a4.049,4.049,0,0,0,8.1,0V171h28.346a16.24,16.24,0,0,0,16.191-16.191V21.191A16.24,16.24,0,0,0,122.225,5Zm8.094,149.811a8.1,8.1,0,0,1-8.094,8.094H37.191a8.1,8.1,0,0,1-8.094-8.094V21.191A8.1,8.1,0,0,1,37.191,13.1h85.033a8.1,8.1,0,0,1,8.094,8.094Z" transform="translate(-21 -5)" fill="#e4e4e4"/>
</svg>
