<svg xmlns="http://www.w3.org/2000/svg" width="74" height="74" viewBox="0 0 74 74">
  <g id="noun-apartment-3796428" transform="translate(-13.108)">
    <path id="Path_2656" data-name="Path 2656" d="M317.844,400.575h8.947a.925.925,0,0,0,.925-.925v-9.472a.925.925,0,0,0-.925-.925h-8.947a.925.925,0,0,0-.925.925v9.472A.925.925,0,0,0,317.844,400.575Zm.925-9.472h7.1v7.622h-7.1Z" transform="translate(-272.276 -334.208)" fill="#ed4024"/>
    <path id="Path_2657" data-name="Path 2657" d="M409.79,400.575h8.947a.925.925,0,0,0,.925-.925v-9.472a.925.925,0,0,0-.925-.925H409.79a.925.925,0,0,0-.925.925v9.472A.925.925,0,0,0,409.79,400.575Zm.925-9.472h7.1v7.622h-7.1Z" transform="translate(-349.034 -334.208)" fill="#ed4024"/>
    <path id="Path_2658" data-name="Path 2658" d="M317.844,298.755h8.947a.925.925,0,0,0,.925-.925v-9.472a.925.925,0,0,0-.925-.925h-8.947a.925.925,0,0,0-.925.925v9.472A.926.926,0,0,0,317.844,298.755Zm.925-9.472h7.1v7.622h-7.1Z" transform="translate(-272.276 -249.206)" fill="#292525"/>
    <path id="Path_2659" data-name="Path 2659" d="M409.79,298.755h8.947a.925.925,0,0,0,.925-.925v-9.472a.925.925,0,0,0-.925-.925H409.79a.925.925,0,0,0-.925.925v9.472A.926.926,0,0,0,409.79,298.755Zm.925-9.472h7.1v7.622h-7.1Z" transform="translate(-349.034 -249.206)" fill="#292525"/>
    <path id="Path_2660" data-name="Path 2660" d="M317.844,196.939h8.947a.925.925,0,0,0,.925-.925v-9.471a.925.925,0,0,0-.925-.925h-8.947a.925.925,0,0,0-.925.925v9.472A.926.926,0,0,0,317.844,196.939Zm.925-9.471h7.1v7.622h-7.1Z" transform="translate(-272.276 -164.208)" fill="#ed4024"/>
    <path id="Path_2661" data-name="Path 2661" d="M226.73,298.755h8.947a.925.925,0,0,0,.925-.925v-9.472a.925.925,0,0,0-.925-.925H226.73a.925.925,0,0,0-.925.925v9.472A.926.926,0,0,0,226.73,298.755Zm.925-9.472h7.1v7.622h-7.1Z" transform="translate(-196.212 -249.206)" fill="#292525"/>
    <path id="Path_2662" data-name="Path 2662" d="M226.73,196.939h8.947a.925.925,0,0,0,.925-.925v-9.471a.925.925,0,0,0-.925-.925H226.73a.925.925,0,0,0-.925.925v9.472A.926.926,0,0,0,226.73,196.939Zm.925-9.471h7.1v7.622h-7.1Z" transform="translate(-196.212 -164.208)" fill="#ed4024"/>
    <path id="Path_2663" data-name="Path 2663" d="M409.79,196.939h8.947a.925.925,0,0,0,.925-.925v-9.471a.925.925,0,0,0-.925-.925H409.79a.925.925,0,0,0-.925.925v9.472A.926.926,0,0,0,409.79,196.939Zm.925-9.471h7.1v7.622h-7.1Z" transform="translate(-349.034 -164.208)" fill="#ed4024"/>
    <path id="Path_2664" data-name="Path 2664" d="M199.074,128.152h-9.542V73.325h1.254a.925.925,0,0,0,.925-.925V64.335a.925.925,0,0,0-.925-.925h-25.73V56.928a.925.925,0,0,0-.925-.925h-8.407a.925.925,0,0,0-.925.925v6.483h-5.6V56.928a.925.925,0,0,0-.925-.925h-8.407a.925.925,0,0,0-.925.925v6.483h-3.73a.925.925,0,0,0-.925.925V72.4a.925.925,0,0,0,.925.925h1.254v54.827h-9.542a.925.925,0,1,0,0,1.851h72.149a.925.925,0,1,0,0-1.851Zm-42.424-70.3h6.557V63.41h-6.557Zm-15.856,0h6.557V63.41h-6.557Zm-4.655,7.408h53.724v6.214H136.139Zm2.18,8.064h49.365v54.827H154.7V111.973a.925.925,0,0,0-.925-.925h-10.37a.925.925,0,0,0-.925.925v16.178h-4.162Zm14.533,54.827h-8.521V112.9h8.521Z" transform="translate(-112.893 -56.003)" fill="#ed4024"/>
    <g id="Ellipse_149" data-name="Ellipse 149" transform="translate(37.167 62.645)" fill="#ed4024" stroke="#f3c533" stroke-width="1">
      <circle cx="0.699" cy="0.699" r="0.699" stroke="none"/>
      <circle cx="0.699" cy="0.699" r="0.199" fill="none"/>
    </g>
  </g>
</svg>
