<svg xmlns="http://www.w3.org/2000/svg" width="66.529" height="65" viewBox="0 0 66.529 65">
  <g id="Group_9343" data-name="Group 9343" transform="translate(-982.765 -249)">
    <rect id="background" width="66.529" height="65" rx="12" transform="translate(982.765 249)" fill="#ebebff"/>
    <path id="coins_3_" data-name="coins (3)" d="M10.649,29.6a12.315,12.315,0,0,0,4.657-.884,12.113,12.113,0,0,0,4.657.884c4.85,0,8.649-2.528,8.649-5.758V18.458c0-3.229-3.8-5.758-8.649-5.758-.225,0-.446.01-.665.022V6.633C19.3,3.47,15.5,1,10.649,1S2,3.47,2,6.633V23.967C2,27.13,5.8,29.6,10.649,29.6Zm15.3-5.758c0,1.494-2.459,3.158-5.988,3.158s-5.988-1.664-5.988-3.158v-1.2a11.282,11.282,0,0,0,5.988,1.574,11.282,11.282,0,0,0,5.988-1.574ZM19.963,15.3c3.529,0,5.988,1.664,5.988,3.158s-2.459,3.156-5.988,3.156-5.988-1.664-5.988-3.156S16.434,15.3,19.963,15.3ZM10.649,3.6c3.529,0,5.988,1.6,5.988,3.033s-2.459,3.034-5.988,3.034-5.988-1.6-5.988-3.034S7.12,3.6,10.649,3.6ZM4.661,10.727a11.47,11.47,0,0,0,5.988,1.54,11.47,11.47,0,0,0,5.988-1.54v2.4a8.667,8.667,0,0,0-3.859,2.089,10.469,10.469,0,0,1-2.129.226c-3.529,0-5.988-1.6-5.988-3.033Zm0,5.779a11.482,11.482,0,0,0,5.988,1.539c.237,0,.466-.029.7-.04a3.939,3.939,0,0,0-.033.454v2.711c-.224.013-.439.055-.665.055-3.529,0-5.988-1.6-5.988-3.034Zm0,5.777a11.47,11.47,0,0,0,5.988,1.541c.224,0,.443-.017.665-.027v.047a4.451,4.451,0,0,0,1.223,2.981A10.668,10.668,0,0,1,10.649,27c-3.529,0-5.988-1.6-5.988-3.033Z" transform="translate(1001.235 265.7)" fill="#1921fa"/>
  </g>
</svg>

