<svg xmlns="http://www.w3.org/2000/svg" width="29" height="29" viewBox="0 0 29 29">
  <g id="Group_9361" data-name="Group 9361" transform="translate(-270.399 -349.02)">
    <path id="Path_9105" data-name="Path 9105" d="M132.631,118.6a14.5,14.5,0,1,1-14.5-14.5,14.5,14.5,0,0,1,14.5,14.5" transform="translate(166.768 244.918)" fill="#4d4d4d"/>
    <path id="Path_9106" data-name="Path 9106" d="M126.1,123.918v-5.264a1.324,1.324,0,1,0-2.649,0v5.269h-5.27a1.324,1.324,0,0,0,0,2.649h5.264v5.264a1.324,1.324,0,0,0,2.261.939,1.31,1.31,0,0,0,.388-.934v-5.27h5.27a1.316,1.316,0,0,0,.934-.387,1.325,1.325,0,0,0-.939-2.261Z" transform="translate(160.127 238.277)" fill="#fff"/>
  </g>
</svg>
