<svg xmlns="http://www.w3.org/2000/svg" width="32.491" height="32.264" viewBox="0 0 32.491 32.264">
  <g id="noun_Search_856450" opacity="0.63">
    <path id="Path_2313" data-name="Path 2313" d="M89.279,4.631a10.959,10.959,0,1,0,10.957,10.957A10.959,10.959,0,0,0,89.279,4.631m0-2.891a13.846,13.846,0,1,1-5.393,1.089A13.853,13.853,0,0,1,89.279,1.74h0Z" transform="translate(-75.422 -1.74)"/>
    <path id="Path_2314" data-name="Path 2314" d="M9.689,354.368l-6.954-6.953a1.757,1.757,0,0,0-2.4-.352,1.756,1.756,0,0,0,.352,2.4l6.954,6.954a1.76,1.76,0,0,0,2.4.355A1.76,1.76,0,0,0,9.689,354.368Z" transform="translate(22.113 -324.838)"/>
  </g>
</svg>
