<svg xmlns="http://www.w3.org/2000/svg" width="85" height="89.451" viewBox="0 0 85 89.451">
  <g id="Group_10053" data-name="Group 10053" transform="translate(-1221 -4631.549)">
    <g id="Rectangle_4890" data-name="Rectangle 4890" transform="translate(1221 4713)" fill="#fff" stroke="#000" stroke-width="1.9">
      <rect width="85" height="8" rx="4" stroke="none"/>
      <rect x="0.95" y="0.95" width="83.1" height="6.1" rx="3.05" fill="none"/>
    </g>
    <g id="Group_10050" data-name="Group 10050" transform="translate(767.854 4118.287)">
      <circle id="Ellipse_357" data-name="Ellipse 357" cx="6.543" cy="6.543" r="6.543" transform="translate(488.038 514.213)" fill="none" stroke="#1d1d1b" stroke-linecap="round" stroke-miterlimit="10" stroke-width="1.9"/>
      <path id="Path_9727" data-name="Path 9727" d="M517.309,522.969c-1.56,8.307-16.761,12.776-16.761,12.776l-.232,38.455h-17.2l-.211-38.455s-15.2-4.469-16.782-12.776c0,0-.843-4.469,3.036-4.828a5.311,5.311,0,0,1,4.111,1.539c2.572,2.4,9.171,7.59,18.447,7.737,9.276-.148,15.875-5.334,18.447-7.737a5.328,5.328,0,0,1,4.132-1.539C518.153,518.5,517.309,522.969,517.309,522.969Z" transform="translate(2.863 4.33)" fill="none" stroke="#1d1d1b" stroke-linecap="round" stroke-miterlimit="10" stroke-width="1.9"/>
      <rect id="Rectangle_4887" data-name="Rectangle 4887" width="25.679" height="17.182" transform="translate(481.739 578.53)" fill="none" stroke="#1d1d1b" stroke-linecap="round" stroke-miterlimit="10" stroke-width="1.9"/>
      <rect id="Rectangle_4888" data-name="Rectangle 4888" width="18.279" height="8.591" transform="translate(463.46 587.122)" fill="none" stroke="#1d1d1b" stroke-linecap="round" stroke-miterlimit="10" stroke-width="1.9"/>
      <rect id="Rectangle_4889" data-name="Rectangle 4889" width="20.471" height="12.797" transform="translate(507.417 582.915)" fill="none" stroke="#1d1d1b" stroke-linecap="round" stroke-miterlimit="10" stroke-width="1.9"/>
      <line id="Line_320" data-name="Line 320" y2="21.848" transform="translate(494.581 556.163)" fill="none" stroke="#1d1d1b" stroke-linecap="round" stroke-miterlimit="10" stroke-width="1.9"/>
    </g>
  </g>
</svg>
