<svg xmlns="http://www.w3.org/2000/svg" width="98.201" height="93.22" viewBox="0 0 98.201 93.22">
  <g id="Group_10049" data-name="Group 10049" transform="translate(-818.549 -342.963)">
    <path id="Path_9722" data-name="Path 9722" d="M915.546,389.228a45.5,45.5,0,1,1-91,0H819.94l5.2-9.009.487-.835,4.713-8.174,5.2,9.009.9,1.583,4.3,7.427h-5.1a34.4,34.4,0,1,0,34.4-34.4v-11.1A45.493,45.493,0,0,1,915.546,389.228Z" transform="translate(0.254 0.506)" fill="none" stroke="#1d1d1b" stroke-miterlimit="10" stroke-width="1.9"/>
    <path id="Path_9723" data-name="Path 9723" d="M840.576,357.631l14.214,21.322-11.365,16.235" transform="translate(20.515 13.189)" fill="none" stroke="#1d1d1b" stroke-linecap="round" stroke-miterlimit="10" stroke-width="1.9"/>
    <line id="Line_316" data-name="Line 316" x2="0.776" y2="10.868" transform="translate(864.807 343.978)" fill="none" stroke="#1d1d1b" stroke-linecap="round" stroke-miterlimit="10" stroke-width="1.9"/>
    <path id="Path_9724" data-name="Path 9724" d="M841.95,344.55l.017.122,2.122,10.922" transform="translate(16.265 0.601)" fill="none" stroke="#1d1d1b" stroke-linecap="round" stroke-miterlimit="10" stroke-width="1.9"/>
    <line id="Line_317" data-name="Line 317" x2="4.046" y2="10.134" transform="translate(851.369 347.717)" fill="none" stroke="#1d1d1b" stroke-linecap="round" stroke-miterlimit="10" stroke-width="1.9"/>
    <path id="Path_9725" data-name="Path 9725" d="M834.25,348.11l6.14,9.253,2.278,3.444" transform="translate(10.573 3.232)" fill="none" stroke="#1d1d1b" stroke-linecap="round" stroke-miterlimit="10" stroke-width="1.9"/>
    <path id="Path_9726" data-name="Path 9726" d="M830.95,350.71l.017.017,7.583,8.087" transform="translate(8.133 5.154)" fill="none" stroke="#1d1d1b" stroke-linecap="round" stroke-miterlimit="10" stroke-width="1.9"/>
    <line id="Line_318" data-name="Line 318" x2="8.289" y2="7.202" transform="translate(834.396 361.056)" fill="none" stroke="#1d1d1b" stroke-linecap="round" stroke-miterlimit="10" stroke-width="1.9"/>
    <line id="Line_319" data-name="Line 319" x2="9.044" y2="6.206" transform="translate(830.845 366.402)" fill="none" stroke="#1d1d1b" stroke-linecap="round" stroke-miterlimit="10" stroke-width="1.9"/>
  </g>
</svg>
