<svg xmlns="http://www.w3.org/2000/svg" xmlns:xlink="http://www.w3.org/1999/xlink" width="85.095" height="89.299" viewBox="0 0 85.095 89.299">
  <defs>
    <clipPath id="clip-path">
      <rect id="Rectangle_4847" data-name="Rectangle 4847" width="85.095" height="81.593" fill="none"/>
    </clipPath>
  </defs>
  <g id="Group_10051" data-name="Group 10051" transform="translate(-550.811 -4631.794)">
    <g id="Group_10048" data-name="Group 10048" transform="translate(550.811 4639.5)">
      <g id="Group_9366" data-name="Group 9366" clip-path="url(#clip-path)">
        <path id="Path_9115" data-name="Path 9115" d="M84.038,67.458A4.336,4.336,0,0,0,78.91,66.19L75.635,67.7c-1.6-2.118-3.537-1.93-6.358-1.282-2.111-1.427-6.354-.923-9.887.273a2.8,2.8,0,0,0-1.433-.767c-3.348-.795-11.154,2.2-13.54,3.238-1.034-.579-1.141-.639-7.382-4.211-10.2-5.836-21.925-1.327-22.414-1.134l-2.192.851V63.5a1.439,1.439,0,0,0-1.438-1.438H1.438A1.44,1.44,0,0,0,0,63.5V87.218a1.44,1.44,0,0,0,1.438,1.438h9.554a1.439,1.439,0,0,0,1.438-1.438V85.034c3.22.121,8.195.7,11.529,2.923,3.082,2.053,9.788,5.811,17.575,5.811a22.547,22.547,0,0,0,9.03-1.851l2.669-1.148c9.3-3.991,18.909-8.118,27.61-14.606,5.385-4.011,4.651-6.632,3.194-8.7M73.768,68.564l-15.575,7.2-2.416,1.116c-.069-.094-.143-.186-.221-.276A14.181,14.181,0,0,0,53.908,75c3.164-1.46,10.7-4.865,15.93-6.641l0,0c2.354-.522,3.262-.483,3.925.207m-7.639-.989c-5.561,2.138-12.081,5.142-14.005,6.04a18.858,18.858,0,0,0-1.7-1.051c2.047-.916,5.549-2.444,8.905-3.713a18.3,18.3,0,0,1,6.8-1.275m-17.9,3.753-1.362-.774-.25-.141a42.016,42.016,0,0,1,9.225-2.591c-3.409,1.4-6.456,2.916-7.613,3.506m-37.8,15.319H2.009V64.075h8.412V86.647Zm69.222-12.1h0c-8.51,6.346-18.013,10.425-27.2,14.37l-2.674,1.15c-10.4,4.5-20.735-1.148-24.693-3.786-3.754-2.509-9.191-3.138-12.644-3.263v-16.2l2.923-1.135c.113-.044,11.337-4.346,20.684,1.006,4.4,2.515,5.752,3.291,6.531,3.733l-.051.042,1.343.684.084.048c.008,0,.014.01.023.013.3.173.678.387,1.205.687.25.146.526.307.829.481l-.079.037,1.8.926.55.31.1.056c.185.109.376.215.566.321a26.542,26.542,0,0,1,3.3,2.2,22.141,22.141,0,0,1,1.826,1.79,2.126,2.126,0,0,1,.383.559l.025.06a2.188,2.188,0,0,1-.052,1.668,3.042,3.042,0,0,1-1.78,1.6c-1.748.63-3.688.677-7.472-1.135-6.688-3.193-16.3-4.32-16.7-4.366a1,1,0,0,0-.229,2c.1.011,9.685,1.135,16.066,4.183a14.428,14.428,0,0,0,6.156,1.723,8.335,8.335,0,0,0,2.863-.51,5.058,5.058,0,0,0,2.94-2.685,4.22,4.22,0,0,0,.3-2.379l20.134-9.311,2.93-1.355a2.356,2.356,0,0,1,2.8.584c.787,1.119,1.767,2.513-2.779,5.9" transform="translate(0 -12.175)"/>
      </g>
    </g>
    <path id="Path_9719" data-name="Path 9719" d="M8104,9482.939l-5.9,2.681v21.406l14.064-7.905,14.571,7.905-.781-21.406Z" transform="translate(-7521.004 -4825.945)" fill="none" stroke="#000" stroke-width="1.85"/>
    <path id="Path_8617" data-name="Path 8617" d="M35.336,17.668A17.668,17.668,0,1,1,17.668,0,17.668,17.668,0,0,1,35.336,17.668" transform="translate(573.328 4632.719)" fill="#fff" stroke="#000" stroke-width="1.85"/>
    <path id="Path_8618" data-name="Path 8618" d="M28.621,15.309l-8.283,0L19.3,12.12,17.78,7.428,15.216,15.3l-8.28,0,5.426,3.946,1.273.925-.5,1.547-2.061,6.331,6.7-4.864,6.7,4.868-2.554-7.878Z" transform="translate(573.218 4631.59)" fill="#2dab66"/>
  </g>
</svg>
