<svg xmlns="http://www.w3.org/2000/svg" width="33.41" height="41.031" viewBox="0 0 33.41 41.031">
  <g id="apple-seeklogo.com" opacity="0.44">
    <path id="Path_2359" data-name="Path 2359" d="M27.9,21.8a9.069,9.069,0,0,0,5.507,8.3,22.456,22.456,0,0,1-2.839,5.836c-1.71,2.5-3.485,4.99-6.281,5.042-2.747.051-3.631-1.629-6.772-1.629s-4.122,1.578-6.722,1.68c-2.7.1-4.754-2.7-6.478-5.193C.793,30.741-1.9,21.44,1.716,15.162a10.044,10.044,0,0,1,8.49-5.143c2.65-.051,5.152,1.783,6.772,1.783s4.659-2.2,7.855-1.881a9.585,9.585,0,0,1,7.5,4.07A9.279,9.279,0,0,0,27.9,21.8M22.739,6.551A9.037,9.037,0,0,0,24.873,0a9.2,9.2,0,0,0-6.044,3.11,8.587,8.587,0,0,0-2.177,6.347,7.61,7.61,0,0,0,6.087-2.905" transform="translate(0)"/>
  </g>
</svg>
