<svg xmlns="http://www.w3.org/2000/svg" width="832.12" height="1080" viewBox="0 0 932.12 1080">
  <path id="Subtraction_3" data-name="Subtraction 3" d="M1129.12-4954H308.452c-7.967-16.874-15.608-34.128-22.712-51.283-6.978-16.85-13.622-34.042-19.749-51.1-6.006-16.711-11.7-33.81-16.931-50.82-5.107-16.607-9.9-33.579-14.261-50.445-8.4-32.533-15.5-65.972-21.1-99.391-5.314-31.729-9.414-64.283-12.185-96.76-9.577-112.293-3.9-228.562,16.883-345.578,8.164-45.977,18.705-92.175,31.332-137.312,10.1-36.118,21.555-71.64,34.039-105.578,11.091-30.16,20.983-53.512,27.328-67.792,6.973-15.686,11.166-23.869,11.2-23.942H1129.12v1080Z" transform="translate(-197 6033.999)" fill="#f9d641"/>
</svg>
