<svg xmlns="http://www.w3.org/2000/svg" width="33.874" height="34.665" viewBox="0 0 33.874 34.665">
  <g id="google-glass-logo" transform="translate(1.5 1.5)">
    <g id="glass">
      <path id="Path_2360" data-name="Path 2360" d="M23.791,14.249v3.958h9.341a11.059,11.059,0,0,1-10.925,9.5A11.961,11.961,0,0,1,10.333,15.833,11.961,11.961,0,0,1,22.208,3.958,11.109,11.109,0,0,1,30.441,7.6l2.85-2.85A15.546,15.546,0,0,0,22.208,0a15.833,15.833,0,1,0,0,31.665c8.708,0,15.041-7.125,15.041-15.833V14.249Z" transform="translate(-6.375)" fill="#8b8b8b" stroke="#8b8b8b" stroke-width="3"/>
    </g>
  </g>
</svg>
