<?xml version="1.0" encoding="utf-8"?>
<!-- Generator: Adobe Illustrator 27.2.0, SVG Export Plug-In . SVG Version: 6.00 Build 0)  -->
<svg version="1.1" id="Layer_1" xmlns="http://www.w3.org/2000/svg" xmlns:xlink="http://www.w3.org/1999/xlink" x="0px" y="0px"
	 viewBox="0 0 122.09 122.09" style="enable-background:new 0 0 122.09 122.09;" xml:space="preserve">
<style type="text/css">
	.st0{fill:#FFFFFF;}
	.st1{fill:#F8D541;}
	.st2{fill:#606060;}
	.st3{fill:#5DC90A;}
</style>
<circle class="st0" cx="63.35" cy="58.73" r="47.52"/>
<path class="st1" d="M63.35,107.24c-26.75,0-48.52-21.76-48.52-48.52S36.6,10.21,63.35,10.21s48.52,21.76,48.52,48.52
	s-21.76,48.52-48.52,48.52L63.35,107.24z M63.35,12.21c-25.65,0-46.52,20.87-46.52,46.52s20.87,46.52,46.52,46.52
	s46.52-20.87,46.52-46.52S89,12.21,63.35,12.21z"/>
<path class="st2" d="M58.48,111.87c-22.63,0-42.48-16.04-47.2-38.14c-0.09-0.41,0.17-0.8,0.58-0.89c0.4-0.09,0.8,0.17,0.89,0.58
	c4.57,21.41,23.81,36.95,45.74,36.95c4.95,0,9.83-0.77,14.49-2.29c0.4-0.13,0.82,0.09,0.95,0.48c0.13,0.39-0.09,0.82-0.48,0.95
	c-4.81,1.57-9.85,2.36-14.96,2.36H58.48z M90.29,99.65c-0.2,0-0.41-0.08-0.56-0.25c-0.28-0.31-0.25-0.78,0.05-1.06
	c9.82-8.86,15.45-21.52,15.45-34.74v-0.19c0-0.41,0.33-0.75,0.74-0.76l0,0c0.41,0,0.75,0.33,0.75,0.74v0.2
	c0,13.64-5.81,26.71-15.95,35.85c-0.14,0.13-0.32,0.19-0.5,0.19L90.29,99.65z M10.96,64.4c-0.41,0-0.75-0.29-0.75-0.7v-0.1
	c0-13.6,5.79-26.65,15.88-35.78c0.31-0.28,0.78-0.25,1.06,0.05c0.28,0.31,0.25,0.78-0.05,1.06c-9.78,8.85-15.39,21.49-15.39,34.67
	C11.71,64.01,11.37,64.4,10.96,64.4z M104.92,54.28c-0.35,0-0.66-0.24-0.73-0.59c-4.61-21.36-23.83-36.86-45.71-36.86
	c-4.99,0-9.89,0.78-14.58,2.32c-0.4,0.13-0.82-0.09-0.95-0.48c-0.13-0.39,0.09-0.82,0.48-0.95c4.84-1.59,9.91-2.39,15.05-2.39
	c22.58,0,42.43,16,47.18,38.04c0.09,0.4-0.17,0.8-0.57,0.89C105.04,54.27,104.98,54.28,104.92,54.28L104.92,54.28z"/>
<polygon class="st3" points="86.17,35.37 53.43,68.11 40.47,55.15 31.46,64.16 53.43,86.13 95.18,44.38 "/>
</svg>
