<?xml version="1.0" encoding="utf-8"?>
<!-- Generator: Adobe Illustrator 27.2.0, SVG Export Plug-In . SVG Version: 6.00 Build 0)  -->
<svg version="1.1" id="Layer_1" xmlns="http://www.w3.org/2000/svg" xmlns:xlink="http://www.w3.org/1999/xlink" x="0px" y="0px"
	 viewBox="0 0 1920 1080" style="enable-background:new 0 0 1920 1080;" xml:space="preserve">
<style type="text/css">
	.st0{fill:#F8D541;}
	.st1{fill:none;stroke:#E8E8E8;stroke-width:4;stroke-miterlimit:10;}
	.st2{fill:none;}
</style>
<path class="st0" d="M0,0v726.91c0,0,102-86.91,174-246.91s71-223,289-259C668.64,187.04,736.36,104.14,817.24,0H0z"/>
<path class="st0" d="M1920,1080V508c0,0-87-7-174,60s-168,179-207,262s-63.13,181.43-148.07,217.21S1289.51,1080,1289.51,1080H1920z
	"/>
<path class="st1" d="M1404.95,1040.44C1388.38,1007.76,1379,970.52,1379,931c0-129.79,101.18-235,226-235s226,105.21,226,235
	c0,56.59-19.23,108.5-51.28,149.06"/>
<path class="st1" d="M362.64,0c51.82,50.94,83.86,121.29,83.86,199c0,150.9-120.84,274.05-272.62,281.16"/>
<path class="st2" d="M173.88,480.16c-0.47,0.02-0.94,0.06-1.42,0.08"/>
</svg>
