<svg xmlns="http://www.w3.org/2000/svg" xmlns:xlink="http://www.w3.org/1999/xlink" width="70.619" height="83.492" viewBox="0 0 70.619 83.492">
  <defs>
    <clipPath id="clip-path">
      <rect id="Rectangle_4849" data-name="Rectangle 4849" width="70.619" height="83.492" transform="translate(0 0)" fill="none"/>
    </clipPath>
  </defs>
  <g id="Group_9368" data-name="Group 9368" transform="translate(0 0)" clip-path="url(#clip-path)">
    <path id="Path_9122" data-name="Path 9122" d="M70.206,35.444a1.355,1.355,0,0,0-.208-.17l-.064-.037a1.576,1.576,0,0,0-.167-.088.689.689,0,0,0-.1-.033,1.292,1.292,0,0,0-.172-.049c-.05-.008-.1-.014-.167-.019l-.1-.008a.887.887,0,0,0-.225.022l-.108.021a1.277,1.277,0,0,0-.235.08,1.37,1.37,0,0,0-.418.284l-.495.5L67.68,39.27v.03A46.049,46.049,0,0,1,42.545,76.88l-7.262,3.66-7.234-3.654A45.6,45.6,0,0,1,3.841,45.634a1.391,1.391,0,0,0-2.719.593A48.368,48.368,0,0,0,26.8,79.374l7.862,3.97a1.4,1.4,0,0,0,1.252,0L43.8,79.367A48.447,48.447,0,0,0,70.616,36.446a1.389,1.389,0,0,0-.41-1"/>
    <path id="Path_9123" data-name="Path 9123" d="M62.964,40.724,48.75,26.509l5.973-5.973a1.389,1.389,0,0,0,0-1.967,1.423,1.423,0,0,0-1.967,0L45.8,25.526a1.389,1.389,0,0,0,0,1.967l1.323,1.323-.839.839L43.127,26.5a1.381,1.381,0,0,0-.983-.408h-8.5a1.388,1.388,0,0,0-.985.408l-3.74,3.74H24.854L23.48,28.862,24.738,27.6a1.393,1.393,0,0,0,0-1.967L17.67,18.569a1.426,1.426,0,0,0-1.968,0,1.393,1.393,0,0,0,0,1.967l6.085,6.085L7.578,40.831l-5.3-5.3v3.936l4.312,4.311a1.425,1.425,0,0,0,1.967,0l1.258-1.257,1.334,1.334-1.035,1.034a3.877,3.877,0,0,0,0,5.453l.653.652a3.81,3.81,0,0,0,2.382,1.11,3.8,3.8,0,0,0,1.109,2.381l.651.652a3.815,3.815,0,0,0,2.381,1.11,3.823,3.823,0,0,0,1.11,2.381l.652.652a3.8,3.8,0,0,0,2.381,1.109,3.815,3.815,0,0,0,1.11,2.381l.652.654a3.872,3.872,0,0,0,5.455,0l1.034-1.034,3.1,3.1a4.286,4.286,0,0,0,3.046,1.274h.014a4.284,4.284,0,0,0,3.039-1.254,4.334,4.334,0,0,0,1.179-2.158,4.336,4.336,0,0,0,.727.064h0a4.286,4.286,0,0,0,4.217-3.407,4.3,4.3,0,0,0,4.866-3.047,4.317,4.317,0,0,0,4.256-7.2l-.323-.323,6.966-6.967,1.191,1.19a1.394,1.394,0,0,0,1.968,0l3.728-3.907.076-3.824ZM42.573,48.459a1.394,1.394,0,0,0,0,1.968l4.254,4.254a1.539,1.539,0,0,1-1.088,2.626h0a1.527,1.527,0,0,1-1.086-.452l-4.246-4.244a1.423,1.423,0,0,0-1.967,0,1.393,1.393,0,0,0,0,1.967l3.441,3.441a1.54,1.54,0,0,1,0,2.171,1.579,1.579,0,0,1-2.179,0l-3.44-3.441A1.392,1.392,0,0,0,34.3,58.722l2.641,2.64a1.543,1.543,0,0,1,0,2.171,1.579,1.579,0,0,1-2.18,0l-3.1-3.107L32.7,59.4a3.875,3.875,0,0,0,0-5.452l-.653-.653a3.811,3.811,0,0,0-2.38-1.109,3.82,3.82,0,0,0-1.11-2.381l-.651-.653a3.821,3.821,0,0,0-2.381-1.109,3.823,3.823,0,0,0-1.11-2.38l-.652-.652a3.827,3.827,0,0,0-2.38-1.111,3.813,3.813,0,0,0-1.11-2.379l-.652-.653a3.878,3.878,0,0,0-5.454,0L13.123,41.9l-1.335-1.335,9.728-9.732L23.3,32.611a1.381,1.381,0,0,0,.733.385v.032h2.106l-2.963,2.953a1.391,1.391,0,0,0,0,1.968,7.513,7.513,0,0,0,10.613,0l2.324-2.323,10.4,10.4a1.523,1.523,0,0,0,.2.257l5.466,5.458a1.539,1.539,0,0,1,0,2.175,1.576,1.576,0,0,1-2.176,0l-5.457-5.457a1.394,1.394,0,0,0-1.968,0m-17.4,13.015-.651-.652a1.089,1.089,0,0,1,0-1.524l4.034-4.034a1.087,1.087,0,0,1,1.523,0l.652.651a1.087,1.087,0,0,1,0,1.524l-4.035,4.035a1.081,1.081,0,0,1-1.523,0M12.088,46.861l4.039-4.033a1.079,1.079,0,0,1,1.523,0l.651.652A1.086,1.086,0,0,1,18.3,45l-4.035,4.031a1.12,1.12,0,0,1-1.526,0l-.652-.651a1.089,1.089,0,0,1,0-1.524M16.227,51l4.035-4.034a1.08,1.08,0,0,1,1.522,0l.653.652a1.08,1.08,0,0,1,0,1.522l-4.032,4.033a1.118,1.118,0,0,1-1.526,0l-.651-.651a1.089,1.089,0,0,1,0-1.524m4.147,4.147,4.035-4.034a1.088,1.088,0,0,1,1.524,0l.652.651a1.082,1.082,0,0,1,0,1.523l-4.032,4.033a1.116,1.116,0,0,1-1.525,0l-.654-.652a1.082,1.082,0,0,1,0-1.523m31.51-7.7L37.1,32.674a1.382,1.382,0,0,0-.984-.408h0a1.377,1.377,0,0,0-.982.408l-3.311,3.311a4.712,4.712,0,0,1-5.547.837l7.947-7.943h7.341l3.742,3.741a1.427,1.427,0,0,0,1.969,0l1.777-1.79,9.729,9.728Z" fill="#ed4024"/>
    <path id="Path_9124" data-name="Path 9124" d="M2.533,29.792v0Z"/>
    <rect id="Rectangle_4848" data-name="Rectangle 4848" width="0.5" height="6.033" transform="translate(2.283 29.792)"/>
    <path id="Path_9125" data-name="Path 9125" d="M69.955,21.007,36.037.2A.6.6,0,0,0,35.97.168C35.925.144,35.878.122,35.835.1s-.06-.023-.12-.043c-.041-.013-.089-.024-.13-.033a1,1,0,0,0-.152-.021,1.189,1.189,0,0,0-.254,0c-.045,0-.092.011-.137.02s-.074.017-.128.032A1.191,1.191,0,0,0,34.786.1a1.45,1.45,0,0,0-.137.067L.664,21.008A1.4,1.4,0,0,0,0,22.193V35.825a1.479,1.479,0,0,0,0,.425A1.4,1.4,0,0,0,.414,37.6l2.368,2.369V36.139s-.022,0-.022-.082.02-.15.022-.231V22.973L35.31,3.021,67.837,22.973v7.114a1.391,1.391,0,1,0,2.782,0V22.193a1.4,1.4,0,0,0-.664-1.186M34.747.4Z"/>
  </g>
</svg>
