<svg xmlns="http://www.w3.org/2000/svg" xmlns:xlink="http://www.w3.org/1999/xlink" width="94.906" height="91" viewBox="0 0 94.906 91">
  <defs>
    <clipPath id="clip-path">
      <rect id="Rectangle_4847" data-name="Rectangle 4847" width="94.906" height="91" fill="none"/>
    </clipPath>
  </defs>
  <g id="Group_9366" data-name="Group 9366" clip-path="url(#clip-path)">
    <path id="Path_9115" data-name="Path 9115" d="M93.727,68.09a4.836,4.836,0,0,0-5.719-1.414l-3.653,1.688c-1.779-2.362-3.945-2.153-7.091-1.43-2.354-1.592-7.086-1.03-11.027.3a3.127,3.127,0,0,0-1.6-.856c-3.734-.886-12.44,2.453-15.1,3.612-1.153-.646-1.273-.712-8.233-4.7-11.376-6.509-24.453-1.48-25-1.265l-2.445.949v-1.3a1.605,1.605,0,0,0-1.6-1.6H1.6a1.606,1.606,0,0,0-1.6,1.6V90.128a1.606,1.606,0,0,0,1.6,1.6H12.26a1.605,1.605,0,0,0,1.6-1.6V87.693c3.591.135,9.14.775,12.859,3.26,3.438,2.29,10.917,6.48,19.6,6.48a25.147,25.147,0,0,0,10.072-2.065l2.977-1.281C69.74,89.636,80.461,85.034,90.165,77.8c6.006-4.474,5.187-7.4,3.562-9.708M82.274,69.323,64.9,77.357,62.208,78.6c-.077-.1-.16-.207-.246-.308A15.816,15.816,0,0,0,60.124,76.5C63.653,74.874,72.06,71.077,77.89,69.1l.005,0c2.625-.583,3.638-.539,4.378.23m-8.519-1.1c-6.2,2.385-13.474,5.735-15.62,6.736a21.032,21.032,0,0,0-1.9-1.172c2.284-1.022,6.189-2.725,9.932-4.141a20.405,20.405,0,0,1,7.588-1.422M53.785,72.406l-1.519-.863-.279-.158c2.664-1.029,7.3-2.617,10.288-2.889-3.8,1.562-7.2,3.252-8.491,3.91M11.623,89.492H2.241V64.317h9.382V89.492ZM88.826,76h0c-9.491,7.077-20.089,11.627-30.337,16.027l-2.983,1.282c-11.6,5.018-23.126-1.281-27.54-4.222-4.187-2.8-10.251-3.5-14.1-3.639V67.387l3.26-1.265c.126-.049,12.644-4.847,23.069,1.122,4.9,2.805,6.415,3.67,7.284,4.163l-.057.047,1.5.763.093.054c.009,0,.016.011.025.014.335.193.756.432,1.344.766.279.163.586.342.925.537l-.088.041,2,1.033c.2.11.4.224.613.346l.108.063c.206.122.419.24.631.358a29.6,29.6,0,0,1,3.685,2.448,24.694,24.694,0,0,1,2.037,2,2.371,2.371,0,0,1,.427.624l.028.067a2.44,2.44,0,0,1-.058,1.861,3.393,3.393,0,0,1-1.985,1.782c-1.949.7-4.114.755-8.334-1.265C42.915,79.38,32.2,78.123,31.745,78.072A1.12,1.12,0,0,0,31.49,80.3c.108.013,10.8,1.266,17.918,4.665a16.091,16.091,0,0,0,6.866,1.921,9.3,9.3,0,0,0,3.193-.569,5.641,5.641,0,0,0,3.279-3,4.706,4.706,0,0,0,.336-2.654L85.538,70.282l3.268-1.511a2.628,2.628,0,0,1,3.12.652c.878,1.248,1.971,2.8-3.1,6.578" transform="translate(0 -6.433)"/>
    <path id="Path_9116" data-name="Path 9116" d="M35.8,52.381H65.373a4.662,4.662,0,0,0,4.657-4.658V10A4.659,4.659,0,0,0,65.373,5.35H60.307a12.032,12.032,0,0,0-1.154-1.586A10.825,10.825,0,0,0,50.856,0,10.993,10.993,0,0,0,41.406,5.35H35.8A4.657,4.657,0,0,0,31.144,10V47.723A4.66,4.66,0,0,0,35.8,52.381M50.856,2.242a8.788,8.788,0,1,1-8.788,8.787,8.937,8.937,0,0,1,.063-1.055,8.642,8.642,0,0,1,.924-2.988v0a8.765,8.765,0,0,1,7.8-4.742M33.385,10A2.414,2.414,0,0,1,35.8,7.59h4.58c-.087.263-.162.531-.229.8l-.009.03a10.885,10.885,0,0,0-.206,1.144c-.013.1-.024.192-.034.288a11.025,11.025,0,1,0,21.988,1.178,11.376,11.376,0,0,0-.069-1.177c-.011-.1-.022-.193-.035-.289a10.845,10.845,0,0,0-.206-1.144l-.008-.027c-.066-.271-.142-.538-.229-.8h4.036A2.416,2.416,0,0,1,67.789,10V47.723a2.419,2.419,0,0,1-2.416,2.417H35.8a2.417,2.417,0,0,1-2.411-2.417Z" transform="translate(-3.233 0)"/>
    <path id="Path_9117" data-name="Path 9117" d="M52.574,17.224l5.266-8.2a1.12,1.12,0,0,0-1.886-1.211l-3.8,5.917-1.979-1.886a1.12,1.12,0,0,0-1.545,1.623Z" transform="translate(-5.011 -0.758)" fill="#ed4024"/>
    <path id="Path_9118" data-name="Path 9118" d="M39.229,29.41H63.117a1.12,1.12,0,1,0,0-2.241H39.229a1.12,1.12,0,0,0,0,2.241" transform="translate(-3.955 -2.82)" fill="#ed4024"/>
    <path id="Path_9119" data-name="Path 9119" d="M39.229,34.377H63.117a1.12,1.12,0,1,0,0-2.241H39.229a1.12,1.12,0,0,0,0,2.241" transform="translate(-3.955 -3.336)" fill="#ed4024"/>
    <path id="Path_9120" data-name="Path 9120" d="M39.229,39.345H51.581a1.12,1.12,0,0,0,0-2.241H39.229a1.12,1.12,0,0,0,0,2.241" transform="translate(-3.955 -3.851)" fill="#ed4024"/>
  </g>
</svg>
