<svg xmlns="http://www.w3.org/2000/svg" xmlns:xlink="http://www.w3.org/1999/xlink" width="67.276" height="91" viewBox="0 0 67.276 91">
  <defs>
    <clipPath id="clip-path">
      <rect id="Rectangle_4836" data-name="Rectangle 4836" width="67.276" height="91" fill="none"/>
    </clipPath>
  </defs>
  <g id="Group_9345" data-name="Group 9345" clip-path="url(#clip-path)">
    <path id="Path_9040" data-name="Path 9040" d="M24.621,44.381l-.089,0a1.467,1.467,0,0,1-1.375-1.552c.314-5.256,4.367-7.694,7.269-8.5V21.406a1.465,1.465,0,1,1,2.931,0V35.515a1.463,1.463,0,0,1-1.274,1.452c-.227.032-5.689.857-6,6.037a1.466,1.466,0,0,1-1.462,1.377" transform="translate(14.129 12.168)"/>
    <path id="Path_9041" data-name="Path 9041" d="M40.157,64.064H14.191A1.467,1.467,0,0,1,12.724,62.6V57.415a34.8,34.8,0,0,0-1.565-10.323L9.674,42.306a1.448,1.448,0,0,1-.066-.433V38.183a1.465,1.465,0,1,1,2.931,0v3.468l1.42,4.573a37.736,37.736,0,0,1,1.7,11.191v3.718H38.692v-9.22a1.466,1.466,0,0,1,.393-1l6.365-6.837A9.633,9.633,0,0,0,48.039,37.5V23.42a3.363,3.363,0,0,0-2.916-3.439,3.212,3.212,0,0,0-3.5,3.2,1.465,1.465,0,1,1-2.931,0,6.138,6.138,0,0,1,6.684-6.116,6.31,6.31,0,0,1,5.6,6.359V37.5A12.555,12.555,0,0,1,47.6,46.074l-5.974,6.417V62.6a1.465,1.465,0,0,1-1.465,1.465" transform="translate(5.863 10.396)"/>
    <path id="Path_9042" data-name="Path 9042" d="M41.379,54.89H11.926a1.466,1.466,0,0,1-1.465-1.467V45.889a1.466,1.466,0,0,1,1.465-1.467H41.379a1.466,1.466,0,0,1,1.465,1.467v7.534a1.466,1.466,0,0,1-1.465,1.467M13.392,51.958H39.913v-4.6H13.392Z" transform="translate(6.383 27.107)"/>
    <path id="Path_9043" data-name="Path 9043" d="M48.548,61.037H8.7a1.465,1.465,0,0,1-1.465-1.465v-9A1.465,1.465,0,0,1,8.7,49.1H48.548a1.467,1.467,0,0,1,1.467,1.465v9a1.467,1.467,0,0,1-1.467,1.465M10.163,58.106H47.083V52.034H10.163Z" transform="translate(4.413 29.963)"/>
    <path id="Path_9044" data-name="Path 9044" d="M65.811,50.044H55.367A1.465,1.465,0,0,1,53.9,48.579V33.573a3.208,3.208,0,1,0-6.417,0V48.579a1.464,1.464,0,0,1-1.465,1.465H1.465A1.464,1.464,0,0,1,0,48.579V1.465A1.464,1.464,0,0,1,1.465,0H65.811a1.464,1.464,0,0,1,1.465,1.465V6.149a1.465,1.465,0,1,1-2.931,0V2.931H2.931V47.113H44.555V33.573a6.139,6.139,0,1,1,12.278,0v13.54h7.513V14.046a1.465,1.465,0,1,1,2.931,0V48.579a1.464,1.464,0,0,1-1.465,1.465" transform="translate(0 0)"/>
    <path id="Path_9045" data-name="Path 9045" d="M31.852,7.732H17.305a1.465,1.465,0,0,1,0-2.931H31.852a1.465,1.465,0,0,1,0,2.931" transform="translate(9.666 2.929)" fill="#ed4024"/>
    <path id="Path_9046" data-name="Path 9046" d="M53.17,11.847H7.705a1.465,1.465,0,0,1,0-2.931H53.17a1.465,1.465,0,0,1,0,2.931" transform="translate(3.808 5.44)" fill="#ed4024"/>
    <path id="Path_9047" data-name="Path 9047" d="M53.17,15.961H7.705a1.465,1.465,0,0,1,0-2.931H53.17a1.465,1.465,0,0,1,0,2.931" transform="translate(3.808 7.951)" fill="#ed4024"/>
    <path id="Path_9048" data-name="Path 9048" d="M44.638,20.075H7.706a1.465,1.465,0,1,1,0-2.931H40a1.465,1.465,0,0,1,0,2.931" transform="translate(3.807 10.461)" fill="#ed4024"/>
    <path id="Path_9049" data-name="Path 9049" d="M42.212,24.19H7.705a1.465,1.465,0,0,1,0-2.931H38.748a1.465,1.465,0,0,1,0,2.931" transform="translate(3.808 12.972)" fill="#ed4024"/>
    <path id="Path_9050" data-name="Path 9050" d="M64.422,57.625H1.55a1.465,1.465,0,1,1,0-2.931H64.422a1.465,1.465,0,0,1,0,2.931" transform="translate(0.051 33.375)"/>
  </g>
</svg>
