<svg xmlns="http://www.w3.org/2000/svg" xmlns:xlink="http://www.w3.org/1999/xlink" width="93.25" height="76.499" viewBox="0 0 93.25 76.499">
  <defs>
    <clipPath id="clip-path">
      <rect id="Rectangle_4840" data-name="Rectangle 4840" width="93.25" height="76.499" fill="none"/>
    </clipPath>
  </defs>
  <g id="Group_9353" data-name="Group 9353" clip-path="url(#clip-path)">
    <path id="Path_9068" data-name="Path 9068" d="M20.27,19.866a7.779,7.779,0,0,1-7.59-7.939,7.779,7.779,0,0,1,7.59-7.939,7.777,7.777,0,0,1,7.588,7.939,7.777,7.777,0,0,1-7.588,7.939m0-12.839a4.741,4.741,0,0,0-4.551,4.9,4.741,4.741,0,0,0,4.551,4.9,4.74,4.74,0,0,0,4.55-4.9,4.74,4.74,0,0,0-4.55-4.9" transform="translate(8.49 2.67)"/>
    <path id="Path_9069" data-name="Path 9069" d="M17.835,56.021A1.519,1.519,0,0,1,16.316,54.5V32.1a1.519,1.519,0,0,1,3.039,0V54.5a1.519,1.519,0,0,1-1.519,1.519" transform="translate(10.925 20.477)"/>
    <path id="Path_9070" data-name="Path 9070" d="M35.54,70.922H21.978A1.518,1.518,0,0,1,20.459,69.4V29.134A30.145,30.145,0,0,1,.713,15.9,4.987,4.987,0,0,1,8.47,9.757,40.8,40.8,0,0,0,22.24,18.966H35.278A40.781,40.781,0,0,0,49.049,9.757,4.986,4.986,0,0,1,56.806,15.9,30.142,30.142,0,0,1,37.061,29.134V69.4a1.52,1.52,0,0,1-1.521,1.519M23.5,67.883H34.021V27.862a1.52,1.52,0,0,1,1.284-1.5c9.5-1.508,15.993-7.2,18.9-12.031a1.952,1.952,0,0,0-.472-2.544A1.92,1.92,0,0,0,51.2,11.9,42.334,42.334,0,0,1,36.013,21.93,1.512,1.512,0,0,1,35.54,22H21.978a1.512,1.512,0,0,1-.472-.075A42.359,42.359,0,0,1,6.321,11.905a1.915,1.915,0,0,0-2.529-.12,1.95,1.95,0,0,0-.472,2.544c2.9,4.828,9.395,10.523,18.9,12.031a1.521,1.521,0,0,1,1.284,1.5Z" transform="translate(0 5.576)"/>
    <path id="Path_9071" data-name="Path 9071" d="M75,46.722H29.563a1.519,1.519,0,1,1,0-3.039H75a2.627,2.627,0,0,0,2.623-2.625V5.663A2.627,2.627,0,0,0,75,3.039H20.319a1.519,1.519,0,1,1,0-3.039H75a5.668,5.668,0,0,1,5.662,5.663v35.4A5.668,5.668,0,0,1,75,46.722" transform="translate(12.586 -0.001)"/>
    <path id="Path_9072" data-name="Path 9072" d="M56.355,8.831H38.627a1.519,1.519,0,0,1,0-3.039H56.355a1.519,1.519,0,1,1,0,3.039" transform="translate(24.847 3.878)" fill="#ed4024"/>
    <path id="Path_9073" data-name="Path 9073" d="M58.933,12.692H38.627a1.519,1.519,0,0,1,0-3.039H58.933a1.519,1.519,0,0,1,0,3.039" transform="translate(24.847 6.463)" fill="#ed4024"/>
    <path id="Path_9074" data-name="Path 9074" d="M48.026,32.97a9.793,9.793,0,1,1,9.792-9.792,9.8,9.8,0,0,1-9.792,9.792m0-16.546a6.753,6.753,0,1,0,6.752,6.753,6.761,6.761,0,0,0-6.752-6.753" transform="translate(25.601 8.961)" fill="#ed4024"/>
    <path id="Path_9075" data-name="Path 9075" d="M51.106,29.94a1.507,1.507,0,0,1-.962-.344l-6.4-5.244a1.52,1.52,0,0,1-.558-1.175V14.9a1.52,1.52,0,0,1,3.04,0v7.553l5.84,4.788a1.519,1.519,0,0,1-.963,2.695" transform="translate(28.919 8.961)" fill="#ed4024"/>
    <path id="Path_9076" data-name="Path 9076" d="M41.137,24.519H28.46a1.519,1.519,0,1,1,0-3.039H41.137a1.519,1.519,0,1,1,0,3.039" transform="translate(18.039 14.382)" fill="#ed4024"/>
    <path id="Path_9077" data-name="Path 9077" d="M38.839,47.038H36.408a1.519,1.519,0,1,1,0-3.039h2.431a1.519,1.519,0,1,1,0,3.039" transform="translate(23.36 29.461)"/>
    <path id="Path_9078" data-name="Path 9078" d="M43.225,47.038H40.786a1.519,1.519,0,1,1,0-3.039h2.439a1.519,1.519,0,0,1,0,3.039" transform="translate(26.291 29.461)"/>
    <path id="Path_9079" data-name="Path 9079" d="M47.6,47.038H45.169a1.519,1.519,0,1,1,0-3.039H47.6a1.519,1.519,0,1,1,0,3.039" transform="translate(29.226 29.461)"/>
    <path id="Path_9080" data-name="Path 9080" d="M55.687,47.038H7.611a1.519,1.519,0,0,1,0-3.039H55.687a1.519,1.519,0,0,1,0,3.039" transform="translate(4.079 29.461)"/>
  </g>
</svg>
