<svg xmlns="http://www.w3.org/2000/svg" width="319.824" height="138.591" viewBox="0 0 319.824 138.591">
  <g id="air-conditioner_1_" data-name="air-conditioner (1)" transform="translate(0 0.001)" opacity="0.1">
    <path id="Path_48" data-name="Path 48" d="M293.172.5H26.652A26.683,26.683,0,0,0,0,27.152v85.287a26.683,26.683,0,0,0,26.652,26.652h266.52a26.683,26.683,0,0,0,26.652-26.652V27.152A26.683,26.683,0,0,0,293.172.5ZM271.851,128.43H47.974V112.439a5.331,5.331,0,0,1,5.33-5.33H266.52a5.331,5.331,0,0,1,5.33,5.33Zm37.313-15.991a15.992,15.992,0,0,1-15.991,15.991H282.511V112.439A15.992,15.992,0,0,0,266.52,96.447H53.3a15.992,15.992,0,0,0-15.991,15.991V128.43H26.652a15.992,15.992,0,0,1-15.991-15.991V27.152A15.992,15.992,0,0,1,26.652,11.161h266.52a15.992,15.992,0,0,1,15.991,15.991Zm0,0" transform="translate(0 -0.501)" fill="#fff"/>
    <path id="Path_59" data-name="Path 59" d="M336,48.5h53.3V59.161H336Zm0,0" transform="translate(-112.123 -16.518)" fill="#fff"/>
    <path id="Path_60" data-name="Path 60" d="M304,48.5H314.66V59.161H304Zm0,0" transform="translate(-101.445 -16.518)" fill="#fff"/>
  </g>
</svg>
