<svg xmlns="http://www.w3.org/2000/svg" width="17.737" height="18.187" viewBox="0 0 17.737 18.187">
  <path id="Icon" d="M760.408,840.211a.365.365,0,0,0-.509,0l-9.83,9.616a3.926,3.926,0,0,1-5.448,0,3.722,3.722,0,0,1,0-5.329l9.83-9.617a2.683,2.683,0,0,1,3.81.146,2.545,2.545,0,0,1,.149,3.727l-9.234,9.034a1.348,1.348,0,0,1-1.874,0,1.278,1.278,0,0,1,0-1.833l6.255-6.119a.346.346,0,0,0,0-.5.365.365,0,0,0-.509,0l-6.255,6.119a1.972,1.972,0,0,0,0,2.829,2.08,2.08,0,0,0,2.892,0l9.235-9.034a3.223,3.223,0,0,0-.149-4.724,3.4,3.4,0,0,0-4.829-.146L744.111,844a4.417,4.417,0,0,0,0,6.326,4.658,4.658,0,0,0,6.467,0l9.83-9.616A.347.347,0,0,0,760.408,840.211Z" transform="translate(-742.777 -833.444)" fill="#6a707e"/>
</svg>
