<svg xmlns="http://www.w3.org/2000/svg" width="428.193" height="180.154" viewBox="0 0 428.193 180.154">
  <path id="Path_9786" data-name="Path 9786" d="M1760.124,162.015V139.824h-59.892q-11.336,0-17-5.13t-5.667-13.959a13.526,13.526,0,0,1,.835-4.593,23.716,23.716,0,0,1,2.505-4.891q1.67-2.564,3.46-4.951t4.414-5.846l63.233-84.589a96.292,96.292,0,0,1,10.2-12.11,13.522,13.522,0,0,1,9.6-3.758q18.134,0,18.135,20.759V113.1h5.13q9.186,0,14.734,2.505t5.548,10.976q0,6.92-4.534,10.082t-13.6,3.161h-7.278v22.191q0,9.188-4.056,13.66a15.195,15.195,0,0,1-21.654-.119q-4.116-4.591-4.116-13.541m-51.3-48.916h51.3V43.782Z" transform="translate(-1677.564 0.004)" fill="#f9d641"/>
  <path id="Path_9787" data-name="Path 9787" d="M2201.191,92.925a204.6,204.6,0,0,1-2.386,33.644,78.352,78.352,0,0,1-8.829,25.532,58.643,58.643,0,0,1-21,21.714,57.035,57.035,0,0,1-61.145-2.625q-14.379-10.26-21.655-28.4a105.5,105.5,0,0,1-5.428-21.893,182,182,0,0,1-1.73-25.949,249.2,249.2,0,0,1,1.909-32.452,107.1,107.1,0,0,1,5.965-24.816q7.039-17.18,20.461-26.188T2139.39,2.49a59.752,59.752,0,0,1,22.31,4,50.919,50.919,0,0,1,17.6,11.692,66.9,66.9,0,0,1,12.826,19.03q9.066,19.685,9.067,55.716m-32.69-2.386q0-21.833-2.625-35.732t-8.829-21q-6.2-7.1-17.18-7.1-15.749,0-21.893,15.868t-6.145,48.916q0,22.431,2.625,36.746t8.829,21.654q6.2,7.337,16.822,7.337,10.975,0,17.18-7.636t8.709-21.833q2.506-14.2,2.506-37.224" transform="translate(-1925.352 -1.536)" fill="#f9d641"/>
  <path id="Path_9788" data-name="Path 9788" d="M2518.777,162.015V139.824h-59.892q-11.336,0-17-5.13t-5.667-13.959a13.506,13.506,0,0,1,.836-4.593,23.712,23.712,0,0,1,2.5-4.891q1.67-2.564,3.46-4.951t4.414-5.846l63.233-84.589a96.29,96.29,0,0,1,10.2-12.11A13.521,13.521,0,0,1,2530.47,0Q2548.6,0,2548.6,20.755V113.1h5.13q9.186,0,14.734,2.505t5.548,10.976q0,6.92-4.533,10.082t-13.6,3.161H2548.6v22.191q0,9.188-4.056,13.66a15.2,15.2,0,0,1-21.655-.119q-4.116-4.591-4.116-13.541m-51.3-48.916h51.3V43.782Z" transform="translate(-2145.824 0.004)" fill="#f9d641"/>
</svg>
