<svg xmlns="http://www.w3.org/2000/svg" xmlns:xlink="http://www.w3.org/1999/xlink" width="185.558" height="123.106" viewBox="0 0 185.558 123.106">
  <defs>
    <clipPath id="clip-path">
      <rect id="Rectangle_4924" data-name="Rectangle 4924" width="45.458" height="51.765" fill="none"/>
    </clipPath>
    <clipPath id="clip-path-2">
      <rect id="Rectangle_4925" data-name="Rectangle 4925" width="52.165" height="18.039" fill="none"/>
    </clipPath>
    <clipPath id="clip-path-4">
      <rect id="Rectangle_4928" data-name="Rectangle 4928" width="5.114" height="105.848" fill="none"/>
    </clipPath>
    <clipPath id="clip-path-5">
      <rect id="Rectangle_4929" data-name="Rectangle 4929" width="54.327" height="67.145" fill="none"/>
    </clipPath>
    <clipPath id="clip-path-6">
      <rect id="Rectangle_4931" data-name="Rectangle 4931" width="3.311" height="51.763" fill="none"/>
    </clipPath>
    <clipPath id="clip-path-7">
      <rect id="Rectangle_4933" data-name="Rectangle 4933" width="6.316" height="18.039" fill="none"/>
    </clipPath>
    <clipPath id="clip-path-9">
      <rect id="Rectangle_4936" data-name="Rectangle 4936" width="38.316" height="48.487" fill="none"/>
    </clipPath>
  </defs>
  <g id="Group_10037" data-name="Group 10037" transform="translate(0 35.672)" style="isolation: isolate">
    <g id="Group_10036" data-name="Group 10036">
      <g id="Group_10035" data-name="Group 10035" clip-path="url(#clip-path)">
        <path id="Path_9789" data-name="Path 9789" d="M1915.139,1161.753H1883.4a13.72,13.72,0,0,1-13.72-13.72V1123.7a13.683,13.683,0,0,1,4.819-10.438h0a13.659,13.659,0,0,1,8.9-3.278h31.737Z" transform="translate(-1869.682 -1109.988)" fill="#ffc801"/>
      </g>
    </g>
  </g>
  <path id="Path_9790" data-name="Path 9790" d="M2050.9,1145.19h-63.394a17.728,17.728,0,0,1-17.726-17.73v-70.391a17.727,17.727,0,0,1,17.726-17.726H2050.9Z" transform="translate(-1931.466 -1030.712)" fill="#f7da61"/>
  <path id="Path_9791" data-name="Path 9791" d="M2195.666,1019.123v118.452a2.327,2.327,0,0,1-2.327,2.327h-9.3a2.327,2.327,0,0,1-2.327-2.327V1019.123a2.327,2.327,0,0,1,2.327-2.327h9.3a2.327,2.327,0,0,1,2.327,2.327" transform="translate(-2062.272 -1016.796)" fill="#f9d641"/>
  <g id="Group_10040" data-name="Group 10040" transform="translate(133.393 27.629)" style="isolation: isolate">
    <g id="Group_10039" data-name="Group 10039">
      <g id="Group_10038" data-name="Group 10038" clip-path="url(#clip-path-2)">
        <path id="Path_9792" data-name="Path 9792" d="M2218.172,1107.016v-18.039h43.143a9.02,9.02,0,0,1,0,18.039Z" transform="translate(-2218.171 -1088.977)" fill="#f5b400"/>
      </g>
    </g>
  </g>
  <g id="Group_10043" data-name="Group 10043" transform="translate(133.393 77.438)" style="isolation: isolate">
    <g id="Group_10042" data-name="Group 10042">
      <g id="Group_10041" data-name="Group 10041" clip-path="url(#clip-path-2)">
        <path id="Path_9793" data-name="Path 9793" d="M2218.172,1237.141V1219.1h43.143a9.02,9.02,0,0,1,0,18.039Z" transform="translate(-2218.171 -1219.102)" fill="#f5b400"/>
      </g>
    </g>
  </g>
  <path id="Path_9794" data-name="Path 9794" d="M2050.9,1145.19h-63.394a17.728,17.728,0,0,1-17.726-17.73v-70.391a17.727,17.727,0,0,1,17.726-17.726c5.281,76.006,63.394,82.988,63.394,82.988Z" transform="translate(-1931.466 -1030.712)" fill="#f9d641"/>
  <g id="Group_10046" data-name="Group 10046" transform="translate(114.323 8.629)" style="isolation: isolate">
    <g id="Group_10045" data-name="Group 10045">
      <g id="Group_10044" data-name="Group 10044" clip-path="url(#clip-path-4)">
        <rect id="Rectangle_4927" data-name="Rectangle 4927" width="5.112" height="105.848" transform="translate(0.001 0.001)" fill="#ffc801"/>
      </g>
    </g>
  </g>
  <g id="Group_10049" data-name="Group 10049" transform="translate(38.315 47.332)" style="isolation: isolate">
    <g id="Group_10048" data-name="Group 10048">
      <g id="Group_10047" data-name="Group 10047" clip-path="url(#clip-path-5)">
        <path id="Path_9795" data-name="Path 9795" d="M2024.109,1207.6h-36.6a17.728,17.728,0,0,1-17.726-17.73v-49.415c0,49.9,54.326,67.145,54.326,67.145" transform="translate(-1969.782 -1140.452)" fill="#ffc801"/>
      </g>
    </g>
  </g>
  <g id="Group_10052" data-name="Group 10052" transform="translate(35.004 35.672)" style="isolation: isolate">
    <g id="Group_10051" data-name="Group 10051">
      <g id="Group_10050" data-name="Group 10050" clip-path="url(#clip-path-6)">
        <rect id="Rectangle_4930" data-name="Rectangle 4930" width="3.313" height="51.763" transform="translate(-0.001)" fill="#f5b400"/>
      </g>
    </g>
  </g>
  <g id="Group_10055" data-name="Group 10055" transform="translate(133.393 27.629)" style="isolation: isolate">
    <g id="Group_10054" data-name="Group 10054">
      <g id="Group_10053" data-name="Group 10053" clip-path="url(#clip-path-7)">
        <rect id="Rectangle_4932" data-name="Rectangle 4932" width="6.316" height="18.039" transform="translate(0.001)" fill="#f5b400"/>
      </g>
    </g>
  </g>
  <g id="Group_10058" data-name="Group 10058" transform="translate(133.393 77.438)" style="isolation: isolate">
    <g id="Group_10057" data-name="Group 10057">
      <g id="Group_10056" data-name="Group 10056" clip-path="url(#clip-path-7)">
        <rect id="Rectangle_4934" data-name="Rectangle 4934" width="6.316" height="18.039" transform="translate(0.001)" fill="#f5b400"/>
      </g>
    </g>
  </g>
  <g id="Group_10061" data-name="Group 10061" transform="translate(0 38.949)" style="isolation: isolate">
    <g id="Group_10060" data-name="Group 10060">
      <g id="Group_10059" data-name="Group 10059" clip-path="url(#clip-path-9)">
        <path id="Path_9796" data-name="Path 9796" d="M1908,1167.038h-24.6a13.72,13.72,0,0,1-13.72-13.72v-24.329a13.683,13.683,0,0,1,4.819-10.438h0c-4.651,37.921,33.493,43.712,33.493,43.712Z" transform="translate(-1869.682 -1118.551)" fill="#f5b400"/>
      </g>
    </g>
  </g>
</svg>
