<svg xmlns="http://www.w3.org/2000/svg" width="20.25" height="20.25" viewBox="0 0 20.25 20.25">
  <g id="Icon_feather-settings" data-name="Icon feather-settings" transform="translate(0.625 0.625)">
    <path id="Path_7579" data-name="Path 7579" d="M18.682,16.091A2.591,2.591,0,1,1,16.091,13.5,2.591,2.591,0,0,1,18.682,16.091Z" transform="translate(-6.591 -6.591)" fill="none" stroke="#535353" stroke-linecap="round" stroke-linejoin="round" stroke-width="1.25"/>
    <path id="Path_7580" data-name="Path 7580" d="M17.391,13.591a1.425,1.425,0,0,0,.285,1.572l.052.052a1.728,1.728,0,1,1-2.444,2.444l-.052-.052A1.437,1.437,0,0,0,12.8,18.626v.147a1.727,1.727,0,1,1-3.455,0V18.7a1.425,1.425,0,0,0-.933-1.3,1.425,1.425,0,0,0-1.572.285l-.052.052a1.728,1.728,0,1,1-2.444-2.444l.052-.052A1.437,1.437,0,0,0,3.374,12.8H3.227a1.727,1.727,0,1,1,0-3.455h.078a1.425,1.425,0,0,0,1.3-.933,1.425,1.425,0,0,0-.285-1.572l-.052-.052A1.728,1.728,0,1,1,6.716,4.341l.052.052a1.425,1.425,0,0,0,1.572.285h.069a1.425,1.425,0,0,0,.864-1.3V3.227a1.727,1.727,0,1,1,3.455,0v.078a1.437,1.437,0,0,0,2.435,1.019l.052-.052a1.728,1.728,0,1,1,2.444,2.444l-.052.052a1.425,1.425,0,0,0-.285,1.572v.069a1.425,1.425,0,0,0,1.3.864h.147a1.727,1.727,0,1,1,0,3.455H18.7a1.425,1.425,0,0,0-1.3.864Z" transform="translate(-1.5 -1.5)" fill="none" stroke="#535353" stroke-linecap="round" stroke-linejoin="round" stroke-width="1.25"/>
  </g>
</svg>
