<svg xmlns="http://www.w3.org/2000/svg" width="21.918" height="21.918" viewBox="0 0 21.918 21.918">
  <g id="noun_profile_2879468" transform="translate(0.5 0.5)">
    <g id="Group_9" data-name="Group 9" transform="translate(0)">
      <path id="Union_3" data-name="Union 3" d="M0,10.459A10.459,10.459,0,1,1,10.459,20.918,10.471,10.471,0,0,1,0,10.459Zm4.287,5.3-.4,1.664a9.553,9.553,0,0,0,13.136,0l-.4-1.664a3.729,3.729,0,0,0-3.641-2.876H7.929A3.73,3.73,0,0,0,4.287,15.758ZM12.99,12a4.608,4.608,0,0,1,4.5,3.553l.263,1.106a9.579,9.579,0,1,0-14.584,0l.263-1.105A4.609,4.609,0,0,1,7.929,12ZM6.275,7.157a4.184,4.184,0,1,1,4.184,4.184A4.184,4.184,0,0,1,6.275,7.157Zm.881,0a3.3,3.3,0,1,0,3.3-3.3A3.307,3.307,0,0,0,7.156,7.157Z" fill="#535353" stroke="#535353" stroke-width="1"/>
    </g>
  </g>
</svg>
