<svg xmlns="http://www.w3.org/2000/svg" width="196.414" height="43.753" viewBox="0 0 196.414 43.753">
  <g id="Group_9963" data-name="Group 9963" transform="translate(-82.61 -225.652)">
    <g id="Layer_4" data-name="Layer 4" transform="translate(102.039 232.198)">
      <g id="Group_9955" data-name="Group 9955" transform="translate(0)">
        <g id="Group_9950" data-name="Group 9950" transform="translate(0.549)">
          <path id="Path_9625" data-name="Path 9625" d="M151.9,273.79a18.124,18.124,0,0,0,.012-29l-10.879,14.494Z" transform="translate(-141.029 -244.793)" fill="#d0cfd0"/>
        </g>
        <g id="Group_9951" data-name="Group 9951" transform="translate(0.514 14.494)">
          <path id="Path_9626" data-name="Path 9626" d="M140.926,287.175" transform="translate(-140.926 -287.175)" fill="#bbbbba"/>
        </g>
        <g id="Group_9952" data-name="Group 9952" transform="translate(0.549 3.917)">
          <path id="Path_9627" data-name="Path 9627" d="M148.319,277a12.516,12.516,0,0,0-.6-20.749l-6.69,10.577Z" transform="translate(-141.029 -256.246)" fill="#bbbbba"/>
        </g>
        <g id="Group_9953" data-name="Group 9953" transform="translate(0 7.595)">
          <path id="Path_9628" data-name="Path 9628" d="M142.925,267a7.738,7.738,0,0,1,.768,13.349l-4.27-6.45Z" transform="translate(-139.423 -267.003)" fill="#a1a0a0"/>
        </g>
        <g id="Group_9954" data-name="Group 9954" transform="translate(1.11 14.494)">
          <path id="Path_9629" data-name="Path 9629" d="M142.669,287.175" transform="translate(-142.669 -287.175)" fill="#a1a0a0"/>
        </g>
      </g>
    </g>
    <g id="Layer_2" data-name="Layer 2" transform="translate(131.766 237.54)">
      <g id="Group_9958" data-name="Group 9958" transform="translate(0 0)">
        <path id="Path_9630" data-name="Path 9630" d="M235.456,266.19a8.775,8.775,0,0,1,6.554,2.631,10.05,10.05,0,0,1,.036,13.46,9.415,9.415,0,0,1-13.094.035,10.05,10.05,0,0,1-.036-13.46A8.774,8.774,0,0,1,235.456,266.19Zm4.744,14.38a7.765,7.765,0,0,0-.027-10.041,6.58,6.58,0,0,0-9.41.025,7.684,7.684,0,0,0,.027,10.041,6.58,6.58,0,0,0,9.411-.025Z" transform="translate(-226.348 -264.215)" fill="#0f0f0f"/>
        <path id="Path_9631" data-name="Path 9631" d="M292.788,284.466a4.37,4.37,0,0,0-1.2,3.17l.018,6.66-2.435.007-.035-12.993,1.4,0,.777,2.761h.088a5.7,5.7,0,0,1,5.126-3.092,5.435,5.435,0,0,1,4.206,1.83,6.8,6.8,0,0,1,1.677,4.713l.018,6.749-2.4.007-.018-6.66a4.368,4.368,0,0,0-1.22-3.163,4.122,4.122,0,0,0-3.031-1.228A3.989,3.989,0,0,0,292.788,284.466Z" transform="translate(-267.662 -273.943)" fill="#0f0f0f"/>
        <path id="Path_9632" data-name="Path 9632" d="M338.752,283.854l-.05-18.682,2.435-.007.05,18.682Z" transform="translate(-300.279 -263.54)" fill="#0f0f0f"/>
        <path id="Path_9633" data-name="Path 9633" d="M357.078,294.753l-.035-12.993,2.4-.006.035,12.992Z" transform="translate(-312.348 -274.456)" fill="#0f0f0f"/>
        <path id="Path_9634" data-name="Path 9634" d="M378.771,284.234a4.37,4.37,0,0,0-1.2,3.169l.018,6.66-2.435.007-.035-12.993,1.4,0,.777,2.76h.089a5.7,5.7,0,0,1,5.126-3.092,5.439,5.439,0,0,1,4.206,1.831,6.8,6.8,0,0,1,1.678,4.713l.018,6.749-2.4.006-.018-6.66a4.368,4.368,0,0,0-1.22-3.163,4.12,4.12,0,0,0-3.031-1.228A3.986,3.986,0,0,0,378.771,284.234Z" transform="translate(-324.241 -273.79)" fill="#0f0f0f"/>
        <path id="Path_9635" data-name="Path 9635" d="M429.559,280.619a6.507,6.507,0,0,1,6.818,6.806c0,.114-.024.455-.061,1.01l-11.075.029a4.033,4.033,0,0,0,1.71,2.569,5.806,5.806,0,0,0,3.459.949,7.307,7.307,0,0,0,4.45-1.3l.472,2.169a9.326,9.326,0,0,1-10.547-.463,6.3,6.3,0,0,1-2.107-4.927,6.6,6.6,0,0,1,1.942-4.925A6.75,6.75,0,0,1,429.559,280.619Zm4.355,5.627a3.372,3.372,0,0,0-1.369-2.418,4.739,4.739,0,0,0-2.98-.963,4.376,4.376,0,0,0-2.8.928,4.281,4.281,0,0,0-1.532,2.477Z" transform="translate(-355.536 -273.709)" fill="#0f0f0f"/>
        <path id="Path_9636" data-name="Path 9636" d="M487.274,266.436l-7.209,7.412,8.014,10.675-3.986.011-6.481-8.51-3.121,3.112.015,5.424-3.255.008-.048-18.089,3.255-.009.024,8.868h.088l8.706-8.892Z" transform="translate(-387.467 -264.377)" fill="#0f0f0f"/>
        <path id="Path_9637" data-name="Path 9637" d="M534.928,282.154a6.783,6.783,0,0,1,1.893,4.952c0,.152-.024.518-.06,1.111l-10.458.028c.5,1.752,2.139,2.833,4.662,2.826a7.557,7.557,0,0,0,4.286-1.147l.6,2.711a8.963,8.963,0,0,1-4.9,1.313,8.368,8.368,0,0,1-5.758-1.877,6.246,6.246,0,0,1-2.145-4.927A6.6,6.6,0,0,1,525,282.205a6.83,6.83,0,0,1,4.978-1.93A6.693,6.693,0,0,1,534.928,282.154Zm-1.214,3.825a2.677,2.677,0,0,0-1.141-2.015,4.152,4.152,0,0,0-2.563-.788A3.681,3.681,0,0,0,526.272,286Z" transform="translate(-421.58 -273.483)" fill="#0f0f0f"/>
        <path id="Path_9638" data-name="Path 9638" d="M576.342,295.583a2.005,2.005,0,0,1,.66,1.524,2.169,2.169,0,0,1-.929,1.908,4.31,4.31,0,0,1-2.471.65,4.772,4.772,0,0,1-2.221-.474l.488-1.452a3.278,3.278,0,0,0,1.577.412c.757,0,1.374-.332,1.335-.988,0-.719-.609-1.247-2.009-1.181l-.191-.781.69-1.39a11.315,11.315,0,0,1-4.961-1.538l.851-2.387A8.4,8.4,0,0,0,574.1,291.4c1.375,0,2.294-.561,2.292-1.432a1.194,1.194,0,0,0-.583-1.071,7.866,7.866,0,0,0-2.185-.726,9,9,0,0,1-3.523-1.516,3.16,3.16,0,0,1-1.218-2.633,3.393,3.393,0,0,1,1.342-2.766,6.385,6.385,0,0,1,4.046-1.1,10.12,10.12,0,0,1,2.524.359,10.91,10.91,0,0,1,2.134.738l-.637,2.31a8.31,8.31,0,0,0-3.988-.948c-1.577,0-2.4.6-2.393,1.394a1.159,1.159,0,0,0,.633.982,8.378,8.378,0,0,0,2.21.776,8.686,8.686,0,0,1,3.536,1.517,3.273,3.273,0,0,1,1.1,2.621,3.425,3.425,0,0,1-1.116,2.614,5.243,5.243,0,0,1-2.961,1.282l-.565.973a.147.147,0,0,0,.025.089A2.609,2.609,0,0,1,576.342,295.583Z" transform="translate(-451.365 -273.408)" fill="#0f0f0f"/>
        <path id="Path_9639" data-name="Path 9639" d="M609.086,294.119l-.034-12.967,3.053-.009.035,12.968Z" transform="translate(-478.173 -274.054)" fill="#0f0f0f"/>
        <path id="Path_9640" data-name="Path 9640" d="M629.871,268.555l0,.669,5.235-.014.007,2.636-5.235.014.028,10.331-3.053.009-.028-10.331-3.053.008-.007-2.636,3.053-.009,0-1.211a4.657,4.657,0,0,1,1.453-3.6,5.473,5.473,0,0,1,3.857-1.36,11.257,11.257,0,0,1,2.966.459l-.27,2.738a6.107,6.107,0,0,0-2.36-.423C630.723,265.84,629.854,266.751,629.871,268.555Z" transform="translate(-487.857 -262.156)" fill="#0f0f0f"/>
        <g id="Group_9956" data-name="Group 9956" transform="translate(43.139)">
          <circle id="Ellipse_345" data-name="Ellipse 345" cx="2.809" cy="2.809" r="2.809" fill="#ed4024"/>
        </g>
        <g id="Group_9957" data-name="Group 9957" transform="translate(129.621)">
          <circle id="Ellipse_346" data-name="Ellipse 346" cx="2.809" cy="2.809" r="2.809" fill="#f9d641"/>
        </g>
      </g>
    </g>
    <g id="Layer_7" data-name="Layer 7" transform="translate(82.61 226.8)">
      <g id="Group_9959" data-name="Group 9959">
        <path id="Path_9641" data-name="Path 9641" d="M117.977,270.183a1.37,1.37,0,0,1-1.05-.488c-.154-.182-1.592-1.889-3.513-4.193a19.73,19.73,0,0,1-11.863,3.242,20,20,0,0,1-18.918-18.918,19.877,19.877,0,0,1,19.856-20.814c.758,0,3.307-.12,3.246,1.426-.064,1.609-2.488,1.319-3.246,1.319A17.133,17.133,0,0,0,85.375,249.7a17.238,17.238,0,0,0,16.3,16.3,17.015,17.015,0,0,0,9.969-2.626c-3.02-3.642-6.545-7.947-8.3-10.285-3.2-4.262-1.359-8.168.085-9.672l7.087-8.209a4.248,4.248,0,0,1,3.074-1.466,4.158,4.158,0,0,1,3.1,1.239,19.877,19.877,0,0,1-.476,28.283q-.3.29-.618.566c1.955,2.346,3.391,4.05,3.429,4.095a1.373,1.373,0,0,1-1.049,2.258Zm-4.249-33.7h-.047A1.493,1.493,0,0,0,112.6,237l-7.113,8.238q-.028.033-.058.064c-.249.263-2.428,2.743.118,6.137,1.718,2.291,5.27,6.627,8.3,10.276q.242-.214.477-.439a17.131,17.131,0,0,0,.41-24.376A1.385,1.385,0,0,0,113.727,236.486Z" transform="translate(-82.61 -229.009)" fill="#484747"/>
      </g>
    </g>
    <g id="Layer_6" data-name="Layer 6" transform="translate(102.588 225.652)">
      <g id="Group_9960" data-name="Group 9960" transform="translate(0)">
        <circle id="Ellipse_347" data-name="Ellipse 347" cx="2.804" cy="2.804" r="2.804" fill="#ed4024"/>
      </g>
    </g>
    <g id="Layer_5" data-name="Layer 5" transform="translate(115.102 263.797)">
      <g id="Group_9961" data-name="Group 9961">
        <circle id="Ellipse_348" data-name="Ellipse 348" cx="2.804" cy="2.804" r="2.804" fill="#f9d641"/>
      </g>
    </g>
  </g>
</svg>
