<svg id="Group_10332" data-name="Group 10332" xmlns="http://www.w3.org/2000/svg" xmlns:xlink="http://www.w3.org/1999/xlink" width="48" height="45.195" viewBox="0 0 48 45.195">
  <defs>
    <clipPath id="clip-path">
      <rect id="Rectangle_5289" data-name="Rectangle 5289" width="48" height="45.195"/>
    </clipPath>
  </defs>
  <g id="Group_10240" data-name="Group 10240" clip-path="url(#clip-path)">
    <path id="Path_10555" data-name="Path 10555" d="M56.218,95.694c3.568,0,7.146-.128,10.714.032a15.216,15.216,0,0,1,11.761,6.132A16.228,16.228,0,0,1,70.2,127.569a17.347,17.347,0,0,1-4.743.6H45.365a3.883,3.883,0,0,1-.79-.053,1.006,1.006,0,0,1-.78-1.015.953.953,0,0,1,.812-.929,3.378,3.378,0,0,1,.737-.053H65.6a14.406,14.406,0,0,0,6.505-1.41,13.832,13.832,0,0,0,7.445-8.674A14.187,14.187,0,0,0,68.566,97.969a15.828,15.828,0,0,0-3.023-.256c-6.73-.021-13.47-.011-20.2-.011a3.882,3.882,0,0,1-.79-.053,1,1,0,0,1-.769-1.025.951.951,0,0,1,.823-.919,2.944,2.944,0,0,1,.684-.043H56.218v.032" transform="translate(-39.105 -85.429)"/>
    <path id="Path_10556" data-name="Path 10556" d="M204.142,6.122c.588.16,1.2.3,1.773.491A20.645,20.645,0,0,1,219.887,20.5a21.022,21.022,0,0,1-9.6,24.472,1.4,1.4,0,0,1-.588.214c-2.008.021-4.016.011-6.025-.053.577-.15,1.154-.278,1.72-.459,6.228-2.094,10.522-6.228,12.359-12.519,2.115-7.274.363-13.737-5.085-19.078A17.787,17.787,0,0,0,203,8.226c-1.068-.182-1.357-.534-1.357-1.613,0-.534-.011-1.068,0-1.6a1.176,1.176,0,0,1,1.25-1.282c.149,0,.249,0,.374,0,.432.006.545-.128.534-.545-.032-1.132.117-.951-.972-.951-2.147-.011-4.3.011-6.452-.011-.491-.011-.618.114-.609.619,0,.09,0,.149,0,.267,0,.48.118.641.609.63,1.207-.032,1.549.342,1.549,1.549,0,.534.011,1.068,0,1.6a1.13,1.13,0,0,1-1.143,1.25,1.115,1.115,0,0,1-1.09-1.25v-.16c0-.726,0-.726-.758-.737-.993-.011-1.4-.406-1.4-1.389q-.016-1.65,0-3.3c.011-.908.406-1.3,1.3-1.3h9.913c.876,0,1.293.417,1.3,1.314.011,1.068.011,2.136,0,3.194,0,1.079-.4,1.474-1.485,1.485h-.417c0,.053-.011.1-.011.128" transform="translate(-172.854 -0.001)"/>
    <path id="Path_10557" data-name="Path 10557" d="M219.123,172.868a1.139,1.139,0,0,1-.514-.049c-.536-.176-.853.334-1.222.693-.246.235-.47.491-.726.705a1.047,1.047,0,0,1-1.41-.021,1.035,1.035,0,0,1-.032-1.41c.353-.417.79-.769,1.143-1.186a.95.95,0,0,0,.214-.641,2.288,2.288,0,0,1,2.574-2.66.867.867,0,0,0,.833-.288q3.028-3.044,6.067-6.067a2.982,2.982,0,0,1,.523-.449.885.885,0,0,1,1.164.139.914.914,0,0,1,.2,1.207,2.705,2.705,0,0,1-.481.566q-3.012,3.012-6.035,6.014a.9.9,0,0,0-.31.876,2.287,2.287,0,0,1-1.992,2.571" transform="translate(-191.996 -144.104)"/>
    <path id="Path_10558" data-name="Path 10558" d="M8.845,240.407h-7.4a4.452,4.452,0,0,1-.534-.011,1.009,1.009,0,0,1,0-2.008,3.617,3.617,0,0,1,.481-.011H16.247a2.715,2.715,0,0,1,.588.032,1,1,0,0,1,.053,1.955,3.126,3.126,0,0,1-.63.043Z" transform="translate(0 -212.912)"/>
    <path id="Path_10559" data-name="Path 10559" d="M32.873,317.218H25.791a2.713,2.713,0,0,1-.588-.032,1,1,0,0,1-.8-.993.987.987,0,0,1,.812-.983,3.548,3.548,0,0,1,.588-.032H40.072a3.612,3.612,0,0,1,.481.011,1.014,1.014,0,0,1-.011,2.019,4.4,4.4,0,0,1-.534.011H32.873" transform="translate(-21.795 -281.508)"/>
    <path id="Path_10560" data-name="Path 10560" d="M33.125,161.36H40.26a2.982,2.982,0,0,1,.534.021,1.013,1.013,0,0,1,.855.951,1,1,0,0,1-.812,1.036,3.548,3.548,0,0,1-.588.032H25.818c-.769-.011-1.228-.4-1.218-1.025s.47-1,1.239-1.015c2.414-.011,4.85,0,7.285,0" transform="translate(-21.972 -144.12)"/>
    <path id="Path_10561" data-name="Path 10561" d="M241.951,131.234c0-.246-.021-.5,0-.737a1.017,1.017,0,0,1,1.015-.9.984.984,0,0,1,.983.865,10.572,10.572,0,0,1,0,1.645,1.009,1.009,0,0,1-2.008-.021c-.021-.288.011-.577.011-.855" transform="translate(-216.09 -115.756)"/>
    <path id="Path_10562" data-name="Path 10562" d="M243.831,335.975c0,.246.011.491,0,.748a1,1,0,0,1-1,.972.987.987,0,0,1-1.025-.94,11.5,11.5,0,0,1,0-1.485,1.01,1.01,0,0,1,2.019.021,4.871,4.871,0,0,1,.011.684" transform="translate(-215.95 -298.588)"/>
    <path id="Path_10563" data-name="Path 10563" d="M339.622,240.218c-.246,0-.5.021-.748,0a1.01,1.01,0,0,1-.972-1,.994.994,0,0,1,.951-1.015,12.3,12.3,0,0,1,1.538,0,1.009,1.009,0,0,1,.021,2.008c-.256.032-.534,0-.79.011" transform="translate(-301.807 -212.733)"/>
    <path id="Path_10564" data-name="Path 10564" d="M310.724,306.2a3.092,3.092,0,0,1,2.019,2.03.993.993,0,0,1-1.506.812,6.194,6.194,0,0,1-1.357-1.389.973.973,0,0,1,.844-1.453" transform="translate(-276.648 -273.49)"/>
  </g>
</svg>
