<svg id="Group_10333" data-name="Group 10333" xmlns="http://www.w3.org/2000/svg" xmlns:xlink="http://www.w3.org/1999/xlink" width="32.906" height="56" viewBox="0 0 32.906 56">
  <defs>
    <clipPath id="clip-path">
      <rect id="Rectangle_5287" data-name="Rectangle 5287" width="32.906" height="56"/>
    </clipPath>
  </defs>
  <g id="Group_10236" data-name="Group 10236" clip-path="url(#clip-path)">
    <path id="Path_10530" data-name="Path 10530" d="M9.782,53.231V54.76c.49,0,.968,0,1.446,0a.6.6,0,0,1,.6.544.611.611,0,0,1-.47.684.864.864,0,0,1-.175.012H7.122a.624.624,0,1,1,.012-1.244H8.507V53.228c-.222,0-.435,0-.645,0a.622.622,0,0,1-.669-.684v-2H6.963c-.953,0-1.905-.016-2.858-.016-.684,0-1.369.012-2.053.016q-.688.006-1.376,0A.628.628,0,0,1,0,49.86V30.146q0-6.083,0-12.171c0-1.155-.019-2.306.008-3.461A10.025,10.025,0,0,1,2.087,8.589,10.208,10.208,0,0,1,7,5.028,9.573,9.573,0,0,1,9.537,4.51c.043,0,.089-.012.152-.019,0-.086.012-.167.012-.249V.723A.633.633,0,0,1,10.427,0q3.744,0,7.485,0a.606.606,0,0,1,.642.649c0,1.2,0,2.4,0,3.6v.229c.292.035.579.062.863.1a10.354,10.354,0,0,1,8.554,7.839,9.992,9.992,0,0,1,.28,2.329v2.212h3.9a.649.649,0,0,1,.747.747v2.994a.633.633,0,0,1-.708.708c-1.225,0-2.45,0-3.674,0h-.261V33.6h3.912a.642.642,0,0,1,.735.739v2.994a.627.627,0,0,1-.7.708c-1.233,0-2.461,0-3.694,0h-.249V49.806c0,.517-.261.743-.778.727-.451-.016-.9.008-1.357.008-.334,0-.673-.008-1.007-.008-.2,0-.4.012-.6.012H21.078V51.1c0,.474,0,.945,0,1.419a.645.645,0,0,1-.7.7H19.74v1.528h.179c.416,0,.828,0,1.244,0a.622.622,0,0,1,0,1.244c-1.373,0-2.749,0-4.122,0a.62.62,0,1,1,.008-1.24c.467,0,.933,0,1.415,0V53.228c-.124,0-.249-.008-.377,0-.747.043-.992-.222-.96-.949.023-.49,0-.984,0-1.478v-.249H11.127V52.57a.627.627,0,0,1-.642.657c-.233.008-.459,0-.7,0M27,49.3V25.71q0-4.87,0-9.74a20.606,20.606,0,0,0-.058-2.247,8.813,8.813,0,0,0-1.489-4,.391.391,0,0,0-.377-.194q-5.232.006-10.46,0-5.745,0-11.49,0a.291.291,0,0,0-.272.132,8.918,8.918,0,0,0-1.594,4.853c-.027.937-.008,1.878-.008,2.815V49.3ZM4.047,8.267H24.216a8.973,8.973,0,0,0-6.151-2.531c-2.531-.035-5.063,0-7.6-.008a9.107,9.107,0,0,0-4.938,1.38A8.871,8.871,0,0,0,4.047,8.267m13.251-7h-6.33V4.475H17.3ZM31.646,34.875H28.256v1.917h3.391Zm0-16.638H28.259v1.917h3.387ZM9.864,50.564H8.456v1.4H9.864Zm8.515-.016v1.322c0,.121.078.109.159.109.272,0,.544,0,.813,0h.455V50.564a.535.535,0,0,0-.1-.016Z" transform="translate(0)"/>
    <path id="Path_10531" data-name="Path 10531" d="M248.867,600.771a4.646,4.646,0,0,1-4.565-4.032,4.516,4.516,0,0,1,.486-2.726q1.464-2.794,2.912-5.591c.2-.389.412-.778.607-1.17a.609.609,0,0,1,.579-.354.594.594,0,0,1,.579.35c.358.7.712,1.392,1.073,2.088q.817,1.563,1.637,3.126c.338.649.715,1.279.991,1.952a4.61,4.61,0,0,1-3.69,6.307c-.2.023-.4.035-.61.05m.035-11.9a.22.22,0,0,0-.051.043q-1.5,2.893-3.006,5.782a3.063,3.063,0,0,0-.3,1.925,3.371,3.371,0,1,0,6.322-2.045c-.47-.887-.925-1.777-1.388-2.667q-.782-1.511-1.579-3.037" transform="translate(-234.765 -564.077)"/>
    <path id="Path_10532" data-name="Path 10532" d="M77.03,447.181v-9.83a.636.636,0,0,1,.447-.688.621.621,0,0,1,.8.622c0,.75,0,1.5,0,2.255v16.615c0,.3,0,.595,0,.89a.618.618,0,0,1-.591.661.606.606,0,0,1-.657-.634c0-1.5,0-3.006,0-4.507v-5.385" transform="translate(-74.033 -419.659)"/>
    <path id="Path_10533" data-name="Path 10533" d="M223.974,1151.957c1.147,0,2.294,0,3.441,0a.62.62,0,0,1,.579.929.636.636,0,0,1-.6.323H220.47a.626.626,0,0,1-.638-.49.61.61,0,0,1,.393-.716,1.112,1.112,0,0,1,.342-.042c1.139,0,2.271,0,3.406,0" transform="translate(-211.271 -1107.163)"/>
    <path id="Path_10534" data-name="Path 10534" d="M493.214,1153.252h-1.361a.634.634,0,0,1-.68-.641.626.626,0,0,1,.669-.606q1.371-.006,2.737,0a.635.635,0,0,1,.7.638.641.641,0,0,1-.708.61c-.451,0-.906,0-1.357,0" transform="translate(-472.074 -1107.206)"/>
  </g>
</svg>
