<svg id="Group_10239" data-name="Group 10239" xmlns="http://www.w3.org/2000/svg" xmlns:xlink="http://www.w3.org/1999/xlink" width="48" height="32" viewBox="0 0 48 32">
  <defs>
    <clipPath id="clip-path">
      <rect id="Rectangle_5288" data-name="Rectangle 5288" width="48" height="32"/>
    </clipPath>
  </defs>
  <g id="Group_10238" data-name="Group 10238" clip-path="url(#clip-path)">
    <path id="Path_10535" data-name="Path 10535" d="M23.995,0C30.211,0,36.4.02,42.621,0a5.412,5.412,0,0,1,4.1,1.542A4.485,4.485,0,0,1,47.99,4.728c0,2.875.024,5.75,0,8.625a4.451,4.451,0,0,1-2.637,4.1,5.125,5.125,0,0,1-2.308.562q-7.206.031-14.411.021H6.852A24.03,24.03,0,0,1,4.4,17.977,4.723,4.723,0,0,1,.094,14.186,5.613,5.613,0,0,1,0,13.1v-8A5.4,5.4,0,0,1,.4,2.832,4.823,4.823,0,0,1,4.333.041,6.273,6.273,0,0,1,5.416.02Q14.705-.011,23.995,0m0,9.812H46.106c.188,0,.259-.042.259-.208V5.04c0-.312-.024-.625-.047-.937A3.032,3.032,0,0,0,43.7,1.5a7.519,7.519,0,0,0-1.366-.083H5.91c-.353,0-.73,0-1.083.021a3.348,3.348,0,0,0-2.637,1.4,3.042,3.042,0,0,0-.518,1.833c-.024,1.6,0,3.208,0,4.812,0,.271.071.333.377.333H23.995M6.452,16.6v-.979a3.029,3.029,0,0,1,.494-1.667,3.51,3.51,0,0,1,3.132-1.5H38.241A3.181,3.181,0,0,1,41.349,14.6a8.884,8.884,0,0,1,.188,1.771c.024.167.071.25.283.229.377-.021.754,0,1.107-.021a3.262,3.262,0,0,0,3.414-2.792c.047-.667.024-1.354.047-2.021,0-.562.118-.542-.612-.542H2.025c-.259,0-.353.062-.353.312.024.625,0,1.25,0,1.875a2.9,2.9,0,0,0,.848,2.1c1.013,1.125,2.425,1.187,3.932,1.083m33.461.021v-1.25a.9.9,0,0,0-.024-.25,1.693,1.693,0,0,0-1.86-1.208H9.749a1.578,1.578,0,0,0-1.672,1.5v.833c0,.4,0,.4.424.4H39.348a4.517,4.517,0,0,1,.565-.021" transform="translate(0 0.001)"/>
    <path id="Path_10536" data-name="Path 10536" d="M85.667,117.4c-.024.354-.024.687-.047,1.042A.817.817,0,1,1,84,118.28c.047-.667.047-1.333.094-2,.047-.583.565-.854,1.177-.646a.684.684,0,0,1,.447.75c0,.354-.024.687-.047,1.021" transform="translate(-64.215 -91.489)"/>
    <path id="Path_10537" data-name="Path 10537" d="M34.532,101.641c-.094.667-.165,1.333-.259,1.979a.82.82,0,0,1-.895.6.674.674,0,0,1-.683-.708c.047-.75.094-1.5.165-2.25a.789.789,0,0,1,.824-.667.817.817,0,0,1,.8.708v.333Z" transform="translate(-24.996 -79.642)"/>
    <path id="Path_10538" data-name="Path 10538" d="M112.567,117.591c-.024-.312-.047-.646-.071-.958a.769.769,0,0,1,.824-.833.7.7,0,0,1,.8.583c.047.354.047.708.071,1.062s0,.687.047,1.042a.755.755,0,0,1-.659.917.77.77,0,0,1-.942-.771,5.273,5.273,0,0,1-.071-1.042h0" transform="translate(-86.005 -91.675)"/>
    <path id="Path_10539" data-name="Path 10539" d="M58.126,119.079c-.118.625-.259,1.4-.424,2.167a.8.8,0,0,1-.895.521.671.671,0,0,1-.612-.708c.024-.25.071-.5.118-.75.071-.437.118-.9.188-1.333.024-.083.024-.167.047-.25a.813.813,0,0,1,.895-.562c.377.021.683.375.683.917" transform="translate(-42.962 -93.539)"/>
    <path id="Path_10540" data-name="Path 10540" d="M143.4,139.49a.7.7,0,0,1,.612-.687.772.772,0,0,1,.871.333c.212.354.377.75.612,1.083a.764.764,0,0,0,.377.25.733.733,0,0,1,.589.75.71.71,0,0,1-.73.625,2.275,2.275,0,0,1-.918-.229,3.489,3.489,0,0,1-1.389-1.937.572.572,0,0,1-.024-.187" transform="translate(-109.633 -109.867)"/>
    <path id="Path_10541" data-name="Path 10541" d="M59.872,99.111v.958a.841.841,0,0,1-.683.812.811.811,0,0,1-.989-.792c.024-.687.047-1.375.094-2.083a.806.806,0,0,1,.824-.708.793.793,0,0,1,.777.667,4.5,4.5,0,0,1,.024.562v.562c0,.021-.024.021-.047.021" transform="translate(-44.495 -77.029)"/>
    <path id="Path_10542" data-name="Path 10542" d="M163.271,101.753a1.776,1.776,0,0,1,0-.354.773.773,0,0,1,.824-.6.741.741,0,0,1,.777.646c.071.75.141,1.5.165,2.25.024.4-.259.646-.706.687a.776.776,0,0,1-.871-.583c-.094-.667-.188-1.354-.259-2.042Z" transform="translate(-124.771 -79.796)"/>
    <path id="Path_10543" data-name="Path 10543" d="M138.247,99.049c0-.354-.024-.687,0-1.042a.777.777,0,0,1,.777-.708.768.768,0,0,1,.8.708c.047.708.071,1.417.094,2.125a.823.823,0,0,1-.754.75.759.759,0,0,1-.871-.583,11.159,11.159,0,0,1-.094-1.25h.047" transform="translate(-105.657 -77.029)"/>
    <path id="Path_10544" data-name="Path 10544" d="M48.284,141.781a.8.8,0,0,1-.8-.646c-.047-.271.235-.6.565-.729a.98.98,0,0,0,.424-.292,6.269,6.269,0,0,0,.447-.875.835.835,0,0,1,1.107-.479.664.664,0,0,1,.377,1.021,13.155,13.155,0,0,1-.989,1.5,1.239,1.239,0,0,1-1.13.5" transform="translate(-36.298 -109.803)"/>
    <path id="Path_10545" data-name="Path 10545" d="M141.415,121.027c0,.208-.259.479-.706.542a.706.706,0,0,1-.824-.521c-.141-.625-.235-1.271-.353-1.9a2.063,2.063,0,0,1-.047-.354.793.793,0,0,1,.659-.833.82.82,0,0,1,.918.6c.141.771.212,1.521.353,2.458" transform="translate(-106.636 -93.383)"/>
    <path id="Path_10546" data-name="Path 10546" d="M83.038,137.5c-.141.625-.259,1.25-.424,1.875a1.822,1.822,0,0,1-.4.625.82.82,0,0,1-.965.063c-.33-.208-.494-.542-.306-.833a3.78,3.78,0,0,0,.447-1.812.8.8,0,0,1,1.06-.729.749.749,0,0,1,.589.812" transform="translate(-61.822 -108.192)"/>
    <path id="Path_10547" data-name="Path 10547" d="M174.355,141.29a.752.752,0,0,1,.612.271c.165.167.353.354.542.521a1.32,1.32,0,0,0,.824.354.764.764,0,0,1,.754.729.739.739,0,0,1-.848.646,2.783,2.783,0,0,1-1.813-.687,3.632,3.632,0,0,1-.777-.9c-.306-.458.071-.937.706-.937" transform="translate(-132.676 -111.854)"/>
    <path id="Path_10548" data-name="Path 10548" d="M115.2,140.26a.845.845,0,0,1-.824-.5,7.186,7.186,0,0,1-.353-1.208,7.593,7.593,0,0,1-.141-1.021.642.642,0,0,1,.636-.75.754.754,0,0,1,.918.646c.047.292.071.583.141.875a6.944,6.944,0,0,0,.33.979c.235.5-.094.979-.706.979" transform="translate(-87.063 -108.282)"/>
    <path id="Path_10549" data-name="Path 10549" d="M30.637,122.228c-.047.167-.094.417-.165.646-.141.5-.306.979-.471,1.479a1.252,1.252,0,0,1-.306.458.819.819,0,0,1-.871.1.635.635,0,0,1-.377-.708c.212-.771.424-1.521.659-2.292a.8.8,0,0,1,.871-.458.72.72,0,0,1,.659.771" transform="translate(-21.736 -96.146)"/>
    <path id="Path_10550" data-name="Path 10550" d="M167.4,125.05a.8.8,0,0,1-.777-.5c-.259-.75-.471-1.521-.683-2.292-.094-.312.212-.646.612-.729a.792.792,0,0,1,.895.437c.235.771.471,1.542.683,2.312a.677.677,0,0,1-.73.771" transform="translate(-126.856 -96.197)"/>
    <path id="Path_10551" data-name="Path 10551" d="M16.194,143.844a.863.863,0,0,1-.871-.437.634.634,0,0,1,.235-.792.791.791,0,0,1,.424-.146,1.593,1.593,0,0,0,1.107-.521c.118-.125.235-.271.377-.4a.848.848,0,0,1,1.036-.125.617.617,0,0,1,.188.958,3.433,3.433,0,0,1-2.166,1.437c-.047,0-.094.021-.141.021Z" transform="translate(-11.673 -111.867)"/>
    <path id="Path_10552" data-name="Path 10552" d="M86.2,98.824v.833a.792.792,0,0,1-.824.729.726.726,0,0,1-.777-.75c0-.542,0-1.083.024-1.646a.82.82,0,0,1,1.484-.292,1.58,1.58,0,0,1,.094.313,2.46,2.46,0,0,1,0,.417v.4" transform="translate(-64.679 -77.054)"/>
    <path id="Path_10553" data-name="Path 10553" d="M112.381,98.874V98.1a.787.787,0,0,1,.754-.708.808.808,0,0,1,.824.646c.024.6.047,1.187.024,1.792,0,.354-.377.6-.777.6a.765.765,0,0,1-.8-.667,5.758,5.758,0,0,1-.024-.9" transform="translate(-85.914 -77.105)"/>
    <path id="Path_10554" data-name="Path 10554" d="M79.552,23.088H73.618c-.565,0-.918-.292-.918-.75a.7.7,0,0,1,.706-.667q1.307-.031,2.614,0c.235,0,.283-.062.33-.25a3.091,3.091,0,0,1,2.472-2.4A3.213,3.213,0,0,1,82.8,21.4c.047.208.118.25.33.25h2.52a.735.735,0,0,1,.8.667c0,.417-.259.687-.754.729h-.259c-1.978.042-3.932.042-5.887.042m1.672-1.437a1.578,1.578,0,0,0-1.719-1.25,1.452,1.452,0,0,0-1.554,1.25Z" transform="translate(-55.581 -15.005)"/>
  </g>
</svg>
