<svg xmlns="http://www.w3.org/2000/svg" width="32" height="48" viewBox="0 0 32 48">
  <path id="Path_10529" data-name="Path 10529" d="M28.806,0H3.215C1.324,0,0,1.541,0,3.743V44.232C0,46.459,1.324,48,3.236,48H22.8v-.024a1.656,1.656,0,0,1,.357.024h5.589C30.676,48,32,46.459,32,44.232V3.743C32,1.541,30.7,0,28.806,0M29.92,29.187c0,4.991,0,9.982-.021,14.924,0,.93-.378,1.394-1.177,1.394H3.215c-.777,0-1.177-.465-1.177-1.346V14.165c0-.905.4-1.37,1.2-1.37,8.489,0,16.977.024,25.466,0a1.25,1.25,0,0,1,1.219,1.419Zm0-20.086c0,.807-.42,1.3-1.114,1.3H15.968c-4.244.024-8.467.024-12.712,0-.819,0-1.2-.44-1.2-1.394V3.743c0-.905.4-1.37,1.177-1.37h25.55c.735,0,1.135.465,1.135,1.321Z"/>
</svg>
