<?xml version="1.0" encoding="UTF-8"?><svg id="Layer_2" xmlns="http://www.w3.org/2000/svg" xmlns:xlink="http://www.w3.org/1999/xlink" viewBox="0 0 923.13 274.17"><defs><style>.cls-1{fill:url(#linear-gradient);}.cls-2{fill:#00c1ff;}.cls-3{fill:#fff;}.cls-4{fill:#a6a6a6;}.cls-5{fill:url(#linear-gradient-3);}.cls-6{fill:url(#linear-gradient-4);}.cls-7{fill:url(#linear-gradient-2);}</style><linearGradient id="linear-gradient" x1="1922.4" y1="1146.12" x2="1782.27" y2="1415.61" gradientTransform="translate(-304.22 -428.77) scale(.22 .43)" gradientUnits="userSpaceOnUse"><stop offset="0" stop-color="#00a0ff"/><stop offset="0" stop-color="#00a1ff"/><stop offset=".26" stop-color="#00beff"/><stop offset=".51" stop-color="#00d2ff"/><stop offset=".76" stop-color="#00dfff"/><stop offset="1" stop-color="#00e3ff"/></linearGradient><linearGradient id="linear-gradient-2" x1="1284.23" y1="1876.99" x2="799.23" y2="1876.99" gradientTransform="translate(-206.69 -384.29) scale(.34 .28)" gradientUnits="userSpaceOnUse"><stop offset="0" stop-color="#ffe000"/><stop offset=".41" stop-color="#ffbd00"/><stop offset=".78" stop-color="orange"/><stop offset="1" stop-color="#ff9c00"/></linearGradient><linearGradient id="linear-gradient-3" x1="1291.62" y1="1764.35" x2="849.54" y2="2103.2" gradientTransform="translate(-290.58 -320.64) scale(.35 .27)" gradientUnits="userSpaceOnUse"><stop offset="0" stop-color="#ff3a44"/><stop offset="1" stop-color="#c31162"/></linearGradient><linearGradient id="linear-gradient-4" x1="950.3" y1="1682" x2="1147.4" y2="1833.3" gradientTransform="translate(-290.51 -407.53) scale(.35 .27)" gradientUnits="userSpaceOnUse"><stop offset="0" stop-color="#32a071"/><stop offset=".07" stop-color="#2da771"/><stop offset=".48" stop-color="#15cf74"/><stop offset=".8" stop-color="#06e775"/><stop offset="1" stop-color="#00f076"/></linearGradient></defs><g id="Layer_1-2"><g><path d="M888.89,274.17H34.19c-18.8,0-34.19-15.41-34.19-34.24V34.47C0,15.63,15.38,.22,34.19,.22H888.89c18.8,0,34.19,15.41,34.19,34.24V239.92c0,18.83-15.38,34.24-34.19,34.24"/><path class="cls-4" d="M888.94,0H34.24C15.44,0,.06,15.41,.06,34.24V239.7c0,18.83,15.38,34.24,34.19,34.24H888.94c18.8,0,34.19-15.41,34.19-34.24V34.24c0-18.83-15.38-34.24-34.19-34.24m0,5.48c15.84,0,28.72,12.91,28.72,28.76V239.7c0,15.86-12.88,28.77-28.72,28.77H34.24c-15.83,0-28.72-12.91-28.72-28.77V34.24c0-15.86,12.88-28.76,28.72-28.76H888.94"/><path class="cls-3" d="M731.24,176.83h12.76V91.21h-12.76v85.62Zm114.92-54.78l-14.63,37.12h-.44l-15.18-37.12h-13.74l22.76,51.88-12.98,28.86h13.31l35.08-80.74h-14.19Zm-72.36,45.05c-4.18,0-10.01-2.09-10.01-7.27,0-6.61,7.26-9.14,13.52-9.14,5.61,0,8.25,1.21,11.66,2.87-.99,7.93-7.81,13.55-15.17,13.55h0Zm1.54-46.92c-9.24,0-18.8,4.08-22.76,13.11l11.32,4.74c2.42-4.74,6.93-6.28,11.66-6.28,6.6,0,13.31,3.97,13.42,11.02v.88c-2.31-1.32-7.25-3.3-13.31-3.3-12.21,0-24.64,6.72-24.64,19.28,0,11.46,10.01,18.84,21.22,18.84,8.58,0,13.31-3.86,16.28-8.37h.44v6.61h12.31v-32.83c0-15.2-11.32-23.68-25.95-23.68h0Zm-78.85,12.3h-18.15v-29.35h18.15c9.54,0,14.95,7.91,14.95,14.67s-5.42,14.67-14.95,14.67Zm-.33-41.26h-30.57v85.62h12.75v-32.44h17.82c14.14,0,28.04-10.25,28.04-26.59s-13.9-26.59-28.04-26.59h0Zm-166.71,75.91c-8.81,0-16.19-7.39-16.19-17.54s7.38-17.76,16.19-17.76,15.53,7.5,15.53,17.76-6.83,17.54-15.53,17.54h0Zm14.65-40.27h-.44c-2.86-3.42-8.37-6.51-15.31-6.51-14.54,0-27.87,12.8-27.87,29.24s13.33,29.02,27.87,29.02c6.94,0,12.45-3.09,15.31-6.62h.44v4.19c0,11.15-5.95,17.1-15.53,17.1-7.82,0-12.67-5.63-14.65-10.37l-11.12,4.63c3.19,7.72,11.68,17.21,25.78,17.21,14.98,0,27.65-8.83,27.65-30.34v-52.3h-12.12v4.74Zm20.93,49.98h12.78V91.21h-12.78v85.62Zm31.62-28.25c-.33-11.26,8.7-16.99,15.2-16.99,5.07,0,9.36,2.54,10.79,6.18l-25.99,10.81Zm39.66-9.71c-2.42-6.51-9.81-18.54-24.9-18.54s-27.43,11.81-27.43,29.13c0,16.33,12.34,29.13,28.86,29.13,13.33,0,21.04-8.17,24.24-12.91l-9.91-6.62c-3.3,4.86-7.82,8.06-14.32,8.06s-11.12-2.98-14.1-8.83l38.88-16.11-1.32-3.31Zm-309.8-9.6v12.36h29.52c-.88,6.95-3.19,12.03-6.72,15.56-4.29,4.3-11.01,9.05-22.8,9.05-18.18,0-32.39-14.67-32.39-32.88s14.21-32.88,32.39-32.88c9.8,0,16.96,3.86,22.25,8.83l8.7-8.72c-7.38-7.06-17.18-12.47-30.95-12.47-24.9,0-45.83,20.3-45.83,45.24s20.93,45.24,45.83,45.24c13.44,0,23.57-4.41,31.5-12.69,8.15-8.17,10.69-19.64,10.69-28.91,0-2.87-.22-5.52-.66-7.72h-41.53Zm75.75,37.84c-8.81,0-16.42-7.28-16.42-17.65s7.6-17.65,16.42-17.65,16.41,7.17,16.41,17.65-7.6,17.65-16.41,17.65Zm0-46.78c-16.08,0-29.19,12.25-29.19,29.13s13.11,29.13,29.19,29.13,29.19-12.36,29.19-29.13-13.11-29.13-29.19-29.13Zm63.68,46.78c-8.81,0-16.41-7.28-16.41-17.65s7.6-17.65,16.41-17.65,16.41,7.17,16.41,17.65-7.6,17.65-16.41,17.65h0Zm0-46.78c-16.08,0-29.19,12.25-29.19,29.13s13.11,29.13,29.19,29.13,29.19-12.36,29.19-29.13-13.11-29.13-29.19-29.13h0Z"/><path class="cls-2" d="M71.91,52.13c-2.29,2.07-3.66,5.53-3.66,10.12V211.71c0,4.24,1.17,7.51,3.16,9.62l.51,.49h0c1.61,1.46,3.68,2.23,6.04,2.23,2.31,0,4.91-.74,7.66-2.3l99.25-56.48,34.09-19.4c4.33-2.46,6.76-5.64,7.17-8.88h0c-.41-3.26-2.84-6.43-7.17-8.9l-34.09-19.4L85.62,52.21c-2.75-1.56-5.36-2.3-7.67-2.3s-4.43,.77-6.04,2.22h0Z"/><path class="cls-1" d="M71.92,221.82l-.51-.49c-1.99-2.11-3.16-5.38-3.16-9.62V62.25c0-4.59,1.37-8.05,3.66-10.12l84.72,84.85-84.71,84.85"/><path class="cls-7" d="M184.87,165.27l-28.24-28.29,28.24-28.29,34.09,19.4c4.33,2.46,6.76,5.64,7.17,8.88h0c-.41,3.25-2.84,6.43-7.17,8.89l-34.09,19.4"/><path class="cls-5" d="M77.96,224.05c-2.37,0-4.43-.77-6.04-2.23h0s84.71-84.85,84.71-84.85l28.24,28.29-99.25,56.48c-2.75,1.56-5.35,2.3-7.66,2.3"/><path class="cls-6" d="M156.63,136.98L71.91,52.13c1.61-1.45,3.67-2.22,6.04-2.22s4.92,.74,7.67,2.3l99.25,56.48-28.24,28.29"/></g></g></svg>