<svg xmlns="http://www.w3.org/2000/svg" width="70.768" height="99.759" viewBox="0 0 70.768 99.759">
  <path id="Path_2274" data-name="Path 2274" d="M31.292,5.986A2.07,2.07,0,0,0,29.115,7.93v9.587H20.269c-6.08,0-11.057,4.316-11.057,9.587v5.752a1.937,1.937,0,1,0,0,3.835V82.709a1.937,1.937,0,1,0,0,3.835V92.3c0,5.271,4.978,9.587,11.057,9.587V103.8c-.042,2.593,4.465,2.593,4.423,0v-1.917H60.075V103.8c-.042,2.593,4.465,2.593,4.423,0v-1.917c6.08,0,11.057-4.316,11.057-9.587V86.544a1.937,1.937,0,1,0,0-3.835V36.691a1.937,1.937,0,1,0,0-3.835V27.1c0-5.271-4.978-9.587-11.057-9.587H55.652V7.93a2.23,2.23,0,0,0-4.423,0v9.587H44.6V13.682H45.7a2.08,2.08,0,0,0,2.212-1.917A2.08,2.08,0,0,0,45.7,9.847H44.6a2.23,2.23,0,0,0-4.423,0H39.066a2.08,2.08,0,0,0-2.212,1.917,2.08,2.08,0,0,0,2.212,1.918h1.106v3.835H33.538V7.93a2.081,2.081,0,0,0-2.246-1.944ZM20.269,21.352H64.5c3.686,0,6.634,2.556,6.634,5.752v5.752h-57.5V27.1C13.634,23.908,16.582,21.352,20.269,21.352ZM13.634,36.691h57.5V82.709h-57.5ZM47.328,46.709a2.11,2.11,0,0,0-2.112,1.7s-.894,4.633-3.451,6.554a13.1,13.1,0,0,1-4.548,2.131,20.648,20.648,0,0,0-5.585,2.273A10.581,10.581,0,0,0,27.49,64.46a9.329,9.329,0,0,0-.665,5.018,1.98,1.98,0,0,0,1.373,1.56,2.485,2.485,0,0,0,2.236-.3,1.784,1.784,0,0,0,.758-1.849,7.162,7.162,0,0,1,3.062-6.43,16.6,16.6,0,0,1,4.419-1.741,18.253,18.253,0,0,0,5.986-2.85s0,0,0,0a11.623,11.623,0,0,0,2.661-2.824c.306,2.307.015,4.581-2.592,6.291s-3.8,4.031-3.473,6.108a5.477,5.477,0,0,0,4.306,4.284,7.833,7.833,0,0,0,5.343-.6,8.745,8.745,0,0,0,1.028-.835c-.1.261.055.277-.086.573a1.709,1.709,0,0,0,.238,1.951,2.381,2.381,0,0,0,2.093.748,2.168,2.168,0,0,0,1.755-1.239,8.491,8.491,0,0,0,.726-6.355,6.21,6.21,0,0,0-1.624-2.483,2.454,2.454,0,0,0-2-.469,2.149,2.149,0,0,0-1.57,1.169c-1.043,2.307-2.12,3.279-2.842,3.655a2.388,2.388,0,0,1-1.892.187,1.426,1.426,0,0,1-1.093-1.112c-.089-.56.065-1.413,1.754-2.52A9.993,9.993,0,0,0,51.682,53.6a18.761,18.761,0,0,0-2.337-5.909,2.3,2.3,0,0,0-2.017-.985ZM13.634,86.543h57.5V92.3c0,3.2-2.948,5.752-6.634,5.752H20.269c-3.686,0-6.634-2.556-6.634-5.752Z" transform="translate(-7 -5.986)" fill="#ff7542"/>
</svg>
