<svg xmlns="http://www.w3.org/2000/svg" width="132.234" height="214.995" viewBox="0 0 132.234 214.995">
  <path id="Path_3870" data-name="Path 3870" d="M52.39,5.987a4.133,4.133,0,0,0-4.068,4.189V30.837H31.794A20.727,20.727,0,0,0,11.132,51.5V63.9a4.132,4.132,0,1,0,0,8.265v99.174a4.132,4.132,0,1,0,0,8.265V192a20.727,20.727,0,0,0,20.661,20.661v4.132c-.079,5.588,8.343,5.588,8.265,0v-4.132h66.116v4.132c-.079,5.588,8.343,5.588,8.265,0v-4.132A20.727,20.727,0,0,0,135.1,192V179.6a4.132,4.132,0,1,0,0-8.265V72.16a4.132,4.132,0,1,0,0-8.265V51.5a20.727,20.727,0,0,0-20.661-20.661H97.91V10.176a4.133,4.133,0,1,0-8.264,0V30.837h-12.4V22.572h2.066a4.132,4.132,0,1,0,0-8.265H77.249a4.133,4.133,0,1,0-8.264,0H66.918a4.132,4.132,0,1,0,0,8.265h2.066v8.265h-12.4V10.176a4.133,4.133,0,0,0-4.2-4.189ZM31.794,39.1h82.646a12.344,12.344,0,0,1,12.4,12.4V63.9H19.4V51.5A12.344,12.344,0,0,1,31.794,39.1ZM19.4,72.16H126.836v99.175H19.4Zm62.959,21.59a4.133,4.133,0,0,0-3.947,3.664s-1.671,9.985-6.448,14.124a23.161,23.161,0,0,1-8.5,4.592c-3.041,1.06-6.693,2.145-10.436,4.9A22.5,22.5,0,0,0,45.287,132a22.948,22.948,0,0,0-1.243,10.815,4.133,4.133,0,1,0,8.16-1.275,16.85,16.85,0,0,1,.9-6.86,14.5,14.5,0,0,1,4.818-7c2.518-1.853,5-2.618,8.256-3.753a32.3,32.3,0,0,0,11.186-6.142s0-.005,0-.008A23.993,23.993,0,0,0,82.34,111.7c.572,4.972.029,9.874-4.843,13.559s-7.108,8.688-6.489,13.163a11.14,11.14,0,0,0,8.047,9.233,12.882,12.882,0,0,0,9.984-1.3,17.047,17.047,0,0,0,1.921-1.8c-.178.563.1.6-.161,1.235a4.133,4.133,0,1,0,7.635,3.148c2.359-5.714,2.3-10.426,1.356-13.7a13.561,13.561,0,0,0-3.035-5.351,4.133,4.133,0,0,0-6.667,1.509c-1.949,4.971-3.961,7.066-5.311,7.877a3.937,3.937,0,0,1-3.535.4,2.907,2.907,0,0,1-2.042-2.4c-.167-1.206.121-3.044,3.277-5.432,8.35-6.318,9.245-16.073,8.015-23.244a43.976,43.976,0,0,0-4.366-12.736,4.133,4.133,0,0,0-3.769-2.123ZM19.4,179.6H126.836v12.4a12.344,12.344,0,0,1-12.4,12.4H31.794a12.344,12.344,0,0,1-12.4-12.4Z" transform="translate(-7 -5.986)" fill="#e4e4e4" opacity="0.197"/>
</svg>
