<svg xmlns="http://www.w3.org/2000/svg" width="108.892" height="165.239" viewBox="0 0 108.892 165.239">
    <g id="Group_3683" data-name="Group 3683" opacity="0.198">
      <path id="Path_2267" data-name="Path 2267" d="M135.135,9.4H31.807A2.915,2.915,0,0,0,28.9,12.307v152.74a2.915,2.915,0,0,0,2.907,2.907h10.9v5.087a1.6,1.6,0,0,0,3.2,0v-5.087h3.779v5.087a1.6,1.6,0,0,0,3.2,0v-5.087h60.893v5.087a1.6,1.6,0,0,0,3.2,0v-5.087h3.779v5.087a1.6,1.6,0,1,0,3.2,0v-5.087h10.9a2.915,2.915,0,0,0,2.907-2.907V12.307A2.465,2.465,0,0,0,135.135,9.4ZM34.713,90.784h97.515v24.27H34.713Zm97.515-75.571V87.587H34.713V15.213ZM34.713,162V118.4h97.515V162.14H34.713Z" transform="translate(-28.9 -9.4)" fill="#e4e4e4"/>
      <path id="Path_2268" data-name="Path 2268" d="M70.752,89.6a14.024,14.024,0,0,0,0,28.048,14.024,14.024,0,1,0,0-28.048Zm0,24.706a10.754,10.754,0,1,1,10.754-10.754A10.73,10.73,0,0,1,70.752,114.306Z" transform="translate(-16.253 26.954)" fill="#e4e4e4"/>
      <path id="Path_2269" data-name="Path 2269" d="M68.485,69.1a6.685,6.685,0,1,0,6.685,6.685A6.576,6.576,0,0,0,68.485,69.1Zm0,10.173a3.488,3.488,0,1,1,3.488-3.488A3.536,3.536,0,0,1,68.485,79.273Z" transform="translate(-13.987 17.661)" fill="#e4e4e4"/>
    </g>
  </svg>  