<svg xmlns="http://www.w3.org/2000/svg" width="101.662" height="44.053" viewBox="0 0 101.662 44.053">
    <path id="Path_48" data-name="Path 48" d="M93.19.5H8.472A8.482,8.482,0,0,0,0,8.972v27.11a8.482,8.482,0,0,0,8.472,8.472H93.19a8.482,8.482,0,0,0,8.472-8.472V8.972A8.482,8.482,0,0,0,93.19.5ZM86.413,41.165H15.249V36.082a1.694,1.694,0,0,1,1.694-1.694H84.718a1.694,1.694,0,0,1,1.694,1.694Zm11.861-5.083a5.083,5.083,0,0,1-5.083,5.083H89.8V36.082A5.083,5.083,0,0,0,84.718,31H16.944a5.083,5.083,0,0,0-5.083,5.083v5.083H8.472a5.083,5.083,0,0,1-5.083-5.083V8.972A5.083,5.083,0,0,1,8.472,3.889H93.19a5.083,5.083,0,0,1,5.083,5.083Zm0,0" transform="translate(0 -0.5)" fill="#4e5cf0"/>
  </svg> 